%TF.GenerationSoftware,KiCad,Pcbnew,9.0.0*%
%TF.CreationDate,2025-04-19T22:44:30-05:00*%
%TF.ProjectId,HASP_Power_System,48415350-5f50-46f7-9765-725f53797374,rev?*%
%TF.SameCoordinates,Original*%
%TF.FileFunction,Paste,Top*%
%TF.FilePolarity,Positive*%
%FSLAX46Y46*%
G04 Gerber Fmt 4.6, Leading zero omitted, Abs format (unit mm)*
G04 Created by KiCad (PCBNEW 9.0.0) date 2025-04-19 22:44:30*
%MOMM*%
%LPD*%
G01*
G04 APERTURE LIST*
G04 Aperture macros list*
%AMRoundRect*
0 Rectangle with rounded corners*
0 $1 Rounding radius*
0 $2 $3 $4 $5 $6 $7 $8 $9 X,Y pos of 4 corners*
0 Add a 4 corners polygon primitive as box body*
4,1,4,$2,$3,$4,$5,$6,$7,$8,$9,$2,$3,0*
0 Add four circle primitives for the rounded corners*
1,1,$1+$1,$2,$3*
1,1,$1+$1,$4,$5*
1,1,$1+$1,$6,$7*
1,1,$1+$1,$8,$9*
0 Add four rect primitives between the rounded corners*
20,1,$1+$1,$2,$3,$4,$5,0*
20,1,$1+$1,$4,$5,$6,$7,0*
20,1,$1+$1,$6,$7,$8,$9,0*
20,1,$1+$1,$8,$9,$2,$3,0*%
G04 Aperture macros list end*
%ADD10RoundRect,0.250000X-0.475000X0.250000X-0.475000X-0.250000X0.475000X-0.250000X0.475000X0.250000X0*%
%ADD11RoundRect,0.250000X0.250000X0.475000X-0.250000X0.475000X-0.250000X-0.475000X0.250000X-0.475000X0*%
%ADD12R,1.800000X0.700000*%
%ADD13R,2.200000X1.600000*%
%ADD14R,1.600000X2.200000*%
%ADD15R,0.700000X1.800000*%
%ADD16R,0.449999X1.450000*%
%ADD17R,1.450000X0.449999*%
%ADD18RoundRect,0.250000X-0.262500X-0.450000X0.262500X-0.450000X0.262500X0.450000X-0.262500X0.450000X0*%
%ADD19RoundRect,0.250000X0.262500X0.450000X-0.262500X0.450000X-0.262500X-0.450000X0.262500X-0.450000X0*%
%ADD20RoundRect,0.250000X-0.250000X-0.475000X0.250000X-0.475000X0.250000X0.475000X-0.250000X0.475000X0*%
%ADD21RoundRect,0.250000X-0.450000X0.262500X-0.450000X-0.262500X0.450000X-0.262500X0.450000X0.262500X0*%
%ADD22RoundRect,0.250000X0.450000X-0.262500X0.450000X0.262500X-0.450000X0.262500X-0.450000X-0.262500X0*%
%ADD23RoundRect,0.250000X0.475000X-0.250000X0.475000X0.250000X-0.475000X0.250000X-0.475000X-0.250000X0*%
G04 APERTURE END LIST*
D10*
%TO.C,C6*%
X147828000Y-74488000D03*
X147828000Y-76388000D03*
%TD*%
D11*
%TO.C,C5*%
X167574000Y-75184000D03*
X165674000Y-75184000D03*
%TD*%
D12*
%TO.C,J19*%
X192204000Y-120279000D03*
X192204000Y-121529000D03*
D13*
X189504000Y-118029000D03*
X189504000Y-123779000D03*
%TD*%
D11*
%TO.C,C4*%
X152588000Y-119126000D03*
X150688000Y-119126000D03*
%TD*%
%TO.C,C3*%
X144714000Y-105918000D03*
X142814000Y-105918000D03*
%TD*%
D14*
%TO.C,J2*%
X155070000Y-70220000D03*
X149320000Y-70220000D03*
D15*
X152820000Y-67520000D03*
X151570000Y-67520000D03*
%TD*%
D14*
%TO.C,J3*%
X164350000Y-70210000D03*
X158600000Y-70210000D03*
D15*
X162100000Y-67510000D03*
X160850000Y-67510000D03*
%TD*%
D14*
%TO.C,J4*%
X146170000Y-70210000D03*
X140420000Y-70210000D03*
D15*
X143920000Y-67510000D03*
X142670000Y-67510000D03*
%TD*%
D13*
%TO.C,J17*%
X189590000Y-114065000D03*
X189590000Y-108315000D03*
D12*
X192290000Y-111815000D03*
X192290000Y-110565000D03*
%TD*%
D13*
%TO.C,J21*%
X181450000Y-93553000D03*
X181450000Y-87803000D03*
D12*
X184150000Y-91303000D03*
X184150000Y-90053000D03*
%TD*%
D16*
%TO.C,U1*%
X154335001Y-123500001D03*
X154984999Y-123500001D03*
X155635001Y-123500001D03*
X156284999Y-123500001D03*
X156284999Y-119099999D03*
X155635001Y-119099999D03*
X154984999Y-119099999D03*
X154335001Y-119099999D03*
%TD*%
D17*
%TO.C,U2*%
X144609999Y-104084999D03*
X144609999Y-103435001D03*
X144609999Y-102784999D03*
X144609999Y-102135001D03*
X149010001Y-102135001D03*
X149010001Y-102784999D03*
X149010001Y-103435001D03*
X149010001Y-104084999D03*
%TD*%
D18*
%TO.C,R12*%
X155297500Y-104530000D03*
X157122500Y-104530000D03*
%TD*%
D19*
%TO.C,R11*%
X157132500Y-102310000D03*
X155307500Y-102310000D03*
%TD*%
D18*
%TO.C,R10*%
X151427500Y-103260000D03*
X153252500Y-103260000D03*
%TD*%
%TO.C,R9*%
X147677500Y-105918000D03*
X149502500Y-105918000D03*
%TD*%
D20*
%TO.C,C2*%
X143120000Y-108720000D03*
X145020000Y-108720000D03*
%TD*%
D21*
%TO.C,R6*%
X119250000Y-81292500D03*
X119250000Y-79467500D03*
%TD*%
D18*
%TO.C,R5*%
X152492500Y-123510000D03*
X150667500Y-123510000D03*
%TD*%
%TO.C,R4*%
X160152500Y-125250000D03*
X158327500Y-125250000D03*
%TD*%
D22*
%TO.C,R3*%
X162160000Y-122857500D03*
X162160000Y-124682500D03*
%TD*%
%TO.C,R2*%
X162270000Y-126767500D03*
X162270000Y-128592500D03*
%TD*%
D21*
%TO.C,R7*%
X119180000Y-76682500D03*
X119180000Y-74857500D03*
%TD*%
D23*
%TO.C,C1*%
X148420000Y-121690000D03*
X148420000Y-123590000D03*
%TD*%
M02*
