%TF.GenerationSoftware,KiCad,Pcbnew,9.0.0*%
%TF.CreationDate,2025-04-19T22:44:30-05:00*%
%TF.ProjectId,HASP_Power_System,48415350-5f50-46f7-9765-725f53797374,rev?*%
%TF.SameCoordinates,Original*%
%TF.FileFunction,Soldermask,Top*%
%TF.FilePolarity,Negative*%
%FSLAX46Y46*%
G04 Gerber Fmt 4.6, Leading zero omitted, Abs format (unit mm)*
G04 Created by KiCad (PCBNEW 9.0.0) date 2025-04-19 22:44:30*
%MOMM*%
%LPD*%
G01*
G04 APERTURE LIST*
G04 Aperture macros list*
%AMRoundRect*
0 Rectangle with rounded corners*
0 $1 Rounding radius*
0 $2 $3 $4 $5 $6 $7 $8 $9 X,Y pos of 4 corners*
0 Add a 4 corners polygon primitive as box body*
4,1,4,$2,$3,$4,$5,$6,$7,$8,$9,$2,$3,0*
0 Add four circle primitives for the rounded corners*
1,1,$1+$1,$2,$3*
1,1,$1+$1,$4,$5*
1,1,$1+$1,$6,$7*
1,1,$1+$1,$8,$9*
0 Add four rect primitives between the rounded corners*
20,1,$1+$1,$2,$3,$4,$5,0*
20,1,$1+$1,$4,$5,$6,$7,0*
20,1,$1+$1,$6,$7,$8,$9,0*
20,1,$1+$1,$8,$9,$2,$3,0*%
G04 Aperture macros list end*
%ADD10RoundRect,0.250000X-0.475000X0.250000X-0.475000X-0.250000X0.475000X-0.250000X0.475000X0.250000X0*%
%ADD11RoundRect,0.250000X0.250000X0.475000X-0.250000X0.475000X-0.250000X-0.475000X0.250000X-0.475000X0*%
%ADD12R,1.800000X0.700000*%
%ADD13R,2.200000X1.600000*%
%ADD14R,1.600000X2.200000*%
%ADD15R,0.700000X1.800000*%
%ADD16R,0.449999X1.450000*%
%ADD17R,1.450000X0.449999*%
%ADD18C,1.930400*%
%ADD19RoundRect,0.076200X-0.889000X-0.889000X0.889000X-0.889000X0.889000X0.889000X-0.889000X0.889000X0*%
%ADD20RoundRect,0.250000X-0.262500X-0.450000X0.262500X-0.450000X0.262500X0.450000X-0.262500X0.450000X0*%
%ADD21RoundRect,0.250000X0.262500X0.450000X-0.262500X0.450000X-0.262500X-0.450000X0.262500X-0.450000X0*%
%ADD22R,1.574800X1.574800*%
%ADD23C,1.574800*%
%ADD24C,2.336800*%
%ADD25RoundRect,0.250000X-0.250000X-0.475000X0.250000X-0.475000X0.250000X0.475000X-0.250000X0.475000X0*%
%ADD26R,1.800000X1.800000*%
%ADD27C,1.800000*%
%ADD28RoundRect,0.250000X-0.450000X0.262500X-0.450000X-0.262500X0.450000X-0.262500X0.450000X0.262500X0*%
%ADD29RoundRect,0.250000X0.450000X-0.262500X0.450000X0.262500X-0.450000X0.262500X-0.450000X-0.262500X0*%
%ADD30RoundRect,0.250000X0.475000X-0.250000X0.475000X0.250000X-0.475000X0.250000X-0.475000X-0.250000X0*%
%ADD31RoundRect,1.500000X-1.500000X-1.500000X1.500000X-1.500000X1.500000X1.500000X-1.500000X1.500000X0*%
%ADD32C,6.000000*%
%ADD33R,1.700000X1.700000*%
%ADD34O,1.700000X1.700000*%
%ADD35RoundRect,0.200000X-0.450000X0.200000X-0.450000X-0.200000X0.450000X-0.200000X0.450000X0.200000X0*%
%ADD36O,1.300000X0.800000*%
%ADD37C,1.300000*%
%ADD38R,1.300000X1.300000*%
%ADD39C,1.600000*%
%ADD40R,1.600000X1.600000*%
G04 APERTURE END LIST*
D10*
%TO.C,C6*%
X147828000Y-74488000D03*
X147828000Y-76388000D03*
%TD*%
D11*
%TO.C,C5*%
X167574000Y-75184000D03*
X165674000Y-75184000D03*
%TD*%
D12*
%TO.C,J19*%
X192204000Y-120279000D03*
X192204000Y-121529000D03*
D13*
X189504000Y-118029000D03*
X189504000Y-123779000D03*
%TD*%
D11*
%TO.C,C4*%
X152588000Y-119126000D03*
X150688000Y-119126000D03*
%TD*%
%TO.C,C3*%
X144714000Y-105918000D03*
X142814000Y-105918000D03*
%TD*%
D14*
%TO.C,J2*%
X155070000Y-70220000D03*
X149320000Y-70220000D03*
D15*
X152820000Y-67520000D03*
X151570000Y-67520000D03*
%TD*%
D14*
%TO.C,J3*%
X164350000Y-70210000D03*
X158600000Y-70210000D03*
D15*
X162100000Y-67510000D03*
X160850000Y-67510000D03*
%TD*%
D14*
%TO.C,J4*%
X146170000Y-70210000D03*
X140420000Y-70210000D03*
D15*
X143920000Y-67510000D03*
X142670000Y-67510000D03*
%TD*%
D13*
%TO.C,J17*%
X189590000Y-114065000D03*
X189590000Y-108315000D03*
D12*
X192290000Y-111815000D03*
X192290000Y-110565000D03*
%TD*%
D13*
%TO.C,J21*%
X181450000Y-93553000D03*
X181450000Y-87803000D03*
D12*
X184150000Y-91303000D03*
X184150000Y-90053000D03*
%TD*%
D16*
%TO.C,U1*%
X154335001Y-123500001D03*
X154984999Y-123500001D03*
X155635001Y-123500001D03*
X156284999Y-123500001D03*
X156284999Y-119099999D03*
X155635001Y-119099999D03*
X154984999Y-119099999D03*
X154335001Y-119099999D03*
%TD*%
D17*
%TO.C,U2*%
X144609999Y-104084999D03*
X144609999Y-103435001D03*
X144609999Y-102784999D03*
X144609999Y-102135001D03*
X149010001Y-102135001D03*
X149010001Y-102784999D03*
X149010001Y-103435001D03*
X149010001Y-104084999D03*
%TD*%
D18*
%TO.C,J23*%
X144150000Y-94781300D03*
X144150000Y-92241300D03*
X144150000Y-89701300D03*
X144150000Y-87161300D03*
D19*
X144150000Y-84621300D03*
%TD*%
D20*
%TO.C,R12*%
X155297500Y-104530000D03*
X157122500Y-104530000D03*
%TD*%
D21*
%TO.C,R11*%
X157132500Y-102310000D03*
X155307500Y-102310000D03*
%TD*%
D20*
%TO.C,R10*%
X151427500Y-103260000D03*
X153252500Y-103260000D03*
%TD*%
%TO.C,R9*%
X147677500Y-105918000D03*
X149502500Y-105918000D03*
%TD*%
D22*
%TO.C,R8*%
X147701000Y-109474000D03*
D23*
X167259000Y-109474000D03*
%TD*%
D22*
%TO.C,R1*%
X179819000Y-102860000D03*
D23*
X160261000Y-102860000D03*
%TD*%
D24*
%TO.C,J22*%
X159122000Y-91180000D03*
X159122000Y-87680000D03*
%TD*%
D25*
%TO.C,C2*%
X143120000Y-108720000D03*
X145020000Y-108720000D03*
%TD*%
D26*
%TO.C,D2*%
X116920000Y-75200000D03*
D27*
X114380000Y-75200000D03*
%TD*%
D26*
%TO.C,D1*%
X116944600Y-79640200D03*
D27*
X114404600Y-79640200D03*
%TD*%
D18*
%TO.C,J18*%
X167030000Y-128610000D03*
X167030000Y-126070000D03*
X167030000Y-123530000D03*
X167030000Y-120990000D03*
D19*
X167030000Y-118450000D03*
%TD*%
D24*
%TO.C,J20*%
X181942000Y-125016949D03*
X181942000Y-121516949D03*
%TD*%
D28*
%TO.C,R6*%
X119250000Y-81292500D03*
X119250000Y-79467500D03*
%TD*%
D20*
%TO.C,R5*%
X152492500Y-123510000D03*
X150667500Y-123510000D03*
%TD*%
%TO.C,R4*%
X160152500Y-125250000D03*
X158327500Y-125250000D03*
%TD*%
D29*
%TO.C,R3*%
X162160000Y-122857500D03*
X162160000Y-124682500D03*
%TD*%
%TO.C,R2*%
X162270000Y-126767500D03*
X162270000Y-128592500D03*
%TD*%
D28*
%TO.C,R7*%
X119180000Y-76682500D03*
X119180000Y-74857500D03*
%TD*%
D30*
%TO.C,C1*%
X148420000Y-121690000D03*
X148420000Y-123590000D03*
%TD*%
D31*
%TO.C,J16*%
X171080000Y-70510000D03*
D32*
X178280000Y-70510000D03*
%TD*%
D33*
%TO.C,J15*%
X143360000Y-138030000D03*
D34*
X140820000Y-138030000D03*
X138280000Y-138030000D03*
%TD*%
D33*
%TO.C,J14*%
X154170000Y-138080000D03*
D34*
X151630000Y-138080000D03*
X149090000Y-138080000D03*
%TD*%
D33*
%TO.C,J13*%
X164160000Y-138070000D03*
D34*
X161620000Y-138070000D03*
X159080000Y-138070000D03*
%TD*%
D33*
%TO.C,J12*%
X174570000Y-138040000D03*
D34*
X172030000Y-138040000D03*
X169490000Y-138040000D03*
%TD*%
D33*
%TO.C,J11*%
X115520000Y-125900000D03*
D34*
X115520000Y-128440000D03*
X115520000Y-130980000D03*
%TD*%
D33*
%TO.C,J10*%
X115510000Y-115990000D03*
D34*
X115510000Y-118530000D03*
X115510000Y-121070000D03*
%TD*%
D33*
%TO.C,J9*%
X115540000Y-106250000D03*
D34*
X115540000Y-108790000D03*
X115540000Y-111330000D03*
%TD*%
D33*
%TO.C,J8*%
X115570000Y-96935000D03*
D34*
X115570000Y-99475000D03*
X115570000Y-102015000D03*
%TD*%
D35*
%TO.C,J7*%
X189200000Y-95980000D03*
D36*
X189200000Y-97230000D03*
X189200000Y-98480000D03*
X189200000Y-99730000D03*
X189200000Y-100980000D03*
%TD*%
D33*
%TO.C,J6*%
X115520000Y-92630000D03*
D34*
X115520000Y-90090000D03*
X115520000Y-87550000D03*
X115520000Y-85010000D03*
%TD*%
D33*
%TO.C,J5*%
X134580000Y-67945000D03*
D34*
X137120000Y-67945000D03*
%TD*%
D33*
%TO.C,J1*%
X175260000Y-79480000D03*
D34*
X172720000Y-79480000D03*
X170180000Y-79480000D03*
X167640000Y-79480000D03*
X165100000Y-79480000D03*
%TD*%
D37*
%TO.C,U3*%
X128290000Y-73600000D03*
X130830000Y-73600000D03*
X134741600Y-87840000D03*
X132741600Y-87840000D03*
X130741600Y-87840000D03*
X130741600Y-85840000D03*
X132741600Y-85840000D03*
D38*
X134741600Y-85840000D03*
D39*
X124990800Y-89329200D03*
X124990800Y-86789200D03*
X124990800Y-84249200D03*
X124990800Y-81709200D03*
D40*
X124990800Y-79169200D03*
D39*
X134640000Y-118590000D03*
X132100000Y-118590000D03*
X129560000Y-118590000D03*
X127020000Y-118590000D03*
X124480000Y-118590000D03*
X134640000Y-75410000D03*
X137180000Y-72870000D03*
X137180000Y-75410000D03*
X137180000Y-77950000D03*
X137180000Y-80490000D03*
X137180000Y-83030000D03*
X137180000Y-85570000D03*
X137180000Y-88110000D03*
X137180000Y-90650000D03*
X137180000Y-93190000D03*
X137180000Y-95730000D03*
X137180000Y-98270000D03*
X137180000Y-100810000D03*
X137180000Y-103350000D03*
X137180000Y-105890000D03*
X137180000Y-108430000D03*
X137180000Y-110970000D03*
X137180000Y-113510000D03*
X137180000Y-116050000D03*
X137180000Y-118590000D03*
X137180000Y-121130000D03*
X137180000Y-123670000D03*
X137180000Y-126210000D03*
X137180000Y-128750000D03*
X137180000Y-131290000D03*
X121940000Y-131290000D03*
X121940000Y-128750000D03*
X121940000Y-126210000D03*
X121940000Y-123670000D03*
X121940000Y-121130000D03*
X121940000Y-118590000D03*
X121940000Y-116050000D03*
X121940000Y-113510000D03*
X121940000Y-110970000D03*
X121940000Y-108430000D03*
X121940000Y-105890000D03*
X121940000Y-103350000D03*
X121940000Y-100810000D03*
X121940000Y-98270000D03*
X121940000Y-95730000D03*
X121940000Y-93190000D03*
X121940000Y-90650000D03*
X121940000Y-88110000D03*
X121940000Y-85570000D03*
X121940000Y-83030000D03*
X121940000Y-80490000D03*
X121940000Y-77950000D03*
X121940000Y-75410000D03*
D40*
X121940000Y-72870000D03*
%TD*%
M02*
