%TF.GenerationSoftware,KiCad,Pcbnew,9.0.0*%
%TF.CreationDate,2025-04-19T22:44:30-05:00*%
%TF.ProjectId,HASP_Power_System,48415350-5f50-46f7-9765-725f53797374,rev?*%
%TF.SameCoordinates,Original*%
%TF.FileFunction,Profile,NP*%
%FSLAX46Y46*%
G04 Gerber Fmt 4.6, Leading zero omitted, Abs format (unit mm)*
G04 Created by KiCad (PCBNEW 9.0.0) date 2025-04-19 22:44:30*
%MOMM*%
%LPD*%
G01*
G04 APERTURE LIST*
%TA.AperFunction,Profile*%
%ADD10C,0.200000*%
%TD*%
G04 APERTURE END LIST*
D10*
X193975786Y-95984871D02*
X193975786Y-138994213D01*
X179446986Y-77056250D02*
X179446986Y-81016923D01*
X193392332Y-94572994D02*
G75*
G02*
X193975786Y-95984871I-1416549J-1411878D01*
G01*
X182437899Y-83582336D02*
X193392332Y-94572994D01*
X193982977Y-138994213D02*
G75*
G02*
X192140000Y-140999999I-2012976J-1D01*
G01*
X179446986Y-77056250D02*
G75*
G02*
X181446986Y-75056250I1999999J1D01*
G01*
X192115729Y-65999116D02*
G75*
G02*
X193975786Y-67994214I-139942J-1995097D01*
G01*
X181234169Y-83005568D02*
G75*
G02*
X179446986Y-81016923I212816J1988644D01*
G01*
X181234170Y-83005568D02*
G75*
G02*
X182437899Y-83582336I-212818J-1988647D01*
G01*
X193975786Y-67994214D02*
X193975786Y-73056250D01*
X193975786Y-73056250D02*
G75*
G02*
X191975786Y-75056250I-1999999J-1D01*
G01*
X191975786Y-75056250D02*
X181446986Y-75056250D01*
X115000000Y-66000000D02*
X192115729Y-65999116D01*
X192140000Y-140999999D02*
X115000000Y-140999999D01*
X190990729Y-69750922D02*
G75*
G02*
X188240729Y-69750922I-1375000J0D01*
G01*
X188240729Y-69750922D02*
G75*
G02*
X190990729Y-69750922I1375000J0D01*
G01*
X113000000Y-138999999D02*
X113000000Y-68000000D01*
X115000000Y-140999999D02*
G75*
G02*
X113000001Y-138999999I0J1999999D01*
G01*
X182351429Y-137499999D02*
G75*
G02*
X179601429Y-137499999I-1375000J0D01*
G01*
X179601429Y-137499999D02*
G75*
G02*
X182351429Y-137499999I1375000J0D01*
G01*
X128490729Y-137499999D02*
G75*
G02*
X125740729Y-137499999I-1375000J0D01*
G01*
X125740729Y-137499999D02*
G75*
G02*
X128490729Y-137499999I1375000J0D01*
G01*
X119648729Y-69751000D02*
G75*
G02*
X116898729Y-69751000I-1375000J0D01*
G01*
X116898729Y-69751000D02*
G75*
G02*
X119648729Y-69751000I1375000J0D01*
G01*
X113000000Y-68000000D02*
G75*
G02*
X115000000Y-66000000I2000000J0D01*
G01*
M02*
