M48
; DRILL file {KiCad 9.0.0} date 2025-04-19T22:44:26-0500
; FORMAT={-:-/ absolute / metric / decimal}
; #@! TF.CreationDate,2025-04-19T22:44:26-05:00
; #@! TF.GenerationSoftware,Kicad,Pcbnew,9.0.0
; #@! TF.FileFunction,Plated,1,2,PTH
FMAT,2
METRIC
; #@! TA.AperFunction,Plated,PTH,ViaDrill
T1C0.400
; #@! TA.AperFunction,Plated,PTH,ComponentDrill
T2C0.500
; #@! TA.AperFunction,Plated,PTH,ComponentDrill
T3C0.800
; #@! TA.AperFunction,Plated,PTH,ComponentDrill
T4C0.900
; #@! TA.AperFunction,Plated,PTH,ComponentDrill
T5C1.000
; #@! TA.AperFunction,Plated,PTH,ComponentDrill
T6C1.067
; #@! TA.AperFunction,Plated,PTH,ComponentDrill
T7C1.100
; #@! TA.AperFunction,Plated,PTH,ComponentDrill
T8C4.500
%
G90
G05
T1
X118.06Y-76.7
X118.1Y-81.4
X142.748Y-104.648
X142.93Y-98.94
X143.002Y-115.062
X144.79Y-67.49
X144.922Y-109.975
X145.796Y-111.252
X146.05Y-76.708
X147.828Y-113.284
X148.06Y-120.68
X149.04Y-101.49
X149.606Y-119.126
X153.55Y-67.51
X157.39Y-123.4
X158.242Y-104.648
X160.2Y-74.58
X162.2Y-121.86
X162.86Y-67.54
X165.608Y-73.914
X182.73Y-100.44
X185.674Y-91.44
X192.21Y-112.97
X192.34Y-122.48
T2
X189.2Y-95.98
X189.2Y-97.23
X189.2Y-98.48
X189.2Y-99.73
X189.2Y-100.98
T3
X128.29Y-73.6
X130.742Y-85.84
X130.742Y-87.84
X130.83Y-73.6
X132.742Y-85.84
X132.742Y-87.84
X134.742Y-85.84
X134.742Y-87.84
T4
X114.38Y-75.2
X114.405Y-79.64
X116.92Y-75.2
X116.945Y-79.64
T5
X115.51Y-115.99
X115.51Y-118.53
X115.51Y-121.07
X115.52Y-85.01
X115.52Y-87.55
X115.52Y-90.09
X115.52Y-92.63
X115.52Y-125.9
X115.52Y-128.44
X115.52Y-130.98
X115.54Y-106.25
X115.54Y-108.79
X115.54Y-111.33
X115.57Y-96.935
X115.57Y-99.475
X115.57Y-102.015
X134.58Y-67.945
X137.12Y-67.945
X138.28Y-138.03
X140.82Y-138.03
X143.36Y-138.03
X144.15Y-84.621
X144.15Y-87.161
X144.15Y-89.701
X144.15Y-92.241
X144.15Y-94.781
X149.09Y-138.08
X151.63Y-138.08
X154.17Y-138.08
X159.08Y-138.07
X159.122Y-87.68
X159.122Y-91.18
X161.62Y-138.07
X164.16Y-138.07
X165.1Y-79.48
X167.03Y-118.45
X167.03Y-120.99
X167.03Y-123.53
X167.03Y-126.07
X167.03Y-128.61
X167.64Y-79.48
X169.49Y-138.04
X170.18Y-79.48
X172.03Y-138.04
X172.72Y-79.48
X174.57Y-138.04
X175.26Y-79.48
X181.942Y-121.517
X181.942Y-125.017
T6
X147.701Y-109.474
X160.261Y-102.86
X167.259Y-109.474
X179.819Y-102.86
T7
X121.94Y-72.87
X121.94Y-75.41
X121.94Y-77.95
X121.94Y-80.49
X121.94Y-83.03
X121.94Y-85.57
X121.94Y-88.11
X121.94Y-90.65
X121.94Y-93.19
X121.94Y-95.73
X121.94Y-98.27
X121.94Y-100.81
X121.94Y-103.35
X121.94Y-105.89
X121.94Y-108.43
X121.94Y-110.97
X121.94Y-113.51
X121.94Y-116.05
X121.94Y-118.59
X121.94Y-121.13
X121.94Y-123.67
X121.94Y-126.21
X121.94Y-128.75
X121.94Y-131.29
X124.48Y-118.59
X124.991Y-79.169
X124.991Y-81.709
X124.991Y-84.249
X124.991Y-86.789
X124.991Y-89.329
X127.02Y-118.59
X129.56Y-118.59
X132.1Y-118.59
X134.64Y-75.41
X134.64Y-118.59
X137.18Y-72.87
X137.18Y-75.41
X137.18Y-77.95
X137.18Y-80.49
X137.18Y-83.03
X137.18Y-85.57
X137.18Y-88.11
X137.18Y-90.65
X137.18Y-93.19
X137.18Y-95.73
X137.18Y-98.27
X137.18Y-100.81
X137.18Y-103.35
X137.18Y-105.89
X137.18Y-108.43
X137.18Y-110.97
X137.18Y-113.51
X137.18Y-116.05
X137.18Y-118.59
X137.18Y-121.13
X137.18Y-123.67
X137.18Y-126.21
X137.18Y-128.75
X137.18Y-131.29
T8
X171.08Y-70.51
X178.28Y-70.51
M30
