%TF.GenerationSoftware,KiCad,Pcbnew,9.0.0*%
%TF.CreationDate,2025-03-31T19:53:22-05:00*%
%TF.ProjectId,HASP_Power_System,48415350-5f50-46f7-9765-725f53797374,rev?*%
%TF.SameCoordinates,Original*%
%TF.FileFunction,Copper,L2,Bot*%
%TF.FilePolarity,Positive*%
%FSLAX46Y46*%
G04 Gerber Fmt 4.6, Leading zero omitted, Abs format (unit mm)*
G04 Created by KiCad (PCBNEW 9.0.0) date 2025-03-31 19:53:22*
%MOMM*%
%LPD*%
G01*
G04 APERTURE LIST*
G04 Aperture macros list*
%AMRoundRect*
0 Rectangle with rounded corners*
0 $1 Rounding radius*
0 $2 $3 $4 $5 $6 $7 $8 $9 X,Y pos of 4 corners*
0 Add a 4 corners polygon primitive as box body*
4,1,4,$2,$3,$4,$5,$6,$7,$8,$9,$2,$3,0*
0 Add four circle primitives for the rounded corners*
1,1,$1+$1,$2,$3*
1,1,$1+$1,$4,$5*
1,1,$1+$1,$6,$7*
1,1,$1+$1,$8,$9*
0 Add four rect primitives between the rounded corners*
20,1,$1+$1,$2,$3,$4,$5,0*
20,1,$1+$1,$4,$5,$6,$7,0*
20,1,$1+$1,$6,$7,$8,$9,0*
20,1,$1+$1,$8,$9,$2,$3,0*%
G04 Aperture macros list end*
%TA.AperFunction,ComponentPad*%
%ADD10R,1.700000X1.700000*%
%TD*%
%TA.AperFunction,ComponentPad*%
%ADD11O,1.700000X1.700000*%
%TD*%
%TA.AperFunction,ComponentPad*%
%ADD12R,1.600000X1.600000*%
%TD*%
%TA.AperFunction,ComponentPad*%
%ADD13C,1.600000*%
%TD*%
%TA.AperFunction,ComponentPad*%
%ADD14R,1.300000X1.300000*%
%TD*%
%TA.AperFunction,ComponentPad*%
%ADD15C,1.300000*%
%TD*%
%TA.AperFunction,ComponentPad*%
%ADD16RoundRect,0.200000X0.450000X-0.200000X0.450000X0.200000X-0.450000X0.200000X-0.450000X-0.200000X0*%
%TD*%
%TA.AperFunction,ComponentPad*%
%ADD17O,1.300000X0.800000*%
%TD*%
%TA.AperFunction,ViaPad*%
%ADD18C,0.800000*%
%TD*%
%TA.AperFunction,Conductor*%
%ADD19C,1.000000*%
%TD*%
%TA.AperFunction,Conductor*%
%ADD20C,2.000000*%
%TD*%
%TA.AperFunction,Conductor*%
%ADD21C,0.500000*%
%TD*%
G04 APERTURE END LIST*
D10*
%TO.P,J5,1,Pin_1*%
%TO.N,Net-(J5-Pin_1)*%
X142225000Y-71375000D03*
D11*
%TO.P,J5,2,Pin_2*%
%TO.N,+5V*%
X144765000Y-71375000D03*
%TD*%
D10*
%TO.P,J10,1,Pin_1*%
%TO.N,+3V3_LDO*%
X115510000Y-115990000D03*
D11*
%TO.P,J10,2,Pin_2*%
%TO.N,TEMP3*%
X115510000Y-118530000D03*
%TO.P,J10,3,Pin_3*%
%TO.N,GND*%
X115510000Y-121070000D03*
%TD*%
D10*
%TO.P,J11,1,Pin_1*%
%TO.N,+3V3_LDO*%
X115520000Y-125900000D03*
D11*
%TO.P,J11,2,Pin_2*%
%TO.N,TEMP4*%
X115520000Y-128440000D03*
%TO.P,J11,3,Pin_3*%
%TO.N,GND*%
X115520000Y-130980000D03*
%TD*%
D10*
%TO.P,J9,1,Pin_1*%
%TO.N,+3V3_LDO*%
X115540000Y-106250000D03*
D11*
%TO.P,J9,2,Pin_2*%
%TO.N,TEMP2*%
X115540000Y-108790000D03*
%TO.P,J9,3,Pin_3*%
%TO.N,GND*%
X115540000Y-111330000D03*
%TD*%
D10*
%TO.P,J12,1,Pin_1*%
%TO.N,+3V3_LDO*%
X174570000Y-138040000D03*
D11*
%TO.P,J12,2,Pin_2*%
%TO.N,TEMP5*%
X172030000Y-138040000D03*
%TO.P,J12,3,Pin_3*%
%TO.N,GND*%
X169490000Y-138040000D03*
%TD*%
D10*
%TO.P,J8,1,Pin_1*%
%TO.N,+3V3_LDO*%
X115570000Y-96935000D03*
D11*
%TO.P,J8,2,Pin_2*%
%TO.N,TEMP1*%
X115570000Y-99475000D03*
%TO.P,J8,3,Pin_3*%
%TO.N,GND*%
X115570000Y-102015000D03*
%TD*%
D10*
%TO.P,J13,1,Pin_1*%
%TO.N,+3V3_LDO*%
X164160000Y-138070000D03*
D11*
%TO.P,J13,2,Pin_2*%
%TO.N,TEMP6*%
X161620000Y-138070000D03*
%TO.P,J13,3,Pin_3*%
%TO.N,GND*%
X159080000Y-138070000D03*
%TD*%
D10*
%TO.P,J6,1,Pin_1*%
%TO.N,GPIO4*%
X115500000Y-92000000D03*
D11*
%TO.P,J6,2,Pin_2*%
%TO.N,GPIO3*%
X115500000Y-89460000D03*
%TO.P,J6,3,Pin_3*%
%TO.N,GPIO2*%
X115500000Y-86920000D03*
%TO.P,J6,4,Pin_4*%
%TO.N,GPIO1*%
X115500000Y-84380000D03*
%TD*%
D12*
%TO.P,U3,1,GND*%
%TO.N,GND*%
X123880000Y-71290000D03*
D13*
%TO.P,U3,2,0_RX1_CRX2_CS1*%
%TO.N,RX*%
X123880000Y-73830000D03*
%TO.P,U3,3,1_TX1_CTX2_MISO1*%
%TO.N,TX*%
X123880000Y-76370000D03*
%TO.P,U3,4,2_OUT2*%
%TO.N,unconnected-(U3-2_OUT2-Pad4)*%
X123880000Y-78910000D03*
%TO.P,U3,5,3_LRCLK2*%
%TO.N,unconnected-(U3-3_LRCLK2-Pad5)*%
X123880000Y-81450000D03*
%TO.P,U3,6,4_BCLK2*%
%TO.N,unconnected-(U3-4_BCLK2-Pad6)*%
X123880000Y-83990000D03*
%TO.P,U3,7,5_IN2*%
%TO.N,unconnected-(U3-5_IN2-Pad7)*%
X123880000Y-86530000D03*
%TO.P,U3,8,6_OUT1D*%
%TO.N,GPIO1*%
X123880000Y-89070000D03*
%TO.P,U3,9,7_RX2_OUT1A*%
%TO.N,GPIO2*%
X123880000Y-91610000D03*
%TO.P,U3,10,8_TX2_IN1*%
%TO.N,GPIO3*%
X123880000Y-94150000D03*
%TO.P,U3,11,9_OUT1C*%
%TO.N,GPIO4*%
X123880000Y-96690000D03*
%TO.P,U3,12,10_CS_MQSR*%
%TO.N,unconnected-(U3-10_CS_MQSR-Pad12)*%
X123880000Y-99230000D03*
%TO.P,U3,13,11_MOSI_CTX1*%
%TO.N,unconnected-(U3-11_MOSI_CTX1-Pad13)*%
X123880000Y-101770000D03*
%TO.P,U3,14,12_MISO_MQSL*%
%TO.N,unconnected-(U3-12_MISO_MQSL-Pad14)*%
X123880000Y-104310000D03*
%TO.P,U3,15,3V3*%
%TO.N,unconnected-(U3-3V3-Pad15)*%
X123880000Y-106850000D03*
%TO.P,U3,16,24_A10_TX6_SCL2*%
%TO.N,TEMP1*%
X123880000Y-109390000D03*
%TO.P,U3,17,25_A11_RX6_SDA2*%
%TO.N,TEMP2*%
X123880000Y-111930000D03*
%TO.P,U3,18,26_A12_MOSI1*%
%TO.N,TEMP3*%
X123880000Y-114470000D03*
%TO.P,U3,19,27_A13_SCK1*%
%TO.N,TEMP4*%
X123880000Y-117010000D03*
%TO.P,U3,20,28_RX7*%
%TO.N,unconnected-(U3-28_RX7-Pad20)*%
X123880000Y-119550000D03*
%TO.P,U3,21,29_TX7*%
%TO.N,unconnected-(U3-29_TX7-Pad21)*%
X123880000Y-122090000D03*
%TO.P,U3,22,30_CRX3*%
%TO.N,unconnected-(U3-30_CRX3-Pad22)*%
X123880000Y-124630000D03*
%TO.P,U3,23,31_CTX3*%
%TO.N,unconnected-(U3-31_CTX3-Pad23)*%
X123880000Y-127170000D03*
%TO.P,U3,24,32_OUT1B*%
%TO.N,unconnected-(U3-32_OUT1B-Pad24)*%
X123880000Y-129710000D03*
%TO.P,U3,25,33_MCLK2*%
%TO.N,unconnected-(U3-33_MCLK2-Pad25)*%
X139120000Y-129710000D03*
%TO.P,U3,26,34_RX8*%
%TO.N,unconnected-(U3-34_RX8-Pad26)*%
X139120000Y-127170000D03*
%TO.P,U3,27,35_TX8*%
%TO.N,unconnected-(U3-35_TX8-Pad27)*%
X139120000Y-124630000D03*
%TO.P,U3,28,36_CS*%
%TO.N,unconnected-(U3-36_CS-Pad28)*%
X139120000Y-122090000D03*
%TO.P,U3,29,37_CS*%
%TO.N,unconnected-(U3-37_CS-Pad29)*%
X139120000Y-119550000D03*
%TO.P,U3,30,38_CS1_IN1*%
%TO.N,unconnected-(U3-38_CS1_IN1-Pad30)*%
X139120000Y-117010000D03*
%TO.P,U3,31,39_MISO1_OUT1A*%
%TO.N,unconnected-(U3-39_MISO1_OUT1A-Pad31)*%
X139120000Y-114470000D03*
%TO.P,U3,32,40_A16*%
%TO.N,unconnected-(U3-40_A16-Pad32)*%
X139120000Y-111930000D03*
%TO.P,U3,33,41_A17*%
%TO.N,unconnected-(U3-41_A17-Pad33)*%
X139120000Y-109390000D03*
%TO.P,U3,34,GND*%
%TO.N,GND*%
X139120000Y-106850000D03*
%TO.P,U3,35,13_SCK_LED*%
%TO.N,unconnected-(U3-13_SCK_LED-Pad35)*%
X139120000Y-104310000D03*
%TO.P,U3,36,14_A0_TX3_SPDIF_OUT*%
%TO.N,unconnected-(U3-14_A0_TX3_SPDIF_OUT-Pad36)*%
X139120000Y-101770000D03*
%TO.P,U3,37,15_A1_RX3_SPDIF_IN*%
%TO.N,unconnected-(U3-15_A1_RX3_SPDIF_IN-Pad37)*%
X139120000Y-99230000D03*
%TO.P,U3,38,16_A2_RX4_SCL1*%
%TO.N,unconnected-(U3-16_A2_RX4_SCL1-Pad38)*%
X139120000Y-96690000D03*
%TO.P,U3,39,17_A3_TX4_SDA1*%
%TO.N,unconnected-(U3-17_A3_TX4_SDA1-Pad39)*%
X139120000Y-94150000D03*
%TO.P,U3,40,18_A4_SDA*%
%TO.N,TEMP8*%
X139120000Y-91610000D03*
%TO.P,U3,41,19_A5_SCL*%
%TO.N,TEMP7*%
X139120000Y-89070000D03*
%TO.P,U3,42,20_A6_TX5_LRCLK1*%
%TO.N,TEMP6*%
X139120000Y-86530000D03*
%TO.P,U3,43,21_A7_RX5_BCLK1*%
%TO.N,TEMP5*%
X139120000Y-83990000D03*
%TO.P,U3,44,22_A8_CTX1*%
%TO.N,5V_Current*%
X139120000Y-81450000D03*
%TO.P,U3,45,23_A9_CRX1_MCLK1*%
%TO.N,3V_Current*%
X139120000Y-78910000D03*
%TO.P,U3,46,3V3*%
%TO.N,+3V3_Teensy*%
X139120000Y-76370000D03*
%TO.P,U3,47,GND*%
%TO.N,GND*%
X139120000Y-73830000D03*
%TO.P,U3,48,VIN*%
%TO.N,Net-(J5-Pin_1)*%
X139120000Y-71290000D03*
%TO.P,U3,49,VUSB*%
%TO.N,unconnected-(U3-VUSB-Pad49)*%
X136580000Y-73830000D03*
%TO.P,U3,50,VBAT*%
%TO.N,unconnected-(U3-VBAT-Pad50)*%
X126420000Y-117010000D03*
%TO.P,U3,51,3V3*%
%TO.N,unconnected-(U3-3V3-Pad51)*%
X128960000Y-117010000D03*
%TO.P,U3,52,GND*%
%TO.N,unconnected-(U3-GND-Pad52)*%
X131500000Y-117010000D03*
%TO.P,U3,53,PROGRAM*%
%TO.N,unconnected-(U3-PROGRAM-Pad53)*%
X134040000Y-117010000D03*
%TO.P,U3,54,ON_OFF*%
%TO.N,unconnected-(U3-ON_OFF-Pad54)*%
X136580000Y-117010000D03*
D12*
%TO.P,U3,55,5V*%
%TO.N,unconnected-(U3-5V-Pad55)*%
X126930800Y-77589200D03*
D13*
%TO.P,U3,56,D-*%
%TO.N,unconnected-(U3-D--Pad56)*%
X126930800Y-80129200D03*
%TO.P,U3,57,D+*%
%TO.N,unconnected-(U3-D+-Pad57)*%
X126930800Y-82669200D03*
%TO.P,U3,58,GND*%
%TO.N,unconnected-(U3-GND-Pad58)*%
X126930800Y-85209200D03*
%TO.P,U3,59,GND*%
%TO.N,unconnected-(U3-GND-Pad59)*%
X126930800Y-87749200D03*
D14*
%TO.P,U3,60,R+*%
%TO.N,unconnected-(U3-R+-Pad60)*%
X136681600Y-84260000D03*
D15*
%TO.P,U3,61,LED*%
%TO.N,unconnected-(U3-LED-Pad61)*%
X134681600Y-84260000D03*
%TO.P,U3,62,T-*%
%TO.N,unconnected-(U3-T--Pad62)*%
X132681600Y-84260000D03*
%TO.P,U3,63,T+*%
%TO.N,unconnected-(U3-T+-Pad63)*%
X132681600Y-86260000D03*
%TO.P,U3,64,GND*%
%TO.N,unconnected-(U3-GND-Pad64)*%
X134681600Y-86260000D03*
%TO.P,U3,65,R-*%
%TO.N,unconnected-(U3-R--Pad65)*%
X136681600Y-86260000D03*
%TO.P,U3,66,D-*%
%TO.N,unconnected-(U3-D--Pad66)*%
X132770000Y-72020000D03*
%TO.P,U3,67,D+*%
%TO.N,unconnected-(U3-D+-Pad67)*%
X130230000Y-72020000D03*
%TD*%
D10*
%TO.P,J14,1,Pin_1*%
%TO.N,+3V3_LDO*%
X154170000Y-138080000D03*
D11*
%TO.P,J14,2,Pin_2*%
%TO.N,TEMP7*%
X151630000Y-138080000D03*
%TO.P,J14,3,Pin_3*%
%TO.N,GND*%
X149090000Y-138080000D03*
%TD*%
D10*
%TO.P,J15,1,Pin_1*%
%TO.N,+3V3_LDO*%
X143360000Y-138030000D03*
D11*
%TO.P,J15,2,Pin_2*%
%TO.N,TEMP8*%
X140820000Y-138030000D03*
%TO.P,J15,3,Pin_3*%
%TO.N,GND*%
X138280000Y-138030000D03*
%TD*%
D16*
%TO.P,J4,1,Pin_1*%
%TO.N,TX*%
X115500000Y-76625000D03*
D17*
%TO.P,J4,2,Pin_2*%
%TO.N,RX*%
X115500000Y-75375000D03*
%TD*%
D18*
%TO.N,GND*%
X159000000Y-91500000D03*
X142000000Y-80000000D03*
X166168800Y-78737000D03*
X173966600Y-77416200D03*
X172500000Y-73000000D03*
X155000000Y-98000000D03*
X159500000Y-84000000D03*
X163000000Y-67000000D03*
X156000000Y-73500000D03*
X164000000Y-82000000D03*
X177009400Y-73319800D03*
X182500000Y-71000000D03*
X160196096Y-101981180D03*
X164979400Y-76289800D03*
%TO.N,+3V3_Teensy*%
X144000000Y-78000000D03*
X154000000Y-75500000D03*
%TO.N,+3V3_LDO*%
X150500000Y-85000000D03*
X152500000Y-78000000D03*
%TO.N,3V_Current*%
X154000000Y-72000000D03*
%TO.N,5V_Current*%
X158000000Y-81000000D03*
%TD*%
D19*
%TO.N,+3V3_Teensy*%
X144000000Y-78000000D02*
X149000000Y-78000000D01*
X149500000Y-77500000D02*
X151500000Y-75500000D01*
X151500000Y-75500000D02*
X154000000Y-75500000D01*
X149000000Y-78000000D02*
X149500000Y-77500000D01*
D20*
%TO.N,+3V3_LDO*%
X150500000Y-80000000D02*
X152500000Y-78000000D01*
X150500000Y-85000000D02*
X150500000Y-80000000D01*
D21*
%TO.N,3V_Current*%
X154000000Y-72000000D02*
X150500000Y-72000000D01*
X143000000Y-77000000D02*
X141090000Y-78910000D01*
X148000000Y-74500000D02*
X145500000Y-77000000D01*
X145500000Y-77000000D02*
X143000000Y-77000000D01*
X141090000Y-78910000D02*
X139120000Y-78910000D01*
X150500000Y-72000000D02*
X148000000Y-74500000D01*
%TO.N,5V_Current*%
X148500000Y-87000000D02*
X142950000Y-81450000D01*
X142950000Y-81450000D02*
X139120000Y-81450000D01*
X158000000Y-81000000D02*
X152000000Y-87000000D01*
X152000000Y-87000000D02*
X148500000Y-87000000D01*
%TD*%
%TA.AperFunction,Conductor*%
%TO.N,GND*%
G36*
X143021969Y-78000489D02*
G01*
X143077903Y-78042360D01*
X143100253Y-78092480D01*
X143134103Y-78262658D01*
X143134106Y-78262667D01*
X143201983Y-78426540D01*
X143201990Y-78426553D01*
X143300535Y-78574034D01*
X143300538Y-78574038D01*
X143425961Y-78699461D01*
X143425965Y-78699464D01*
X143573446Y-78798009D01*
X143573459Y-78798016D01*
X143665853Y-78836286D01*
X143737334Y-78865894D01*
X143737336Y-78865894D01*
X143737341Y-78865896D01*
X143911304Y-78900499D01*
X143911307Y-78900500D01*
X143911309Y-78900500D01*
X149088693Y-78900500D01*
X149088694Y-78900499D01*
X149262666Y-78865895D01*
X149344606Y-78831953D01*
X149353930Y-78828090D01*
X149387386Y-78824496D01*
X149423382Y-78820624D01*
X149423389Y-78820627D01*
X149423398Y-78820627D01*
X149454677Y-78836286D01*
X149485863Y-78851894D01*
X149485867Y-78851901D01*
X149485875Y-78851905D01*
X149503662Y-78881888D01*
X149521520Y-78911980D01*
X149521519Y-78911988D01*
X149521524Y-78911996D01*
X149520289Y-78946514D01*
X149519031Y-78981806D01*
X149519026Y-78981813D01*
X149519026Y-78981821D01*
X149518987Y-78981876D01*
X149489056Y-79030336D01*
X149431757Y-79087635D01*
X149421001Y-79102441D01*
X149421000Y-79102442D01*
X149302187Y-79265974D01*
X149202104Y-79462393D01*
X149202104Y-79462395D01*
X149133985Y-79672047D01*
X149099499Y-79889779D01*
X149099499Y-80115332D01*
X149099500Y-80115357D01*
X149099500Y-85110222D01*
X149112872Y-85194647D01*
X149133985Y-85327952D01*
X149202103Y-85537603D01*
X149202104Y-85537606D01*
X149262079Y-85655310D01*
X149291224Y-85712511D01*
X149302187Y-85734025D01*
X149431752Y-85912358D01*
X149431756Y-85912363D01*
X149587636Y-86068243D01*
X149587641Y-86068247D01*
X149666005Y-86125182D01*
X149708671Y-86180512D01*
X149714650Y-86250125D01*
X149682044Y-86311920D01*
X149621206Y-86346277D01*
X149593120Y-86349500D01*
X148820808Y-86349500D01*
X148753769Y-86329815D01*
X148733127Y-86313181D01*
X143364674Y-80944727D01*
X143364673Y-80944726D01*
X143364669Y-80944723D01*
X143258127Y-80873535D01*
X143139744Y-80824499D01*
X143121153Y-80820801D01*
X143121148Y-80820800D01*
X143014071Y-80799500D01*
X143014069Y-80799500D01*
X140194465Y-80799500D01*
X140127426Y-80779815D01*
X140094147Y-80748386D01*
X140035690Y-80667927D01*
X139902073Y-80534310D01*
X139749199Y-80423240D01*
X139723838Y-80410318D01*
X139580836Y-80337454D01*
X139506472Y-80313291D01*
X139459195Y-80297930D01*
X139401521Y-80258493D01*
X139374323Y-80194134D01*
X139386238Y-80125288D01*
X139433482Y-80073812D01*
X139459194Y-80062069D01*
X139580832Y-80022547D01*
X139749199Y-79936760D01*
X139902073Y-79825690D01*
X140035690Y-79692073D01*
X140094147Y-79611613D01*
X140149478Y-79568949D01*
X140194465Y-79560500D01*
X141154071Y-79560500D01*
X141261153Y-79539199D01*
X141279744Y-79535501D01*
X141398127Y-79486465D01*
X141434152Y-79462394D01*
X141504669Y-79415277D01*
X142890955Y-78028989D01*
X142952278Y-77995505D01*
X143021969Y-78000489D01*
G37*
%TD.AperFunction*%
%TA.AperFunction,Conductor*%
G36*
X192119786Y-66000765D02*
G01*
X192347315Y-66015681D01*
X192356816Y-66016674D01*
X192408405Y-66024092D01*
X192414851Y-66025195D01*
X192611518Y-66064318D01*
X192622244Y-66066954D01*
X192664456Y-66079349D01*
X192669321Y-66080889D01*
X192867704Y-66148232D01*
X192879340Y-66152851D01*
X192902621Y-66163483D01*
X192905840Y-66165012D01*
X193108174Y-66264795D01*
X193122213Y-66272900D01*
X193326178Y-66409187D01*
X193339046Y-66419062D01*
X193523458Y-66580790D01*
X193534926Y-66592259D01*
X193696661Y-66776684D01*
X193706524Y-66789537D01*
X193842807Y-66993499D01*
X193850914Y-67007541D01*
X193950686Y-67209862D01*
X193952267Y-67213193D01*
X193962854Y-67236375D01*
X193967479Y-67248028D01*
X194034803Y-67446357D01*
X194036362Y-67451284D01*
X194048753Y-67493488D01*
X194051392Y-67504229D01*
X194090497Y-67700823D01*
X194091618Y-67707368D01*
X194099025Y-67758887D01*
X194100022Y-67768423D01*
X194114964Y-67996395D01*
X194115229Y-68004505D01*
X194115229Y-73057981D01*
X194114963Y-73066094D01*
X194100046Y-73293606D01*
X194099050Y-73303142D01*
X194091640Y-73354673D01*
X194090519Y-73361217D01*
X194051413Y-73557802D01*
X194048773Y-73568545D01*
X194036377Y-73610761D01*
X194034819Y-73615685D01*
X193967494Y-73814010D01*
X193962868Y-73825665D01*
X193952284Y-73848839D01*
X193950703Y-73852167D01*
X193850931Y-74054486D01*
X193842824Y-74068528D01*
X193708131Y-74270110D01*
X193706543Y-74272486D01*
X193696669Y-74285353D01*
X193534936Y-74469772D01*
X193523467Y-74481241D01*
X193339048Y-74642973D01*
X193326180Y-74652847D01*
X193122228Y-74789123D01*
X193108182Y-74797233D01*
X192905878Y-74897000D01*
X192902542Y-74898583D01*
X192879352Y-74909173D01*
X192867703Y-74913797D01*
X192669360Y-74981128D01*
X192664453Y-74982680D01*
X192643465Y-74988843D01*
X192622246Y-74995074D01*
X192611504Y-74997713D01*
X192414910Y-75036820D01*
X192408367Y-75037941D01*
X192356835Y-75045351D01*
X192347298Y-75046347D01*
X192119672Y-75061270D01*
X192111560Y-75061536D01*
X181638299Y-75061536D01*
X181638275Y-75061528D01*
X181455806Y-75061528D01*
X181195816Y-75095752D01*
X180942512Y-75163622D01*
X180901210Y-75180729D01*
X180895071Y-75183271D01*
X180887063Y-75185623D01*
X180864334Y-75196002D01*
X180862250Y-75196866D01*
X180862248Y-75196866D01*
X180700237Y-75263972D01*
X180700229Y-75263976D01*
X180700226Y-75263977D01*
X180700225Y-75263978D01*
X180698533Y-75264955D01*
X180647573Y-75294375D01*
X180647572Y-75294374D01*
X180642438Y-75297337D01*
X180627145Y-75304322D01*
X180598896Y-75322476D01*
X180596307Y-75323971D01*
X180596298Y-75323977D01*
X180473123Y-75395094D01*
X180473109Y-75395103D01*
X180411362Y-75442483D01*
X180411361Y-75442482D01*
X180407236Y-75445646D01*
X180386765Y-75458803D01*
X180361022Y-75481108D01*
X180358093Y-75483357D01*
X180358073Y-75483374D01*
X180265065Y-75554741D01*
X180196911Y-75622893D01*
X180193763Y-75626040D01*
X180170818Y-75645923D01*
X180150931Y-75668873D01*
X180147781Y-75672024D01*
X180079642Y-75740164D01*
X180008268Y-75833181D01*
X180008267Y-75833182D01*
X180006014Y-75836117D01*
X179983699Y-75861871D01*
X179970539Y-75882347D01*
X179967384Y-75886460D01*
X179919997Y-75948218D01*
X179919988Y-75948231D01*
X179848891Y-76071373D01*
X179848892Y-76071374D01*
X179847396Y-76073964D01*
X179829218Y-76102251D01*
X179822226Y-76117560D01*
X179819268Y-76122685D01*
X179819266Y-76122686D01*
X179788880Y-76175320D01*
X179788870Y-76175340D01*
X179721746Y-76337397D01*
X179721746Y-76337398D01*
X179720895Y-76339452D01*
X179710521Y-76362169D01*
X179708173Y-76370162D01*
X179705628Y-76376309D01*
X179688526Y-76417598D01*
X179688520Y-76417616D01*
X179620652Y-76670918D01*
X179620651Y-76670923D01*
X179586427Y-76930913D01*
X179586429Y-77062036D01*
X179586429Y-81047474D01*
X179586485Y-81047756D01*
X179586450Y-81156046D01*
X179586450Y-81156054D01*
X179621831Y-81420369D01*
X179630717Y-81452963D01*
X179632026Y-81457767D01*
X179632218Y-81459065D01*
X179633915Y-81464695D01*
X179634355Y-81466308D01*
X179634361Y-81466327D01*
X179648213Y-81517131D01*
X179682379Y-81642440D01*
X179691982Y-81677658D01*
X179691985Y-81677667D01*
X179710900Y-81722493D01*
X179710901Y-81722495D01*
X179713469Y-81728581D01*
X179716787Y-81739587D01*
X179729797Y-81767277D01*
X179730758Y-81769555D01*
X179730766Y-81769573D01*
X179795653Y-81923348D01*
X179795657Y-81923357D01*
X179795658Y-81923358D01*
X179829616Y-81980999D01*
X179832553Y-81985984D01*
X179841379Y-82004769D01*
X179861440Y-82035014D01*
X179863031Y-82037714D01*
X179863119Y-82037863D01*
X179863120Y-82037865D01*
X179931018Y-82153114D01*
X179931022Y-82153119D01*
X179931025Y-82153124D01*
X179965656Y-82197241D01*
X179984430Y-82221158D01*
X179987488Y-82225054D01*
X180003328Y-82248935D01*
X180026306Y-82274504D01*
X180095690Y-82362893D01*
X180173227Y-82438404D01*
X180176188Y-82441288D01*
X180199169Y-82466860D01*
X180221229Y-82485153D01*
X180284267Y-82546544D01*
X180286740Y-82548952D01*
X180394120Y-82628743D01*
X180394119Y-82628743D01*
X180396781Y-82630720D01*
X180424709Y-82653879D01*
X180442446Y-82664652D01*
X180500792Y-82708008D01*
X180648957Y-82790097D01*
X180675122Y-82805991D01*
X180685717Y-82810463D01*
X180734061Y-82837248D01*
X180939586Y-82917632D01*
X180945049Y-82919939D01*
X180946325Y-82920268D01*
X180982419Y-82934385D01*
X180982422Y-82934385D01*
X180982423Y-82934386D01*
X181241467Y-82997700D01*
X181241468Y-82997700D01*
X181241472Y-82997701D01*
X181370555Y-83011477D01*
X181377516Y-83012421D01*
X181576878Y-83045271D01*
X181586478Y-83047247D01*
X181631957Y-83058507D01*
X181635951Y-83059568D01*
X181681346Y-83072461D01*
X181808922Y-83108694D01*
X181822201Y-83113293D01*
X182018785Y-83194128D01*
X182031458Y-83200199D01*
X182069426Y-83221116D01*
X182217643Y-83302768D01*
X182229549Y-83310237D01*
X182376183Y-83414244D01*
X182379581Y-83416742D01*
X182416793Y-83445086D01*
X182424368Y-83451347D01*
X182574843Y-83586103D01*
X182579945Y-83590940D01*
X193529461Y-94576666D01*
X193534221Y-94581716D01*
X193666321Y-94729991D01*
X193672213Y-94737124D01*
X193699092Y-94772253D01*
X193701804Y-94775938D01*
X193742410Y-94833322D01*
X193805245Y-94922122D01*
X193811476Y-94931862D01*
X193815356Y-94938599D01*
X193816494Y-94940617D01*
X193914683Y-95118718D01*
X193920691Y-95131225D01*
X194000844Y-95325176D01*
X194005417Y-95338272D01*
X194008933Y-95350500D01*
X194061606Y-95533732D01*
X194062225Y-95535965D01*
X194064236Y-95543487D01*
X194066698Y-95554783D01*
X194096630Y-95731306D01*
X194097318Y-95735882D01*
X194103077Y-95779713D01*
X194103940Y-95788926D01*
X194115035Y-95986836D01*
X194115229Y-95993777D01*
X194115229Y-138995947D01*
X194114963Y-139004057D01*
X194100050Y-139231573D01*
X194099054Y-139241109D01*
X194091645Y-139292642D01*
X194090524Y-139299187D01*
X194051420Y-139495777D01*
X194048780Y-139506521D01*
X194036394Y-139548704D01*
X194034836Y-139553627D01*
X193967503Y-139751985D01*
X193962878Y-139763638D01*
X193952293Y-139786816D01*
X193950712Y-139790148D01*
X193850942Y-139992467D01*
X193842832Y-140006514D01*
X193706555Y-140210469D01*
X193696680Y-140223338D01*
X193534951Y-140407756D01*
X193523483Y-140419224D01*
X193339054Y-140580967D01*
X193326186Y-140590841D01*
X193122244Y-140727114D01*
X193108197Y-140735225D01*
X192905890Y-140834994D01*
X192902557Y-140836576D01*
X192879353Y-140847173D01*
X192867701Y-140851798D01*
X192669389Y-140919118D01*
X192664465Y-140920676D01*
X192622246Y-140933073D01*
X192611503Y-140935713D01*
X192414906Y-140974821D01*
X192408362Y-140975942D01*
X192356843Y-140983350D01*
X192347306Y-140984346D01*
X192120237Y-140999233D01*
X192112125Y-140999499D01*
X115004052Y-140999499D01*
X114995942Y-140999233D01*
X114766869Y-140984218D01*
X114757334Y-140983222D01*
X114709568Y-140976355D01*
X114703022Y-140975234D01*
X114502901Y-140935427D01*
X114492159Y-140932788D01*
X114453976Y-140921576D01*
X114449096Y-140920032D01*
X114385362Y-140898397D01*
X114246893Y-140851392D01*
X114235239Y-140846767D01*
X114216798Y-140838345D01*
X114213468Y-140836763D01*
X114007543Y-140735213D01*
X113993495Y-140727103D01*
X113827693Y-140616317D01*
X113789537Y-140590823D01*
X113776671Y-140580950D01*
X113592250Y-140419217D01*
X113580781Y-140407748D01*
X113419048Y-140223327D01*
X113409174Y-140210458D01*
X113272898Y-140006505D01*
X113264788Y-139992458D01*
X113163229Y-139786515D01*
X113161648Y-139783187D01*
X113153226Y-139764745D01*
X113148611Y-139753117D01*
X113079947Y-139550842D01*
X113078440Y-139546081D01*
X113067202Y-139507805D01*
X113064575Y-139497113D01*
X113024754Y-139296917D01*
X113023653Y-139290488D01*
X113016775Y-139242652D01*
X113015783Y-139233165D01*
X113000764Y-139004024D01*
X113000500Y-138995919D01*
X113000500Y-137499996D01*
X125738244Y-137499996D01*
X125738244Y-137500000D01*
X125739782Y-137518069D01*
X125740229Y-137528586D01*
X125740229Y-137608258D01*
X125755151Y-137702469D01*
X125755853Y-137706904D01*
X125758057Y-137732795D01*
X125762899Y-137751393D01*
X125763849Y-137757387D01*
X125763850Y-137757391D01*
X125774099Y-137822099D01*
X125809261Y-137930318D01*
X125810405Y-137933841D01*
X125816929Y-137958894D01*
X125822675Y-137971607D01*
X125824793Y-137978124D01*
X125824798Y-137978135D01*
X125841003Y-138028008D01*
X125903204Y-138150085D01*
X125903205Y-138150087D01*
X125904523Y-138152674D01*
X125913165Y-138171792D01*
X125917627Y-138178394D01*
X125921097Y-138185204D01*
X125921098Y-138185205D01*
X125939295Y-138220916D01*
X125939298Y-138220921D01*
X126039465Y-138358789D01*
X126039466Y-138358789D01*
X126040717Y-138360512D01*
X126043996Y-138365363D01*
X126045013Y-138366424D01*
X126048305Y-138370955D01*
X126048305Y-138370956D01*
X126059327Y-138386126D01*
X126066557Y-138396077D01*
X126219651Y-138549171D01*
X126394810Y-138676432D01*
X126489426Y-138724641D01*
X126587719Y-138774725D01*
X126587722Y-138774726D01*
X126687909Y-138807278D01*
X126793632Y-138841629D01*
X127007475Y-138875499D01*
X127007476Y-138875499D01*
X127051457Y-138875499D01*
X127057267Y-138876243D01*
X127074781Y-138875499D01*
X127223982Y-138875499D01*
X127223983Y-138875499D01*
X127278667Y-138866837D01*
X127290694Y-138866327D01*
X127315092Y-138861068D01*
X127437826Y-138841629D01*
X127501919Y-138820803D01*
X127519088Y-138817105D01*
X127543507Y-138807291D01*
X127643738Y-138774725D01*
X127715322Y-138738250D01*
X127735878Y-138729991D01*
X127756722Y-138717156D01*
X127836648Y-138676432D01*
X127913236Y-138620786D01*
X127934828Y-138607493D01*
X127950403Y-138593783D01*
X128011807Y-138549171D01*
X128090452Y-138470525D01*
X128110213Y-138453135D01*
X128120146Y-138440831D01*
X128164901Y-138396077D01*
X128242305Y-138289539D01*
X128256989Y-138271356D01*
X128261885Y-138262589D01*
X128292162Y-138220918D01*
X128364767Y-138078421D01*
X128370933Y-138067387D01*
X128372159Y-138063914D01*
X128390455Y-138028008D01*
X128457359Y-137822096D01*
X128464026Y-137780000D01*
X136952769Y-137780000D01*
X137846988Y-137780000D01*
X137814075Y-137837007D01*
X137780000Y-137964174D01*
X137780000Y-138095826D01*
X137814075Y-138222993D01*
X137846988Y-138280000D01*
X136952769Y-138280000D01*
X136963242Y-138346126D01*
X136963242Y-138346129D01*
X137028904Y-138548217D01*
X137125379Y-138737557D01*
X137250272Y-138909459D01*
X137250276Y-138909464D01*
X137400535Y-139059723D01*
X137400540Y-139059727D01*
X137572442Y-139184620D01*
X137761782Y-139281095D01*
X137963871Y-139346757D01*
X138030000Y-139357231D01*
X138030000Y-138463012D01*
X138087007Y-138495925D01*
X138214174Y-138530000D01*
X138345826Y-138530000D01*
X138472993Y-138495925D01*
X138530000Y-138463012D01*
X138530000Y-139357230D01*
X138596126Y-139346757D01*
X138596129Y-139346757D01*
X138798217Y-139281095D01*
X138987557Y-139184620D01*
X139159459Y-139059727D01*
X139159464Y-139059723D01*
X139309723Y-138909464D01*
X139309727Y-138909459D01*
X139434620Y-138737557D01*
X139495350Y-138618370D01*
X139543324Y-138567574D01*
X139611145Y-138550779D01*
X139677280Y-138573316D01*
X139716320Y-138618370D01*
X139750476Y-138685405D01*
X139866172Y-138844646D01*
X140005354Y-138983828D01*
X140164595Y-139099524D01*
X140221154Y-139128342D01*
X140339970Y-139188882D01*
X140339972Y-139188882D01*
X140339975Y-139188884D01*
X140398962Y-139208050D01*
X140527173Y-139249709D01*
X140721578Y-139280500D01*
X140721583Y-139280500D01*
X140918422Y-139280500D01*
X141112826Y-139249709D01*
X141139294Y-139241109D01*
X141300025Y-139188884D01*
X141475405Y-139099524D01*
X141634646Y-138983828D01*
X141773828Y-138844646D01*
X141885184Y-138691378D01*
X141940512Y-138648714D01*
X142010125Y-138642735D01*
X142071920Y-138675341D01*
X142106277Y-138736179D01*
X142109500Y-138764264D01*
X142109500Y-138911517D01*
X142120292Y-138979657D01*
X142124354Y-139005304D01*
X142181950Y-139118342D01*
X142181952Y-139118344D01*
X142181954Y-139118347D01*
X142271652Y-139208045D01*
X142271654Y-139208046D01*
X142271658Y-139208050D01*
X142375554Y-139260988D01*
X142384698Y-139265647D01*
X142478475Y-139280499D01*
X142478481Y-139280500D01*
X144241518Y-139280499D01*
X144335304Y-139265646D01*
X144448342Y-139208050D01*
X144538050Y-139118342D01*
X144595646Y-139005304D01*
X144595646Y-139005302D01*
X144595647Y-139005301D01*
X144608916Y-138921517D01*
X144610500Y-138911519D01*
X144610499Y-137830000D01*
X147762769Y-137830000D01*
X148656988Y-137830000D01*
X148624075Y-137887007D01*
X148590000Y-138014174D01*
X148590000Y-138145826D01*
X148624075Y-138272993D01*
X148656988Y-138330000D01*
X147762769Y-138330000D01*
X147773242Y-138396126D01*
X147773242Y-138396129D01*
X147838904Y-138598217D01*
X147935379Y-138787557D01*
X148060272Y-138959459D01*
X148060276Y-138959464D01*
X148210535Y-139109723D01*
X148210540Y-139109727D01*
X148382442Y-139234620D01*
X148571782Y-139331095D01*
X148773871Y-139396757D01*
X148840000Y-139407231D01*
X148840000Y-138513012D01*
X148897007Y-138545925D01*
X149024174Y-138580000D01*
X149155826Y-138580000D01*
X149282993Y-138545925D01*
X149340000Y-138513012D01*
X149340000Y-139407230D01*
X149406126Y-139396757D01*
X149406129Y-139396757D01*
X149608217Y-139331095D01*
X149797557Y-139234620D01*
X149969459Y-139109727D01*
X149969464Y-139109723D01*
X150119723Y-138959464D01*
X150119727Y-138959459D01*
X150244620Y-138787557D01*
X150305350Y-138668370D01*
X150353324Y-138617574D01*
X150421145Y-138600779D01*
X150487280Y-138623316D01*
X150526320Y-138668370D01*
X150550018Y-138714880D01*
X150560476Y-138735405D01*
X150676172Y-138894646D01*
X150815354Y-139033828D01*
X150974595Y-139149524D01*
X151043475Y-139184620D01*
X151149970Y-139238882D01*
X151149972Y-139238882D01*
X151149975Y-139238884D01*
X151232343Y-139265647D01*
X151337173Y-139299709D01*
X151531578Y-139330500D01*
X151531583Y-139330500D01*
X151728422Y-139330500D01*
X151922826Y-139299709D01*
X151951205Y-139290488D01*
X152110025Y-139238884D01*
X152285405Y-139149524D01*
X152444646Y-139033828D01*
X152583828Y-138894646D01*
X152695184Y-138741378D01*
X152750512Y-138698714D01*
X152820125Y-138692735D01*
X152881920Y-138725341D01*
X152916277Y-138786179D01*
X152919500Y-138814264D01*
X152919500Y-138961517D01*
X152926238Y-139004057D01*
X152934354Y-139055304D01*
X152991950Y-139168342D01*
X152991952Y-139168344D01*
X152991954Y-139168347D01*
X153081652Y-139258045D01*
X153081654Y-139258046D01*
X153081658Y-139258050D01*
X153175072Y-139305647D01*
X153194698Y-139315647D01*
X153288475Y-139330499D01*
X153288481Y-139330500D01*
X155051518Y-139330499D01*
X155145304Y-139315646D01*
X155258342Y-139258050D01*
X155348050Y-139168342D01*
X155405646Y-139055304D01*
X155405646Y-139055302D01*
X155405647Y-139055301D01*
X155420499Y-138961524D01*
X155420500Y-138961519D01*
X155420499Y-137820000D01*
X157752769Y-137820000D01*
X158646988Y-137820000D01*
X158614075Y-137877007D01*
X158580000Y-138004174D01*
X158580000Y-138135826D01*
X158614075Y-138262993D01*
X158646988Y-138320000D01*
X157752769Y-138320000D01*
X157763242Y-138386126D01*
X157763242Y-138386129D01*
X157828904Y-138588217D01*
X157925379Y-138777557D01*
X158050272Y-138949459D01*
X158050276Y-138949464D01*
X158200535Y-139099723D01*
X158200540Y-139099727D01*
X158372442Y-139224620D01*
X158561782Y-139321095D01*
X158763871Y-139386757D01*
X158830000Y-139397231D01*
X158830000Y-138503012D01*
X158887007Y-138535925D01*
X159014174Y-138570000D01*
X159145826Y-138570000D01*
X159272993Y-138535925D01*
X159330000Y-138503012D01*
X159330000Y-139397230D01*
X159396126Y-139386757D01*
X159396129Y-139386757D01*
X159598217Y-139321095D01*
X159787557Y-139224620D01*
X159959459Y-139099727D01*
X159959464Y-139099723D01*
X160109723Y-138949464D01*
X160109727Y-138949459D01*
X160234620Y-138777557D01*
X160295350Y-138658370D01*
X160343324Y-138607574D01*
X160411145Y-138590779D01*
X160477280Y-138613316D01*
X160516320Y-138658370D01*
X160533830Y-138692735D01*
X160550476Y-138725405D01*
X160666172Y-138884646D01*
X160805354Y-139023828D01*
X160964595Y-139139524D01*
X161021154Y-139168342D01*
X161139970Y-139228882D01*
X161139972Y-139228882D01*
X161139975Y-139228884D01*
X161229723Y-139258045D01*
X161327173Y-139289709D01*
X161521578Y-139320500D01*
X161521583Y-139320500D01*
X161718422Y-139320500D01*
X161912826Y-139289709D01*
X161956110Y-139275645D01*
X162100025Y-139228884D01*
X162275405Y-139139524D01*
X162434646Y-139023828D01*
X162573828Y-138884646D01*
X162685184Y-138731378D01*
X162740512Y-138688714D01*
X162810125Y-138682735D01*
X162871920Y-138715341D01*
X162906277Y-138776179D01*
X162909500Y-138804264D01*
X162909500Y-138951517D01*
X162919603Y-139015304D01*
X162924354Y-139045304D01*
X162981950Y-139158342D01*
X162981952Y-139158344D01*
X162981954Y-139158347D01*
X163071652Y-139248045D01*
X163071654Y-139248046D01*
X163071658Y-139248050D01*
X163172020Y-139299187D01*
X163184698Y-139305647D01*
X163278475Y-139320499D01*
X163278481Y-139320500D01*
X165041518Y-139320499D01*
X165135304Y-139305646D01*
X165248342Y-139248050D01*
X165338050Y-139158342D01*
X165395646Y-139045304D01*
X165395646Y-139045302D01*
X165395647Y-139045301D01*
X165408916Y-138961517D01*
X165410500Y-138951519D01*
X165410499Y-137790000D01*
X168162769Y-137790000D01*
X169056988Y-137790000D01*
X169024075Y-137847007D01*
X168990000Y-137974174D01*
X168990000Y-138105826D01*
X169024075Y-138232993D01*
X169056988Y-138290000D01*
X168162769Y-138290000D01*
X168173242Y-138356126D01*
X168173242Y-138356129D01*
X168238904Y-138558217D01*
X168335379Y-138747557D01*
X168460272Y-138919459D01*
X168460276Y-138919464D01*
X168610535Y-139069723D01*
X168610540Y-139069727D01*
X168782442Y-139194620D01*
X168971782Y-139291095D01*
X169173871Y-139356757D01*
X169240000Y-139367231D01*
X169240000Y-138473012D01*
X169297007Y-138505925D01*
X169424174Y-138540000D01*
X169555826Y-138540000D01*
X169682993Y-138505925D01*
X169740000Y-138473012D01*
X169740000Y-139367230D01*
X169806126Y-139356757D01*
X169806129Y-139356757D01*
X170008217Y-139291095D01*
X170197557Y-139194620D01*
X170369459Y-139069727D01*
X170369464Y-139069723D01*
X170519723Y-138919464D01*
X170519727Y-138919459D01*
X170644620Y-138747557D01*
X170705350Y-138628370D01*
X170753324Y-138577574D01*
X170821145Y-138560779D01*
X170887280Y-138583316D01*
X170926320Y-138628370D01*
X170960476Y-138695405D01*
X171076172Y-138854646D01*
X171215354Y-138993828D01*
X171374595Y-139109524D01*
X171416978Y-139131119D01*
X171549970Y-139198882D01*
X171549972Y-139198882D01*
X171549975Y-139198884D01*
X171608962Y-139218050D01*
X171737173Y-139259709D01*
X171931578Y-139290500D01*
X171931583Y-139290500D01*
X172128422Y-139290500D01*
X172322826Y-139259709D01*
X172327947Y-139258045D01*
X172510025Y-139198884D01*
X172685405Y-139109524D01*
X172844646Y-138993828D01*
X172983828Y-138854646D01*
X173095184Y-138701378D01*
X173150512Y-138658714D01*
X173220125Y-138652735D01*
X173281920Y-138685341D01*
X173316277Y-138746179D01*
X173319500Y-138774264D01*
X173319500Y-138921517D01*
X173329369Y-138983825D01*
X173334354Y-139015304D01*
X173391950Y-139128342D01*
X173391952Y-139128344D01*
X173391954Y-139128347D01*
X173481652Y-139218045D01*
X173481654Y-139218046D01*
X173481658Y-139218050D01*
X173575072Y-139265647D01*
X173594698Y-139275647D01*
X173682116Y-139289491D01*
X173688405Y-139290488D01*
X173688475Y-139290499D01*
X173688481Y-139290500D01*
X175451518Y-139290499D01*
X175545304Y-139275646D01*
X175658342Y-139218050D01*
X175748050Y-139128342D01*
X175805646Y-139015304D01*
X175805646Y-139015302D01*
X175805647Y-139015301D01*
X175820499Y-138921524D01*
X175820500Y-138921519D01*
X175820499Y-137499996D01*
X179598944Y-137499996D01*
X179598944Y-137500000D01*
X179600482Y-137518069D01*
X179600929Y-137528586D01*
X179600929Y-137608258D01*
X179615851Y-137702469D01*
X179616553Y-137706904D01*
X179618757Y-137732795D01*
X179623599Y-137751393D01*
X179624549Y-137757387D01*
X179624550Y-137757391D01*
X179634799Y-137822099D01*
X179669961Y-137930318D01*
X179671105Y-137933841D01*
X179677629Y-137958894D01*
X179683375Y-137971607D01*
X179685493Y-137978124D01*
X179685498Y-137978135D01*
X179701703Y-138028008D01*
X179763904Y-138150085D01*
X179763905Y-138150087D01*
X179765223Y-138152674D01*
X179773865Y-138171792D01*
X179778327Y-138178394D01*
X179781797Y-138185204D01*
X179781798Y-138185205D01*
X179799995Y-138220916D01*
X179799998Y-138220921D01*
X179900165Y-138358789D01*
X179900166Y-138358789D01*
X179901417Y-138360512D01*
X179904696Y-138365363D01*
X179905713Y-138366424D01*
X179909005Y-138370955D01*
X179909005Y-138370956D01*
X179920027Y-138386126D01*
X179927257Y-138396077D01*
X180080351Y-138549171D01*
X180255510Y-138676432D01*
X180350126Y-138724641D01*
X180448419Y-138774725D01*
X180448422Y-138774726D01*
X180548609Y-138807278D01*
X180654332Y-138841629D01*
X180868175Y-138875499D01*
X180868176Y-138875499D01*
X180912157Y-138875499D01*
X180917967Y-138876243D01*
X180935481Y-138875499D01*
X181084682Y-138875499D01*
X181084683Y-138875499D01*
X181139367Y-138866837D01*
X181151394Y-138866327D01*
X181175792Y-138861068D01*
X181298526Y-138841629D01*
X181362619Y-138820803D01*
X181379788Y-138817105D01*
X181404207Y-138807291D01*
X181504438Y-138774725D01*
X181576022Y-138738250D01*
X181596578Y-138729991D01*
X181617422Y-138717156D01*
X181697348Y-138676432D01*
X181773936Y-138620786D01*
X181795528Y-138607493D01*
X181811103Y-138593783D01*
X181872507Y-138549171D01*
X181951152Y-138470525D01*
X181970913Y-138453135D01*
X181980846Y-138440831D01*
X182025601Y-138396077D01*
X182103005Y-138289539D01*
X182117689Y-138271356D01*
X182122585Y-138262589D01*
X182152862Y-138220918D01*
X182225467Y-138078421D01*
X182231633Y-138067387D01*
X182232859Y-138063914D01*
X182251155Y-138028008D01*
X182318059Y-137822096D01*
X182351929Y-137608253D01*
X182351929Y-137391745D01*
X182318059Y-137177902D01*
X182251155Y-136971990D01*
X182232859Y-136936082D01*
X182231633Y-136932611D01*
X182225468Y-136921577D01*
X182152862Y-136779080D01*
X182152733Y-136778903D01*
X182141354Y-136763241D01*
X182122587Y-136737411D01*
X182117689Y-136728642D01*
X182102992Y-136710440D01*
X182025601Y-136603921D01*
X181980850Y-136559170D01*
X181970913Y-136546863D01*
X181951144Y-136529464D01*
X181872509Y-136450829D01*
X181872507Y-136450827D01*
X181815801Y-136409627D01*
X181811109Y-136406217D01*
X181795528Y-136392505D01*
X181773942Y-136379214D01*
X181770102Y-136376424D01*
X181697351Y-136323568D01*
X181697350Y-136323567D01*
X181697348Y-136323566D01*
X181617425Y-136282843D01*
X181596578Y-136270007D01*
X181576021Y-136261746D01*
X181571094Y-136259236D01*
X181504435Y-136225271D01*
X181408228Y-136194012D01*
X181408227Y-136194012D01*
X181404211Y-136192707D01*
X181379788Y-136182893D01*
X181362620Y-136179193D01*
X181356597Y-136177236D01*
X181356596Y-136177235D01*
X181298531Y-136158370D01*
X181298526Y-136158369D01*
X181298520Y-136158368D01*
X181179190Y-136139466D01*
X181179190Y-136139467D01*
X181175787Y-136138928D01*
X181151394Y-136133671D01*
X181139366Y-136133160D01*
X181132338Y-136132047D01*
X181084683Y-136124499D01*
X180935481Y-136124499D01*
X180917967Y-136123755D01*
X180912157Y-136124499D01*
X180868175Y-136124499D01*
X180820520Y-136132047D01*
X180654330Y-136158369D01*
X180448422Y-136225271D01*
X180448419Y-136225272D01*
X180255509Y-136323566D01*
X180080352Y-136450826D01*
X179927257Y-136603920D01*
X179909002Y-136629044D01*
X179905704Y-136633582D01*
X179904696Y-136634635D01*
X179901440Y-136639451D01*
X179900171Y-136641199D01*
X179799994Y-136779082D01*
X179781798Y-136814792D01*
X179778327Y-136821603D01*
X179773865Y-136828206D01*
X179765226Y-136847315D01*
X179763902Y-136849916D01*
X179763900Y-136849917D01*
X179763901Y-136849917D01*
X179701706Y-136971982D01*
X179701701Y-136971994D01*
X179685498Y-137021861D01*
X179683377Y-137028386D01*
X179677629Y-137041104D01*
X179671106Y-137066152D01*
X179669960Y-137069682D01*
X179634799Y-137177897D01*
X179624549Y-137242611D01*
X179623599Y-137248604D01*
X179618757Y-137267203D01*
X179616553Y-137293089D01*
X179615851Y-137297527D01*
X179600929Y-137391740D01*
X179600929Y-137471411D01*
X179600482Y-137481927D01*
X179598944Y-137499996D01*
X175820499Y-137499996D01*
X175820499Y-137158482D01*
X175805646Y-137064696D01*
X175748050Y-136951658D01*
X175748046Y-136951654D01*
X175748045Y-136951652D01*
X175658347Y-136861954D01*
X175658344Y-136861952D01*
X175658342Y-136861950D01*
X175565790Y-136814792D01*
X175545301Y-136804352D01*
X175451524Y-136789500D01*
X173688482Y-136789500D01*
X173607519Y-136802323D01*
X173594696Y-136804354D01*
X173481658Y-136861950D01*
X173481657Y-136861951D01*
X173481652Y-136861954D01*
X173391954Y-136951652D01*
X173391951Y-136951657D01*
X173391950Y-136951658D01*
X173381589Y-136971993D01*
X173334352Y-137064698D01*
X173319500Y-137158475D01*
X173319500Y-137305733D01*
X173299815Y-137372772D01*
X173247011Y-137418527D01*
X173177853Y-137428471D01*
X173114297Y-137399446D01*
X173095182Y-137378619D01*
X173092260Y-137374597D01*
X172983828Y-137225354D01*
X172844646Y-137086172D01*
X172685405Y-136970476D01*
X172665779Y-136960476D01*
X172510029Y-136881117D01*
X172322826Y-136820290D01*
X172128422Y-136789500D01*
X172128417Y-136789500D01*
X171931583Y-136789500D01*
X171931578Y-136789500D01*
X171737173Y-136820290D01*
X171549970Y-136881117D01*
X171374594Y-136970476D01*
X171319815Y-137010276D01*
X171215354Y-137086172D01*
X171215352Y-137086174D01*
X171215351Y-137086174D01*
X171076174Y-137225351D01*
X171076174Y-137225352D01*
X171076172Y-137225354D01*
X171047112Y-137265352D01*
X170960474Y-137384597D01*
X170926319Y-137451630D01*
X170878345Y-137502425D01*
X170810524Y-137519220D01*
X170744389Y-137496682D01*
X170705350Y-137451629D01*
X170644620Y-137332442D01*
X170519727Y-137160540D01*
X170519723Y-137160535D01*
X170369464Y-137010276D01*
X170369459Y-137010272D01*
X170197557Y-136885379D01*
X170008215Y-136788903D01*
X169806124Y-136723241D01*
X169740000Y-136712768D01*
X169740000Y-137606988D01*
X169682993Y-137574075D01*
X169555826Y-137540000D01*
X169424174Y-137540000D01*
X169297007Y-137574075D01*
X169240000Y-137606988D01*
X169240000Y-136712768D01*
X169239999Y-136712768D01*
X169173875Y-136723241D01*
X168971784Y-136788903D01*
X168782442Y-136885379D01*
X168610540Y-137010272D01*
X168610535Y-137010276D01*
X168460276Y-137160535D01*
X168460272Y-137160540D01*
X168335379Y-137332442D01*
X168238904Y-137521782D01*
X168173242Y-137723870D01*
X168173242Y-137723873D01*
X168162769Y-137790000D01*
X165410499Y-137790000D01*
X165410499Y-137188482D01*
X165395646Y-137094696D01*
X165338050Y-136981658D01*
X165338046Y-136981654D01*
X165338045Y-136981652D01*
X165248347Y-136891954D01*
X165248344Y-136891952D01*
X165248342Y-136891950D01*
X165165846Y-136849916D01*
X165135301Y-136834352D01*
X165041524Y-136819500D01*
X163278482Y-136819500D01*
X163197519Y-136832323D01*
X163184696Y-136834354D01*
X163071658Y-136891950D01*
X163071657Y-136891951D01*
X163071652Y-136891954D01*
X162981954Y-136981652D01*
X162981951Y-136981657D01*
X162981950Y-136981658D01*
X162962751Y-137019337D01*
X162924352Y-137094698D01*
X162909500Y-137188475D01*
X162909500Y-137335733D01*
X162889815Y-137402772D01*
X162837011Y-137448527D01*
X162767853Y-137458471D01*
X162704297Y-137429446D01*
X162685182Y-137408619D01*
X162680934Y-137402772D01*
X162573828Y-137255354D01*
X162434646Y-137116172D01*
X162275405Y-137000476D01*
X162258087Y-136991652D01*
X162100029Y-136911117D01*
X161912826Y-136850290D01*
X161718422Y-136819500D01*
X161718417Y-136819500D01*
X161521583Y-136819500D01*
X161521578Y-136819500D01*
X161327173Y-136850290D01*
X161139970Y-136911117D01*
X160964594Y-137000476D01*
X160889965Y-137054698D01*
X160805354Y-137116172D01*
X160805352Y-137116174D01*
X160805351Y-137116174D01*
X160666174Y-137255351D01*
X160666174Y-137255352D01*
X160666172Y-137255354D01*
X160610164Y-137332442D01*
X160550474Y-137414597D01*
X160516319Y-137481630D01*
X160468345Y-137532425D01*
X160400524Y-137549220D01*
X160334389Y-137526682D01*
X160295350Y-137481629D01*
X160234620Y-137362442D01*
X160109727Y-137190540D01*
X160109723Y-137190535D01*
X159959464Y-137040276D01*
X159959459Y-137040272D01*
X159787557Y-136915379D01*
X159598215Y-136818903D01*
X159396124Y-136753241D01*
X159330000Y-136742768D01*
X159330000Y-137636988D01*
X159272993Y-137604075D01*
X159145826Y-137570000D01*
X159014174Y-137570000D01*
X158887007Y-137604075D01*
X158830000Y-137636988D01*
X158830000Y-136742768D01*
X158829999Y-136742768D01*
X158763875Y-136753241D01*
X158561784Y-136818903D01*
X158372442Y-136915379D01*
X158200540Y-137040272D01*
X158200535Y-137040276D01*
X158050276Y-137190535D01*
X158050272Y-137190540D01*
X157925379Y-137362442D01*
X157828904Y-137551782D01*
X157763242Y-137753870D01*
X157763242Y-137753873D01*
X157752769Y-137820000D01*
X155420499Y-137820000D01*
X155420499Y-137198482D01*
X155405646Y-137104696D01*
X155348050Y-136991658D01*
X155348046Y-136991654D01*
X155348045Y-136991652D01*
X155258347Y-136901954D01*
X155258344Y-136901952D01*
X155258342Y-136901950D01*
X155160212Y-136851950D01*
X155145301Y-136844352D01*
X155051524Y-136829500D01*
X153288482Y-136829500D01*
X153207519Y-136842323D01*
X153194696Y-136844354D01*
X153081658Y-136901950D01*
X153081657Y-136901951D01*
X153081652Y-136901954D01*
X152991954Y-136991652D01*
X152991951Y-136991657D01*
X152934352Y-137104698D01*
X152919500Y-137198475D01*
X152919500Y-137345733D01*
X152899815Y-137412772D01*
X152847011Y-137458527D01*
X152777853Y-137468471D01*
X152714297Y-137439446D01*
X152695182Y-137418619D01*
X152695115Y-137418527D01*
X152583828Y-137265354D01*
X152444646Y-137126172D01*
X152285405Y-137010476D01*
X152265386Y-137000276D01*
X152110029Y-136921117D01*
X151922826Y-136860290D01*
X151728422Y-136829500D01*
X151728417Y-136829500D01*
X151531583Y-136829500D01*
X151531578Y-136829500D01*
X151337173Y-136860290D01*
X151149970Y-136921117D01*
X150974594Y-137010476D01*
X150899965Y-137064698D01*
X150815354Y-137126172D01*
X150815352Y-137126174D01*
X150815351Y-137126174D01*
X150676174Y-137265351D01*
X150676174Y-137265352D01*
X150676172Y-137265354D01*
X150625038Y-137335733D01*
X150560474Y-137424597D01*
X150526319Y-137491630D01*
X150478345Y-137542425D01*
X150410524Y-137559220D01*
X150344389Y-137536682D01*
X150305350Y-137491629D01*
X150244620Y-137372442D01*
X150119727Y-137200540D01*
X150119723Y-137200535D01*
X149969464Y-137050276D01*
X149969459Y-137050272D01*
X149797557Y-136925379D01*
X149608215Y-136828903D01*
X149406124Y-136763241D01*
X149340000Y-136752768D01*
X149340000Y-137646988D01*
X149282993Y-137614075D01*
X149155826Y-137580000D01*
X149024174Y-137580000D01*
X148897007Y-137614075D01*
X148840000Y-137646988D01*
X148840000Y-136752768D01*
X148839999Y-136752768D01*
X148773875Y-136763241D01*
X148571784Y-136828903D01*
X148382442Y-136925379D01*
X148210540Y-137050272D01*
X148210535Y-137050276D01*
X148060276Y-137200535D01*
X148060272Y-137200540D01*
X147935379Y-137372442D01*
X147838904Y-137561782D01*
X147773242Y-137763870D01*
X147773242Y-137763873D01*
X147762769Y-137830000D01*
X144610499Y-137830000D01*
X144610499Y-137148482D01*
X144595646Y-137054696D01*
X144538050Y-136941658D01*
X144538046Y-136941654D01*
X144538045Y-136941652D01*
X144448347Y-136851954D01*
X144448344Y-136851952D01*
X144448342Y-136851950D01*
X144354930Y-136804354D01*
X144335301Y-136794352D01*
X144241524Y-136779500D01*
X142478482Y-136779500D01*
X142397519Y-136792323D01*
X142384696Y-136794354D01*
X142271658Y-136851950D01*
X142271657Y-136851951D01*
X142271652Y-136851954D01*
X142181954Y-136941652D01*
X142181951Y-136941657D01*
X142181950Y-136941658D01*
X142166493Y-136971994D01*
X142124352Y-137054698D01*
X142109500Y-137148475D01*
X142109500Y-137295733D01*
X142089815Y-137362772D01*
X142037011Y-137408527D01*
X141967853Y-137418471D01*
X141904297Y-137389446D01*
X141885182Y-137368619D01*
X141868554Y-137345733D01*
X141773828Y-137215354D01*
X141634646Y-137076172D01*
X141475405Y-136960476D01*
X141458087Y-136951652D01*
X141300029Y-136871117D01*
X141112826Y-136810290D01*
X140918422Y-136779500D01*
X140918417Y-136779500D01*
X140721583Y-136779500D01*
X140721578Y-136779500D01*
X140527173Y-136810290D01*
X140339970Y-136871117D01*
X140164594Y-136960476D01*
X140095776Y-137010476D01*
X140005354Y-137076172D01*
X140005352Y-137076174D01*
X140005351Y-137076174D01*
X139866174Y-137215351D01*
X139866174Y-137215352D01*
X139866172Y-137215354D01*
X139837112Y-137255352D01*
X139750474Y-137374597D01*
X139716319Y-137441630D01*
X139668345Y-137492425D01*
X139600524Y-137509220D01*
X139534389Y-137486682D01*
X139495350Y-137441629D01*
X139434620Y-137322442D01*
X139309727Y-137150540D01*
X139309723Y-137150535D01*
X139159464Y-137000276D01*
X139159459Y-137000272D01*
X138987557Y-136875379D01*
X138798215Y-136778903D01*
X138596124Y-136713241D01*
X138530000Y-136702768D01*
X138530000Y-137596988D01*
X138472993Y-137564075D01*
X138345826Y-137530000D01*
X138214174Y-137530000D01*
X138087007Y-137564075D01*
X138030000Y-137596988D01*
X138030000Y-136702768D01*
X138029999Y-136702768D01*
X137963875Y-136713241D01*
X137761784Y-136778903D01*
X137572442Y-136875379D01*
X137400540Y-137000272D01*
X137400535Y-137000276D01*
X137250276Y-137150535D01*
X137250272Y-137150540D01*
X137125379Y-137322442D01*
X137028904Y-137511782D01*
X136963242Y-137713870D01*
X136963242Y-137713873D01*
X136952769Y-137780000D01*
X128464026Y-137780000D01*
X128491229Y-137608253D01*
X128491229Y-137391745D01*
X128457359Y-137177902D01*
X128390455Y-136971990D01*
X128372159Y-136936082D01*
X128370933Y-136932611D01*
X128364768Y-136921577D01*
X128292162Y-136779080D01*
X128292033Y-136778903D01*
X128280654Y-136763241D01*
X128261887Y-136737411D01*
X128256989Y-136728642D01*
X128242292Y-136710440D01*
X128164901Y-136603921D01*
X128120150Y-136559170D01*
X128110213Y-136546863D01*
X128090444Y-136529464D01*
X128011809Y-136450829D01*
X128011807Y-136450827D01*
X127955101Y-136409627D01*
X127950409Y-136406217D01*
X127934828Y-136392505D01*
X127913242Y-136379214D01*
X127909402Y-136376424D01*
X127836651Y-136323568D01*
X127836650Y-136323567D01*
X127836648Y-136323566D01*
X127756725Y-136282843D01*
X127735878Y-136270007D01*
X127715321Y-136261746D01*
X127710394Y-136259236D01*
X127643735Y-136225271D01*
X127547528Y-136194012D01*
X127547527Y-136194012D01*
X127543511Y-136192707D01*
X127519088Y-136182893D01*
X127501920Y-136179193D01*
X127495897Y-136177236D01*
X127495896Y-136177235D01*
X127437831Y-136158370D01*
X127437826Y-136158369D01*
X127437820Y-136158368D01*
X127318490Y-136139466D01*
X127318490Y-136139467D01*
X127315087Y-136138928D01*
X127290694Y-136133671D01*
X127278666Y-136133160D01*
X127271638Y-136132047D01*
X127223983Y-136124499D01*
X127074781Y-136124499D01*
X127057267Y-136123755D01*
X127051457Y-136124499D01*
X127007475Y-136124499D01*
X126959820Y-136132047D01*
X126793630Y-136158369D01*
X126587722Y-136225271D01*
X126587719Y-136225272D01*
X126394809Y-136323566D01*
X126219652Y-136450826D01*
X126066557Y-136603920D01*
X126048302Y-136629044D01*
X126045004Y-136633582D01*
X126043996Y-136634635D01*
X126040740Y-136639451D01*
X126039471Y-136641199D01*
X125939294Y-136779082D01*
X125921098Y-136814792D01*
X125917627Y-136821603D01*
X125913165Y-136828206D01*
X125904526Y-136847315D01*
X125903202Y-136849916D01*
X125903200Y-136849917D01*
X125903201Y-136849917D01*
X125841006Y-136971982D01*
X125841001Y-136971994D01*
X125824798Y-137021861D01*
X125822677Y-137028386D01*
X125816929Y-137041104D01*
X125810406Y-137066152D01*
X125809260Y-137069682D01*
X125774099Y-137177897D01*
X125763849Y-137242611D01*
X125762899Y-137248604D01*
X125758057Y-137267203D01*
X125755853Y-137293089D01*
X125755151Y-137297527D01*
X125740229Y-137391740D01*
X125740229Y-137471411D01*
X125739782Y-137481927D01*
X125738244Y-137499996D01*
X113000500Y-137499996D01*
X113000500Y-130730000D01*
X114192769Y-130730000D01*
X115086988Y-130730000D01*
X115054075Y-130787007D01*
X115020000Y-130914174D01*
X115020000Y-131045826D01*
X115054075Y-131172993D01*
X115086988Y-131230000D01*
X114192769Y-131230000D01*
X114203242Y-131296126D01*
X114203242Y-131296129D01*
X114268904Y-131498217D01*
X114365379Y-131687557D01*
X114490272Y-131859459D01*
X114490276Y-131859464D01*
X114640535Y-132009723D01*
X114640540Y-132009727D01*
X114812442Y-132134620D01*
X115001782Y-132231095D01*
X115203871Y-132296757D01*
X115270000Y-132307231D01*
X115270000Y-131413012D01*
X115327007Y-131445925D01*
X115454174Y-131480000D01*
X115585826Y-131480000D01*
X115712993Y-131445925D01*
X115770000Y-131413012D01*
X115770000Y-132307230D01*
X115836126Y-132296757D01*
X115836129Y-132296757D01*
X116038217Y-132231095D01*
X116227557Y-132134620D01*
X116399459Y-132009727D01*
X116399464Y-132009723D01*
X116549723Y-131859464D01*
X116549727Y-131859459D01*
X116674620Y-131687557D01*
X116771095Y-131498217D01*
X116836757Y-131296129D01*
X116836757Y-131296126D01*
X116847231Y-131230000D01*
X115953012Y-131230000D01*
X115985925Y-131172993D01*
X116020000Y-131045826D01*
X116020000Y-130914174D01*
X115985925Y-130787007D01*
X115953012Y-130730000D01*
X116847231Y-130730000D01*
X116836757Y-130663873D01*
X116836757Y-130663870D01*
X116771095Y-130461782D01*
X116674620Y-130272442D01*
X116549727Y-130100540D01*
X116549723Y-130100535D01*
X116399464Y-129950276D01*
X116399459Y-129950272D01*
X116227553Y-129825376D01*
X116227552Y-129825375D01*
X116108370Y-129764648D01*
X116057574Y-129716674D01*
X116040779Y-129648853D01*
X116063317Y-129582718D01*
X116108370Y-129543679D01*
X116175405Y-129509524D01*
X116334646Y-129393828D01*
X116473828Y-129254646D01*
X116589524Y-129095405D01*
X116678884Y-128920025D01*
X116739709Y-128732826D01*
X116761150Y-128597453D01*
X116770500Y-128538422D01*
X116770500Y-128341577D01*
X116739709Y-128147173D01*
X116678882Y-127959970D01*
X116589523Y-127784594D01*
X116473828Y-127625354D01*
X116334646Y-127486172D01*
X116181377Y-127374815D01*
X116138714Y-127319487D01*
X116132735Y-127249873D01*
X116165341Y-127188078D01*
X116226180Y-127153721D01*
X116254264Y-127150499D01*
X116401518Y-127150499D01*
X116495304Y-127135646D01*
X116608342Y-127078050D01*
X116698050Y-126988342D01*
X116755646Y-126875304D01*
X116755646Y-126875302D01*
X116755647Y-126875301D01*
X116770499Y-126781524D01*
X116770500Y-126781519D01*
X116770499Y-125018482D01*
X116755646Y-124924696D01*
X116698050Y-124811658D01*
X116698046Y-124811654D01*
X116698045Y-124811652D01*
X116608347Y-124721954D01*
X116608344Y-124721952D01*
X116608342Y-124721950D01*
X116531517Y-124682805D01*
X116495301Y-124664352D01*
X116401524Y-124649500D01*
X114638482Y-124649500D01*
X114557519Y-124662323D01*
X114544696Y-124664354D01*
X114431658Y-124721950D01*
X114431657Y-124721951D01*
X114431652Y-124721954D01*
X114341954Y-124811652D01*
X114341951Y-124811657D01*
X114284352Y-124924698D01*
X114269500Y-125018475D01*
X114269500Y-126781517D01*
X114280292Y-126849657D01*
X114284354Y-126875304D01*
X114341950Y-126988342D01*
X114341952Y-126988344D01*
X114341954Y-126988347D01*
X114431652Y-127078045D01*
X114431654Y-127078046D01*
X114431658Y-127078050D01*
X114544694Y-127135645D01*
X114544698Y-127135647D01*
X114638475Y-127150499D01*
X114638481Y-127150500D01*
X114785735Y-127150499D01*
X114852772Y-127170183D01*
X114898527Y-127222987D01*
X114908471Y-127292145D01*
X114879446Y-127355701D01*
X114858619Y-127374816D01*
X114705360Y-127486167D01*
X114705351Y-127486174D01*
X114566174Y-127625351D01*
X114566174Y-127625352D01*
X114566172Y-127625354D01*
X114516485Y-127693741D01*
X114450476Y-127784594D01*
X114361117Y-127959970D01*
X114300290Y-128147173D01*
X114269500Y-128341577D01*
X114269500Y-128538422D01*
X114300290Y-128732826D01*
X114361117Y-128920029D01*
X114443034Y-129080800D01*
X114450476Y-129095405D01*
X114566172Y-129254646D01*
X114705354Y-129393828D01*
X114824784Y-129480600D01*
X114864596Y-129509525D01*
X114931628Y-129543679D01*
X114982425Y-129591653D01*
X114999220Y-129659474D01*
X114976683Y-129725609D01*
X114931630Y-129764648D01*
X114812444Y-129825377D01*
X114640540Y-129950272D01*
X114640535Y-129950276D01*
X114490276Y-130100535D01*
X114490272Y-130100540D01*
X114365379Y-130272442D01*
X114268904Y-130461782D01*
X114203242Y-130663870D01*
X114203242Y-130663873D01*
X114192769Y-130730000D01*
X113000500Y-130730000D01*
X113000500Y-120820000D01*
X114182769Y-120820000D01*
X115076988Y-120820000D01*
X115044075Y-120877007D01*
X115010000Y-121004174D01*
X115010000Y-121135826D01*
X115044075Y-121262993D01*
X115076988Y-121320000D01*
X114182769Y-121320000D01*
X114193242Y-121386126D01*
X114193242Y-121386129D01*
X114258904Y-121588217D01*
X114355379Y-121777557D01*
X114480272Y-121949459D01*
X114480276Y-121949464D01*
X114630535Y-122099723D01*
X114630540Y-122099727D01*
X114802442Y-122224620D01*
X114991782Y-122321095D01*
X115193871Y-122386757D01*
X115260000Y-122397231D01*
X115260000Y-121503012D01*
X115317007Y-121535925D01*
X115444174Y-121570000D01*
X115575826Y-121570000D01*
X115702993Y-121535925D01*
X115760000Y-121503012D01*
X115760000Y-122397230D01*
X115826126Y-122386757D01*
X115826129Y-122386757D01*
X116028217Y-122321095D01*
X116217557Y-122224620D01*
X116389459Y-122099727D01*
X116389464Y-122099723D01*
X116539723Y-121949464D01*
X116539727Y-121949459D01*
X116664620Y-121777557D01*
X116761095Y-121588217D01*
X116826757Y-121386129D01*
X116826757Y-121386126D01*
X116837231Y-121320000D01*
X115943012Y-121320000D01*
X115975925Y-121262993D01*
X116010000Y-121135826D01*
X116010000Y-121004174D01*
X115975925Y-120877007D01*
X115943012Y-120820000D01*
X116837231Y-120820000D01*
X116826757Y-120753873D01*
X116826757Y-120753870D01*
X116761095Y-120551782D01*
X116664620Y-120362442D01*
X116539727Y-120190540D01*
X116539723Y-120190535D01*
X116389464Y-120040276D01*
X116389459Y-120040272D01*
X116217553Y-119915376D01*
X116217552Y-119915375D01*
X116098370Y-119854648D01*
X116047574Y-119806674D01*
X116030779Y-119738853D01*
X116053317Y-119672718D01*
X116098370Y-119633679D01*
X116165405Y-119599524D01*
X116324646Y-119483828D01*
X116463828Y-119344646D01*
X116579524Y-119185405D01*
X116668884Y-119010025D01*
X116729709Y-118822826D01*
X116738404Y-118767927D01*
X116760500Y-118628422D01*
X116760500Y-118431577D01*
X116729709Y-118237173D01*
X116692464Y-118122547D01*
X116668884Y-118049975D01*
X116668882Y-118049972D01*
X116668882Y-118049970D01*
X116605558Y-117925690D01*
X116579524Y-117874595D01*
X116463828Y-117715354D01*
X116324646Y-117576172D01*
X116171377Y-117464815D01*
X116128714Y-117409487D01*
X116122735Y-117339873D01*
X116155341Y-117278078D01*
X116216180Y-117243721D01*
X116244264Y-117240499D01*
X116391518Y-117240499D01*
X116485304Y-117225646D01*
X116598342Y-117168050D01*
X116688050Y-117078342D01*
X116745646Y-116965304D01*
X116745646Y-116965302D01*
X116745647Y-116965301D01*
X116760499Y-116871524D01*
X116760500Y-116871519D01*
X116760499Y-115108482D01*
X116745646Y-115014696D01*
X116688050Y-114901658D01*
X116688046Y-114901654D01*
X116688045Y-114901652D01*
X116598347Y-114811954D01*
X116598344Y-114811952D01*
X116598342Y-114811950D01*
X116521517Y-114772805D01*
X116485301Y-114754352D01*
X116391524Y-114739500D01*
X114628482Y-114739500D01*
X114547519Y-114752323D01*
X114534696Y-114754354D01*
X114421658Y-114811950D01*
X114421657Y-114811951D01*
X114421652Y-114811954D01*
X114331954Y-114901652D01*
X114331951Y-114901657D01*
X114274352Y-115014698D01*
X114259500Y-115108475D01*
X114259500Y-116871517D01*
X114266469Y-116915519D01*
X114274354Y-116965304D01*
X114331950Y-117078342D01*
X114331952Y-117078344D01*
X114331954Y-117078347D01*
X114421652Y-117168045D01*
X114421654Y-117168046D01*
X114421658Y-117168050D01*
X114534694Y-117225645D01*
X114534698Y-117225647D01*
X114628475Y-117240499D01*
X114628481Y-117240500D01*
X114775735Y-117240499D01*
X114842772Y-117260183D01*
X114888527Y-117312987D01*
X114898471Y-117382145D01*
X114869446Y-117445701D01*
X114848619Y-117464816D01*
X114695360Y-117576167D01*
X114695351Y-117576174D01*
X114556174Y-117715351D01*
X114556174Y-117715352D01*
X114556172Y-117715354D01*
X114506485Y-117783741D01*
X114440476Y-117874594D01*
X114351117Y-118049970D01*
X114290290Y-118237173D01*
X114259500Y-118431577D01*
X114259500Y-118628422D01*
X114290290Y-118822826D01*
X114351117Y-119010029D01*
X114391441Y-119089168D01*
X114440476Y-119185405D01*
X114556172Y-119344646D01*
X114695354Y-119483828D01*
X114814784Y-119570600D01*
X114854596Y-119599525D01*
X114921628Y-119633679D01*
X114972425Y-119681653D01*
X114989220Y-119749474D01*
X114966683Y-119815609D01*
X114921630Y-119854648D01*
X114802444Y-119915377D01*
X114630540Y-120040272D01*
X114630535Y-120040276D01*
X114480276Y-120190535D01*
X114480272Y-120190540D01*
X114355379Y-120362442D01*
X114258904Y-120551782D01*
X114193242Y-120753870D01*
X114193242Y-120753873D01*
X114182769Y-120820000D01*
X113000500Y-120820000D01*
X113000500Y-111080000D01*
X114212769Y-111080000D01*
X115106988Y-111080000D01*
X115074075Y-111137007D01*
X115040000Y-111264174D01*
X115040000Y-111395826D01*
X115074075Y-111522993D01*
X115106988Y-111580000D01*
X114212769Y-111580000D01*
X114223242Y-111646126D01*
X114223242Y-111646129D01*
X114288904Y-111848217D01*
X114385379Y-112037557D01*
X114510272Y-112209459D01*
X114510276Y-112209464D01*
X114660535Y-112359723D01*
X114660540Y-112359727D01*
X114832442Y-112484620D01*
X115021782Y-112581095D01*
X115223871Y-112646757D01*
X115290000Y-112657231D01*
X115290000Y-111763012D01*
X115347007Y-111795925D01*
X115474174Y-111830000D01*
X115605826Y-111830000D01*
X115732993Y-111795925D01*
X115790000Y-111763012D01*
X115790000Y-112657230D01*
X115856126Y-112646757D01*
X115856129Y-112646757D01*
X116058217Y-112581095D01*
X116247557Y-112484620D01*
X116419459Y-112359727D01*
X116419464Y-112359723D01*
X116569723Y-112209464D01*
X116569727Y-112209459D01*
X116694620Y-112037557D01*
X116791095Y-111848217D01*
X116856757Y-111646129D01*
X116856757Y-111646126D01*
X116867231Y-111580000D01*
X115973012Y-111580000D01*
X116005925Y-111522993D01*
X116040000Y-111395826D01*
X116040000Y-111264174D01*
X116005925Y-111137007D01*
X115973012Y-111080000D01*
X116867231Y-111080000D01*
X116856757Y-111013873D01*
X116856757Y-111013870D01*
X116791095Y-110811782D01*
X116694620Y-110622442D01*
X116569727Y-110450540D01*
X116569723Y-110450535D01*
X116419464Y-110300276D01*
X116419459Y-110300272D01*
X116247553Y-110175376D01*
X116247552Y-110175375D01*
X116128370Y-110114648D01*
X116077574Y-110066674D01*
X116060779Y-109998853D01*
X116083317Y-109932718D01*
X116128370Y-109893679D01*
X116195405Y-109859524D01*
X116354646Y-109743828D01*
X116493828Y-109604646D01*
X116609524Y-109445405D01*
X116698884Y-109270025D01*
X116759709Y-109082826D01*
X116784047Y-108929163D01*
X116790500Y-108888422D01*
X116790500Y-108691577D01*
X116759709Y-108497173D01*
X116716191Y-108363240D01*
X116698884Y-108309975D01*
X116698882Y-108309972D01*
X116698882Y-108309970D01*
X116637499Y-108189500D01*
X116609524Y-108134595D01*
X116493828Y-107975354D01*
X116354646Y-107836172D01*
X116201377Y-107724815D01*
X116158714Y-107669487D01*
X116152735Y-107599873D01*
X116185341Y-107538078D01*
X116246180Y-107503721D01*
X116274264Y-107500499D01*
X116421518Y-107500499D01*
X116515304Y-107485646D01*
X116628342Y-107428050D01*
X116718050Y-107338342D01*
X116775646Y-107225304D01*
X116775646Y-107225302D01*
X116775647Y-107225301D01*
X116790499Y-107131524D01*
X116790500Y-107131519D01*
X116790499Y-105368482D01*
X116775646Y-105274696D01*
X116718050Y-105161658D01*
X116718046Y-105161654D01*
X116718045Y-105161652D01*
X116628347Y-105071954D01*
X116628344Y-105071952D01*
X116628342Y-105071950D01*
X116551517Y-105032805D01*
X116515301Y-105014352D01*
X116421524Y-104999500D01*
X114658482Y-104999500D01*
X114577519Y-105012323D01*
X114564696Y-105014354D01*
X114451658Y-105071950D01*
X114451657Y-105071951D01*
X114451652Y-105071954D01*
X114361954Y-105161652D01*
X114361951Y-105161657D01*
X114304352Y-105274698D01*
X114289500Y-105368475D01*
X114289500Y-107131517D01*
X114298400Y-107187708D01*
X114304354Y-107225304D01*
X114361950Y-107338342D01*
X114361952Y-107338344D01*
X114361954Y-107338347D01*
X114451652Y-107428045D01*
X114451654Y-107428046D01*
X114451658Y-107428050D01*
X114552043Y-107479199D01*
X114564698Y-107485647D01*
X114658475Y-107500499D01*
X114658481Y-107500500D01*
X114805735Y-107500499D01*
X114872772Y-107520183D01*
X114918527Y-107572987D01*
X114928471Y-107642145D01*
X114899446Y-107705701D01*
X114878619Y-107724816D01*
X114725360Y-107836167D01*
X114725351Y-107836174D01*
X114586174Y-107975351D01*
X114586174Y-107975352D01*
X114586172Y-107975354D01*
X114553052Y-108020940D01*
X114470476Y-108134594D01*
X114381117Y-108309970D01*
X114320290Y-108497173D01*
X114289500Y-108691577D01*
X114289500Y-108888422D01*
X114320290Y-109082826D01*
X114381117Y-109270029D01*
X114470476Y-109445405D01*
X114586172Y-109604646D01*
X114725354Y-109743828D01*
X114844784Y-109830600D01*
X114884596Y-109859525D01*
X114951628Y-109893679D01*
X115002425Y-109941653D01*
X115019220Y-110009474D01*
X114996683Y-110075609D01*
X114951630Y-110114648D01*
X114832444Y-110175377D01*
X114660540Y-110300272D01*
X114660535Y-110300276D01*
X114510276Y-110450535D01*
X114510272Y-110450540D01*
X114385379Y-110622442D01*
X114288904Y-110811782D01*
X114223242Y-111013870D01*
X114223242Y-111013873D01*
X114212769Y-111080000D01*
X113000500Y-111080000D01*
X113000500Y-101765000D01*
X114242769Y-101765000D01*
X115136988Y-101765000D01*
X115104075Y-101822007D01*
X115070000Y-101949174D01*
X115070000Y-102080826D01*
X115104075Y-102207993D01*
X115136988Y-102265000D01*
X114242769Y-102265000D01*
X114253242Y-102331126D01*
X114253242Y-102331129D01*
X114318904Y-102533217D01*
X114415379Y-102722557D01*
X114540272Y-102894459D01*
X114540276Y-102894464D01*
X114690535Y-103044723D01*
X114690540Y-103044727D01*
X114862442Y-103169620D01*
X115051782Y-103266095D01*
X115253871Y-103331757D01*
X115320000Y-103342231D01*
X115320000Y-102448012D01*
X115377007Y-102480925D01*
X115504174Y-102515000D01*
X115635826Y-102515000D01*
X115762993Y-102480925D01*
X115820000Y-102448012D01*
X115820000Y-103342230D01*
X115886126Y-103331757D01*
X115886129Y-103331757D01*
X116088217Y-103266095D01*
X116277557Y-103169620D01*
X116449459Y-103044727D01*
X116449464Y-103044723D01*
X116599723Y-102894464D01*
X116599727Y-102894459D01*
X116724620Y-102722557D01*
X116821095Y-102533217D01*
X116886757Y-102331129D01*
X116886757Y-102331126D01*
X116897231Y-102265000D01*
X116003012Y-102265000D01*
X116035925Y-102207993D01*
X116070000Y-102080826D01*
X116070000Y-101949174D01*
X116035925Y-101822007D01*
X116003012Y-101765000D01*
X116897231Y-101765000D01*
X116886757Y-101698873D01*
X116886757Y-101698870D01*
X116821095Y-101496782D01*
X116724620Y-101307442D01*
X116599727Y-101135540D01*
X116599723Y-101135535D01*
X116449464Y-100985276D01*
X116449459Y-100985272D01*
X116277553Y-100860376D01*
X116277552Y-100860375D01*
X116158370Y-100799648D01*
X116107574Y-100751674D01*
X116090779Y-100683853D01*
X116113317Y-100617718D01*
X116158370Y-100578679D01*
X116225405Y-100544524D01*
X116384646Y-100428828D01*
X116523828Y-100289646D01*
X116639524Y-100130405D01*
X116728884Y-99955025D01*
X116789709Y-99767826D01*
X116801904Y-99690832D01*
X116820500Y-99573422D01*
X116820500Y-99376577D01*
X116789709Y-99182173D01*
X116728882Y-98994970D01*
X116639523Y-98819594D01*
X116602886Y-98769168D01*
X116523828Y-98660354D01*
X116384646Y-98521172D01*
X116231377Y-98409815D01*
X116188714Y-98354487D01*
X116182735Y-98284873D01*
X116215341Y-98223078D01*
X116276180Y-98188721D01*
X116304264Y-98185499D01*
X116451518Y-98185499D01*
X116545304Y-98170646D01*
X116658342Y-98113050D01*
X116748050Y-98023342D01*
X116805646Y-97910304D01*
X116805646Y-97910302D01*
X116805647Y-97910301D01*
X116820499Y-97816524D01*
X116820500Y-97816519D01*
X116820499Y-96053482D01*
X116805646Y-95959696D01*
X116748050Y-95846658D01*
X116748046Y-95846654D01*
X116748045Y-95846652D01*
X116658347Y-95756954D01*
X116658344Y-95756952D01*
X116658342Y-95756950D01*
X116581517Y-95717805D01*
X116545301Y-95699352D01*
X116451524Y-95684500D01*
X114688482Y-95684500D01*
X114607519Y-95697323D01*
X114594696Y-95699354D01*
X114481658Y-95756950D01*
X114481657Y-95756951D01*
X114481652Y-95756954D01*
X114391954Y-95846652D01*
X114391951Y-95846657D01*
X114334352Y-95959698D01*
X114319500Y-96053475D01*
X114319500Y-97816517D01*
X114325407Y-97853812D01*
X114334354Y-97910304D01*
X114391950Y-98023342D01*
X114391952Y-98023344D01*
X114391954Y-98023347D01*
X114481652Y-98113045D01*
X114481654Y-98113046D01*
X114481658Y-98113050D01*
X114594694Y-98170645D01*
X114594698Y-98170647D01*
X114688475Y-98185499D01*
X114688481Y-98185500D01*
X114835735Y-98185499D01*
X114902772Y-98205183D01*
X114948527Y-98257987D01*
X114958471Y-98327145D01*
X114929446Y-98390701D01*
X114908619Y-98409816D01*
X114755360Y-98521167D01*
X114755351Y-98521174D01*
X114616174Y-98660351D01*
X114616174Y-98660352D01*
X114616172Y-98660354D01*
X114566485Y-98728741D01*
X114500476Y-98819594D01*
X114411117Y-98994970D01*
X114350290Y-99182173D01*
X114319500Y-99376577D01*
X114319500Y-99573422D01*
X114350290Y-99767826D01*
X114411117Y-99955029D01*
X114440184Y-100012075D01*
X114500476Y-100130405D01*
X114616172Y-100289646D01*
X114755354Y-100428828D01*
X114833860Y-100485866D01*
X114914596Y-100544525D01*
X114981628Y-100578679D01*
X115032425Y-100626653D01*
X115049220Y-100694474D01*
X115026683Y-100760609D01*
X114981630Y-100799648D01*
X114862444Y-100860377D01*
X114690540Y-100985272D01*
X114690535Y-100985276D01*
X114540276Y-101135535D01*
X114540272Y-101135540D01*
X114415379Y-101307442D01*
X114318904Y-101496782D01*
X114253242Y-101698870D01*
X114253242Y-101698873D01*
X114242769Y-101765000D01*
X113000500Y-101765000D01*
X113000500Y-84281577D01*
X114249500Y-84281577D01*
X114249500Y-84478422D01*
X114280290Y-84672826D01*
X114341117Y-84860029D01*
X114405638Y-84986657D01*
X114430476Y-85035405D01*
X114546172Y-85194646D01*
X114685354Y-85333828D01*
X114844595Y-85449524D01*
X114945670Y-85501024D01*
X115021213Y-85539515D01*
X115072009Y-85587489D01*
X115088804Y-85655310D01*
X115066267Y-85721445D01*
X115021213Y-85760485D01*
X114844594Y-85850476D01*
X114775330Y-85900800D01*
X114685354Y-85966172D01*
X114685352Y-85966174D01*
X114685351Y-85966174D01*
X114546174Y-86105351D01*
X114546174Y-86105352D01*
X114546172Y-86105354D01*
X114531766Y-86125182D01*
X114430476Y-86264594D01*
X114341117Y-86439970D01*
X114280290Y-86627173D01*
X114249500Y-86821577D01*
X114249500Y-87018422D01*
X114280290Y-87212826D01*
X114341117Y-87400029D01*
X114394744Y-87505277D01*
X114430476Y-87575405D01*
X114546172Y-87734646D01*
X114685354Y-87873828D01*
X114844595Y-87989524D01*
X114950019Y-88043240D01*
X115021213Y-88079515D01*
X115072009Y-88127489D01*
X115088804Y-88195310D01*
X115066267Y-88261445D01*
X115021213Y-88300485D01*
X114844594Y-88390476D01*
X114775330Y-88440800D01*
X114685354Y-88506172D01*
X114685352Y-88506174D01*
X114685351Y-88506174D01*
X114546174Y-88645351D01*
X114546174Y-88645352D01*
X114546172Y-88645354D01*
X114496485Y-88713741D01*
X114430476Y-88804594D01*
X114341117Y-88979970D01*
X114280290Y-89167173D01*
X114249500Y-89361577D01*
X114249500Y-89558422D01*
X114280290Y-89752826D01*
X114341117Y-89940029D01*
X114364383Y-89985690D01*
X114430476Y-90115405D01*
X114546172Y-90274646D01*
X114685354Y-90413828D01*
X114838621Y-90525184D01*
X114881285Y-90580512D01*
X114887264Y-90650125D01*
X114854658Y-90711920D01*
X114793819Y-90746278D01*
X114765735Y-90749500D01*
X114618482Y-90749500D01*
X114537519Y-90762323D01*
X114524696Y-90764354D01*
X114411658Y-90821950D01*
X114411657Y-90821951D01*
X114411652Y-90821954D01*
X114321954Y-90911652D01*
X114321951Y-90911657D01*
X114264352Y-91024698D01*
X114249500Y-91118475D01*
X114249500Y-92881517D01*
X114257925Y-92934712D01*
X114264354Y-92975304D01*
X114321950Y-93088342D01*
X114321952Y-93088344D01*
X114321954Y-93088347D01*
X114411652Y-93178045D01*
X114411654Y-93178046D01*
X114411658Y-93178050D01*
X114522074Y-93234310D01*
X114524698Y-93235647D01*
X114618475Y-93250499D01*
X114618481Y-93250500D01*
X116381518Y-93250499D01*
X116475304Y-93235646D01*
X116588342Y-93178050D01*
X116678050Y-93088342D01*
X116735646Y-92975304D01*
X116735646Y-92975302D01*
X116735647Y-92975301D01*
X116750499Y-92881524D01*
X116750500Y-92881519D01*
X116750499Y-91118482D01*
X116735646Y-91024696D01*
X116678050Y-90911658D01*
X116678046Y-90911654D01*
X116678045Y-90911652D01*
X116588347Y-90821954D01*
X116588344Y-90821952D01*
X116588342Y-90821950D01*
X116511517Y-90782805D01*
X116475301Y-90764352D01*
X116381524Y-90749500D01*
X116234266Y-90749500D01*
X116167227Y-90729815D01*
X116121472Y-90677011D01*
X116111528Y-90607853D01*
X116140553Y-90544297D01*
X116161375Y-90525186D01*
X116314646Y-90413828D01*
X116453828Y-90274646D01*
X116569524Y-90115405D01*
X116658884Y-89940025D01*
X116719709Y-89752826D01*
X116728203Y-89699199D01*
X116750500Y-89558422D01*
X116750500Y-89361577D01*
X116719709Y-89167173D01*
X116658882Y-88979970D01*
X116569523Y-88804594D01*
X116453828Y-88645354D01*
X116314646Y-88506172D01*
X116224670Y-88440800D01*
X116155403Y-88390474D01*
X115978787Y-88300485D01*
X115927990Y-88252511D01*
X115911195Y-88184690D01*
X115933732Y-88118555D01*
X115978787Y-88079515D01*
X116155403Y-87989525D01*
X116155402Y-87989525D01*
X116155405Y-87989524D01*
X116314646Y-87873828D01*
X116453828Y-87734646D01*
X116569524Y-87575405D01*
X116658884Y-87400025D01*
X116719709Y-87212826D01*
X116734411Y-87120000D01*
X116750500Y-87018422D01*
X116750500Y-86821577D01*
X116719709Y-86627173D01*
X116676221Y-86493334D01*
X116658884Y-86439975D01*
X116658882Y-86439972D01*
X116658882Y-86439970D01*
X116598643Y-86321745D01*
X116569524Y-86264595D01*
X116453828Y-86105354D01*
X116314646Y-85966172D01*
X116224670Y-85900800D01*
X116155403Y-85850474D01*
X115978787Y-85760485D01*
X115927990Y-85712511D01*
X115911195Y-85644690D01*
X115933732Y-85578555D01*
X115978787Y-85539515D01*
X116155403Y-85449525D01*
X116155402Y-85449525D01*
X116155405Y-85449524D01*
X116314646Y-85333828D01*
X116453828Y-85194646D01*
X116569524Y-85035405D01*
X116658884Y-84860025D01*
X116719709Y-84672826D01*
X116736562Y-84566420D01*
X116750500Y-84478422D01*
X116750500Y-84281577D01*
X116719709Y-84087173D01*
X116668355Y-83929124D01*
X116658884Y-83899975D01*
X116658882Y-83899972D01*
X116658882Y-83899970D01*
X116588788Y-83762403D01*
X116569524Y-83724595D01*
X116453828Y-83565354D01*
X116314646Y-83426172D01*
X116155405Y-83310476D01*
X116140277Y-83302768D01*
X115980029Y-83221117D01*
X115792826Y-83160290D01*
X115598422Y-83129500D01*
X115598417Y-83129500D01*
X115401583Y-83129500D01*
X115401578Y-83129500D01*
X115207173Y-83160290D01*
X115019970Y-83221117D01*
X114844594Y-83310476D01*
X114775330Y-83360800D01*
X114685354Y-83426172D01*
X114685352Y-83426174D01*
X114685351Y-83426174D01*
X114546174Y-83565351D01*
X114546174Y-83565352D01*
X114546172Y-83565354D01*
X114528018Y-83590341D01*
X114430476Y-83724594D01*
X114341117Y-83899970D01*
X114280290Y-84087173D01*
X114249500Y-84281577D01*
X113000500Y-84281577D01*
X113000500Y-75296153D01*
X114449500Y-75296153D01*
X114449500Y-75453846D01*
X114480261Y-75608489D01*
X114480264Y-75608501D01*
X114540602Y-75754172D01*
X114540609Y-75754185D01*
X114615620Y-75866446D01*
X114636498Y-75933124D01*
X114618014Y-76000504D01*
X114610894Y-76010823D01*
X114525464Y-76122157D01*
X114464956Y-76268237D01*
X114464955Y-76268239D01*
X114449500Y-76385638D01*
X114449500Y-76864363D01*
X114464953Y-76981753D01*
X114464956Y-76981762D01*
X114508810Y-77087636D01*
X114525464Y-77127841D01*
X114621718Y-77253282D01*
X114747159Y-77349536D01*
X114893238Y-77410044D01*
X115010639Y-77425500D01*
X115989360Y-77425499D01*
X115989363Y-77425499D01*
X116106753Y-77410046D01*
X116106757Y-77410044D01*
X116106762Y-77410044D01*
X116252841Y-77349536D01*
X116378282Y-77253282D01*
X116474536Y-77127841D01*
X116535044Y-76981762D01*
X116550500Y-76864361D01*
X116550499Y-76385640D01*
X116550499Y-76385638D01*
X116550499Y-76385636D01*
X116535046Y-76268246D01*
X116535044Y-76268239D01*
X116535044Y-76268238D01*
X116474536Y-76122159D01*
X116389104Y-76010821D01*
X116363911Y-75945654D01*
X116377949Y-75877209D01*
X116384374Y-75866453D01*
X116459394Y-75754179D01*
X116519737Y-75608497D01*
X116550500Y-75453842D01*
X116550500Y-75296158D01*
X116550500Y-75296155D01*
X116550499Y-75296153D01*
X116544099Y-75263978D01*
X116519737Y-75141503D01*
X116515244Y-75130655D01*
X116459397Y-74995827D01*
X116459390Y-74995814D01*
X116371789Y-74864711D01*
X116371786Y-74864707D01*
X116260292Y-74753213D01*
X116260288Y-74753210D01*
X116129185Y-74665609D01*
X116129172Y-74665602D01*
X115983501Y-74605264D01*
X115983489Y-74605261D01*
X115828845Y-74574500D01*
X115828842Y-74574500D01*
X115171158Y-74574500D01*
X115171155Y-74574500D01*
X115016510Y-74605261D01*
X115016498Y-74605264D01*
X114870827Y-74665602D01*
X114870814Y-74665609D01*
X114739711Y-74753210D01*
X114739707Y-74753213D01*
X114628213Y-74864707D01*
X114628210Y-74864711D01*
X114540609Y-74995814D01*
X114540602Y-74995827D01*
X114480264Y-75141498D01*
X114480261Y-75141510D01*
X114449500Y-75296153D01*
X113000500Y-75296153D01*
X113000500Y-69750997D01*
X116896244Y-69750997D01*
X116896244Y-69751001D01*
X116897782Y-69769070D01*
X116898229Y-69779587D01*
X116898229Y-69859259D01*
X116913151Y-69953470D01*
X116913853Y-69957905D01*
X116916057Y-69983796D01*
X116920899Y-70002394D01*
X116921849Y-70008388D01*
X116921850Y-70008392D01*
X116932099Y-70073100D01*
X116967261Y-70181319D01*
X116968405Y-70184842D01*
X116974929Y-70209895D01*
X116980675Y-70222608D01*
X116982793Y-70229125D01*
X116982798Y-70229136D01*
X116999003Y-70279009D01*
X117061204Y-70401086D01*
X117061205Y-70401088D01*
X117062523Y-70403675D01*
X117071165Y-70422793D01*
X117075627Y-70429395D01*
X117079097Y-70436205D01*
X117079098Y-70436206D01*
X117097295Y-70471917D01*
X117097298Y-70471922D01*
X117197465Y-70609790D01*
X117197466Y-70609790D01*
X117198717Y-70611513D01*
X117201996Y-70616364D01*
X117203013Y-70617425D01*
X117206305Y-70621956D01*
X117206305Y-70621957D01*
X117224556Y-70647077D01*
X117224557Y-70647078D01*
X117377651Y-70800172D01*
X117552810Y-70927433D01*
X117635371Y-70969500D01*
X117745719Y-71025726D01*
X117745722Y-71025727D01*
X117845669Y-71058201D01*
X117951632Y-71092630D01*
X118165475Y-71126500D01*
X118165476Y-71126500D01*
X118209457Y-71126500D01*
X118215267Y-71127244D01*
X118232781Y-71126500D01*
X118381982Y-71126500D01*
X118381983Y-71126500D01*
X118436667Y-71117838D01*
X118448694Y-71117328D01*
X118473092Y-71112069D01*
X118595826Y-71092630D01*
X118659919Y-71071804D01*
X118677088Y-71068106D01*
X118701507Y-71058292D01*
X118801738Y-71025726D01*
X118873322Y-70989251D01*
X118893878Y-70980992D01*
X118914722Y-70968157D01*
X118994648Y-70927433D01*
X119071236Y-70871787D01*
X119092828Y-70858494D01*
X119108403Y-70844784D01*
X119169807Y-70800172D01*
X119248452Y-70721526D01*
X119268213Y-70704136D01*
X119278146Y-70691832D01*
X119322901Y-70647078D01*
X119400305Y-70540540D01*
X119414989Y-70522357D01*
X119419885Y-70513590D01*
X119450162Y-70471919D01*
X119465327Y-70442155D01*
X122580000Y-70442155D01*
X122580000Y-71040000D01*
X123389252Y-71040000D01*
X123367482Y-71077708D01*
X123330000Y-71217591D01*
X123330000Y-71362409D01*
X123367482Y-71502292D01*
X123389252Y-71540000D01*
X122580000Y-71540000D01*
X122580000Y-72137844D01*
X122586401Y-72197372D01*
X122586403Y-72197379D01*
X122636645Y-72332086D01*
X122636649Y-72332093D01*
X122722809Y-72447187D01*
X122722812Y-72447190D01*
X122837906Y-72533350D01*
X122837913Y-72533354D01*
X122972620Y-72583596D01*
X122972627Y-72583598D01*
X123032155Y-72589999D01*
X123032172Y-72590000D01*
X123162668Y-72590000D01*
X123229707Y-72609685D01*
X123275462Y-72662489D01*
X123285406Y-72731647D01*
X123256381Y-72795203D01*
X123235555Y-72814316D01*
X123097927Y-72914310D01*
X123097925Y-72914312D01*
X123097924Y-72914312D01*
X122964312Y-73047924D01*
X122964312Y-73047925D01*
X122964310Y-73047927D01*
X122916610Y-73113579D01*
X122853240Y-73200800D01*
X122767454Y-73369163D01*
X122709059Y-73548881D01*
X122679500Y-73735513D01*
X122679500Y-73924486D01*
X122709059Y-74111118D01*
X122767454Y-74290836D01*
X122853240Y-74459199D01*
X122964310Y-74612073D01*
X123097927Y-74745690D01*
X123250801Y-74856760D01*
X123329777Y-74897000D01*
X123419163Y-74942545D01*
X123419165Y-74942545D01*
X123419168Y-74942547D01*
X123508734Y-74971649D01*
X123540803Y-74982069D01*
X123598478Y-75021507D01*
X123625676Y-75085866D01*
X123613761Y-75154712D01*
X123566516Y-75206188D01*
X123540803Y-75217931D01*
X123419163Y-75257454D01*
X123250800Y-75343240D01*
X123179430Y-75395094D01*
X123097927Y-75454310D01*
X123097925Y-75454312D01*
X123097924Y-75454312D01*
X122964312Y-75587924D01*
X122964312Y-75587925D01*
X122964310Y-75587927D01*
X122949371Y-75608489D01*
X122853240Y-75740800D01*
X122767454Y-75909163D01*
X122709059Y-76088881D01*
X122679500Y-76275513D01*
X122679500Y-76464486D01*
X122709059Y-76651118D01*
X122767454Y-76830836D01*
X122818448Y-76930916D01*
X122853240Y-76999199D01*
X122964310Y-77152073D01*
X123097927Y-77285690D01*
X123250801Y-77396760D01*
X123307203Y-77425498D01*
X123419163Y-77482545D01*
X123419165Y-77482545D01*
X123419168Y-77482547D01*
X123508734Y-77511649D01*
X123540803Y-77522069D01*
X123598478Y-77561507D01*
X123625676Y-77625866D01*
X123613761Y-77694712D01*
X123566516Y-77746188D01*
X123540803Y-77757931D01*
X123419163Y-77797454D01*
X123250800Y-77883240D01*
X123163579Y-77946610D01*
X123097927Y-77994310D01*
X123097925Y-77994312D01*
X123097924Y-77994312D01*
X122964312Y-78127924D01*
X122964312Y-78127925D01*
X122964310Y-78127927D01*
X122916610Y-78193579D01*
X122853240Y-78280800D01*
X122767454Y-78449163D01*
X122709059Y-78628881D01*
X122679500Y-78815513D01*
X122679500Y-79004486D01*
X122709059Y-79191118D01*
X122767454Y-79370836D01*
X122851355Y-79535500D01*
X122853240Y-79539199D01*
X122964310Y-79692073D01*
X123097927Y-79825690D01*
X123250801Y-79936760D01*
X123330347Y-79977290D01*
X123419163Y-80022545D01*
X123419165Y-80022545D01*
X123419168Y-80022547D01*
X123508734Y-80051649D01*
X123540803Y-80062069D01*
X123598478Y-80101507D01*
X123625676Y-80165866D01*
X123613761Y-80234712D01*
X123566516Y-80286188D01*
X123540803Y-80297931D01*
X123419163Y-80337454D01*
X123250800Y-80423240D01*
X123163579Y-80486610D01*
X123097927Y-80534310D01*
X123097925Y-80534312D01*
X123097924Y-80534312D01*
X122964312Y-80667924D01*
X122964312Y-80667925D01*
X122964310Y-80667927D01*
X122916610Y-80733579D01*
X122853240Y-80820800D01*
X122767454Y-80989163D01*
X122709059Y-81168881D01*
X122679500Y-81355513D01*
X122679500Y-81544486D01*
X122709059Y-81731118D01*
X122767454Y-81910836D01*
X122853240Y-82079199D01*
X122964310Y-82232073D01*
X123097927Y-82365690D01*
X123250801Y-82476760D01*
X123330347Y-82517290D01*
X123419163Y-82562545D01*
X123419165Y-82562545D01*
X123419168Y-82562547D01*
X123508734Y-82591649D01*
X123540803Y-82602069D01*
X123598478Y-82641507D01*
X123625676Y-82705866D01*
X123613761Y-82774712D01*
X123566516Y-82826188D01*
X123540803Y-82837931D01*
X123419163Y-82877454D01*
X123250800Y-82963240D01*
X123183104Y-83012425D01*
X123097927Y-83074310D01*
X123097925Y-83074312D01*
X123097924Y-83074312D01*
X122964312Y-83207924D01*
X122964312Y-83207925D01*
X122964310Y-83207927D01*
X122916610Y-83273579D01*
X122853240Y-83360800D01*
X122767454Y-83529163D01*
X122709059Y-83708881D01*
X122679500Y-83895513D01*
X122679500Y-84084486D01*
X122709059Y-84271118D01*
X122767454Y-84450836D01*
X122838808Y-84590875D01*
X122853240Y-84619199D01*
X122964310Y-84772073D01*
X123097927Y-84905690D01*
X123250801Y-85016760D01*
X123330347Y-85057290D01*
X123419163Y-85102545D01*
X123419165Y-85102545D01*
X123419168Y-85102547D01*
X123508734Y-85131649D01*
X123540803Y-85142069D01*
X123598478Y-85181507D01*
X123625676Y-85245866D01*
X123613761Y-85314712D01*
X123566516Y-85366188D01*
X123540803Y-85377931D01*
X123419163Y-85417454D01*
X123250800Y-85503240D01*
X123203500Y-85537606D01*
X123097927Y-85614310D01*
X123097925Y-85614312D01*
X123097924Y-85614312D01*
X122964312Y-85747924D01*
X122964312Y-85747925D01*
X122964310Y-85747927D01*
X122953793Y-85762403D01*
X122853240Y-85900800D01*
X122767454Y-86069163D01*
X122709059Y-86248881D01*
X122679500Y-86435513D01*
X122679500Y-86624486D01*
X122709059Y-86811118D01*
X122767454Y-86990836D01*
X122853240Y-87159199D01*
X122964310Y-87312073D01*
X123097927Y-87445690D01*
X123250801Y-87556760D01*
X123330347Y-87597290D01*
X123419163Y-87642545D01*
X123419165Y-87642545D01*
X123419168Y-87642547D01*
X123508734Y-87671649D01*
X123540803Y-87682069D01*
X123598478Y-87721507D01*
X123625676Y-87785866D01*
X123613761Y-87854712D01*
X123566516Y-87906188D01*
X123540803Y-87917931D01*
X123419163Y-87957454D01*
X123250800Y-88043240D01*
X123201741Y-88078884D01*
X123097927Y-88154310D01*
X123097925Y-88154312D01*
X123097924Y-88154312D01*
X122964312Y-88287924D01*
X122964312Y-88287925D01*
X122964310Y-88287927D01*
X122955186Y-88300485D01*
X122853240Y-88440800D01*
X122767454Y-88609163D01*
X122709059Y-88788881D01*
X122679500Y-88975513D01*
X122679500Y-89164486D01*
X122709059Y-89351118D01*
X122767454Y-89530836D01*
X122853240Y-89699199D01*
X122964310Y-89852073D01*
X123097927Y-89985690D01*
X123250801Y-90096760D01*
X123330347Y-90137290D01*
X123419163Y-90182545D01*
X123419165Y-90182545D01*
X123419168Y-90182547D01*
X123508734Y-90211649D01*
X123540803Y-90222069D01*
X123598478Y-90261507D01*
X123625676Y-90325866D01*
X123613761Y-90394712D01*
X123566516Y-90446188D01*
X123540803Y-90457931D01*
X123419163Y-90497454D01*
X123250800Y-90583240D01*
X123216924Y-90607853D01*
X123097927Y-90694310D01*
X123097925Y-90694312D01*
X123097924Y-90694312D01*
X122964312Y-90827924D01*
X122964312Y-90827925D01*
X122964310Y-90827927D01*
X122916610Y-90893579D01*
X122853240Y-90980800D01*
X122767454Y-91149163D01*
X122709059Y-91328881D01*
X122679500Y-91515513D01*
X122679500Y-91704486D01*
X122709059Y-91891118D01*
X122767454Y-92070836D01*
X122853240Y-92239199D01*
X122964310Y-92392073D01*
X123097927Y-92525690D01*
X123250801Y-92636760D01*
X123330347Y-92677290D01*
X123419163Y-92722545D01*
X123419165Y-92722545D01*
X123419168Y-92722547D01*
X123508734Y-92751649D01*
X123540803Y-92762069D01*
X123598478Y-92801507D01*
X123625676Y-92865866D01*
X123613761Y-92934712D01*
X123566516Y-92986188D01*
X123540803Y-92997931D01*
X123419163Y-93037454D01*
X123250800Y-93123240D01*
X123175362Y-93178050D01*
X123097927Y-93234310D01*
X123097925Y-93234312D01*
X123097924Y-93234312D01*
X122964312Y-93367924D01*
X122964312Y-93367925D01*
X122964310Y-93367927D01*
X122916610Y-93433579D01*
X122853240Y-93520800D01*
X122767454Y-93689163D01*
X122709059Y-93868881D01*
X122679500Y-94055513D01*
X122679500Y-94244486D01*
X122709059Y-94431118D01*
X122767454Y-94610836D01*
X122828167Y-94729991D01*
X122853240Y-94779199D01*
X122964310Y-94932073D01*
X123097927Y-95065690D01*
X123250801Y-95176760D01*
X123330347Y-95217290D01*
X123419163Y-95262545D01*
X123419165Y-95262545D01*
X123419168Y-95262547D01*
X123508734Y-95291649D01*
X123540803Y-95302069D01*
X123598478Y-95341507D01*
X123625676Y-95405866D01*
X123613761Y-95474712D01*
X123566516Y-95526188D01*
X123540803Y-95537931D01*
X123419163Y-95577454D01*
X123250800Y-95663240D01*
X123163579Y-95726610D01*
X123097927Y-95774310D01*
X123097925Y-95774312D01*
X123097924Y-95774312D01*
X122964312Y-95907924D01*
X122964312Y-95907925D01*
X122964310Y-95907927D01*
X122926697Y-95959697D01*
X122853240Y-96060800D01*
X122767454Y-96229163D01*
X122709059Y-96408881D01*
X122679500Y-96595513D01*
X122679500Y-96784486D01*
X122709059Y-96971118D01*
X122767454Y-97150836D01*
X122853240Y-97319199D01*
X122964310Y-97472073D01*
X123097927Y-97605690D01*
X123250801Y-97716760D01*
X123330347Y-97757290D01*
X123419163Y-97802545D01*
X123419165Y-97802545D01*
X123419168Y-97802547D01*
X123462185Y-97816524D01*
X123540803Y-97842069D01*
X123598478Y-97881507D01*
X123625676Y-97945866D01*
X123613761Y-98014712D01*
X123566516Y-98066188D01*
X123540803Y-98077931D01*
X123419163Y-98117454D01*
X123250800Y-98203240D01*
X123163579Y-98266610D01*
X123097927Y-98314310D01*
X123097925Y-98314312D01*
X123097924Y-98314312D01*
X122964312Y-98447924D01*
X122964312Y-98447925D01*
X122964310Y-98447927D01*
X122916610Y-98513579D01*
X122853240Y-98600800D01*
X122767454Y-98769163D01*
X122709059Y-98948881D01*
X122679500Y-99135513D01*
X122679500Y-99324486D01*
X122709059Y-99511118D01*
X122767454Y-99690836D01*
X122806683Y-99767826D01*
X122853240Y-99859199D01*
X122964310Y-100012073D01*
X123097927Y-100145690D01*
X123250801Y-100256760D01*
X123315344Y-100289646D01*
X123419163Y-100342545D01*
X123419165Y-100342545D01*
X123419168Y-100342547D01*
X123508734Y-100371649D01*
X123540803Y-100382069D01*
X123598478Y-100421507D01*
X123625676Y-100485866D01*
X123613761Y-100554712D01*
X123566516Y-100606188D01*
X123540803Y-100617931D01*
X123419163Y-100657454D01*
X123250800Y-100743240D01*
X123173162Y-100799648D01*
X123097927Y-100854310D01*
X123097925Y-100854312D01*
X123097924Y-100854312D01*
X122964312Y-100987924D01*
X122964312Y-100987925D01*
X122964310Y-100987927D01*
X122916610Y-101053579D01*
X122853240Y-101140800D01*
X122767454Y-101309163D01*
X122709059Y-101488881D01*
X122679500Y-101675513D01*
X122679500Y-101864486D01*
X122709059Y-102051118D01*
X122767454Y-102230836D01*
X122853240Y-102399199D01*
X122964310Y-102552073D01*
X123097927Y-102685690D01*
X123250801Y-102796760D01*
X123330347Y-102837290D01*
X123419163Y-102882545D01*
X123419165Y-102882545D01*
X123419168Y-102882547D01*
X123455845Y-102894464D01*
X123540803Y-102922069D01*
X123598478Y-102961507D01*
X123625676Y-103025866D01*
X123613761Y-103094712D01*
X123566516Y-103146188D01*
X123540803Y-103157931D01*
X123419163Y-103197454D01*
X123250800Y-103283240D01*
X123184023Y-103331757D01*
X123097927Y-103394310D01*
X123097925Y-103394312D01*
X123097924Y-103394312D01*
X122964312Y-103527924D01*
X122964312Y-103527925D01*
X122964310Y-103527927D01*
X122916610Y-103593579D01*
X122853240Y-103680800D01*
X122767454Y-103849163D01*
X122709059Y-104028881D01*
X122679500Y-104215513D01*
X122679500Y-104404486D01*
X122709059Y-104591118D01*
X122767454Y-104770836D01*
X122853240Y-104939199D01*
X122964310Y-105092073D01*
X123097927Y-105225690D01*
X123250801Y-105336760D01*
X123313057Y-105368481D01*
X123419163Y-105422545D01*
X123419165Y-105422545D01*
X123419168Y-105422547D01*
X123508734Y-105451649D01*
X123540803Y-105462069D01*
X123598478Y-105501507D01*
X123625676Y-105565866D01*
X123613761Y-105634712D01*
X123566516Y-105686188D01*
X123540803Y-105697931D01*
X123419163Y-105737454D01*
X123250800Y-105823240D01*
X123163579Y-105886610D01*
X123097927Y-105934310D01*
X123097925Y-105934312D01*
X123097924Y-105934312D01*
X122964312Y-106067924D01*
X122964312Y-106067925D01*
X122964310Y-106067927D01*
X122916610Y-106133579D01*
X122853240Y-106220800D01*
X122767454Y-106389163D01*
X122709059Y-106568881D01*
X122679500Y-106755513D01*
X122679500Y-106944486D01*
X122709059Y-107131118D01*
X122767454Y-107310836D01*
X122793788Y-107362518D01*
X122853240Y-107479199D01*
X122964310Y-107632073D01*
X123097927Y-107765690D01*
X123250801Y-107876760D01*
X123330347Y-107917290D01*
X123419163Y-107962545D01*
X123419165Y-107962545D01*
X123419168Y-107962547D01*
X123458584Y-107975354D01*
X123540803Y-108002069D01*
X123598478Y-108041507D01*
X123625676Y-108105866D01*
X123613761Y-108174712D01*
X123566516Y-108226188D01*
X123540803Y-108237931D01*
X123419163Y-108277454D01*
X123250800Y-108363240D01*
X123163579Y-108426610D01*
X123097927Y-108474310D01*
X123097925Y-108474312D01*
X123097924Y-108474312D01*
X122964312Y-108607924D01*
X122964312Y-108607925D01*
X122964310Y-108607927D01*
X122916610Y-108673579D01*
X122853240Y-108760800D01*
X122767454Y-108929163D01*
X122709059Y-109108881D01*
X122679500Y-109295513D01*
X122679500Y-109484486D01*
X122709059Y-109671118D01*
X122767454Y-109850836D01*
X122842873Y-109998853D01*
X122853240Y-110019199D01*
X122964310Y-110172073D01*
X123097927Y-110305690D01*
X123250801Y-110416760D01*
X123317098Y-110450540D01*
X123419163Y-110502545D01*
X123419165Y-110502545D01*
X123419168Y-110502547D01*
X123508734Y-110531649D01*
X123540803Y-110542069D01*
X123598478Y-110581507D01*
X123625676Y-110645866D01*
X123613761Y-110714712D01*
X123566516Y-110766188D01*
X123540803Y-110777931D01*
X123419163Y-110817454D01*
X123250800Y-110903240D01*
X123214105Y-110929901D01*
X123097927Y-111014310D01*
X123097925Y-111014312D01*
X123097924Y-111014312D01*
X122964312Y-111147924D01*
X122964312Y-111147925D01*
X122964310Y-111147927D01*
X122916610Y-111213579D01*
X122853240Y-111300800D01*
X122767454Y-111469163D01*
X122709059Y-111648881D01*
X122679500Y-111835513D01*
X122679500Y-112024486D01*
X122709059Y-112211118D01*
X122767454Y-112390836D01*
X122815240Y-112484620D01*
X122853240Y-112559199D01*
X122964310Y-112712073D01*
X123097927Y-112845690D01*
X123250801Y-112956760D01*
X123330347Y-112997290D01*
X123419163Y-113042545D01*
X123419165Y-113042545D01*
X123419168Y-113042547D01*
X123508734Y-113071649D01*
X123540803Y-113082069D01*
X123598478Y-113121507D01*
X123625676Y-113185866D01*
X123613761Y-113254712D01*
X123566516Y-113306188D01*
X123540803Y-113317931D01*
X123419163Y-113357454D01*
X123250800Y-113443240D01*
X123163579Y-113506610D01*
X123097927Y-113554310D01*
X123097925Y-113554312D01*
X123097924Y-113554312D01*
X122964312Y-113687924D01*
X122964312Y-113687925D01*
X122964310Y-113687927D01*
X122916610Y-113753579D01*
X122853240Y-113840800D01*
X122767454Y-114009163D01*
X122709059Y-114188881D01*
X122679500Y-114375513D01*
X122679500Y-114564486D01*
X122709059Y-114751118D01*
X122767454Y-114930836D01*
X122853240Y-115099199D01*
X122964310Y-115252073D01*
X123097927Y-115385690D01*
X123250801Y-115496760D01*
X123330347Y-115537290D01*
X123419163Y-115582545D01*
X123419165Y-115582545D01*
X123419168Y-115582547D01*
X123508734Y-115611649D01*
X123540803Y-115622069D01*
X123598478Y-115661507D01*
X123625676Y-115725866D01*
X123613761Y-115794712D01*
X123566516Y-115846188D01*
X123540803Y-115857931D01*
X123419163Y-115897454D01*
X123250800Y-115983240D01*
X123163579Y-116046610D01*
X123097927Y-116094310D01*
X123097925Y-116094312D01*
X123097924Y-116094312D01*
X122964312Y-116227924D01*
X122964312Y-116227925D01*
X122964310Y-116227927D01*
X122916610Y-116293579D01*
X122853240Y-116380800D01*
X122767454Y-116549163D01*
X122709059Y-116728881D01*
X122679500Y-116915513D01*
X122679500Y-117104486D01*
X122709059Y-117291118D01*
X122767454Y-117470836D01*
X122821126Y-117576172D01*
X122853240Y-117639199D01*
X122964310Y-117792073D01*
X123097927Y-117925690D01*
X123250801Y-118036760D01*
X123330347Y-118077290D01*
X123419163Y-118122545D01*
X123419165Y-118122545D01*
X123419168Y-118122547D01*
X123508734Y-118151649D01*
X123540803Y-118162069D01*
X123598478Y-118201507D01*
X123625676Y-118265866D01*
X123613761Y-118334712D01*
X123566516Y-118386188D01*
X123540803Y-118397931D01*
X123419163Y-118437454D01*
X123250800Y-118523240D01*
X123163579Y-118586610D01*
X123097927Y-118634310D01*
X123097925Y-118634312D01*
X123097924Y-118634312D01*
X122964312Y-118767924D01*
X122964312Y-118767925D01*
X122964310Y-118767927D01*
X122924423Y-118822826D01*
X122853240Y-118920800D01*
X122767454Y-119089163D01*
X122709059Y-119268881D01*
X122679500Y-119455513D01*
X122679500Y-119644486D01*
X122709059Y-119831118D01*
X122767454Y-120010836D01*
X122782453Y-120040272D01*
X122853240Y-120179199D01*
X122964310Y-120332073D01*
X123097927Y-120465690D01*
X123250801Y-120576760D01*
X123304410Y-120604075D01*
X123419163Y-120662545D01*
X123419165Y-120662545D01*
X123419168Y-120662547D01*
X123508734Y-120691649D01*
X123540803Y-120702069D01*
X123598478Y-120741507D01*
X123625676Y-120805866D01*
X123613761Y-120874712D01*
X123566516Y-120926188D01*
X123540803Y-120937931D01*
X123419163Y-120977454D01*
X123250800Y-121063240D01*
X123163579Y-121126610D01*
X123097927Y-121174310D01*
X123097925Y-121174312D01*
X123097924Y-121174312D01*
X122964312Y-121307924D01*
X122964312Y-121307925D01*
X122964310Y-121307927D01*
X122916610Y-121373579D01*
X122853240Y-121460800D01*
X122767454Y-121629163D01*
X122709059Y-121808881D01*
X122679500Y-121995513D01*
X122679500Y-122184486D01*
X122709059Y-122371118D01*
X122767454Y-122550836D01*
X122853240Y-122719199D01*
X122964310Y-122872073D01*
X123097927Y-123005690D01*
X123250801Y-123116760D01*
X123330347Y-123157290D01*
X123419163Y-123202545D01*
X123419165Y-123202545D01*
X123419168Y-123202547D01*
X123508734Y-123231649D01*
X123540803Y-123242069D01*
X123598478Y-123281507D01*
X123625676Y-123345866D01*
X123613761Y-123414712D01*
X123566516Y-123466188D01*
X123540803Y-123477931D01*
X123419163Y-123517454D01*
X123250800Y-123603240D01*
X123163579Y-123666610D01*
X123097927Y-123714310D01*
X123097925Y-123714312D01*
X123097924Y-123714312D01*
X122964312Y-123847924D01*
X122964312Y-123847925D01*
X122964310Y-123847927D01*
X122916610Y-123913579D01*
X122853240Y-124000800D01*
X122767454Y-124169163D01*
X122709059Y-124348881D01*
X122679500Y-124535513D01*
X122679500Y-124724486D01*
X122709059Y-124911118D01*
X122767454Y-125090836D01*
X122853240Y-125259199D01*
X122964310Y-125412073D01*
X123097927Y-125545690D01*
X123250801Y-125656760D01*
X123330347Y-125697290D01*
X123419163Y-125742545D01*
X123419165Y-125742545D01*
X123419168Y-125742547D01*
X123508734Y-125771649D01*
X123540803Y-125782069D01*
X123598478Y-125821507D01*
X123625676Y-125885866D01*
X123613761Y-125954712D01*
X123566516Y-126006188D01*
X123540803Y-126017931D01*
X123419163Y-126057454D01*
X123250800Y-126143240D01*
X123163579Y-126206610D01*
X123097927Y-126254310D01*
X123097925Y-126254312D01*
X123097924Y-126254312D01*
X122964312Y-126387924D01*
X122964312Y-126387925D01*
X122964310Y-126387927D01*
X122916610Y-126453579D01*
X122853240Y-126540800D01*
X122767454Y-126709163D01*
X122709059Y-126888881D01*
X122679500Y-127075513D01*
X122679500Y-127264486D01*
X122709059Y-127451118D01*
X122767454Y-127630836D01*
X122845798Y-127784594D01*
X122853240Y-127799199D01*
X122964310Y-127952073D01*
X123097927Y-128085690D01*
X123250801Y-128196760D01*
X123330347Y-128237290D01*
X123419163Y-128282545D01*
X123419165Y-128282545D01*
X123419168Y-128282547D01*
X123508734Y-128311649D01*
X123540803Y-128322069D01*
X123598478Y-128361507D01*
X123625676Y-128425866D01*
X123613761Y-128494712D01*
X123566516Y-128546188D01*
X123540803Y-128557931D01*
X123419163Y-128597454D01*
X123250800Y-128683240D01*
X123182552Y-128732826D01*
X123097927Y-128794310D01*
X123097925Y-128794312D01*
X123097924Y-128794312D01*
X122964312Y-128927924D01*
X122964312Y-128927925D01*
X122964310Y-128927927D01*
X122916610Y-128993579D01*
X122853240Y-129080800D01*
X122767454Y-129249163D01*
X122709059Y-129428881D01*
X122679500Y-129615513D01*
X122679500Y-129804486D01*
X122709059Y-129991118D01*
X122767454Y-130170836D01*
X122853240Y-130339199D01*
X122964310Y-130492073D01*
X123097927Y-130625690D01*
X123250801Y-130736760D01*
X123330347Y-130777290D01*
X123419163Y-130822545D01*
X123419165Y-130822545D01*
X123419168Y-130822547D01*
X123515497Y-130853846D01*
X123598881Y-130880940D01*
X123785514Y-130910500D01*
X123785519Y-130910500D01*
X123974486Y-130910500D01*
X124161118Y-130880940D01*
X124340832Y-130822547D01*
X124509199Y-130736760D01*
X124662073Y-130625690D01*
X124795690Y-130492073D01*
X124906760Y-130339199D01*
X124992547Y-130170832D01*
X125050940Y-129991118D01*
X125057409Y-129950272D01*
X125080500Y-129804486D01*
X125080500Y-129615513D01*
X125050940Y-129428881D01*
X125023846Y-129345497D01*
X124992547Y-129249168D01*
X124992545Y-129249165D01*
X124992545Y-129249163D01*
X124906759Y-129080800D01*
X124795690Y-128927927D01*
X124662073Y-128794310D01*
X124509199Y-128683240D01*
X124340836Y-128597454D01*
X124266472Y-128573291D01*
X124219195Y-128557930D01*
X124161521Y-128518493D01*
X124134323Y-128454134D01*
X124146238Y-128385288D01*
X124193482Y-128333812D01*
X124219194Y-128322069D01*
X124340832Y-128282547D01*
X124509199Y-128196760D01*
X124662073Y-128085690D01*
X124795690Y-127952073D01*
X124906760Y-127799199D01*
X124992547Y-127630832D01*
X125050940Y-127451118D01*
X125063025Y-127374816D01*
X125080500Y-127264486D01*
X125080500Y-127075513D01*
X125050940Y-126888881D01*
X124992545Y-126709163D01*
X124906759Y-126540800D01*
X124795690Y-126387927D01*
X124662073Y-126254310D01*
X124509199Y-126143240D01*
X124340836Y-126057454D01*
X124266472Y-126033291D01*
X124219195Y-126017930D01*
X124161521Y-125978493D01*
X124134323Y-125914134D01*
X124146238Y-125845288D01*
X124193482Y-125793812D01*
X124219194Y-125782069D01*
X124340832Y-125742547D01*
X124509199Y-125656760D01*
X124662073Y-125545690D01*
X124795690Y-125412073D01*
X124906760Y-125259199D01*
X124992547Y-125090832D01*
X125050940Y-124911118D01*
X125066694Y-124811652D01*
X125080500Y-124724486D01*
X125080500Y-124535513D01*
X125050940Y-124348881D01*
X124992545Y-124169163D01*
X124906759Y-124000800D01*
X124795690Y-123847927D01*
X124662073Y-123714310D01*
X124509199Y-123603240D01*
X124340836Y-123517454D01*
X124266472Y-123493291D01*
X124219195Y-123477930D01*
X124161521Y-123438493D01*
X124134323Y-123374134D01*
X124146238Y-123305288D01*
X124193482Y-123253812D01*
X124219194Y-123242069D01*
X124340832Y-123202547D01*
X124509199Y-123116760D01*
X124662073Y-123005690D01*
X124795690Y-122872073D01*
X124906760Y-122719199D01*
X124992547Y-122550832D01*
X125050940Y-122371118D01*
X125074143Y-122224620D01*
X125080500Y-122184486D01*
X125080500Y-121995513D01*
X125050940Y-121808881D01*
X124992545Y-121629163D01*
X124945037Y-121535925D01*
X124906760Y-121460801D01*
X124795690Y-121307927D01*
X124662073Y-121174310D01*
X124509199Y-121063240D01*
X124340836Y-120977454D01*
X124266472Y-120953291D01*
X124219195Y-120937930D01*
X124161521Y-120898493D01*
X124134323Y-120834134D01*
X124146238Y-120765288D01*
X124193482Y-120713812D01*
X124219194Y-120702069D01*
X124340832Y-120662547D01*
X124509199Y-120576760D01*
X124662073Y-120465690D01*
X124795690Y-120332073D01*
X124906760Y-120179199D01*
X124992547Y-120010832D01*
X125050940Y-119831118D01*
X125053396Y-119815609D01*
X125080500Y-119644486D01*
X125080500Y-119455513D01*
X125050940Y-119268881D01*
X124992545Y-119089163D01*
X124906759Y-118920800D01*
X124795690Y-118767927D01*
X124662073Y-118634310D01*
X124509199Y-118523240D01*
X124340836Y-118437454D01*
X124266472Y-118413291D01*
X124219195Y-118397930D01*
X124161521Y-118358493D01*
X124134323Y-118294134D01*
X124146238Y-118225288D01*
X124193482Y-118173812D01*
X124219194Y-118162069D01*
X124340832Y-118122547D01*
X124509199Y-118036760D01*
X124662073Y-117925690D01*
X124795690Y-117792073D01*
X124906760Y-117639199D01*
X124992547Y-117470832D01*
X125032069Y-117349195D01*
X125071507Y-117291521D01*
X125135866Y-117264323D01*
X125204712Y-117276238D01*
X125256188Y-117323482D01*
X125267931Y-117349196D01*
X125307454Y-117470836D01*
X125361126Y-117576172D01*
X125393240Y-117639199D01*
X125504310Y-117792073D01*
X125637927Y-117925690D01*
X125790801Y-118036760D01*
X125870347Y-118077290D01*
X125959163Y-118122545D01*
X125959165Y-118122545D01*
X125959168Y-118122547D01*
X126055497Y-118153846D01*
X126138881Y-118180940D01*
X126325514Y-118210500D01*
X126325519Y-118210500D01*
X126514486Y-118210500D01*
X126701118Y-118180940D01*
X126880832Y-118122547D01*
X127049199Y-118036760D01*
X127202073Y-117925690D01*
X127335690Y-117792073D01*
X127446760Y-117639199D01*
X127532547Y-117470832D01*
X127572069Y-117349195D01*
X127611507Y-117291521D01*
X127675866Y-117264323D01*
X127744712Y-117276238D01*
X127796188Y-117323482D01*
X127807931Y-117349196D01*
X127847454Y-117470836D01*
X127901126Y-117576172D01*
X127933240Y-117639199D01*
X128044310Y-117792073D01*
X128177927Y-117925690D01*
X128330801Y-118036760D01*
X128410347Y-118077290D01*
X128499163Y-118122545D01*
X128499165Y-118122545D01*
X128499168Y-118122547D01*
X128595497Y-118153846D01*
X128678881Y-118180940D01*
X128865514Y-118210500D01*
X128865519Y-118210500D01*
X129054486Y-118210500D01*
X129241118Y-118180940D01*
X129420832Y-118122547D01*
X129589199Y-118036760D01*
X129742073Y-117925690D01*
X129875690Y-117792073D01*
X129986760Y-117639199D01*
X130072547Y-117470832D01*
X130112069Y-117349195D01*
X130151507Y-117291521D01*
X130215866Y-117264323D01*
X130284712Y-117276238D01*
X130336188Y-117323482D01*
X130347931Y-117349196D01*
X130387454Y-117470836D01*
X130441126Y-117576172D01*
X130473240Y-117639199D01*
X130584310Y-117792073D01*
X130717927Y-117925690D01*
X130870801Y-118036760D01*
X130950347Y-118077290D01*
X131039163Y-118122545D01*
X131039165Y-118122545D01*
X131039168Y-118122547D01*
X131135497Y-118153846D01*
X131218881Y-118180940D01*
X131405514Y-118210500D01*
X131405519Y-118210500D01*
X131594486Y-118210500D01*
X131781118Y-118180940D01*
X131960832Y-118122547D01*
X132129199Y-118036760D01*
X132282073Y-117925690D01*
X132415690Y-117792073D01*
X132526760Y-117639199D01*
X132612547Y-117470832D01*
X132652069Y-117349195D01*
X132691507Y-117291521D01*
X132755866Y-117264323D01*
X132824712Y-117276238D01*
X132876188Y-117323482D01*
X132887931Y-117349196D01*
X132927454Y-117470836D01*
X132981126Y-117576172D01*
X133013240Y-117639199D01*
X133124310Y-117792073D01*
X133257927Y-117925690D01*
X133410801Y-118036760D01*
X133490347Y-118077290D01*
X133579163Y-118122545D01*
X133579165Y-118122545D01*
X133579168Y-118122547D01*
X133675497Y-118153846D01*
X133758881Y-118180940D01*
X133945514Y-118210500D01*
X133945519Y-118210500D01*
X134134486Y-118210500D01*
X134321118Y-118180940D01*
X134500832Y-118122547D01*
X134669199Y-118036760D01*
X134822073Y-117925690D01*
X134955690Y-117792073D01*
X135066760Y-117639199D01*
X135152547Y-117470832D01*
X135192069Y-117349195D01*
X135231507Y-117291521D01*
X135295866Y-117264323D01*
X135364712Y-117276238D01*
X135416188Y-117323482D01*
X135427931Y-117349196D01*
X135467454Y-117470836D01*
X135521126Y-117576172D01*
X135553240Y-117639199D01*
X135664310Y-117792073D01*
X135797927Y-117925690D01*
X135950801Y-118036760D01*
X136030347Y-118077290D01*
X136119163Y-118122545D01*
X136119165Y-118122545D01*
X136119168Y-118122547D01*
X136215497Y-118153846D01*
X136298881Y-118180940D01*
X136485514Y-118210500D01*
X136485519Y-118210500D01*
X136674486Y-118210500D01*
X136861118Y-118180940D01*
X137040832Y-118122547D01*
X137209199Y-118036760D01*
X137362073Y-117925690D01*
X137495690Y-117792073D01*
X137606760Y-117639199D01*
X137692547Y-117470832D01*
X137732069Y-117349195D01*
X137771507Y-117291521D01*
X137835866Y-117264323D01*
X137904712Y-117276238D01*
X137956188Y-117323482D01*
X137967931Y-117349196D01*
X138007454Y-117470836D01*
X138061126Y-117576172D01*
X138093240Y-117639199D01*
X138204310Y-117792073D01*
X138337927Y-117925690D01*
X138490801Y-118036760D01*
X138570347Y-118077290D01*
X138659163Y-118122545D01*
X138659165Y-118122545D01*
X138659168Y-118122547D01*
X138748734Y-118151649D01*
X138780803Y-118162069D01*
X138838478Y-118201507D01*
X138865676Y-118265866D01*
X138853761Y-118334712D01*
X138806516Y-118386188D01*
X138780803Y-118397931D01*
X138659163Y-118437454D01*
X138490800Y-118523240D01*
X138403579Y-118586610D01*
X138337927Y-118634310D01*
X138337925Y-118634312D01*
X138337924Y-118634312D01*
X138204312Y-118767924D01*
X138204312Y-118767925D01*
X138204310Y-118767927D01*
X138164423Y-118822826D01*
X138093240Y-118920800D01*
X138007454Y-119089163D01*
X137949059Y-119268881D01*
X137919500Y-119455513D01*
X137919500Y-119644486D01*
X137949059Y-119831118D01*
X138007454Y-120010836D01*
X138022453Y-120040272D01*
X138093240Y-120179199D01*
X138204310Y-120332073D01*
X138337927Y-120465690D01*
X138490801Y-120576760D01*
X138544410Y-120604075D01*
X138659163Y-120662545D01*
X138659165Y-120662545D01*
X138659168Y-120662547D01*
X138748734Y-120691649D01*
X138780803Y-120702069D01*
X138838478Y-120741507D01*
X138865676Y-120805866D01*
X138853761Y-120874712D01*
X138806516Y-120926188D01*
X138780803Y-120937931D01*
X138659163Y-120977454D01*
X138490800Y-121063240D01*
X138403579Y-121126610D01*
X138337927Y-121174310D01*
X138337925Y-121174312D01*
X138337924Y-121174312D01*
X138204312Y-121307924D01*
X138204312Y-121307925D01*
X138204310Y-121307927D01*
X138156610Y-121373579D01*
X138093240Y-121460800D01*
X138007454Y-121629163D01*
X137949059Y-121808881D01*
X137919500Y-121995513D01*
X137919500Y-122184486D01*
X137949059Y-122371118D01*
X138007454Y-122550836D01*
X138093240Y-122719199D01*
X138204310Y-122872073D01*
X138337927Y-123005690D01*
X138490801Y-123116760D01*
X138570347Y-123157290D01*
X138659163Y-123202545D01*
X138659165Y-123202545D01*
X138659168Y-123202547D01*
X138748734Y-123231649D01*
X138780803Y-123242069D01*
X138838478Y-123281507D01*
X138865676Y-123345866D01*
X138853761Y-123414712D01*
X138806516Y-123466188D01*
X138780803Y-123477931D01*
X138659163Y-123517454D01*
X138490800Y-123603240D01*
X138403579Y-123666610D01*
X138337927Y-123714310D01*
X138337925Y-123714312D01*
X138337924Y-123714312D01*
X138204312Y-123847924D01*
X138204312Y-123847925D01*
X138204310Y-123847927D01*
X138156610Y-123913579D01*
X138093240Y-124000800D01*
X138007454Y-124169163D01*
X137949059Y-124348881D01*
X137919500Y-124535513D01*
X137919500Y-124724486D01*
X137949059Y-124911118D01*
X138007454Y-125090836D01*
X138093240Y-125259199D01*
X138204310Y-125412073D01*
X138337927Y-125545690D01*
X138490801Y-125656760D01*
X138570347Y-125697290D01*
X138659163Y-125742545D01*
X138659165Y-125742545D01*
X138659168Y-125742547D01*
X138748734Y-125771649D01*
X138780803Y-125782069D01*
X138838478Y-125821507D01*
X138865676Y-125885866D01*
X138853761Y-125954712D01*
X138806516Y-126006188D01*
X138780803Y-126017931D01*
X138659163Y-126057454D01*
X138490800Y-126143240D01*
X138403579Y-126206610D01*
X138337927Y-126254310D01*
X138337925Y-126254312D01*
X138337924Y-126254312D01*
X138204312Y-126387924D01*
X138204312Y-126387925D01*
X138204310Y-126387927D01*
X138156610Y-126453579D01*
X138093240Y-126540800D01*
X138007454Y-126709163D01*
X137949059Y-126888881D01*
X137919500Y-127075513D01*
X137919500Y-127264486D01*
X137949059Y-127451118D01*
X138007454Y-127630836D01*
X138085798Y-127784594D01*
X138093240Y-127799199D01*
X138204310Y-127952073D01*
X138337927Y-128085690D01*
X138490801Y-128196760D01*
X138570347Y-128237290D01*
X138659163Y-128282545D01*
X138659165Y-128282545D01*
X138659168Y-128282547D01*
X138748734Y-128311649D01*
X138780803Y-128322069D01*
X138838478Y-128361507D01*
X138865676Y-128425866D01*
X138853761Y-128494712D01*
X138806516Y-128546188D01*
X138780803Y-128557931D01*
X138659163Y-128597454D01*
X138490800Y-128683240D01*
X138422552Y-128732826D01*
X138337927Y-128794310D01*
X138337925Y-128794312D01*
X138337924Y-128794312D01*
X138204312Y-128927924D01*
X138204312Y-128927925D01*
X138204310Y-128927927D01*
X138156610Y-128993579D01*
X138093240Y-129080800D01*
X138007454Y-129249163D01*
X137949059Y-129428881D01*
X137919500Y-129615513D01*
X137919500Y-129804486D01*
X137949059Y-129991118D01*
X138007454Y-130170836D01*
X138093240Y-130339199D01*
X138204310Y-130492073D01*
X138337927Y-130625690D01*
X138490801Y-130736760D01*
X138570347Y-130777290D01*
X138659163Y-130822545D01*
X138659165Y-130822545D01*
X138659168Y-130822547D01*
X138755497Y-130853846D01*
X138838881Y-130880940D01*
X139025514Y-130910500D01*
X139025519Y-130910500D01*
X139214486Y-130910500D01*
X139401118Y-130880940D01*
X139580832Y-130822547D01*
X139749199Y-130736760D01*
X139902073Y-130625690D01*
X140035690Y-130492073D01*
X140146760Y-130339199D01*
X140232547Y-130170832D01*
X140290940Y-129991118D01*
X140297409Y-129950272D01*
X140320500Y-129804486D01*
X140320500Y-129615513D01*
X140290940Y-129428881D01*
X140263846Y-129345497D01*
X140232547Y-129249168D01*
X140232545Y-129249165D01*
X140232545Y-129249163D01*
X140146759Y-129080800D01*
X140035690Y-128927927D01*
X139902073Y-128794310D01*
X139749199Y-128683240D01*
X139580836Y-128597454D01*
X139506472Y-128573291D01*
X139459195Y-128557930D01*
X139401521Y-128518493D01*
X139374323Y-128454134D01*
X139386238Y-128385288D01*
X139433482Y-128333812D01*
X139459194Y-128322069D01*
X139580832Y-128282547D01*
X139749199Y-128196760D01*
X139902073Y-128085690D01*
X140035690Y-127952073D01*
X140146760Y-127799199D01*
X140232547Y-127630832D01*
X140290940Y-127451118D01*
X140303025Y-127374816D01*
X140320500Y-127264486D01*
X140320500Y-127075513D01*
X140290940Y-126888881D01*
X140232545Y-126709163D01*
X140146759Y-126540800D01*
X140035690Y-126387927D01*
X139902073Y-126254310D01*
X139749199Y-126143240D01*
X139580836Y-126057454D01*
X139506472Y-126033291D01*
X139459195Y-126017930D01*
X139401521Y-125978493D01*
X139374323Y-125914134D01*
X139386238Y-125845288D01*
X139433482Y-125793812D01*
X139459194Y-125782069D01*
X139580832Y-125742547D01*
X139749199Y-125656760D01*
X139902073Y-125545690D01*
X140035690Y-125412073D01*
X140146760Y-125259199D01*
X140232547Y-125090832D01*
X140290940Y-124911118D01*
X140306694Y-124811652D01*
X140320500Y-124724486D01*
X140320500Y-124535513D01*
X140290940Y-124348881D01*
X140232545Y-124169163D01*
X140146759Y-124000800D01*
X140035690Y-123847927D01*
X139902073Y-123714310D01*
X139749199Y-123603240D01*
X139580836Y-123517454D01*
X139506472Y-123493291D01*
X139459195Y-123477930D01*
X139401521Y-123438493D01*
X139374323Y-123374134D01*
X139386238Y-123305288D01*
X139433482Y-123253812D01*
X139459194Y-123242069D01*
X139580832Y-123202547D01*
X139749199Y-123116760D01*
X139902073Y-123005690D01*
X140035690Y-122872073D01*
X140146760Y-122719199D01*
X140232547Y-122550832D01*
X140290940Y-122371118D01*
X140314143Y-122224620D01*
X140320500Y-122184486D01*
X140320500Y-121995513D01*
X140290940Y-121808881D01*
X140232545Y-121629163D01*
X140185037Y-121535925D01*
X140146760Y-121460801D01*
X140035690Y-121307927D01*
X139902073Y-121174310D01*
X139749199Y-121063240D01*
X139580836Y-120977454D01*
X139506472Y-120953291D01*
X139459195Y-120937930D01*
X139401521Y-120898493D01*
X139374323Y-120834134D01*
X139386238Y-120765288D01*
X139433482Y-120713812D01*
X139459194Y-120702069D01*
X139580832Y-120662547D01*
X139749199Y-120576760D01*
X139902073Y-120465690D01*
X140035690Y-120332073D01*
X140146760Y-120179199D01*
X140232547Y-120010832D01*
X140290940Y-119831118D01*
X140293396Y-119815609D01*
X140320500Y-119644486D01*
X140320500Y-119455513D01*
X140290940Y-119268881D01*
X140232545Y-119089163D01*
X140146759Y-118920800D01*
X140035690Y-118767927D01*
X139902073Y-118634310D01*
X139749199Y-118523240D01*
X139580836Y-118437454D01*
X139506472Y-118413291D01*
X139459195Y-118397930D01*
X139401521Y-118358493D01*
X139374323Y-118294134D01*
X139386238Y-118225288D01*
X139433482Y-118173812D01*
X139459194Y-118162069D01*
X139580832Y-118122547D01*
X139749199Y-118036760D01*
X139902073Y-117925690D01*
X140035690Y-117792073D01*
X140146760Y-117639199D01*
X140232547Y-117470832D01*
X140290940Y-117291118D01*
X140298957Y-117240499D01*
X140320500Y-117104486D01*
X140320500Y-116915513D01*
X140290940Y-116728881D01*
X140232545Y-116549163D01*
X140146759Y-116380800D01*
X140035690Y-116227927D01*
X139902073Y-116094310D01*
X139749199Y-115983240D01*
X139580836Y-115897454D01*
X139506472Y-115873291D01*
X139459195Y-115857930D01*
X139401521Y-115818493D01*
X139374323Y-115754134D01*
X139386238Y-115685288D01*
X139433482Y-115633812D01*
X139459194Y-115622069D01*
X139580832Y-115582547D01*
X139749199Y-115496760D01*
X139902073Y-115385690D01*
X140035690Y-115252073D01*
X140146760Y-115099199D01*
X140232547Y-114930832D01*
X140290940Y-114751118D01*
X140292780Y-114739500D01*
X140320500Y-114564486D01*
X140320500Y-114375513D01*
X140290940Y-114188881D01*
X140232545Y-114009163D01*
X140146759Y-113840800D01*
X140035690Y-113687927D01*
X139902073Y-113554310D01*
X139749199Y-113443240D01*
X139580836Y-113357454D01*
X139506472Y-113333291D01*
X139459195Y-113317930D01*
X139401521Y-113278493D01*
X139374323Y-113214134D01*
X139386238Y-113145288D01*
X139433482Y-113093812D01*
X139459194Y-113082069D01*
X139580832Y-113042547D01*
X139749199Y-112956760D01*
X139902073Y-112845690D01*
X140035690Y-112712073D01*
X140146760Y-112559199D01*
X140232547Y-112390832D01*
X140290940Y-112211118D01*
X140291203Y-112209459D01*
X140320500Y-112024486D01*
X140320500Y-111835513D01*
X140290940Y-111648881D01*
X140232545Y-111469163D01*
X140146759Y-111300800D01*
X140035690Y-111147927D01*
X139902073Y-111014310D01*
X139749199Y-110903240D01*
X139580836Y-110817454D01*
X139506472Y-110793291D01*
X139459195Y-110777930D01*
X139401521Y-110738493D01*
X139374323Y-110674134D01*
X139386238Y-110605288D01*
X139433482Y-110553812D01*
X139459194Y-110542069D01*
X139580832Y-110502547D01*
X139749199Y-110416760D01*
X139902073Y-110305690D01*
X140035690Y-110172073D01*
X140146760Y-110019199D01*
X140232547Y-109850832D01*
X140290940Y-109671118D01*
X140301468Y-109604646D01*
X140320500Y-109484486D01*
X140320500Y-109295513D01*
X140290940Y-109108881D01*
X140232545Y-108929163D01*
X140146759Y-108760800D01*
X140035690Y-108607927D01*
X139902073Y-108474310D01*
X139749199Y-108363240D01*
X139749191Y-108363236D01*
X139595559Y-108284956D01*
X139544763Y-108236981D01*
X139527968Y-108169160D01*
X139550506Y-108103025D01*
X139605221Y-108059574D01*
X139613544Y-108056537D01*
X139619033Y-108054753D01*
X139801349Y-107961859D01*
X139845921Y-107929474D01*
X139290234Y-107373787D01*
X139332292Y-107362518D01*
X139457708Y-107290110D01*
X139560110Y-107187708D01*
X139632518Y-107062292D01*
X139643787Y-107020235D01*
X140199474Y-107575922D01*
X140199474Y-107575921D01*
X140231859Y-107531349D01*
X140324755Y-107349031D01*
X140387990Y-107154417D01*
X140420000Y-106952317D01*
X140420000Y-106747682D01*
X140387990Y-106545582D01*
X140324755Y-106350968D01*
X140231859Y-106168650D01*
X140199474Y-106124077D01*
X140199474Y-106124076D01*
X139643787Y-106679764D01*
X139632518Y-106637708D01*
X139560110Y-106512292D01*
X139457708Y-106409890D01*
X139332292Y-106337482D01*
X139290233Y-106326212D01*
X139845922Y-105770524D01*
X139845921Y-105770523D01*
X139801359Y-105738147D01*
X139801350Y-105738141D01*
X139619027Y-105645242D01*
X139613534Y-105643458D01*
X139555859Y-105604020D01*
X139528662Y-105539661D01*
X139540578Y-105470815D01*
X139587822Y-105419340D01*
X139595559Y-105415043D01*
X139749199Y-105336760D01*
X139902073Y-105225690D01*
X140035690Y-105092073D01*
X140146760Y-104939199D01*
X140232547Y-104770832D01*
X140290940Y-104591118D01*
X140320500Y-104404486D01*
X140320500Y-104215513D01*
X140290940Y-104028881D01*
X140232545Y-103849163D01*
X140146759Y-103680800D01*
X140035690Y-103527927D01*
X139902073Y-103394310D01*
X139749199Y-103283240D01*
X139715550Y-103266095D01*
X139580836Y-103197454D01*
X139495171Y-103169620D01*
X139459195Y-103157930D01*
X139401521Y-103118493D01*
X139374323Y-103054134D01*
X139386238Y-102985288D01*
X139433482Y-102933812D01*
X139459194Y-102922069D01*
X139580832Y-102882547D01*
X139749199Y-102796760D01*
X139902073Y-102685690D01*
X140035690Y-102552073D01*
X140146760Y-102399199D01*
X140232547Y-102230832D01*
X140290940Y-102051118D01*
X140320500Y-101864486D01*
X140320500Y-101675513D01*
X140290940Y-101488881D01*
X140232545Y-101309163D01*
X140146759Y-101140800D01*
X140035690Y-100987927D01*
X139902073Y-100854310D01*
X139749199Y-100743240D01*
X139580836Y-100657454D01*
X139486040Y-100626653D01*
X139459195Y-100617930D01*
X139401521Y-100578493D01*
X139374323Y-100514134D01*
X139386238Y-100445288D01*
X139433482Y-100393812D01*
X139459194Y-100382069D01*
X139580832Y-100342547D01*
X139749199Y-100256760D01*
X139902073Y-100145690D01*
X140035690Y-100012073D01*
X140146760Y-99859199D01*
X140232547Y-99690832D01*
X140290940Y-99511118D01*
X140320500Y-99324486D01*
X140320500Y-99135513D01*
X140290940Y-98948881D01*
X140248932Y-98819595D01*
X140232547Y-98769168D01*
X140232545Y-98769165D01*
X140232545Y-98769163D01*
X140146759Y-98600800D01*
X140035690Y-98447927D01*
X139902073Y-98314310D01*
X139749199Y-98203240D01*
X139720704Y-98188721D01*
X139580836Y-98117454D01*
X139506472Y-98093291D01*
X139459195Y-98077930D01*
X139401521Y-98038493D01*
X139374323Y-97974134D01*
X139386238Y-97905288D01*
X139433482Y-97853812D01*
X139459194Y-97842069D01*
X139580832Y-97802547D01*
X139749199Y-97716760D01*
X139902073Y-97605690D01*
X140035690Y-97472073D01*
X140146760Y-97319199D01*
X140232547Y-97150832D01*
X140290940Y-96971118D01*
X140320500Y-96784486D01*
X140320500Y-96595513D01*
X140290940Y-96408881D01*
X140232545Y-96229163D01*
X140146759Y-96060800D01*
X140141442Y-96053482D01*
X140035690Y-95907927D01*
X139902073Y-95774310D01*
X139749199Y-95663240D01*
X139734462Y-95655731D01*
X139580836Y-95577454D01*
X139476296Y-95543487D01*
X139459195Y-95537930D01*
X139401521Y-95498493D01*
X139374323Y-95434134D01*
X139386238Y-95365288D01*
X139433482Y-95313812D01*
X139459194Y-95302069D01*
X139580832Y-95262547D01*
X139749199Y-95176760D01*
X139902073Y-95065690D01*
X140035690Y-94932073D01*
X140146760Y-94779199D01*
X140232547Y-94610832D01*
X140290940Y-94431118D01*
X140320500Y-94244486D01*
X140320500Y-94055513D01*
X140290940Y-93868881D01*
X140232545Y-93689163D01*
X140146759Y-93520800D01*
X140035690Y-93367927D01*
X139902073Y-93234310D01*
X139749199Y-93123240D01*
X139580836Y-93037454D01*
X139506472Y-93013291D01*
X139459195Y-92997930D01*
X139401521Y-92958493D01*
X139374323Y-92894134D01*
X139386238Y-92825288D01*
X139433482Y-92773812D01*
X139459194Y-92762069D01*
X139580832Y-92722547D01*
X139749199Y-92636760D01*
X139902073Y-92525690D01*
X140035690Y-92392073D01*
X140146760Y-92239199D01*
X140232547Y-92070832D01*
X140290940Y-91891118D01*
X140320500Y-91704486D01*
X140320500Y-91515513D01*
X140290940Y-91328881D01*
X140232545Y-91149163D01*
X140187290Y-91060347D01*
X140146760Y-90980801D01*
X140035690Y-90827927D01*
X139902073Y-90694310D01*
X139749199Y-90583240D01*
X139743845Y-90580512D01*
X139580836Y-90497454D01*
X139506472Y-90473291D01*
X139459195Y-90457930D01*
X139401521Y-90418493D01*
X139374323Y-90354134D01*
X139386238Y-90285288D01*
X139433482Y-90233812D01*
X139459194Y-90222069D01*
X139580832Y-90182547D01*
X139749199Y-90096760D01*
X139902073Y-89985690D01*
X140035690Y-89852073D01*
X140146760Y-89699199D01*
X140232547Y-89530832D01*
X140290940Y-89351118D01*
X140320500Y-89164486D01*
X140320500Y-88975513D01*
X140290940Y-88788881D01*
X140250651Y-88664887D01*
X140232547Y-88609168D01*
X140232545Y-88609165D01*
X140232545Y-88609163D01*
X140146759Y-88440800D01*
X140035690Y-88287927D01*
X139902073Y-88154310D01*
X139749199Y-88043240D01*
X139723838Y-88030318D01*
X139580836Y-87957454D01*
X139506472Y-87933291D01*
X139459195Y-87917930D01*
X139401521Y-87878493D01*
X139374323Y-87814134D01*
X139386238Y-87745288D01*
X139433482Y-87693812D01*
X139459194Y-87682069D01*
X139580832Y-87642547D01*
X139749199Y-87556760D01*
X139902073Y-87445690D01*
X140035690Y-87312073D01*
X140146760Y-87159199D01*
X140232547Y-86990832D01*
X140290940Y-86811118D01*
X140304985Y-86722440D01*
X140320500Y-86624486D01*
X140320500Y-86435513D01*
X140290940Y-86248881D01*
X140250651Y-86124887D01*
X140232547Y-86069168D01*
X140232545Y-86069165D01*
X140232545Y-86069163D01*
X140173652Y-85953580D01*
X140146760Y-85900801D01*
X140035690Y-85747927D01*
X139902073Y-85614310D01*
X139749199Y-85503240D01*
X139723838Y-85490318D01*
X139580836Y-85417454D01*
X139506472Y-85393291D01*
X139459195Y-85377930D01*
X139401521Y-85338493D01*
X139374323Y-85274134D01*
X139386238Y-85205288D01*
X139433482Y-85153812D01*
X139459194Y-85142069D01*
X139580832Y-85102547D01*
X139749199Y-85016760D01*
X139902073Y-84905690D01*
X140035690Y-84772073D01*
X140146760Y-84619199D01*
X140232547Y-84450832D01*
X140290940Y-84271118D01*
X140309089Y-84156530D01*
X140320500Y-84084486D01*
X140320500Y-83895513D01*
X140290940Y-83708881D01*
X140245442Y-83568854D01*
X140232547Y-83529168D01*
X140232545Y-83529165D01*
X140232545Y-83529163D01*
X140173990Y-83414244D01*
X140146760Y-83360801D01*
X140035690Y-83207927D01*
X139902073Y-83074310D01*
X139749199Y-82963240D01*
X139692568Y-82934385D01*
X139580836Y-82877454D01*
X139506472Y-82853291D01*
X139459195Y-82837930D01*
X139401521Y-82798493D01*
X139374323Y-82734134D01*
X139386238Y-82665288D01*
X139433482Y-82613812D01*
X139459194Y-82602069D01*
X139580832Y-82562547D01*
X139749199Y-82476760D01*
X139902073Y-82365690D01*
X140035690Y-82232073D01*
X140094147Y-82151613D01*
X140149478Y-82108949D01*
X140194465Y-82100500D01*
X142629192Y-82100500D01*
X142696231Y-82120185D01*
X142716873Y-82136819D01*
X148085324Y-87505271D01*
X148085327Y-87505274D01*
X148085330Y-87505276D01*
X148162382Y-87556760D01*
X148191873Y-87576465D01*
X148310256Y-87625501D01*
X148310260Y-87625501D01*
X148310261Y-87625502D01*
X148435928Y-87650500D01*
X148435931Y-87650500D01*
X152064071Y-87650500D01*
X152148615Y-87633682D01*
X152189744Y-87625501D01*
X152308127Y-87576465D01*
X152337618Y-87556760D01*
X152414669Y-87505277D01*
X158102931Y-81817013D01*
X158164252Y-81783530D01*
X158166317Y-81783099D01*
X158233497Y-81769737D01*
X158379179Y-81709394D01*
X158510289Y-81621789D01*
X158621789Y-81510289D01*
X158709394Y-81379179D01*
X158769737Y-81233497D01*
X158800500Y-81078842D01*
X158800500Y-80921158D01*
X158800500Y-80921155D01*
X158800499Y-80921153D01*
X158780538Y-80820802D01*
X158769737Y-80766503D01*
X158728905Y-80667924D01*
X158709397Y-80620827D01*
X158709390Y-80620814D01*
X158621789Y-80489711D01*
X158621786Y-80489707D01*
X158510292Y-80378213D01*
X158510288Y-80378210D01*
X158379185Y-80290609D01*
X158379172Y-80290602D01*
X158233501Y-80230264D01*
X158233489Y-80230261D01*
X158078845Y-80199500D01*
X158078842Y-80199500D01*
X157921158Y-80199500D01*
X157921155Y-80199500D01*
X157766510Y-80230261D01*
X157766498Y-80230264D01*
X157620827Y-80290602D01*
X157620814Y-80290609D01*
X157489711Y-80378210D01*
X157489707Y-80378213D01*
X157378213Y-80489707D01*
X157378210Y-80489711D01*
X157290609Y-80620814D01*
X157290602Y-80620827D01*
X157230264Y-80766498D01*
X157230261Y-80766508D01*
X157216920Y-80833579D01*
X157184535Y-80895490D01*
X157182984Y-80897068D01*
X151766873Y-86313181D01*
X151705550Y-86346666D01*
X151679192Y-86349500D01*
X151406880Y-86349500D01*
X151339841Y-86329815D01*
X151294086Y-86277011D01*
X151284142Y-86207853D01*
X151313167Y-86144297D01*
X151333995Y-86125182D01*
X151412358Y-86068247D01*
X151412356Y-86068247D01*
X151412365Y-86068242D01*
X151568242Y-85912365D01*
X151697815Y-85734022D01*
X151797895Y-85537606D01*
X151866015Y-85327951D01*
X151900500Y-85110222D01*
X151900500Y-80631468D01*
X151920185Y-80564429D01*
X151936819Y-80543787D01*
X152654919Y-79825687D01*
X153568242Y-78912364D01*
X153697815Y-78734022D01*
X153797895Y-78537606D01*
X153866015Y-78327951D01*
X153900501Y-78110222D01*
X153900501Y-77889778D01*
X153866015Y-77672049D01*
X153797895Y-77462395D01*
X153797895Y-77462394D01*
X153740390Y-77349536D01*
X153697815Y-77265978D01*
X153568242Y-77087636D01*
X153412364Y-76931758D01*
X153234022Y-76802185D01*
X153231789Y-76801047D01*
X153037605Y-76702104D01*
X153037602Y-76702103D01*
X152853946Y-76642431D01*
X152796271Y-76602994D01*
X152769072Y-76538635D01*
X152780986Y-76469789D01*
X152828230Y-76418313D01*
X152892264Y-76400500D01*
X154088693Y-76400500D01*
X154088694Y-76400499D01*
X154163417Y-76385636D01*
X154262658Y-76365896D01*
X154262661Y-76365894D01*
X154262666Y-76365894D01*
X154426547Y-76298013D01*
X154574035Y-76199464D01*
X154699464Y-76074035D01*
X154798013Y-75926547D01*
X154865894Y-75762666D01*
X154867582Y-75754184D01*
X154893697Y-75622893D01*
X154900500Y-75588691D01*
X154900500Y-75411309D01*
X154900500Y-75411306D01*
X154900499Y-75411304D01*
X154865896Y-75237341D01*
X154865893Y-75237332D01*
X154854231Y-75209178D01*
X154826198Y-75141498D01*
X154798016Y-75073459D01*
X154798009Y-75073446D01*
X154699464Y-74925965D01*
X154699461Y-74925961D01*
X154574038Y-74800538D01*
X154574034Y-74800535D01*
X154426553Y-74701990D01*
X154426540Y-74701983D01*
X154262667Y-74634106D01*
X154262658Y-74634103D01*
X154088694Y-74599500D01*
X154088691Y-74599500D01*
X151588692Y-74599500D01*
X151411308Y-74599500D01*
X151411303Y-74599500D01*
X151237341Y-74634103D01*
X151237333Y-74634105D01*
X151167197Y-74663156D01*
X151167188Y-74663160D01*
X151161285Y-74665606D01*
X151073453Y-74701987D01*
X150985040Y-74761063D01*
X150980234Y-74764274D01*
X150980227Y-74764278D01*
X150925961Y-74800537D01*
X150925960Y-74800538D01*
X148800536Y-76925963D01*
X148800536Y-76925964D01*
X148800534Y-76925966D01*
X148663318Y-77063182D01*
X148601998Y-77096666D01*
X148575639Y-77099500D01*
X146619808Y-77099500D01*
X146552769Y-77079815D01*
X146507014Y-77027011D01*
X146497070Y-76957853D01*
X146526095Y-76894297D01*
X146532127Y-76887819D01*
X150733127Y-72686819D01*
X150794450Y-72653334D01*
X150820808Y-72650500D01*
X153495065Y-72650500D01*
X153562104Y-72670185D01*
X153563909Y-72671366D01*
X153620821Y-72709394D01*
X153620823Y-72709395D01*
X153620827Y-72709397D01*
X153720118Y-72750524D01*
X153766503Y-72769737D01*
X153921153Y-72800499D01*
X153921156Y-72800500D01*
X153921158Y-72800500D01*
X154078844Y-72800500D01*
X154078845Y-72800499D01*
X154233497Y-72769737D01*
X154379179Y-72709394D01*
X154510289Y-72621789D01*
X154621789Y-72510289D01*
X154709394Y-72379179D01*
X154769737Y-72233497D01*
X154800500Y-72078842D01*
X154800500Y-71921158D01*
X154800500Y-71921155D01*
X154800499Y-71921153D01*
X154787345Y-71855025D01*
X154769737Y-71766503D01*
X154747816Y-71713580D01*
X154709397Y-71620827D01*
X154709390Y-71620814D01*
X154621789Y-71489711D01*
X154621786Y-71489707D01*
X154510292Y-71378213D01*
X154510288Y-71378210D01*
X154379185Y-71290609D01*
X154379172Y-71290602D01*
X154233501Y-71230264D01*
X154233489Y-71230261D01*
X154078845Y-71199500D01*
X154078842Y-71199500D01*
X153921158Y-71199500D01*
X153921155Y-71199500D01*
X153766510Y-71230261D01*
X153766498Y-71230264D01*
X153620827Y-71290602D01*
X153620820Y-71290606D01*
X153591928Y-71309911D01*
X153563955Y-71328602D01*
X153497279Y-71349480D01*
X153495065Y-71349500D01*
X150435929Y-71349500D01*
X150310261Y-71374497D01*
X150310255Y-71374499D01*
X150191874Y-71423534D01*
X150085326Y-71494726D01*
X150085325Y-71494727D01*
X147585331Y-73994723D01*
X145266873Y-76313181D01*
X145205550Y-76346666D01*
X145179192Y-76349500D01*
X142935929Y-76349500D01*
X142810261Y-76374497D01*
X142810255Y-76374499D01*
X142691874Y-76423534D01*
X142585326Y-76494726D01*
X142585325Y-76494727D01*
X140856873Y-78223181D01*
X140795550Y-78256666D01*
X140769192Y-78259500D01*
X140194465Y-78259500D01*
X140127426Y-78239815D01*
X140094147Y-78208386D01*
X140035690Y-78127927D01*
X139902073Y-77994310D01*
X139749199Y-77883240D01*
X139580836Y-77797454D01*
X139506472Y-77773291D01*
X139459195Y-77757930D01*
X139401521Y-77718493D01*
X139374323Y-77654134D01*
X139386238Y-77585288D01*
X139433482Y-77533812D01*
X139459194Y-77522069D01*
X139580832Y-77482547D01*
X139749199Y-77396760D01*
X139902073Y-77285690D01*
X140035690Y-77152073D01*
X140146760Y-76999199D01*
X140232547Y-76830832D01*
X140290940Y-76651118D01*
X140306212Y-76554693D01*
X140320500Y-76464486D01*
X140320500Y-76275513D01*
X140290940Y-76088881D01*
X140240331Y-75933124D01*
X140232547Y-75909168D01*
X140232545Y-75909165D01*
X140232545Y-75909163D01*
X140157901Y-75762667D01*
X140146760Y-75740801D01*
X140035690Y-75587927D01*
X139902073Y-75454310D01*
X139749199Y-75343240D01*
X139711393Y-75323977D01*
X139595559Y-75264956D01*
X139544763Y-75216981D01*
X139527968Y-75149160D01*
X139550506Y-75083025D01*
X139605221Y-75039574D01*
X139613544Y-75036537D01*
X139619033Y-75034753D01*
X139801349Y-74941859D01*
X139845921Y-74909474D01*
X139290234Y-74353787D01*
X139332292Y-74342518D01*
X139457708Y-74270110D01*
X139560110Y-74167708D01*
X139632518Y-74042292D01*
X139643787Y-74000235D01*
X140199474Y-74555922D01*
X140199474Y-74555921D01*
X140231859Y-74511349D01*
X140324755Y-74329031D01*
X140387990Y-74134417D01*
X140420000Y-73932317D01*
X140420000Y-73727682D01*
X140387990Y-73525582D01*
X140324755Y-73330968D01*
X140231859Y-73148650D01*
X140199474Y-73104077D01*
X140199474Y-73104076D01*
X139643787Y-73659764D01*
X139632518Y-73617708D01*
X139560110Y-73492292D01*
X139457708Y-73389890D01*
X139332292Y-73317482D01*
X139290233Y-73306212D01*
X139845922Y-72750524D01*
X139845921Y-72750523D01*
X139801359Y-72718147D01*
X139801350Y-72718141D01*
X139619027Y-72625242D01*
X139613534Y-72623458D01*
X139555859Y-72584020D01*
X139528662Y-72519661D01*
X139540578Y-72450815D01*
X139587822Y-72399340D01*
X139595559Y-72395043D01*
X139749199Y-72316760D01*
X139902073Y-72205690D01*
X140035690Y-72072073D01*
X140146760Y-71919199D01*
X140232547Y-71750832D01*
X140290940Y-71571118D01*
X140303040Y-71494723D01*
X140320500Y-71384486D01*
X140320500Y-71195513D01*
X140290940Y-71008881D01*
X140253929Y-70894975D01*
X140232547Y-70829168D01*
X140232545Y-70829165D01*
X140232545Y-70829163D01*
X140176716Y-70719594D01*
X140146760Y-70660801D01*
X140035690Y-70507927D01*
X140021238Y-70493475D01*
X140974500Y-70493475D01*
X140974500Y-72256517D01*
X140985292Y-72324657D01*
X140989354Y-72350304D01*
X141046950Y-72463342D01*
X141046952Y-72463344D01*
X141046954Y-72463347D01*
X141136652Y-72553045D01*
X141136654Y-72553046D01*
X141136658Y-72553050D01*
X141247810Y-72609685D01*
X141249698Y-72610647D01*
X141330582Y-72623457D01*
X141341858Y-72625243D01*
X141343475Y-72625499D01*
X141343481Y-72625500D01*
X143106518Y-72625499D01*
X143200304Y-72610646D01*
X143313342Y-72553050D01*
X143403050Y-72463342D01*
X143460646Y-72350304D01*
X143460646Y-72350302D01*
X143460647Y-72350301D01*
X143475499Y-72256524D01*
X143475500Y-72256519D01*
X143475499Y-72109263D01*
X143495183Y-72042227D01*
X143547987Y-71996472D01*
X143617145Y-71986528D01*
X143680701Y-72015553D01*
X143699817Y-72036380D01*
X143811172Y-72189646D01*
X143950354Y-72328828D01*
X144109595Y-72444524D01*
X144192455Y-72486743D01*
X144284970Y-72533882D01*
X144284972Y-72533882D01*
X144284975Y-72533884D01*
X144343962Y-72553050D01*
X144472173Y-72594709D01*
X144666578Y-72625500D01*
X144666583Y-72625500D01*
X144863422Y-72625500D01*
X145057826Y-72594709D01*
X145112408Y-72576974D01*
X145245025Y-72533884D01*
X145420405Y-72444524D01*
X145579646Y-72328828D01*
X145718828Y-72189646D01*
X145834524Y-72030405D01*
X145923884Y-71855025D01*
X145984709Y-71667826D01*
X146000026Y-71571118D01*
X146015500Y-71473422D01*
X146015500Y-71276577D01*
X145984709Y-71082173D01*
X145946898Y-70965804D01*
X145923884Y-70894975D01*
X145923882Y-70894972D01*
X145923882Y-70894970D01*
X145853218Y-70756285D01*
X145834524Y-70719595D01*
X145718828Y-70560354D01*
X145579646Y-70421172D01*
X145420405Y-70305476D01*
X145245029Y-70216117D01*
X145057826Y-70155290D01*
X144863422Y-70124500D01*
X144863417Y-70124500D01*
X144666583Y-70124500D01*
X144666578Y-70124500D01*
X144472173Y-70155290D01*
X144284970Y-70216117D01*
X144109594Y-70305476D01*
X144073835Y-70331457D01*
X143950354Y-70421172D01*
X143950352Y-70421174D01*
X143950351Y-70421174D01*
X143811173Y-70560352D01*
X143699817Y-70713620D01*
X143644486Y-70756285D01*
X143574873Y-70762264D01*
X143513078Y-70729658D01*
X143478721Y-70668819D01*
X143475499Y-70640734D01*
X143475499Y-70493482D01*
X143475498Y-70493475D01*
X143460646Y-70399696D01*
X143403050Y-70286658D01*
X143403046Y-70286654D01*
X143403045Y-70286652D01*
X143313347Y-70196954D01*
X143313344Y-70196952D01*
X143313342Y-70196950D01*
X143231580Y-70155290D01*
X143200301Y-70139352D01*
X143106524Y-70124500D01*
X141343482Y-70124500D01*
X141262519Y-70137323D01*
X141249696Y-70139354D01*
X141136658Y-70196950D01*
X141136657Y-70196951D01*
X141136652Y-70196954D01*
X141046954Y-70286652D01*
X141046951Y-70286657D01*
X141046950Y-70286658D01*
X141030787Y-70318380D01*
X140989352Y-70399698D01*
X140974500Y-70493475D01*
X140021238Y-70493475D01*
X139902073Y-70374310D01*
X139749199Y-70263240D01*
X139719118Y-70247913D01*
X139580836Y-70177454D01*
X139401118Y-70119059D01*
X139214486Y-70089500D01*
X139214481Y-70089500D01*
X139025519Y-70089500D01*
X139025514Y-70089500D01*
X138838881Y-70119059D01*
X138659163Y-70177454D01*
X138490800Y-70263240D01*
X138415004Y-70318310D01*
X138337927Y-70374310D01*
X138337925Y-70374312D01*
X138337924Y-70374312D01*
X138204312Y-70507924D01*
X138204312Y-70507925D01*
X138204310Y-70507927D01*
X138178800Y-70543039D01*
X138093240Y-70660800D01*
X138007454Y-70829163D01*
X137949059Y-71008881D01*
X137919500Y-71195513D01*
X137919500Y-71384486D01*
X137949059Y-71571118D01*
X138007454Y-71750836D01*
X138091880Y-71916530D01*
X138093240Y-71919199D01*
X138204310Y-72072073D01*
X138337927Y-72205690D01*
X138490801Y-72316760D01*
X138520894Y-72332093D01*
X138644440Y-72395043D01*
X138695236Y-72443018D01*
X138712031Y-72510839D01*
X138689494Y-72576974D01*
X138634778Y-72620425D01*
X138626469Y-72623457D01*
X138620971Y-72625243D01*
X138438644Y-72718143D01*
X138394077Y-72750523D01*
X138394077Y-72750524D01*
X138949766Y-73306212D01*
X138907708Y-73317482D01*
X138782292Y-73389890D01*
X138679890Y-73492292D01*
X138607482Y-73617708D01*
X138596212Y-73659765D01*
X138040524Y-73104077D01*
X138040523Y-73104077D01*
X138008143Y-73148644D01*
X137915243Y-73330971D01*
X137913457Y-73336469D01*
X137874017Y-73394142D01*
X137809657Y-73421337D01*
X137740811Y-73409420D01*
X137689338Y-73362173D01*
X137685043Y-73354440D01*
X137606759Y-73200800D01*
X137495690Y-73047927D01*
X137362073Y-72914310D01*
X137209199Y-72803240D01*
X137203821Y-72800500D01*
X137040836Y-72717454D01*
X136861118Y-72659059D01*
X136674486Y-72629500D01*
X136674481Y-72629500D01*
X136485519Y-72629500D01*
X136485514Y-72629500D01*
X136298881Y-72659059D01*
X136119163Y-72717454D01*
X135950800Y-72803240D01*
X135863579Y-72866610D01*
X135797927Y-72914310D01*
X135797925Y-72914312D01*
X135797924Y-72914312D01*
X135664312Y-73047924D01*
X135664312Y-73047925D01*
X135664310Y-73047927D01*
X135616610Y-73113579D01*
X135553240Y-73200800D01*
X135467454Y-73369163D01*
X135409059Y-73548881D01*
X135379500Y-73735513D01*
X135379500Y-73924486D01*
X135409059Y-74111118D01*
X135467454Y-74290836D01*
X135553240Y-74459199D01*
X135664310Y-74612073D01*
X135797927Y-74745690D01*
X135950801Y-74856760D01*
X136029777Y-74897000D01*
X136119163Y-74942545D01*
X136119165Y-74942545D01*
X136119168Y-74942547D01*
X136215497Y-74973846D01*
X136298881Y-75000940D01*
X136485514Y-75030500D01*
X136485519Y-75030500D01*
X136674486Y-75030500D01*
X136861118Y-75000940D01*
X136876854Y-74995827D01*
X137040832Y-74942547D01*
X137209199Y-74856760D01*
X137362073Y-74745690D01*
X137495690Y-74612073D01*
X137606760Y-74459199D01*
X137685043Y-74305558D01*
X137733017Y-74254763D01*
X137800838Y-74237968D01*
X137866973Y-74260505D01*
X137910425Y-74315220D01*
X137913458Y-74323534D01*
X137915242Y-74329027D01*
X138008141Y-74511350D01*
X138008147Y-74511359D01*
X138040523Y-74555921D01*
X138040524Y-74555922D01*
X138596212Y-74000234D01*
X138607482Y-74042292D01*
X138679890Y-74167708D01*
X138782292Y-74270110D01*
X138907708Y-74342518D01*
X138949765Y-74353787D01*
X138394076Y-74909474D01*
X138438650Y-74941859D01*
X138620967Y-75034754D01*
X138626458Y-75036538D01*
X138684135Y-75075973D01*
X138711336Y-75140331D01*
X138699425Y-75209178D01*
X138652183Y-75260655D01*
X138644440Y-75264955D01*
X138490805Y-75343236D01*
X138388885Y-75417286D01*
X138337927Y-75454310D01*
X138337925Y-75454312D01*
X138337924Y-75454312D01*
X138204312Y-75587924D01*
X138204312Y-75587925D01*
X138204310Y-75587927D01*
X138189371Y-75608489D01*
X138093240Y-75740800D01*
X138007454Y-75909163D01*
X137949059Y-76088881D01*
X137919500Y-76275513D01*
X137919500Y-76464486D01*
X137949059Y-76651118D01*
X138007454Y-76830836D01*
X138058448Y-76930916D01*
X138093240Y-76999199D01*
X138204310Y-77152073D01*
X138337927Y-77285690D01*
X138490801Y-77396760D01*
X138547203Y-77425498D01*
X138659163Y-77482545D01*
X138659165Y-77482545D01*
X138659168Y-77482547D01*
X138748734Y-77511649D01*
X138780803Y-77522069D01*
X138838478Y-77561507D01*
X138865676Y-77625866D01*
X138853761Y-77694712D01*
X138806516Y-77746188D01*
X138780803Y-77757931D01*
X138659163Y-77797454D01*
X138490800Y-77883240D01*
X138403579Y-77946610D01*
X138337927Y-77994310D01*
X138337925Y-77994312D01*
X138337924Y-77994312D01*
X138204312Y-78127924D01*
X138204312Y-78127925D01*
X138204310Y-78127927D01*
X138156610Y-78193579D01*
X138093240Y-78280800D01*
X138007454Y-78449163D01*
X137949059Y-78628881D01*
X137919500Y-78815513D01*
X137919500Y-79004486D01*
X137949059Y-79191118D01*
X138007454Y-79370836D01*
X138091355Y-79535500D01*
X138093240Y-79539199D01*
X138204310Y-79692073D01*
X138337927Y-79825690D01*
X138490801Y-79936760D01*
X138570347Y-79977290D01*
X138659163Y-80022545D01*
X138659165Y-80022545D01*
X138659168Y-80022547D01*
X138748734Y-80051649D01*
X138780803Y-80062069D01*
X138838478Y-80101507D01*
X138865676Y-80165866D01*
X138853761Y-80234712D01*
X138806516Y-80286188D01*
X138780803Y-80297931D01*
X138659163Y-80337454D01*
X138490800Y-80423240D01*
X138403579Y-80486610D01*
X138337927Y-80534310D01*
X138337925Y-80534312D01*
X138337924Y-80534312D01*
X138204312Y-80667924D01*
X138204312Y-80667925D01*
X138204310Y-80667927D01*
X138156610Y-80733579D01*
X138093240Y-80820800D01*
X138007454Y-80989163D01*
X137949059Y-81168881D01*
X137919500Y-81355513D01*
X137919500Y-81544486D01*
X137949059Y-81731118D01*
X138007454Y-81910836D01*
X138093240Y-82079199D01*
X138204310Y-82232073D01*
X138337927Y-82365690D01*
X138490801Y-82476760D01*
X138570347Y-82517290D01*
X138659163Y-82562545D01*
X138659165Y-82562545D01*
X138659168Y-82562547D01*
X138748734Y-82591649D01*
X138780803Y-82602069D01*
X138838478Y-82641507D01*
X138865676Y-82705866D01*
X138853761Y-82774712D01*
X138806516Y-82826188D01*
X138780803Y-82837931D01*
X138659163Y-82877454D01*
X138490800Y-82963240D01*
X138423104Y-83012425D01*
X138337927Y-83074310D01*
X138337925Y-83074312D01*
X138337924Y-83074312D01*
X138204312Y-83207924D01*
X138204312Y-83207925D01*
X138204310Y-83207927D01*
X138156610Y-83273579D01*
X138093240Y-83360800D01*
X138007454Y-83529163D01*
X137974030Y-83632032D01*
X137934592Y-83689707D01*
X137870233Y-83716905D01*
X137801387Y-83704990D01*
X137749911Y-83657745D01*
X137732099Y-83593713D01*
X137732099Y-83578482D01*
X137730020Y-83565354D01*
X137717246Y-83484696D01*
X137659650Y-83371658D01*
X137659646Y-83371654D01*
X137659645Y-83371652D01*
X137569947Y-83281954D01*
X137569944Y-83281952D01*
X137569942Y-83281950D01*
X137493117Y-83242805D01*
X137456901Y-83224352D01*
X137363124Y-83209500D01*
X136000082Y-83209500D01*
X135926735Y-83221117D01*
X135906296Y-83224354D01*
X135793258Y-83281950D01*
X135793257Y-83281951D01*
X135793252Y-83281954D01*
X135703554Y-83371652D01*
X135703551Y-83371657D01*
X135703550Y-83371658D01*
X135662983Y-83451275D01*
X135641524Y-83493391D01*
X135640210Y-83492721D01*
X135606734Y-83541665D01*
X135542372Y-83568854D01*
X135473527Y-83556929D01*
X135440574Y-83533341D01*
X135351257Y-83444024D01*
X135233913Y-83365618D01*
X135179198Y-83329059D01*
X135115726Y-83302768D01*
X134988020Y-83249870D01*
X134988012Y-83249868D01*
X134785069Y-83209500D01*
X134785065Y-83209500D01*
X134578135Y-83209500D01*
X134578130Y-83209500D01*
X134375187Y-83249868D01*
X134375179Y-83249870D01*
X134184003Y-83329058D01*
X134011942Y-83444024D01*
X133865625Y-83590341D01*
X133865619Y-83590349D01*
X133784702Y-83711451D01*
X133731090Y-83756257D01*
X133661765Y-83764964D01*
X133598738Y-83734810D01*
X133578498Y-83711451D01*
X133497580Y-83590349D01*
X133497574Y-83590341D01*
X133351257Y-83444024D01*
X133233913Y-83365618D01*
X133179198Y-83329059D01*
X133115726Y-83302768D01*
X132988020Y-83249870D01*
X132988012Y-83249868D01*
X132785069Y-83209500D01*
X132785065Y-83209500D01*
X132578135Y-83209500D01*
X132578130Y-83209500D01*
X132375187Y-83249868D01*
X132375179Y-83249870D01*
X132184003Y-83329058D01*
X132011942Y-83444024D01*
X131865624Y-83590342D01*
X131750658Y-83762403D01*
X131671470Y-83953579D01*
X131671468Y-83953587D01*
X131631100Y-84156530D01*
X131631100Y-84363469D01*
X131653965Y-84478417D01*
X131671470Y-84566420D01*
X131750659Y-84757598D01*
X131808141Y-84843626D01*
X131865624Y-84929657D01*
X132011941Y-85075974D01*
X132011949Y-85075980D01*
X132133051Y-85156898D01*
X132177857Y-85210510D01*
X132186564Y-85279835D01*
X132156410Y-85342862D01*
X132133051Y-85363102D01*
X132011949Y-85444019D01*
X132011941Y-85444025D01*
X131865624Y-85590342D01*
X131750658Y-85762403D01*
X131671470Y-85953579D01*
X131671468Y-85953587D01*
X131631100Y-86156530D01*
X131631100Y-86363469D01*
X131667945Y-86548700D01*
X131671470Y-86566420D01*
X131750659Y-86757598D01*
X131786420Y-86811118D01*
X131865624Y-86929657D01*
X132011942Y-87075975D01*
X132011945Y-87075977D01*
X132184002Y-87190941D01*
X132375180Y-87270130D01*
X132578130Y-87310499D01*
X132578134Y-87310500D01*
X132578135Y-87310500D01*
X132785066Y-87310500D01*
X132785067Y-87310499D01*
X132988020Y-87270130D01*
X133179198Y-87190941D01*
X133351255Y-87075977D01*
X133497577Y-86929655D01*
X133578498Y-86808546D01*
X133632109Y-86763742D01*
X133701434Y-86755035D01*
X133764462Y-86785189D01*
X133784700Y-86808545D01*
X133801383Y-86833512D01*
X133865624Y-86929657D01*
X134011942Y-87075975D01*
X134011945Y-87075977D01*
X134184002Y-87190941D01*
X134375180Y-87270130D01*
X134578130Y-87310499D01*
X134578134Y-87310500D01*
X134578135Y-87310500D01*
X134785066Y-87310500D01*
X134785067Y-87310499D01*
X134988020Y-87270130D01*
X135179198Y-87190941D01*
X135351255Y-87075977D01*
X135497577Y-86929655D01*
X135578498Y-86808546D01*
X135632109Y-86763742D01*
X135701434Y-86755035D01*
X135764462Y-86785189D01*
X135784700Y-86808545D01*
X135801383Y-86833512D01*
X135865624Y-86929657D01*
X136011942Y-87075975D01*
X136011945Y-87075977D01*
X136184002Y-87190941D01*
X136375180Y-87270130D01*
X136578130Y-87310499D01*
X136578134Y-87310500D01*
X136578135Y-87310500D01*
X136785066Y-87310500D01*
X136785067Y-87310499D01*
X136988020Y-87270130D01*
X137179198Y-87190941D01*
X137351255Y-87075977D01*
X137497577Y-86929655D01*
X137612541Y-86757598D01*
X137681638Y-86590783D01*
X137725478Y-86536381D01*
X137791772Y-86514316D01*
X137859471Y-86531595D01*
X137907082Y-86582732D01*
X137917430Y-86619875D01*
X137918737Y-86619669D01*
X137949059Y-86811118D01*
X138007454Y-86990836D01*
X138093240Y-87159199D01*
X138204310Y-87312073D01*
X138337927Y-87445690D01*
X138490801Y-87556760D01*
X138570347Y-87597290D01*
X138659163Y-87642545D01*
X138659165Y-87642545D01*
X138659168Y-87642547D01*
X138748734Y-87671649D01*
X138780803Y-87682069D01*
X138838478Y-87721507D01*
X138865676Y-87785866D01*
X138853761Y-87854712D01*
X138806516Y-87906188D01*
X138780803Y-87917931D01*
X138659163Y-87957454D01*
X138490800Y-88043240D01*
X138441741Y-88078884D01*
X138337927Y-88154310D01*
X138337925Y-88154312D01*
X138337924Y-88154312D01*
X138204312Y-88287924D01*
X138204312Y-88287925D01*
X138204310Y-88287927D01*
X138195186Y-88300485D01*
X138093240Y-88440800D01*
X138007454Y-88609163D01*
X137949059Y-88788881D01*
X137919500Y-88975513D01*
X137919500Y-89164486D01*
X137949059Y-89351118D01*
X138007454Y-89530836D01*
X138093240Y-89699199D01*
X138204310Y-89852073D01*
X138337927Y-89985690D01*
X138490801Y-90096760D01*
X138570347Y-90137290D01*
X138659163Y-90182545D01*
X138659165Y-90182545D01*
X138659168Y-90182547D01*
X138748734Y-90211649D01*
X138780803Y-90222069D01*
X138838478Y-90261507D01*
X138865676Y-90325866D01*
X138853761Y-90394712D01*
X138806516Y-90446188D01*
X138780803Y-90457931D01*
X138659163Y-90497454D01*
X138490800Y-90583240D01*
X138456924Y-90607853D01*
X138337927Y-90694310D01*
X138337925Y-90694312D01*
X138337924Y-90694312D01*
X138204312Y-90827924D01*
X138204312Y-90827925D01*
X138204310Y-90827927D01*
X138156610Y-90893579D01*
X138093240Y-90980800D01*
X138007454Y-91149163D01*
X137949059Y-91328881D01*
X137919500Y-91515513D01*
X137919500Y-91704486D01*
X137949059Y-91891118D01*
X138007454Y-92070836D01*
X138093240Y-92239199D01*
X138204310Y-92392073D01*
X138337927Y-92525690D01*
X138490801Y-92636760D01*
X138570347Y-92677290D01*
X138659163Y-92722545D01*
X138659165Y-92722545D01*
X138659168Y-92722547D01*
X138748734Y-92751649D01*
X138780803Y-92762069D01*
X138838478Y-92801507D01*
X138865676Y-92865866D01*
X138853761Y-92934712D01*
X138806516Y-92986188D01*
X138780803Y-92997931D01*
X138659163Y-93037454D01*
X138490800Y-93123240D01*
X138415362Y-93178050D01*
X138337927Y-93234310D01*
X138337925Y-93234312D01*
X138337924Y-93234312D01*
X138204312Y-93367924D01*
X138204312Y-93367925D01*
X138204310Y-93367927D01*
X138156610Y-93433579D01*
X138093240Y-93520800D01*
X138007454Y-93689163D01*
X137949059Y-93868881D01*
X137919500Y-94055513D01*
X137919500Y-94244486D01*
X137949059Y-94431118D01*
X138007454Y-94610836D01*
X138068167Y-94729991D01*
X138093240Y-94779199D01*
X138204310Y-94932073D01*
X138337927Y-95065690D01*
X138490801Y-95176760D01*
X138570347Y-95217290D01*
X138659163Y-95262545D01*
X138659165Y-95262545D01*
X138659168Y-95262547D01*
X138748734Y-95291649D01*
X138780803Y-95302069D01*
X138838478Y-95341507D01*
X138865676Y-95405866D01*
X138853761Y-95474712D01*
X138806516Y-95526188D01*
X138780803Y-95537931D01*
X138659163Y-95577454D01*
X138490800Y-95663240D01*
X138403579Y-95726610D01*
X138337927Y-95774310D01*
X138337925Y-95774312D01*
X138337924Y-95774312D01*
X138204312Y-95907924D01*
X138204312Y-95907925D01*
X138204310Y-95907927D01*
X138166697Y-95959697D01*
X138093240Y-96060800D01*
X138007454Y-96229163D01*
X137949059Y-96408881D01*
X137919500Y-96595513D01*
X137919500Y-96784486D01*
X137949059Y-96971118D01*
X138007454Y-97150836D01*
X138093240Y-97319199D01*
X138204310Y-97472073D01*
X138337927Y-97605690D01*
X138490801Y-97716760D01*
X138570347Y-97757290D01*
X138659163Y-97802545D01*
X138659165Y-97802545D01*
X138659168Y-97802547D01*
X138702185Y-97816524D01*
X138780803Y-97842069D01*
X138838478Y-97881507D01*
X138865676Y-97945866D01*
X138853761Y-98014712D01*
X138806516Y-98066188D01*
X138780803Y-98077931D01*
X138659163Y-98117454D01*
X138490800Y-98203240D01*
X138403579Y-98266610D01*
X138337927Y-98314310D01*
X138337925Y-98314312D01*
X138337924Y-98314312D01*
X138204312Y-98447924D01*
X138204312Y-98447925D01*
X138204310Y-98447927D01*
X138156610Y-98513579D01*
X138093240Y-98600800D01*
X138007454Y-98769163D01*
X137949059Y-98948881D01*
X137919500Y-99135513D01*
X137919500Y-99324486D01*
X137949059Y-99511118D01*
X138007454Y-99690836D01*
X138046683Y-99767826D01*
X138093240Y-99859199D01*
X138204310Y-100012073D01*
X138337927Y-100145690D01*
X138490801Y-100256760D01*
X138555344Y-100289646D01*
X138659163Y-100342545D01*
X138659165Y-100342545D01*
X138659168Y-100342547D01*
X138748734Y-100371649D01*
X138780803Y-100382069D01*
X138838478Y-100421507D01*
X138865676Y-100485866D01*
X138853761Y-100554712D01*
X138806516Y-100606188D01*
X138780803Y-100617931D01*
X138659163Y-100657454D01*
X138490800Y-100743240D01*
X138413162Y-100799648D01*
X138337927Y-100854310D01*
X138337925Y-100854312D01*
X138337924Y-100854312D01*
X138204312Y-100987924D01*
X138204312Y-100987925D01*
X138204310Y-100987927D01*
X138156610Y-101053579D01*
X138093240Y-101140800D01*
X138007454Y-101309163D01*
X137949059Y-101488881D01*
X137919500Y-101675513D01*
X137919500Y-101864486D01*
X137949059Y-102051118D01*
X138007454Y-102230836D01*
X138093240Y-102399199D01*
X138204310Y-102552073D01*
X138337927Y-102685690D01*
X138490801Y-102796760D01*
X138570347Y-102837290D01*
X138659163Y-102882545D01*
X138659165Y-102882545D01*
X138659168Y-102882547D01*
X138695845Y-102894464D01*
X138780803Y-102922069D01*
X138838478Y-102961507D01*
X138865676Y-103025866D01*
X138853761Y-103094712D01*
X138806516Y-103146188D01*
X138780803Y-103157931D01*
X138659163Y-103197454D01*
X138490800Y-103283240D01*
X138424023Y-103331757D01*
X138337927Y-103394310D01*
X138337925Y-103394312D01*
X138337924Y-103394312D01*
X138204312Y-103527924D01*
X138204312Y-103527925D01*
X138204310Y-103527927D01*
X138156610Y-103593579D01*
X138093240Y-103680800D01*
X138007454Y-103849163D01*
X137949059Y-104028881D01*
X137919500Y-104215513D01*
X137919500Y-104404486D01*
X137949059Y-104591118D01*
X138007454Y-104770836D01*
X138093240Y-104939199D01*
X138204310Y-105092073D01*
X138337927Y-105225690D01*
X138490801Y-105336760D01*
X138553059Y-105368482D01*
X138644440Y-105415043D01*
X138695236Y-105463018D01*
X138712031Y-105530839D01*
X138689494Y-105596974D01*
X138634778Y-105640425D01*
X138626469Y-105643457D01*
X138620971Y-105645243D01*
X138438644Y-105738143D01*
X138394077Y-105770523D01*
X138394077Y-105770524D01*
X138949766Y-106326212D01*
X138907708Y-106337482D01*
X138782292Y-106409890D01*
X138679890Y-106512292D01*
X138607482Y-106637708D01*
X138596212Y-106679765D01*
X138040524Y-106124077D01*
X138040523Y-106124077D01*
X138008143Y-106168644D01*
X137915244Y-106350968D01*
X137852009Y-106545582D01*
X137820000Y-106747682D01*
X137820000Y-106952317D01*
X137852009Y-107154417D01*
X137915244Y-107349031D01*
X138008141Y-107531350D01*
X138008147Y-107531359D01*
X138040523Y-107575921D01*
X138040524Y-107575922D01*
X138596212Y-107020234D01*
X138607482Y-107062292D01*
X138679890Y-107187708D01*
X138782292Y-107290110D01*
X138907708Y-107362518D01*
X138949765Y-107373787D01*
X138394076Y-107929474D01*
X138438650Y-107961859D01*
X138620967Y-108054754D01*
X138626458Y-108056538D01*
X138684135Y-108095973D01*
X138711336Y-108160331D01*
X138699425Y-108229178D01*
X138652183Y-108280655D01*
X138644440Y-108284955D01*
X138490805Y-108363236D01*
X138388885Y-108437286D01*
X138337927Y-108474310D01*
X138337925Y-108474312D01*
X138337924Y-108474312D01*
X138204312Y-108607924D01*
X138204312Y-108607925D01*
X138204310Y-108607927D01*
X138156610Y-108673579D01*
X138093240Y-108760800D01*
X138007454Y-108929163D01*
X137949059Y-109108881D01*
X137919500Y-109295513D01*
X137919500Y-109484486D01*
X137949059Y-109671118D01*
X138007454Y-109850836D01*
X138082873Y-109998853D01*
X138093240Y-110019199D01*
X138204310Y-110172073D01*
X138337927Y-110305690D01*
X138490801Y-110416760D01*
X138557098Y-110450540D01*
X138659163Y-110502545D01*
X138659165Y-110502545D01*
X138659168Y-110502547D01*
X138748734Y-110531649D01*
X138780803Y-110542069D01*
X138838478Y-110581507D01*
X138865676Y-110645866D01*
X138853761Y-110714712D01*
X138806516Y-110766188D01*
X138780803Y-110777931D01*
X138659163Y-110817454D01*
X138490800Y-110903240D01*
X138454105Y-110929901D01*
X138337927Y-111014310D01*
X138337925Y-111014312D01*
X138337924Y-111014312D01*
X138204312Y-111147924D01*
X138204312Y-111147925D01*
X138204310Y-111147927D01*
X138156610Y-111213579D01*
X138093240Y-111300800D01*
X138007454Y-111469163D01*
X137949059Y-111648881D01*
X137919500Y-111835513D01*
X137919500Y-112024486D01*
X137949059Y-112211118D01*
X138007454Y-112390836D01*
X138055240Y-112484620D01*
X138093240Y-112559199D01*
X138204310Y-112712073D01*
X138337927Y-112845690D01*
X138490801Y-112956760D01*
X138570347Y-112997290D01*
X138659163Y-113042545D01*
X138659165Y-113042545D01*
X138659168Y-113042547D01*
X138748734Y-113071649D01*
X138780803Y-113082069D01*
X138838478Y-113121507D01*
X138865676Y-113185866D01*
X138853761Y-113254712D01*
X138806516Y-113306188D01*
X138780803Y-113317931D01*
X138659163Y-113357454D01*
X138490800Y-113443240D01*
X138403579Y-113506610D01*
X138337927Y-113554310D01*
X138337925Y-113554312D01*
X138337924Y-113554312D01*
X138204312Y-113687924D01*
X138204312Y-113687925D01*
X138204310Y-113687927D01*
X138156610Y-113753579D01*
X138093240Y-113840800D01*
X138007454Y-114009163D01*
X137949059Y-114188881D01*
X137919500Y-114375513D01*
X137919500Y-114564486D01*
X137949059Y-114751118D01*
X138007454Y-114930836D01*
X138093240Y-115099199D01*
X138204310Y-115252073D01*
X138337927Y-115385690D01*
X138490801Y-115496760D01*
X138570347Y-115537290D01*
X138659163Y-115582545D01*
X138659165Y-115582545D01*
X138659168Y-115582547D01*
X138748734Y-115611649D01*
X138780803Y-115622069D01*
X138838478Y-115661507D01*
X138865676Y-115725866D01*
X138853761Y-115794712D01*
X138806516Y-115846188D01*
X138780803Y-115857931D01*
X138659163Y-115897454D01*
X138490800Y-115983240D01*
X138403579Y-116046610D01*
X138337927Y-116094310D01*
X138337925Y-116094312D01*
X138337924Y-116094312D01*
X138204312Y-116227924D01*
X138204312Y-116227925D01*
X138204310Y-116227927D01*
X138156610Y-116293579D01*
X138093240Y-116380800D01*
X138007454Y-116549163D01*
X137967931Y-116670803D01*
X137928493Y-116728478D01*
X137864134Y-116755676D01*
X137795288Y-116743761D01*
X137743812Y-116696516D01*
X137732069Y-116670803D01*
X137692545Y-116549163D01*
X137606759Y-116380800D01*
X137495690Y-116227927D01*
X137362073Y-116094310D01*
X137209199Y-115983240D01*
X137040836Y-115897454D01*
X136861118Y-115839059D01*
X136674486Y-115809500D01*
X136674481Y-115809500D01*
X136485519Y-115809500D01*
X136485514Y-115809500D01*
X136298881Y-115839059D01*
X136119163Y-115897454D01*
X135950800Y-115983240D01*
X135863579Y-116046610D01*
X135797927Y-116094310D01*
X135797925Y-116094312D01*
X135797924Y-116094312D01*
X135664312Y-116227924D01*
X135664312Y-116227925D01*
X135664310Y-116227927D01*
X135616610Y-116293579D01*
X135553240Y-116380800D01*
X135467454Y-116549163D01*
X135427931Y-116670803D01*
X135388493Y-116728478D01*
X135324134Y-116755676D01*
X135255288Y-116743761D01*
X135203812Y-116696516D01*
X135192069Y-116670803D01*
X135152545Y-116549163D01*
X135066759Y-116380800D01*
X134955690Y-116227927D01*
X134822073Y-116094310D01*
X134669199Y-115983240D01*
X134500836Y-115897454D01*
X134321118Y-115839059D01*
X134134486Y-115809500D01*
X134134481Y-115809500D01*
X133945519Y-115809500D01*
X133945514Y-115809500D01*
X133758881Y-115839059D01*
X133579163Y-115897454D01*
X133410800Y-115983240D01*
X133323579Y-116046610D01*
X133257927Y-116094310D01*
X133257925Y-116094312D01*
X133257924Y-116094312D01*
X133124312Y-116227924D01*
X133124312Y-116227925D01*
X133124310Y-116227927D01*
X133076610Y-116293579D01*
X133013240Y-116380800D01*
X132927454Y-116549163D01*
X132887931Y-116670803D01*
X132848493Y-116728478D01*
X132784134Y-116755676D01*
X132715288Y-116743761D01*
X132663812Y-116696516D01*
X132652069Y-116670803D01*
X132612545Y-116549163D01*
X132526759Y-116380800D01*
X132415690Y-116227927D01*
X132282073Y-116094310D01*
X132129199Y-115983240D01*
X131960836Y-115897454D01*
X131781118Y-115839059D01*
X131594486Y-115809500D01*
X131594481Y-115809500D01*
X131405519Y-115809500D01*
X131405514Y-115809500D01*
X131218881Y-115839059D01*
X131039163Y-115897454D01*
X130870800Y-115983240D01*
X130783579Y-116046610D01*
X130717927Y-116094310D01*
X130717925Y-116094312D01*
X130717924Y-116094312D01*
X130584312Y-116227924D01*
X130584312Y-116227925D01*
X130584310Y-116227927D01*
X130536610Y-116293579D01*
X130473240Y-116380800D01*
X130387454Y-116549163D01*
X130347931Y-116670803D01*
X130308493Y-116728478D01*
X130244134Y-116755676D01*
X130175288Y-116743761D01*
X130123812Y-116696516D01*
X130112069Y-116670803D01*
X130072545Y-116549163D01*
X129986759Y-116380800D01*
X129875690Y-116227927D01*
X129742073Y-116094310D01*
X129589199Y-115983240D01*
X129420836Y-115897454D01*
X129241118Y-115839059D01*
X129054486Y-115809500D01*
X129054481Y-115809500D01*
X128865519Y-115809500D01*
X128865514Y-115809500D01*
X128678881Y-115839059D01*
X128499163Y-115897454D01*
X128330800Y-115983240D01*
X128243579Y-116046610D01*
X128177927Y-116094310D01*
X128177925Y-116094312D01*
X128177924Y-116094312D01*
X128044312Y-116227924D01*
X128044312Y-116227925D01*
X128044310Y-116227927D01*
X127996610Y-116293579D01*
X127933240Y-116380800D01*
X127847454Y-116549163D01*
X127807931Y-116670803D01*
X127768493Y-116728478D01*
X127704134Y-116755676D01*
X127635288Y-116743761D01*
X127583812Y-116696516D01*
X127572069Y-116670803D01*
X127532545Y-116549163D01*
X127446759Y-116380800D01*
X127335690Y-116227927D01*
X127202073Y-116094310D01*
X127049199Y-115983240D01*
X126880836Y-115897454D01*
X126701118Y-115839059D01*
X126514486Y-115809500D01*
X126514481Y-115809500D01*
X126325519Y-115809500D01*
X126325514Y-115809500D01*
X126138881Y-115839059D01*
X125959163Y-115897454D01*
X125790800Y-115983240D01*
X125703579Y-116046610D01*
X125637927Y-116094310D01*
X125637925Y-116094312D01*
X125637924Y-116094312D01*
X125504312Y-116227924D01*
X125504312Y-116227925D01*
X125504310Y-116227927D01*
X125456610Y-116293579D01*
X125393240Y-116380800D01*
X125307454Y-116549163D01*
X125267931Y-116670803D01*
X125228493Y-116728478D01*
X125164134Y-116755676D01*
X125095288Y-116743761D01*
X125043812Y-116696516D01*
X125032069Y-116670803D01*
X124992545Y-116549163D01*
X124906759Y-116380800D01*
X124795690Y-116227927D01*
X124662073Y-116094310D01*
X124509199Y-115983240D01*
X124340836Y-115897454D01*
X124266472Y-115873291D01*
X124219195Y-115857930D01*
X124161521Y-115818493D01*
X124134323Y-115754134D01*
X124146238Y-115685288D01*
X124193482Y-115633812D01*
X124219194Y-115622069D01*
X124340832Y-115582547D01*
X124509199Y-115496760D01*
X124662073Y-115385690D01*
X124795690Y-115252073D01*
X124906760Y-115099199D01*
X124992547Y-114930832D01*
X125050940Y-114751118D01*
X125052780Y-114739500D01*
X125080500Y-114564486D01*
X125080500Y-114375513D01*
X125050940Y-114188881D01*
X124992545Y-114009163D01*
X124906759Y-113840800D01*
X124795690Y-113687927D01*
X124662073Y-113554310D01*
X124509199Y-113443240D01*
X124340836Y-113357454D01*
X124266472Y-113333291D01*
X124219195Y-113317930D01*
X124161521Y-113278493D01*
X124134323Y-113214134D01*
X124146238Y-113145288D01*
X124193482Y-113093812D01*
X124219194Y-113082069D01*
X124340832Y-113042547D01*
X124509199Y-112956760D01*
X124662073Y-112845690D01*
X124795690Y-112712073D01*
X124906760Y-112559199D01*
X124992547Y-112390832D01*
X125050940Y-112211118D01*
X125051203Y-112209459D01*
X125080500Y-112024486D01*
X125080500Y-111835513D01*
X125050940Y-111648881D01*
X124992545Y-111469163D01*
X124906759Y-111300800D01*
X124795690Y-111147927D01*
X124662073Y-111014310D01*
X124509199Y-110903240D01*
X124340836Y-110817454D01*
X124266472Y-110793291D01*
X124219195Y-110777930D01*
X124161521Y-110738493D01*
X124134323Y-110674134D01*
X124146238Y-110605288D01*
X124193482Y-110553812D01*
X124219194Y-110542069D01*
X124340832Y-110502547D01*
X124509199Y-110416760D01*
X124662073Y-110305690D01*
X124795690Y-110172073D01*
X124906760Y-110019199D01*
X124992547Y-109850832D01*
X125050940Y-109671118D01*
X125061468Y-109604646D01*
X125080500Y-109484486D01*
X125080500Y-109295513D01*
X125050940Y-109108881D01*
X124992545Y-108929163D01*
X124906759Y-108760800D01*
X124795690Y-108607927D01*
X124662073Y-108474310D01*
X124509199Y-108363240D01*
X124509191Y-108363236D01*
X124340836Y-108277454D01*
X124266472Y-108253291D01*
X124219195Y-108237930D01*
X124161521Y-108198493D01*
X124134323Y-108134134D01*
X124146238Y-108065288D01*
X124193482Y-108013812D01*
X124219194Y-108002069D01*
X124340832Y-107962547D01*
X124509199Y-107876760D01*
X124662073Y-107765690D01*
X124795690Y-107632073D01*
X124906760Y-107479199D01*
X124992547Y-107310832D01*
X125050940Y-107131118D01*
X125061841Y-107062292D01*
X125080500Y-106944486D01*
X125080500Y-106755514D01*
X125080499Y-106755512D01*
X125050940Y-106568881D01*
X124992545Y-106389163D01*
X124906759Y-106220800D01*
X124795690Y-106067927D01*
X124662073Y-105934310D01*
X124509199Y-105823240D01*
X124340836Y-105737454D01*
X124266472Y-105713291D01*
X124219195Y-105697930D01*
X124161521Y-105658493D01*
X124134323Y-105594134D01*
X124146238Y-105525288D01*
X124193482Y-105473812D01*
X124219194Y-105462069D01*
X124340832Y-105422547D01*
X124509199Y-105336760D01*
X124662073Y-105225690D01*
X124795690Y-105092073D01*
X124906760Y-104939199D01*
X124992547Y-104770832D01*
X125050940Y-104591118D01*
X125080500Y-104404486D01*
X125080500Y-104215513D01*
X125050940Y-104028881D01*
X124992545Y-103849163D01*
X124906759Y-103680800D01*
X124795690Y-103527927D01*
X124662073Y-103394310D01*
X124509199Y-103283240D01*
X124475550Y-103266095D01*
X124340836Y-103197454D01*
X124255171Y-103169620D01*
X124219195Y-103157930D01*
X124161521Y-103118493D01*
X124134323Y-103054134D01*
X124146238Y-102985288D01*
X124193482Y-102933812D01*
X124219194Y-102922069D01*
X124340832Y-102882547D01*
X124509199Y-102796760D01*
X124662073Y-102685690D01*
X124795690Y-102552073D01*
X124906760Y-102399199D01*
X124992547Y-102230832D01*
X125050940Y-102051118D01*
X125080500Y-101864486D01*
X125080500Y-101675513D01*
X125050940Y-101488881D01*
X124992545Y-101309163D01*
X124906759Y-101140800D01*
X124795690Y-100987927D01*
X124662073Y-100854310D01*
X124509199Y-100743240D01*
X124340836Y-100657454D01*
X124246040Y-100626653D01*
X124219195Y-100617930D01*
X124161521Y-100578493D01*
X124134323Y-100514134D01*
X124146238Y-100445288D01*
X124193482Y-100393812D01*
X124219194Y-100382069D01*
X124340832Y-100342547D01*
X124509199Y-100256760D01*
X124662073Y-100145690D01*
X124795690Y-100012073D01*
X124906760Y-99859199D01*
X124992547Y-99690832D01*
X125050940Y-99511118D01*
X125080500Y-99324486D01*
X125080500Y-99135513D01*
X125050940Y-98948881D01*
X125008932Y-98819595D01*
X124992547Y-98769168D01*
X124992545Y-98769165D01*
X124992545Y-98769163D01*
X124906759Y-98600800D01*
X124795690Y-98447927D01*
X124662073Y-98314310D01*
X124509199Y-98203240D01*
X124480704Y-98188721D01*
X124340836Y-98117454D01*
X124266472Y-98093291D01*
X124219195Y-98077930D01*
X124161521Y-98038493D01*
X124134323Y-97974134D01*
X124146238Y-97905288D01*
X124193482Y-97853812D01*
X124219194Y-97842069D01*
X124340832Y-97802547D01*
X124509199Y-97716760D01*
X124662073Y-97605690D01*
X124795690Y-97472073D01*
X124906760Y-97319199D01*
X124992547Y-97150832D01*
X125050940Y-96971118D01*
X125080500Y-96784486D01*
X125080500Y-96595513D01*
X125050940Y-96408881D01*
X124992545Y-96229163D01*
X124906759Y-96060800D01*
X124901442Y-96053482D01*
X124795690Y-95907927D01*
X124662073Y-95774310D01*
X124509199Y-95663240D01*
X124494462Y-95655731D01*
X124340836Y-95577454D01*
X124236296Y-95543487D01*
X124219195Y-95537930D01*
X124161521Y-95498493D01*
X124134323Y-95434134D01*
X124146238Y-95365288D01*
X124193482Y-95313812D01*
X124219194Y-95302069D01*
X124340832Y-95262547D01*
X124509199Y-95176760D01*
X124662073Y-95065690D01*
X124795690Y-94932073D01*
X124906760Y-94779199D01*
X124992547Y-94610832D01*
X125050940Y-94431118D01*
X125080500Y-94244486D01*
X125080500Y-94055513D01*
X125050940Y-93868881D01*
X124992545Y-93689163D01*
X124906759Y-93520800D01*
X124795690Y-93367927D01*
X124662073Y-93234310D01*
X124509199Y-93123240D01*
X124340836Y-93037454D01*
X124266472Y-93013291D01*
X124219195Y-92997930D01*
X124161521Y-92958493D01*
X124134323Y-92894134D01*
X124146238Y-92825288D01*
X124193482Y-92773812D01*
X124219194Y-92762069D01*
X124340832Y-92722547D01*
X124509199Y-92636760D01*
X124662073Y-92525690D01*
X124795690Y-92392073D01*
X124906760Y-92239199D01*
X124992547Y-92070832D01*
X125050940Y-91891118D01*
X125080500Y-91704486D01*
X125080500Y-91515513D01*
X125050940Y-91328881D01*
X124992545Y-91149163D01*
X124947290Y-91060347D01*
X124906760Y-90980801D01*
X124795690Y-90827927D01*
X124662073Y-90694310D01*
X124509199Y-90583240D01*
X124503845Y-90580512D01*
X124340836Y-90497454D01*
X124266472Y-90473291D01*
X124219195Y-90457930D01*
X124161521Y-90418493D01*
X124134323Y-90354134D01*
X124146238Y-90285288D01*
X124193482Y-90233812D01*
X124219194Y-90222069D01*
X124340832Y-90182547D01*
X124509199Y-90096760D01*
X124662073Y-89985690D01*
X124795690Y-89852073D01*
X124906760Y-89699199D01*
X124992547Y-89530832D01*
X125050940Y-89351118D01*
X125080500Y-89164486D01*
X125080500Y-88975513D01*
X125050940Y-88788881D01*
X125010651Y-88664887D01*
X124992547Y-88609168D01*
X124992545Y-88609165D01*
X124992545Y-88609163D01*
X124906759Y-88440800D01*
X124795690Y-88287927D01*
X124662073Y-88154310D01*
X124509199Y-88043240D01*
X124483838Y-88030318D01*
X124340836Y-87957454D01*
X124266472Y-87933291D01*
X124219195Y-87917930D01*
X124161521Y-87878493D01*
X124134323Y-87814134D01*
X124146238Y-87745288D01*
X124193482Y-87693812D01*
X124219194Y-87682069D01*
X124340832Y-87642547D01*
X124509199Y-87556760D01*
X124662073Y-87445690D01*
X124795690Y-87312073D01*
X124906760Y-87159199D01*
X124992547Y-86990832D01*
X125050940Y-86811118D01*
X125064985Y-86722440D01*
X125080500Y-86624486D01*
X125080500Y-86435513D01*
X125050940Y-86248881D01*
X125010651Y-86124887D01*
X124992547Y-86069168D01*
X124992545Y-86069165D01*
X124992545Y-86069163D01*
X124933652Y-85953580D01*
X124906760Y-85900801D01*
X124795690Y-85747927D01*
X124662073Y-85614310D01*
X124509199Y-85503240D01*
X124483838Y-85490318D01*
X124340836Y-85417454D01*
X124266472Y-85393291D01*
X124219195Y-85377930D01*
X124161521Y-85338493D01*
X124134323Y-85274134D01*
X124146238Y-85205288D01*
X124193482Y-85153812D01*
X124219194Y-85142069D01*
X124340832Y-85102547D01*
X124509199Y-85016760D01*
X124662073Y-84905690D01*
X124795690Y-84772073D01*
X124906760Y-84619199D01*
X124992547Y-84450832D01*
X125050940Y-84271118D01*
X125069089Y-84156530D01*
X125080500Y-84084486D01*
X125080500Y-83895513D01*
X125050940Y-83708881D01*
X125005442Y-83568854D01*
X124992547Y-83529168D01*
X124992545Y-83529165D01*
X124992545Y-83529163D01*
X124933990Y-83414244D01*
X124906760Y-83360801D01*
X124795690Y-83207927D01*
X124662073Y-83074310D01*
X124509199Y-82963240D01*
X124452568Y-82934385D01*
X124340836Y-82877454D01*
X124266472Y-82853291D01*
X124219195Y-82837930D01*
X124161521Y-82798493D01*
X124134323Y-82734134D01*
X124146238Y-82665288D01*
X124193482Y-82613812D01*
X124219194Y-82602069D01*
X124340832Y-82562547D01*
X124509199Y-82476760D01*
X124662073Y-82365690D01*
X124795690Y-82232073D01*
X124906760Y-82079199D01*
X124992547Y-81910832D01*
X125050940Y-81731118D01*
X125059407Y-81677658D01*
X125080500Y-81544486D01*
X125080500Y-81355513D01*
X125050940Y-81168881D01*
X125021684Y-81078842D01*
X124992547Y-80989168D01*
X124992545Y-80989165D01*
X124992545Y-80989163D01*
X124932068Y-80870471D01*
X124906760Y-80820801D01*
X124795690Y-80667927D01*
X124662073Y-80534310D01*
X124509199Y-80423240D01*
X124483838Y-80410318D01*
X124340836Y-80337454D01*
X124266472Y-80313291D01*
X124219195Y-80297930D01*
X124161521Y-80258493D01*
X124134323Y-80194134D01*
X124146238Y-80125288D01*
X124193482Y-80073812D01*
X124219194Y-80062069D01*
X124340832Y-80022547D01*
X124509199Y-79936760D01*
X124662073Y-79825690D01*
X124795690Y-79692073D01*
X124906760Y-79539199D01*
X124992547Y-79370832D01*
X125050940Y-79191118D01*
X125067330Y-79087635D01*
X125080500Y-79004486D01*
X125080500Y-78815513D01*
X125050940Y-78628881D01*
X124992545Y-78449163D01*
X124947290Y-78360347D01*
X124906760Y-78280801D01*
X124795690Y-78127927D01*
X124662073Y-77994310D01*
X124509199Y-77883240D01*
X124340836Y-77797454D01*
X124266472Y-77773291D01*
X124219195Y-77757930D01*
X124161521Y-77718493D01*
X124134323Y-77654134D01*
X124146238Y-77585288D01*
X124193482Y-77533812D01*
X124219194Y-77522069D01*
X124340832Y-77482547D01*
X124509199Y-77396760D01*
X124662073Y-77285690D01*
X124795690Y-77152073D01*
X124906760Y-76999199D01*
X124992547Y-76830832D01*
X125016317Y-76757675D01*
X125730300Y-76757675D01*
X125730300Y-78420717D01*
X125741092Y-78488857D01*
X125745154Y-78514504D01*
X125802750Y-78627542D01*
X125802752Y-78627544D01*
X125802754Y-78627547D01*
X125892452Y-78717245D01*
X125892454Y-78717246D01*
X125892458Y-78717250D01*
X126005494Y-78774845D01*
X126005498Y-78774847D01*
X126099275Y-78789699D01*
X126099281Y-78789700D01*
X126398892Y-78789699D01*
X126465929Y-78809383D01*
X126511684Y-78862187D01*
X126521628Y-78931346D01*
X126492603Y-78994901D01*
X126455185Y-79024183D01*
X126301605Y-79102436D01*
X126199685Y-79176486D01*
X126148727Y-79213510D01*
X126148725Y-79213512D01*
X126148724Y-79213512D01*
X126015112Y-79347124D01*
X126015112Y-79347125D01*
X126015110Y-79347127D01*
X125967410Y-79412779D01*
X125904040Y-79500000D01*
X125818254Y-79668363D01*
X125759859Y-79848081D01*
X125730300Y-80034713D01*
X125730300Y-80223686D01*
X125759859Y-80410318D01*
X125818254Y-80590036D01*
X125857941Y-80667925D01*
X125904040Y-80758399D01*
X126015110Y-80911273D01*
X126148727Y-81044890D01*
X126301601Y-81155960D01*
X126381147Y-81196490D01*
X126469963Y-81241745D01*
X126469965Y-81241745D01*
X126469968Y-81241747D01*
X126559534Y-81270849D01*
X126591603Y-81281269D01*
X126649278Y-81320707D01*
X126676476Y-81385066D01*
X126664561Y-81453912D01*
X126617316Y-81505388D01*
X126591603Y-81517131D01*
X126469963Y-81556654D01*
X126301600Y-81642440D01*
X126253115Y-81677667D01*
X126148727Y-81753510D01*
X126148725Y-81753512D01*
X126148724Y-81753512D01*
X126015112Y-81887124D01*
X126015112Y-81887125D01*
X126015110Y-81887127D01*
X125988794Y-81923348D01*
X125904040Y-82040000D01*
X125818254Y-82208363D01*
X125759859Y-82388081D01*
X125730300Y-82574713D01*
X125730300Y-82763686D01*
X125759859Y-82950318D01*
X125818254Y-83130036D01*
X125879312Y-83249868D01*
X125904040Y-83298399D01*
X126015110Y-83451273D01*
X126148727Y-83584890D01*
X126301601Y-83695960D01*
X126332004Y-83711451D01*
X126469963Y-83781745D01*
X126469965Y-83781745D01*
X126469968Y-83781747D01*
X126548325Y-83807207D01*
X126591603Y-83821269D01*
X126649278Y-83860707D01*
X126676476Y-83925066D01*
X126664561Y-83993912D01*
X126617316Y-84045388D01*
X126591603Y-84057131D01*
X126469963Y-84096654D01*
X126301600Y-84182440D01*
X126214379Y-84245810D01*
X126148727Y-84293510D01*
X126148725Y-84293512D01*
X126148724Y-84293512D01*
X126015112Y-84427124D01*
X126015112Y-84427125D01*
X126015110Y-84427127D01*
X125977842Y-84478422D01*
X125904040Y-84580000D01*
X125818254Y-84748363D01*
X125759859Y-84928081D01*
X125730300Y-85114713D01*
X125730300Y-85303686D01*
X125759859Y-85490318D01*
X125818254Y-85670036D01*
X125865318Y-85762403D01*
X125904040Y-85838399D01*
X126015110Y-85991273D01*
X126148727Y-86124890D01*
X126301601Y-86235960D01*
X126357799Y-86264594D01*
X126469963Y-86321745D01*
X126469965Y-86321745D01*
X126469968Y-86321747D01*
X126494799Y-86329815D01*
X126591603Y-86361269D01*
X126649278Y-86400707D01*
X126676476Y-86465066D01*
X126664561Y-86533912D01*
X126617316Y-86585388D01*
X126591603Y-86597131D01*
X126469963Y-86636654D01*
X126301600Y-86722440D01*
X126253213Y-86757596D01*
X126148727Y-86833510D01*
X126148725Y-86833512D01*
X126148724Y-86833512D01*
X126015112Y-86967124D01*
X126015112Y-86967125D01*
X126015110Y-86967127D01*
X125977842Y-87018422D01*
X125904040Y-87120000D01*
X125818254Y-87288363D01*
X125759859Y-87468081D01*
X125730300Y-87654713D01*
X125730300Y-87843686D01*
X125759859Y-88030318D01*
X125818254Y-88210036D01*
X125864662Y-88301116D01*
X125904040Y-88378399D01*
X126015110Y-88531273D01*
X126148727Y-88664890D01*
X126301601Y-88775960D01*
X126357799Y-88804594D01*
X126469963Y-88861745D01*
X126469965Y-88861745D01*
X126469968Y-88861747D01*
X126566297Y-88893046D01*
X126649681Y-88920140D01*
X126836314Y-88949700D01*
X126836319Y-88949700D01*
X127025286Y-88949700D01*
X127211918Y-88920140D01*
X127391632Y-88861747D01*
X127559999Y-88775960D01*
X127712873Y-88664890D01*
X127846490Y-88531273D01*
X127957560Y-88378399D01*
X128043347Y-88210032D01*
X128101740Y-88030318D01*
X128108201Y-87989523D01*
X128131300Y-87843686D01*
X128131300Y-87654713D01*
X128101740Y-87468081D01*
X128051050Y-87312075D01*
X128043347Y-87288368D01*
X128043345Y-87288365D01*
X128043345Y-87288363D01*
X127957559Y-87120000D01*
X127846490Y-86967127D01*
X127712873Y-86833510D01*
X127559999Y-86722440D01*
X127391636Y-86636654D01*
X127317272Y-86612491D01*
X127269995Y-86597130D01*
X127212321Y-86557693D01*
X127185123Y-86493334D01*
X127197038Y-86424488D01*
X127244282Y-86373012D01*
X127269994Y-86361269D01*
X127391632Y-86321747D01*
X127559999Y-86235960D01*
X127712873Y-86124890D01*
X127846490Y-85991273D01*
X127957560Y-85838399D01*
X128043347Y-85670032D01*
X128101740Y-85490318D01*
X128109072Y-85444024D01*
X128131300Y-85303686D01*
X128131300Y-85114713D01*
X128101740Y-84928081D01*
X128051050Y-84772075D01*
X128043347Y-84748368D01*
X128043345Y-84748365D01*
X128043345Y-84748363D01*
X127977532Y-84619199D01*
X127957560Y-84580001D01*
X127846490Y-84427127D01*
X127712873Y-84293510D01*
X127559999Y-84182440D01*
X127391636Y-84096654D01*
X127317272Y-84072491D01*
X127269995Y-84057130D01*
X127212321Y-84017693D01*
X127185123Y-83953334D01*
X127197038Y-83884488D01*
X127244282Y-83833012D01*
X127269994Y-83821269D01*
X127391632Y-83781747D01*
X127559999Y-83695960D01*
X127712873Y-83584890D01*
X127846490Y-83451273D01*
X127957560Y-83298399D01*
X128043347Y-83130032D01*
X128101740Y-82950318D01*
X128106499Y-82920272D01*
X128131300Y-82763686D01*
X128131300Y-82574713D01*
X128101740Y-82388081D01*
X128051050Y-82232075D01*
X128043347Y-82208368D01*
X128043345Y-82208365D01*
X128043345Y-82208363D01*
X127957559Y-82040000D01*
X127956008Y-82037865D01*
X127846490Y-81887127D01*
X127712873Y-81753510D01*
X127559999Y-81642440D01*
X127519469Y-81621789D01*
X127391636Y-81556654D01*
X127317272Y-81532491D01*
X127269995Y-81517130D01*
X127212321Y-81477693D01*
X127185123Y-81413334D01*
X127197038Y-81344488D01*
X127244282Y-81293012D01*
X127269994Y-81281269D01*
X127391632Y-81241747D01*
X127559999Y-81155960D01*
X127712873Y-81044890D01*
X127846490Y-80911273D01*
X127957560Y-80758399D01*
X128043347Y-80590032D01*
X128101740Y-80410318D01*
X128106825Y-80378210D01*
X128131300Y-80223686D01*
X128131300Y-80034713D01*
X128101740Y-79848081D01*
X128051050Y-79692075D01*
X128043347Y-79668368D01*
X128043345Y-79668365D01*
X128043345Y-79668363D01*
X127977532Y-79539199D01*
X127957560Y-79500001D01*
X127846490Y-79347127D01*
X127712873Y-79213510D01*
X127559999Y-79102440D01*
X127559991Y-79102436D01*
X127406413Y-79024184D01*
X127355617Y-78976209D01*
X127338822Y-78908388D01*
X127361359Y-78842253D01*
X127416075Y-78798802D01*
X127462707Y-78789699D01*
X127762318Y-78789699D01*
X127856104Y-78774846D01*
X127969142Y-78717250D01*
X128058850Y-78627542D01*
X128116446Y-78514504D01*
X128116446Y-78514502D01*
X128116447Y-78514501D01*
X128131299Y-78420724D01*
X128131300Y-78420719D01*
X128131299Y-76757682D01*
X128116446Y-76663896D01*
X128058850Y-76550858D01*
X128058846Y-76550854D01*
X128058845Y-76550852D01*
X127969147Y-76461154D01*
X127969144Y-76461152D01*
X127969142Y-76461150D01*
X127883702Y-76417616D01*
X127856101Y-76403552D01*
X127762324Y-76388700D01*
X126099282Y-76388700D01*
X126018319Y-76401523D01*
X126005496Y-76403554D01*
X125892458Y-76461150D01*
X125892457Y-76461151D01*
X125892452Y-76461154D01*
X125802754Y-76550852D01*
X125802751Y-76550857D01*
X125745152Y-76663898D01*
X125730300Y-76757675D01*
X125016317Y-76757675D01*
X125050940Y-76651118D01*
X125066212Y-76554693D01*
X125080500Y-76464486D01*
X125080500Y-76275513D01*
X125050940Y-76088881D01*
X125000331Y-75933124D01*
X124992547Y-75909168D01*
X124992545Y-75909165D01*
X124992545Y-75909163D01*
X124917901Y-75762667D01*
X124906760Y-75740801D01*
X124795690Y-75587927D01*
X124662073Y-75454310D01*
X124509199Y-75343240D01*
X124484007Y-75330404D01*
X124340836Y-75257454D01*
X124266472Y-75233291D01*
X124219195Y-75217930D01*
X124161521Y-75178493D01*
X124134323Y-75114134D01*
X124146238Y-75045288D01*
X124193482Y-74993812D01*
X124219194Y-74982069D01*
X124340832Y-74942547D01*
X124509199Y-74856760D01*
X124662073Y-74745690D01*
X124795690Y-74612073D01*
X124906760Y-74459199D01*
X124992547Y-74290832D01*
X125050940Y-74111118D01*
X125080500Y-73924486D01*
X125080500Y-73735513D01*
X125050940Y-73548881D01*
X125005626Y-73409420D01*
X124992547Y-73369168D01*
X124992545Y-73369165D01*
X124992545Y-73369163D01*
X124906759Y-73200800D01*
X124795690Y-73047927D01*
X124662073Y-72914310D01*
X124524445Y-72814317D01*
X124481781Y-72758988D01*
X124475802Y-72689374D01*
X124508408Y-72627579D01*
X124569247Y-72593222D01*
X124597332Y-72590000D01*
X124727828Y-72590000D01*
X124727844Y-72589999D01*
X124787372Y-72583598D01*
X124787379Y-72583596D01*
X124922086Y-72533354D01*
X124922093Y-72533350D01*
X125037187Y-72447190D01*
X125037190Y-72447187D01*
X125123350Y-72332093D01*
X125123354Y-72332086D01*
X125173596Y-72197379D01*
X125173598Y-72197372D01*
X125179999Y-72137844D01*
X125180000Y-72137827D01*
X125180000Y-71916530D01*
X129179500Y-71916530D01*
X129179500Y-72123469D01*
X129219868Y-72326412D01*
X129219870Y-72326420D01*
X129287834Y-72490500D01*
X129299059Y-72517598D01*
X129347436Y-72590000D01*
X129414024Y-72689657D01*
X129560342Y-72835975D01*
X129560345Y-72835977D01*
X129732402Y-72950941D01*
X129923580Y-73030130D01*
X130126530Y-73070499D01*
X130126534Y-73070500D01*
X130126535Y-73070500D01*
X130333466Y-73070500D01*
X130333467Y-73070499D01*
X130536420Y-73030130D01*
X130727598Y-72950941D01*
X130899655Y-72835977D01*
X131045977Y-72689655D01*
X131160941Y-72517598D01*
X131240130Y-72326420D01*
X131280500Y-72123465D01*
X131280500Y-71916535D01*
X131280499Y-71916530D01*
X131719500Y-71916530D01*
X131719500Y-72123469D01*
X131759868Y-72326412D01*
X131759870Y-72326420D01*
X131827834Y-72490500D01*
X131839059Y-72517598D01*
X131887436Y-72590000D01*
X131954024Y-72689657D01*
X132100342Y-72835975D01*
X132100345Y-72835977D01*
X132272402Y-72950941D01*
X132463580Y-73030130D01*
X132666530Y-73070499D01*
X132666534Y-73070500D01*
X132666535Y-73070500D01*
X132873466Y-73070500D01*
X132873467Y-73070499D01*
X133076420Y-73030130D01*
X133267598Y-72950941D01*
X133439655Y-72835977D01*
X133585977Y-72689655D01*
X133700941Y-72517598D01*
X133780130Y-72326420D01*
X133820500Y-72123465D01*
X133820500Y-71916535D01*
X133780130Y-71713580D01*
X133700941Y-71522402D01*
X133585977Y-71350345D01*
X133585975Y-71350342D01*
X133439657Y-71204024D01*
X133324746Y-71127244D01*
X133267598Y-71089059D01*
X133263887Y-71087522D01*
X133076420Y-71009870D01*
X133076412Y-71009868D01*
X132873469Y-70969500D01*
X132873465Y-70969500D01*
X132666535Y-70969500D01*
X132666530Y-70969500D01*
X132463587Y-71009868D01*
X132463579Y-71009870D01*
X132272403Y-71089058D01*
X132100342Y-71204024D01*
X131954024Y-71350342D01*
X131839058Y-71522403D01*
X131759870Y-71713579D01*
X131759868Y-71713587D01*
X131719500Y-71916530D01*
X131280499Y-71916530D01*
X131240130Y-71713580D01*
X131160941Y-71522402D01*
X131045977Y-71350345D01*
X131045975Y-71350342D01*
X130899657Y-71204024D01*
X130784746Y-71127244D01*
X130727598Y-71089059D01*
X130723887Y-71087522D01*
X130536420Y-71009870D01*
X130536412Y-71009868D01*
X130333469Y-70969500D01*
X130333465Y-70969500D01*
X130126535Y-70969500D01*
X130126530Y-70969500D01*
X129923587Y-71009868D01*
X129923579Y-71009870D01*
X129732403Y-71089058D01*
X129560342Y-71204024D01*
X129414024Y-71350342D01*
X129299058Y-71522403D01*
X129219870Y-71713579D01*
X129219868Y-71713587D01*
X129179500Y-71916530D01*
X125180000Y-71916530D01*
X125180000Y-71540000D01*
X124370748Y-71540000D01*
X124392518Y-71502292D01*
X124430000Y-71362409D01*
X124430000Y-71217591D01*
X124392518Y-71077708D01*
X124370748Y-71040000D01*
X125180000Y-71040000D01*
X125180000Y-70442172D01*
X125179999Y-70442155D01*
X125173598Y-70382627D01*
X125173596Y-70382620D01*
X125123354Y-70247913D01*
X125123350Y-70247906D01*
X125037190Y-70132812D01*
X125037187Y-70132809D01*
X124922093Y-70046649D01*
X124922086Y-70046645D01*
X124787379Y-69996403D01*
X124787372Y-69996401D01*
X124727844Y-69990000D01*
X124130000Y-69990000D01*
X124130000Y-70799252D01*
X124092292Y-70777482D01*
X123952409Y-70740000D01*
X123807591Y-70740000D01*
X123667708Y-70777482D01*
X123630000Y-70799252D01*
X123630000Y-69990000D01*
X123032155Y-69990000D01*
X122972627Y-69996401D01*
X122972620Y-69996403D01*
X122837913Y-70046645D01*
X122837906Y-70046649D01*
X122722812Y-70132809D01*
X122722809Y-70132812D01*
X122636649Y-70247906D01*
X122636645Y-70247913D01*
X122586403Y-70382620D01*
X122586401Y-70382627D01*
X122580000Y-70442155D01*
X119465327Y-70442155D01*
X119521714Y-70331490D01*
X119523889Y-70327417D01*
X119528933Y-70318388D01*
X119528936Y-70318380D01*
X119531108Y-70313576D01*
X119531289Y-70313658D01*
X119533869Y-70307634D01*
X119548455Y-70279009D01*
X119615359Y-70073097D01*
X119649229Y-69859254D01*
X119649229Y-69750919D01*
X188238244Y-69750919D01*
X188238244Y-69750923D01*
X188239782Y-69768992D01*
X188240229Y-69779509D01*
X188240229Y-69859181D01*
X188255151Y-69953392D01*
X188255853Y-69957827D01*
X188258057Y-69983718D01*
X188262899Y-70002316D01*
X188263849Y-70008310D01*
X188263850Y-70008314D01*
X188274099Y-70073022D01*
X188309261Y-70181241D01*
X188310405Y-70184764D01*
X188316929Y-70209817D01*
X188322675Y-70222530D01*
X188324793Y-70229047D01*
X188324798Y-70229058D01*
X188341003Y-70278931D01*
X188403204Y-70401008D01*
X188403205Y-70401010D01*
X188404523Y-70403597D01*
X188413165Y-70422715D01*
X188417627Y-70429317D01*
X188421097Y-70436127D01*
X188421098Y-70436128D01*
X188439295Y-70471839D01*
X188439298Y-70471844D01*
X188539465Y-70609712D01*
X188539466Y-70609712D01*
X188540717Y-70611435D01*
X188543996Y-70616286D01*
X188545011Y-70617345D01*
X188545069Y-70617425D01*
X188548305Y-70621878D01*
X188548305Y-70621879D01*
X188566556Y-70646999D01*
X188566557Y-70647000D01*
X188719651Y-70800094D01*
X188894810Y-70927355D01*
X188974863Y-70968144D01*
X189087719Y-71025648D01*
X189087722Y-71025649D01*
X189184157Y-71056982D01*
X189293632Y-71092552D01*
X189507475Y-71126422D01*
X189507476Y-71126422D01*
X189551457Y-71126422D01*
X189557267Y-71127166D01*
X189574781Y-71126422D01*
X189723982Y-71126422D01*
X189723983Y-71126422D01*
X189778667Y-71117760D01*
X189790694Y-71117250D01*
X189815092Y-71111991D01*
X189937826Y-71092552D01*
X190001919Y-71071726D01*
X190019088Y-71068028D01*
X190043507Y-71058214D01*
X190143738Y-71025648D01*
X190215322Y-70989173D01*
X190235878Y-70980914D01*
X190256722Y-70968079D01*
X190336648Y-70927355D01*
X190413236Y-70871709D01*
X190434828Y-70858416D01*
X190450403Y-70844706D01*
X190511807Y-70800094D01*
X190590452Y-70721448D01*
X190610213Y-70704058D01*
X190620146Y-70691754D01*
X190664901Y-70647000D01*
X190742305Y-70540462D01*
X190756989Y-70522279D01*
X190761885Y-70513512D01*
X190792162Y-70471841D01*
X190864767Y-70329344D01*
X190870933Y-70318310D01*
X190872159Y-70314837D01*
X190890455Y-70278931D01*
X190957359Y-70073019D01*
X190991229Y-69859176D01*
X190991229Y-69642668D01*
X190957359Y-69428825D01*
X190890455Y-69222913D01*
X190872159Y-69187005D01*
X190870933Y-69183534D01*
X190864768Y-69172500D01*
X190864120Y-69171229D01*
X190863696Y-69170395D01*
X190863685Y-69170375D01*
X190828294Y-69100917D01*
X190792162Y-69030003D01*
X190761887Y-68988334D01*
X190756989Y-68979565D01*
X190742292Y-68961363D01*
X190664901Y-68854844D01*
X190620150Y-68810093D01*
X190610213Y-68797786D01*
X190590444Y-68780387D01*
X190511809Y-68701752D01*
X190511807Y-68701750D01*
X190455101Y-68660550D01*
X190450409Y-68657140D01*
X190434828Y-68643428D01*
X190413242Y-68630137D01*
X190409402Y-68627347D01*
X190336651Y-68574491D01*
X190336650Y-68574490D01*
X190336648Y-68574489D01*
X190256725Y-68533766D01*
X190235878Y-68520930D01*
X190215321Y-68512669D01*
X190210394Y-68510159D01*
X190143735Y-68476194D01*
X190047528Y-68444935D01*
X190047527Y-68444935D01*
X190043511Y-68443630D01*
X190019088Y-68433816D01*
X190001920Y-68430116D01*
X189995897Y-68428159D01*
X189995896Y-68428158D01*
X189937831Y-68409293D01*
X189937826Y-68409292D01*
X189937820Y-68409291D01*
X189818490Y-68390389D01*
X189818490Y-68390390D01*
X189815087Y-68389851D01*
X189790694Y-68384594D01*
X189778666Y-68384083D01*
X189771638Y-68382970D01*
X189723983Y-68375422D01*
X189574781Y-68375422D01*
X189557267Y-68374678D01*
X189551457Y-68375422D01*
X189507475Y-68375422D01*
X189452793Y-68384083D01*
X189293630Y-68409292D01*
X189087722Y-68476194D01*
X189087719Y-68476195D01*
X188894809Y-68574489D01*
X188719652Y-68701749D01*
X188566557Y-68854843D01*
X188548302Y-68879967D01*
X188545004Y-68884505D01*
X188543996Y-68885558D01*
X188540740Y-68890374D01*
X188539471Y-68892122D01*
X188439294Y-69030005D01*
X188421098Y-69065715D01*
X188417627Y-69072526D01*
X188413165Y-69079129D01*
X188404526Y-69098238D01*
X188403202Y-69100839D01*
X188403200Y-69100840D01*
X188403201Y-69100840D01*
X188341006Y-69222905D01*
X188341001Y-69222917D01*
X188324798Y-69272784D01*
X188322677Y-69279309D01*
X188316929Y-69292027D01*
X188310406Y-69317075D01*
X188309260Y-69320605D01*
X188274099Y-69428820D01*
X188263849Y-69493534D01*
X188262899Y-69499527D01*
X188258057Y-69518126D01*
X188255853Y-69544012D01*
X188255151Y-69548450D01*
X188240229Y-69642663D01*
X188240229Y-69722334D01*
X188239782Y-69732850D01*
X188238244Y-69750919D01*
X119649229Y-69750919D01*
X119649229Y-69642746D01*
X119615359Y-69428903D01*
X119548455Y-69222991D01*
X119530159Y-69187083D01*
X119528933Y-69183612D01*
X119522768Y-69172578D01*
X119450162Y-69030081D01*
X119450105Y-69030003D01*
X119442760Y-69019893D01*
X119419887Y-68988412D01*
X119414989Y-68979643D01*
X119400292Y-68961441D01*
X119322901Y-68854922D01*
X119278150Y-68810171D01*
X119268213Y-68797864D01*
X119248444Y-68780465D01*
X119169809Y-68701830D01*
X119169807Y-68701828D01*
X119113101Y-68660628D01*
X119108409Y-68657218D01*
X119092828Y-68643506D01*
X119071242Y-68630215D01*
X119067402Y-68627425D01*
X118994651Y-68574569D01*
X118994650Y-68574568D01*
X118994648Y-68574567D01*
X118914725Y-68533844D01*
X118893878Y-68521008D01*
X118873321Y-68512747D01*
X118868394Y-68510237D01*
X118801735Y-68476272D01*
X118705528Y-68445013D01*
X118705527Y-68445013D01*
X118701511Y-68443708D01*
X118677088Y-68433894D01*
X118659920Y-68430194D01*
X118653897Y-68428237D01*
X118653896Y-68428236D01*
X118595831Y-68409371D01*
X118595826Y-68409370D01*
X118595334Y-68409292D01*
X118476490Y-68390467D01*
X118476490Y-68390468D01*
X118473087Y-68389929D01*
X118448694Y-68384672D01*
X118436666Y-68384161D01*
X118429638Y-68383048D01*
X118381983Y-68375500D01*
X118232781Y-68375500D01*
X118215267Y-68374756D01*
X118209457Y-68375500D01*
X118165475Y-68375500D01*
X118118312Y-68382970D01*
X117951630Y-68409370D01*
X117745722Y-68476272D01*
X117745719Y-68476273D01*
X117552809Y-68574567D01*
X117377652Y-68701827D01*
X117224557Y-68854921D01*
X117206302Y-68880045D01*
X117203004Y-68884583D01*
X117201996Y-68885636D01*
X117198740Y-68890452D01*
X117197471Y-68892200D01*
X117097294Y-69030083D01*
X117079098Y-69065793D01*
X117075627Y-69072604D01*
X117071165Y-69079207D01*
X117062526Y-69098316D01*
X117061202Y-69100917D01*
X117061200Y-69100918D01*
X117061201Y-69100918D01*
X116999006Y-69222983D01*
X116999001Y-69222995D01*
X116982798Y-69272862D01*
X116980677Y-69279387D01*
X116974929Y-69292105D01*
X116968406Y-69317153D01*
X116967260Y-69320683D01*
X116932099Y-69428898D01*
X116921849Y-69493612D01*
X116920899Y-69499605D01*
X116916057Y-69518204D01*
X116913853Y-69544090D01*
X116913151Y-69548528D01*
X116898229Y-69642741D01*
X116898229Y-69722412D01*
X116897782Y-69732928D01*
X116896244Y-69750997D01*
X113000500Y-69750997D01*
X113000500Y-68004066D01*
X113000765Y-67995957D01*
X113000858Y-67994536D01*
X113015681Y-67768378D01*
X113016670Y-67758911D01*
X113024090Y-67707308D01*
X113025193Y-67700868D01*
X113064312Y-67504200D01*
X113066938Y-67493513D01*
X113079361Y-67451205D01*
X113080877Y-67446412D01*
X113148231Y-67247996D01*
X113152834Y-67236397D01*
X113163477Y-67213093D01*
X113164987Y-67209913D01*
X113264790Y-67007533D01*
X113272896Y-66993494D01*
X113409182Y-66789527D01*
X113419039Y-66776681D01*
X113580786Y-66592244D01*
X113592244Y-66580786D01*
X113776681Y-66419039D01*
X113789527Y-66409182D01*
X113993498Y-66272893D01*
X114007533Y-66264790D01*
X114209913Y-66164987D01*
X114213093Y-66163477D01*
X114236397Y-66152834D01*
X114247996Y-66148231D01*
X114446412Y-66080877D01*
X114451205Y-66079361D01*
X114493513Y-66066938D01*
X114504200Y-66064312D01*
X114700868Y-66025193D01*
X114707308Y-66024090D01*
X114758911Y-66016670D01*
X114768378Y-66015681D01*
X114983057Y-66001610D01*
X114995958Y-66000765D01*
X115004067Y-66000500D01*
X192111676Y-66000500D01*
X192119786Y-66000765D01*
G37*
%TD.AperFunction*%
%TD*%
M02*
