M48
; DRILL file {KiCad 9.0.0} date 2025-03-31T19:53:20-0500
; FORMAT={-:-/ absolute / metric / decimal}
; #@! TF.CreationDate,2025-03-31T19:53:20-05:00
; #@! TF.GenerationSoftware,Kicad,Pcbnew,9.0.0
; #@! TF.FileFunction,Plated,1,2,PTH
FMAT,2
METRIC
; #@! TA.AperFunction,Plated,PTH,ViaDrill
T1C0.400
; #@! TA.AperFunction,Plated,PTH,ComponentDrill
T2C0.500
; #@! TA.AperFunction,Plated,PTH,ComponentDrill
T3C0.800
; #@! TA.AperFunction,Plated,PTH,ComponentDrill
T4C1.000
; #@! TA.AperFunction,Plated,PTH,ComponentDrill
T5C1.100
%
G90
G05
T1
X142.0Y-80.0
X144.0Y-78.0
X150.5Y-85.0
X152.5Y-78.0
X154.0Y-72.0
X154.0Y-75.5
X155.0Y-98.0
X156.0Y-73.5
X158.0Y-81.0
X159.0Y-91.5
X159.5Y-84.0
X160.196Y-101.981
X163.0Y-67.0
X164.0Y-82.0
X164.979Y-76.29
X166.169Y-78.737
X172.5Y-73.0
X173.967Y-77.416
X177.009Y-73.32
X182.5Y-71.0
T2
X115.5Y-75.375
X115.5Y-76.625
T3
X130.23Y-72.02
X132.682Y-84.26
X132.682Y-86.26
X132.77Y-72.02
X134.682Y-84.26
X134.682Y-86.26
X136.682Y-84.26
X136.682Y-86.26
T4
X115.5Y-84.38
X115.5Y-86.92
X115.5Y-89.46
X115.5Y-92.0
X115.51Y-115.99
X115.51Y-118.53
X115.51Y-121.07
X115.52Y-125.9
X115.52Y-128.44
X115.52Y-130.98
X115.54Y-106.25
X115.54Y-108.79
X115.54Y-111.33
X115.57Y-96.935
X115.57Y-99.475
X115.57Y-102.015
X138.28Y-138.03
X140.82Y-138.03
X142.225Y-71.375
X143.36Y-138.03
X144.765Y-71.375
X149.09Y-138.08
X151.63Y-138.08
X154.17Y-138.08
X159.08Y-138.07
X161.62Y-138.07
X164.16Y-138.07
X169.49Y-138.04
X172.03Y-138.04
X174.57Y-138.04
T5
X123.88Y-71.29
X123.88Y-73.83
X123.88Y-76.37
X123.88Y-78.91
X123.88Y-81.45
X123.88Y-83.99
X123.88Y-86.53
X123.88Y-89.07
X123.88Y-91.61
X123.88Y-94.15
X123.88Y-96.69
X123.88Y-99.23
X123.88Y-101.77
X123.88Y-104.31
X123.88Y-106.85
X123.88Y-109.39
X123.88Y-111.93
X123.88Y-114.47
X123.88Y-117.01
X123.88Y-119.55
X123.88Y-122.09
X123.88Y-124.63
X123.88Y-127.17
X123.88Y-129.71
X126.42Y-117.01
X126.931Y-77.589
X126.931Y-80.129
X126.931Y-82.669
X126.931Y-85.209
X126.931Y-87.749
X128.96Y-117.01
X131.5Y-117.01
X134.04Y-117.01
X136.58Y-73.83
X136.58Y-117.01
X139.12Y-71.29
X139.12Y-73.83
X139.12Y-76.37
X139.12Y-78.91
X139.12Y-81.45
X139.12Y-83.99
X139.12Y-86.53
X139.12Y-89.07
X139.12Y-91.61
X139.12Y-94.15
X139.12Y-96.69
X139.12Y-99.23
X139.12Y-101.77
X139.12Y-104.31
X139.12Y-106.85
X139.12Y-109.39
X139.12Y-111.93
X139.12Y-114.47
X139.12Y-117.01
X139.12Y-119.55
X139.12Y-122.09
X139.12Y-124.63
X139.12Y-127.17
X139.12Y-129.71
M30
