%TF.GenerationSoftware,KiCad,Pcbnew,9.0.0*%
%TF.CreationDate,2025-03-31T19:53:22-05:00*%
%TF.ProjectId,HASP_Power_System,48415350-5f50-46f7-9765-725f53797374,rev?*%
%TF.SameCoordinates,Original*%
%TF.FileFunction,Profile,NP*%
%FSLAX46Y46*%
G04 Gerber Fmt 4.6, Leading zero omitted, Abs format (unit mm)*
G04 Created by KiCad (PCBNEW 9.0.0) date 2025-03-31 19:53:22*
%MOMM*%
%LPD*%
G01*
G04 APERTURE LIST*
%TA.AperFunction,Profile*%
%ADD10C,0.200000*%
%TD*%
G04 APERTURE END LIST*
D10*
X179586929Y-77062036D02*
G75*
G02*
X181586929Y-75062029I1999971J36D01*
G01*
X194115729Y-73062036D02*
G75*
G02*
X192115729Y-75062029I-2000029J36D01*
G01*
X181374112Y-83011354D02*
G75*
G02*
X179586994Y-81022709I212788J1988554D01*
G01*
X115000000Y-66000000D02*
X192115729Y-66000000D01*
X194115729Y-138999999D02*
G75*
G02*
X192115729Y-141000029I-2000029J-1D01*
G01*
X194115729Y-68000000D02*
X194115729Y-73062036D01*
X181374113Y-83011354D02*
G75*
G02*
X182577844Y-83588120I-212813J-1988646D01*
G01*
X192115729Y-140999999D02*
X115000000Y-140999999D01*
X190990729Y-69750922D02*
G75*
G02*
X188240729Y-69750922I-1375000J0D01*
G01*
X188240729Y-69750922D02*
G75*
G02*
X190990729Y-69750922I1375000J0D01*
G01*
X113000000Y-138999999D02*
X113000000Y-68000000D01*
X192115729Y-66000000D02*
G75*
G02*
X194115700Y-68000000I-29J-2000000D01*
G01*
X182577842Y-83588122D02*
X193532275Y-94578780D01*
X115000000Y-140999999D02*
G75*
G02*
X113000001Y-138999999I0J1999999D01*
G01*
X182351429Y-137499999D02*
G75*
G02*
X179601429Y-137499999I-1375000J0D01*
G01*
X179601429Y-137499999D02*
G75*
G02*
X182351429Y-137499999I1375000J0D01*
G01*
X194115729Y-95990657D02*
X194115729Y-138999999D01*
X192115729Y-75062036D02*
X181586929Y-75062036D01*
X128490729Y-137499999D02*
G75*
G02*
X125740729Y-137499999I-1375000J0D01*
G01*
X125740729Y-137499999D02*
G75*
G02*
X128490729Y-137499999I1375000J0D01*
G01*
X193532275Y-94578780D02*
G75*
G02*
X194115751Y-95990657I-1416575J-1411920D01*
G01*
X119648729Y-69751000D02*
G75*
G02*
X116898729Y-69751000I-1375000J0D01*
G01*
X116898729Y-69751000D02*
G75*
G02*
X119648729Y-69751000I1375000J0D01*
G01*
X113000000Y-68000000D02*
G75*
G02*
X115000000Y-66000000I2000000J0D01*
G01*
X179586929Y-77062036D02*
X179586929Y-81022709D01*
M02*
