%TF.GenerationSoftware,KiCad,Pcbnew,9.0.0*%
%TF.CreationDate,2025-03-31T19:53:22-05:00*%
%TF.ProjectId,HASP_Power_System,48415350-5f50-46f7-9765-725f53797374,rev?*%
%TF.SameCoordinates,Original*%
%TF.FileFunction,Soldermask,Bot*%
%TF.FilePolarity,Negative*%
%FSLAX46Y46*%
G04 Gerber Fmt 4.6, Leading zero omitted, Abs format (unit mm)*
G04 Created by KiCad (PCBNEW 9.0.0) date 2025-03-31 19:53:22*
%MOMM*%
%LPD*%
G01*
G04 APERTURE LIST*
G04 Aperture macros list*
%AMRoundRect*
0 Rectangle with rounded corners*
0 $1 Rounding radius*
0 $2 $3 $4 $5 $6 $7 $8 $9 X,Y pos of 4 corners*
0 Add a 4 corners polygon primitive as box body*
4,1,4,$2,$3,$4,$5,$6,$7,$8,$9,$2,$3,0*
0 Add four circle primitives for the rounded corners*
1,1,$1+$1,$2,$3*
1,1,$1+$1,$4,$5*
1,1,$1+$1,$6,$7*
1,1,$1+$1,$8,$9*
0 Add four rect primitives between the rounded corners*
20,1,$1+$1,$2,$3,$4,$5,0*
20,1,$1+$1,$4,$5,$6,$7,0*
20,1,$1+$1,$6,$7,$8,$9,0*
20,1,$1+$1,$8,$9,$2,$3,0*%
G04 Aperture macros list end*
%ADD10R,1.700000X1.700000*%
%ADD11O,1.700000X1.700000*%
%ADD12R,1.600000X1.600000*%
%ADD13C,1.600000*%
%ADD14R,1.300000X1.300000*%
%ADD15C,1.300000*%
%ADD16RoundRect,0.200000X0.450000X-0.200000X0.450000X0.200000X-0.450000X0.200000X-0.450000X-0.200000X0*%
%ADD17O,1.300000X0.800000*%
G04 APERTURE END LIST*
D10*
%TO.C,J5*%
X142225000Y-71375000D03*
D11*
X144765000Y-71375000D03*
%TD*%
D10*
%TO.C,J10*%
X115510000Y-115990000D03*
D11*
X115510000Y-118530000D03*
X115510000Y-121070000D03*
%TD*%
D10*
%TO.C,J11*%
X115520000Y-125900000D03*
D11*
X115520000Y-128440000D03*
X115520000Y-130980000D03*
%TD*%
D10*
%TO.C,J9*%
X115540000Y-106250000D03*
D11*
X115540000Y-108790000D03*
X115540000Y-111330000D03*
%TD*%
D10*
%TO.C,J12*%
X174570000Y-138040000D03*
D11*
X172030000Y-138040000D03*
X169490000Y-138040000D03*
%TD*%
D10*
%TO.C,J8*%
X115570000Y-96935000D03*
D11*
X115570000Y-99475000D03*
X115570000Y-102015000D03*
%TD*%
D10*
%TO.C,J13*%
X164160000Y-138070000D03*
D11*
X161620000Y-138070000D03*
X159080000Y-138070000D03*
%TD*%
D10*
%TO.C,J6*%
X115500000Y-92000000D03*
D11*
X115500000Y-89460000D03*
X115500000Y-86920000D03*
X115500000Y-84380000D03*
%TD*%
D12*
%TO.C,U3*%
X123880000Y-71290000D03*
D13*
X123880000Y-73830000D03*
X123880000Y-76370000D03*
X123880000Y-78910000D03*
X123880000Y-81450000D03*
X123880000Y-83990000D03*
X123880000Y-86530000D03*
X123880000Y-89070000D03*
X123880000Y-91610000D03*
X123880000Y-94150000D03*
X123880000Y-96690000D03*
X123880000Y-99230000D03*
X123880000Y-101770000D03*
X123880000Y-104310000D03*
X123880000Y-106850000D03*
X123880000Y-109390000D03*
X123880000Y-111930000D03*
X123880000Y-114470000D03*
X123880000Y-117010000D03*
X123880000Y-119550000D03*
X123880000Y-122090000D03*
X123880000Y-124630000D03*
X123880000Y-127170000D03*
X123880000Y-129710000D03*
X139120000Y-129710000D03*
X139120000Y-127170000D03*
X139120000Y-124630000D03*
X139120000Y-122090000D03*
X139120000Y-119550000D03*
X139120000Y-117010000D03*
X139120000Y-114470000D03*
X139120000Y-111930000D03*
X139120000Y-109390000D03*
X139120000Y-106850000D03*
X139120000Y-104310000D03*
X139120000Y-101770000D03*
X139120000Y-99230000D03*
X139120000Y-96690000D03*
X139120000Y-94150000D03*
X139120000Y-91610000D03*
X139120000Y-89070000D03*
X139120000Y-86530000D03*
X139120000Y-83990000D03*
X139120000Y-81450000D03*
X139120000Y-78910000D03*
X139120000Y-76370000D03*
X139120000Y-73830000D03*
X139120000Y-71290000D03*
X136580000Y-73830000D03*
X126420000Y-117010000D03*
X128960000Y-117010000D03*
X131500000Y-117010000D03*
X134040000Y-117010000D03*
X136580000Y-117010000D03*
D12*
X126930800Y-77589200D03*
D13*
X126930800Y-80129200D03*
X126930800Y-82669200D03*
X126930800Y-85209200D03*
X126930800Y-87749200D03*
D14*
X136681600Y-84260000D03*
D15*
X134681600Y-84260000D03*
X132681600Y-84260000D03*
X132681600Y-86260000D03*
X134681600Y-86260000D03*
X136681600Y-86260000D03*
X132770000Y-72020000D03*
X130230000Y-72020000D03*
%TD*%
D10*
%TO.C,J14*%
X154170000Y-138080000D03*
D11*
X151630000Y-138080000D03*
X149090000Y-138080000D03*
%TD*%
D10*
%TO.C,J15*%
X143360000Y-138030000D03*
D11*
X140820000Y-138030000D03*
X138280000Y-138030000D03*
%TD*%
D16*
%TO.C,J4*%
X115500000Y-76625000D03*
D17*
X115500000Y-75375000D03*
%TD*%
M02*
