%TF.GenerationSoftware,KiCad,Pcbnew,9.0.0*%
%TF.CreationDate,2025-03-31T19:53:22-05:00*%
%TF.ProjectId,HASP_Power_System,48415350-5f50-46f7-9765-725f53797374,rev?*%
%TF.SameCoordinates,Original*%
%TF.FileFunction,Soldermask,Top*%
%TF.FilePolarity,Negative*%
%FSLAX46Y46*%
G04 Gerber Fmt 4.6, Leading zero omitted, Abs format (unit mm)*
G04 Created by KiCad (PCBNEW 9.0.0) date 2025-03-31 19:53:22*
%MOMM*%
%LPD*%
G01*
G04 APERTURE LIST*
G04 Aperture macros list*
%AMRoundRect*
0 Rectangle with rounded corners*
0 $1 Rounding radius*
0 $2 $3 $4 $5 $6 $7 $8 $9 X,Y pos of 4 corners*
0 Add a 4 corners polygon primitive as box body*
4,1,4,$2,$3,$4,$5,$6,$7,$8,$9,$2,$3,0*
0 Add four circle primitives for the rounded corners*
1,1,$1+$1,$2,$3*
1,1,$1+$1,$4,$5*
1,1,$1+$1,$6,$7*
1,1,$1+$1,$8,$9*
0 Add four rect primitives between the rounded corners*
20,1,$1+$1,$2,$3,$4,$5,0*
20,1,$1+$1,$4,$5,$6,$7,0*
20,1,$1+$1,$6,$7,$8,$9,0*
20,1,$1+$1,$8,$9,$2,$3,0*%
G04 Aperture macros list end*
%ADD10C,0.000000*%
%ADD11RoundRect,0.250000X-0.262500X-0.450000X0.262500X-0.450000X0.262500X0.450000X-0.262500X0.450000X0*%
%ADD12R,1.700000X1.700000*%
%ADD13O,1.700000X1.700000*%
%ADD14RoundRect,0.102000X2.760000X-1.000000X2.760000X1.000000X-2.760000X1.000000X-2.760000X-1.000000X0*%
%ADD15RoundRect,0.250000X-0.475000X0.250000X-0.475000X-0.250000X0.475000X-0.250000X0.475000X0.250000X0*%
%ADD16RoundRect,0.250000X0.250000X0.475000X-0.250000X0.475000X-0.250000X-0.475000X0.250000X-0.475000X0*%
%ADD17RoundRect,0.250000X0.650000X-0.325000X0.650000X0.325000X-0.650000X0.325000X-0.650000X-0.325000X0*%
%ADD18R,0.700000X1.800000*%
%ADD19R,1.600000X2.200000*%
%ADD20R,2.500000X1.700000*%
%ADD21RoundRect,0.150000X0.512500X0.150000X-0.512500X0.150000X-0.512500X-0.150000X0.512500X-0.150000X0*%
%ADD22RoundRect,0.250000X0.325000X1.100000X-0.325000X1.100000X-0.325000X-1.100000X0.325000X-1.100000X0*%
%ADD23R,0.838200X1.600200*%
%ADD24RoundRect,0.250000X-0.650000X0.325000X-0.650000X-0.325000X0.650000X-0.325000X0.650000X0.325000X0*%
%ADD25RoundRect,0.450000X-1.050000X-1.050000X1.050000X-1.050000X1.050000X1.050000X-1.050000X1.050000X0*%
%ADD26R,0.600000X0.450000*%
%ADD27R,1.600000X1.600000*%
%ADD28C,1.600000*%
%ADD29R,1.300000X1.300000*%
%ADD30C,1.300000*%
%ADD31RoundRect,0.102000X-0.700000X0.500000X-0.700000X-0.500000X0.700000X-0.500000X0.700000X0.500000X0*%
%ADD32RoundRect,0.250000X0.450000X-0.262500X0.450000X0.262500X-0.450000X0.262500X-0.450000X-0.262500X0*%
%ADD33RoundRect,0.200000X0.450000X-0.200000X0.450000X0.200000X-0.450000X0.200000X-0.450000X-0.200000X0*%
%ADD34O,1.300000X0.800000*%
G04 APERTURE END LIST*
D10*
%TO.C,U2*%
G36*
X161800200Y-101536726D02*
G01*
X158599800Y-101536726D01*
X158599800Y-99225326D01*
X161800200Y-99225326D01*
X161800200Y-101536726D01*
G37*
%TD*%
D11*
%TO.C,R3*%
X153175000Y-73500000D03*
X155000000Y-73500000D03*
%TD*%
D12*
%TO.C,J5*%
X142225000Y-71375000D03*
D13*
X144765000Y-71375000D03*
%TD*%
D14*
%TO.C,C3*%
X164500000Y-88706000D03*
X164500000Y-83500000D03*
%TD*%
D15*
%TO.C,C2*%
X172719400Y-80049800D03*
X172719400Y-81949800D03*
%TD*%
D16*
%TO.C,C7*%
X143400000Y-74475662D03*
X141500000Y-74475662D03*
%TD*%
%TO.C,C5*%
X162400000Y-91500000D03*
X160500000Y-91500000D03*
%TD*%
D12*
%TO.C,J10*%
X115510000Y-115990000D03*
D13*
X115510000Y-118530000D03*
X115510000Y-121070000D03*
%TD*%
D17*
%TO.C,C4*%
X159500000Y-87975000D03*
X159500000Y-85025000D03*
%TD*%
D12*
%TO.C,J11*%
X115520000Y-125900000D03*
D13*
X115520000Y-128440000D03*
X115520000Y-130980000D03*
%TD*%
D18*
%TO.C,J7*%
X160375000Y-67300000D03*
X161625000Y-67300000D03*
D19*
X158125000Y-70000000D03*
X163875000Y-70000000D03*
%TD*%
D20*
%TO.C,D1*%
X169894400Y-80264800D03*
X165894400Y-80264800D03*
%TD*%
D11*
%TO.C,R4*%
X169587500Y-73500000D03*
X171412500Y-73500000D03*
%TD*%
D12*
%TO.C,J9*%
X115540000Y-106250000D03*
D13*
X115540000Y-108790000D03*
X115540000Y-111330000D03*
%TD*%
D11*
%TO.C,R2*%
X175156900Y-74599800D03*
X176981900Y-74599800D03*
%TD*%
D21*
%TO.C,U1*%
X172963100Y-78415200D03*
X172963100Y-77465200D03*
X172963100Y-76515200D03*
X170688100Y-76515200D03*
X170688100Y-77465200D03*
X170688100Y-78415200D03*
%TD*%
D22*
%TO.C,C1*%
X168944200Y-76253400D03*
X165994200Y-76253400D03*
%TD*%
D12*
%TO.C,J12*%
X174570000Y-138040000D03*
D13*
X172030000Y-138040000D03*
X169490000Y-138040000D03*
%TD*%
D12*
%TO.C,J8*%
X115570000Y-96935000D03*
D13*
X115570000Y-99475000D03*
X115570000Y-102015000D03*
%TD*%
D23*
%TO.C,U2*%
X162500000Y-93980226D03*
X160200000Y-93980226D03*
X157900000Y-93980226D03*
%TD*%
D12*
%TO.C,J13*%
X164160000Y-138070000D03*
D13*
X161620000Y-138070000D03*
X159080000Y-138070000D03*
%TD*%
D24*
%TO.C,C6*%
X155000000Y-93525000D03*
X155000000Y-96475000D03*
%TD*%
D25*
%TO.C,J16*%
X176750000Y-69000000D03*
X182250000Y-69000000D03*
%TD*%
D12*
%TO.C,J6*%
X115500000Y-92000000D03*
D13*
X115500000Y-89460000D03*
X115500000Y-86920000D03*
X115500000Y-84380000D03*
%TD*%
D26*
%TO.C,D2*%
X174313600Y-80311800D03*
X176413600Y-80311800D03*
%TD*%
D27*
%TO.C,U3*%
X123880000Y-71290000D03*
D28*
X123880000Y-73830000D03*
X123880000Y-76370000D03*
X123880000Y-78910000D03*
X123880000Y-81450000D03*
X123880000Y-83990000D03*
X123880000Y-86530000D03*
X123880000Y-89070000D03*
X123880000Y-91610000D03*
X123880000Y-94150000D03*
X123880000Y-96690000D03*
X123880000Y-99230000D03*
X123880000Y-101770000D03*
X123880000Y-104310000D03*
X123880000Y-106850000D03*
X123880000Y-109390000D03*
X123880000Y-111930000D03*
X123880000Y-114470000D03*
X123880000Y-117010000D03*
X123880000Y-119550000D03*
X123880000Y-122090000D03*
X123880000Y-124630000D03*
X123880000Y-127170000D03*
X123880000Y-129710000D03*
X139120000Y-129710000D03*
X139120000Y-127170000D03*
X139120000Y-124630000D03*
X139120000Y-122090000D03*
X139120000Y-119550000D03*
X139120000Y-117010000D03*
X139120000Y-114470000D03*
X139120000Y-111930000D03*
X139120000Y-109390000D03*
X139120000Y-106850000D03*
X139120000Y-104310000D03*
X139120000Y-101770000D03*
X139120000Y-99230000D03*
X139120000Y-96690000D03*
X139120000Y-94150000D03*
X139120000Y-91610000D03*
X139120000Y-89070000D03*
X139120000Y-86530000D03*
X139120000Y-83990000D03*
X139120000Y-81450000D03*
X139120000Y-78910000D03*
X139120000Y-76370000D03*
X139120000Y-73830000D03*
X139120000Y-71290000D03*
X136580000Y-73830000D03*
X126420000Y-117010000D03*
X128960000Y-117010000D03*
X131500000Y-117010000D03*
X134040000Y-117010000D03*
X136580000Y-117010000D03*
D27*
X126930800Y-77589200D03*
D28*
X126930800Y-80129200D03*
X126930800Y-82669200D03*
X126930800Y-85209200D03*
X126930800Y-87749200D03*
D29*
X136681600Y-84260000D03*
D30*
X134681600Y-84260000D03*
X132681600Y-84260000D03*
X132681600Y-86260000D03*
X134681600Y-86260000D03*
X136681600Y-86260000D03*
X132770000Y-72020000D03*
X130230000Y-72020000D03*
%TD*%
D18*
%TO.C,J3*%
X168995000Y-67300000D03*
X170245000Y-67300000D03*
D19*
X166745000Y-70000000D03*
X172495000Y-70000000D03*
%TD*%
D31*
%TO.C,L1*%
X170227879Y-83635396D03*
X170227879Y-86935396D03*
%TD*%
D32*
%TO.C,R1*%
X175871600Y-78430300D03*
X175871600Y-76605300D03*
%TD*%
D12*
%TO.C,J14*%
X154170000Y-138080000D03*
D13*
X151630000Y-138080000D03*
X149090000Y-138080000D03*
%TD*%
D15*
%TO.C,C8*%
X142000000Y-76550000D03*
X142000000Y-78450000D03*
%TD*%
D12*
%TO.C,J15*%
X143360000Y-138030000D03*
D13*
X140820000Y-138030000D03*
X138280000Y-138030000D03*
%TD*%
D18*
%TO.C,J2*%
X151250000Y-67300000D03*
X152500000Y-67300000D03*
D19*
X149000000Y-70000000D03*
X154750000Y-70000000D03*
%TD*%
D33*
%TO.C,J4*%
X115500000Y-76625000D03*
D34*
X115500000Y-75375000D03*
%TD*%
M02*
