%TF.GenerationSoftware,KiCad,Pcbnew,9.0.0*%
%TF.CreationDate,2025-03-31T19:53:22-05:00*%
%TF.ProjectId,HASP_Power_System,48415350-5f50-46f7-9765-725f53797374,rev?*%
%TF.SameCoordinates,Original*%
%TF.FileFunction,Legend,Top*%
%TF.FilePolarity,Positive*%
%FSLAX46Y46*%
G04 Gerber Fmt 4.6, Leading zero omitted, Abs format (unit mm)*
G04 Created by KiCad (PCBNEW 9.0.0) date 2025-03-31 19:53:22*
%MOMM*%
%LPD*%
G01*
G04 APERTURE LIST*
%ADD10C,0.300000*%
%ADD11C,0.150000*%
%ADD12C,0.075000*%
%ADD13C,0.120000*%
%ADD14C,0.127000*%
%ADD15C,0.200000*%
%ADD16C,0.152400*%
%ADD17C,0.100000*%
G04 APERTURE END LIST*
D10*
X118300828Y-78445489D02*
X119515114Y-78445489D01*
X119515114Y-78445489D02*
X119657971Y-78374060D01*
X119657971Y-78374060D02*
X119729400Y-78302632D01*
X119729400Y-78302632D02*
X119800828Y-78159774D01*
X119800828Y-78159774D02*
X119800828Y-77874060D01*
X119800828Y-77874060D02*
X119729400Y-77731203D01*
X119729400Y-77731203D02*
X119657971Y-77659774D01*
X119657971Y-77659774D02*
X119515114Y-77588346D01*
X119515114Y-77588346D02*
X118300828Y-77588346D01*
X119372257Y-76945488D02*
X119372257Y-76231203D01*
X119800828Y-77088345D02*
X118300828Y-76588345D01*
X118300828Y-76588345D02*
X119800828Y-76088345D01*
X119800828Y-74731203D02*
X119086542Y-75231203D01*
X119800828Y-75588346D02*
X118300828Y-75588346D01*
X118300828Y-75588346D02*
X118300828Y-75016917D01*
X118300828Y-75016917D02*
X118372257Y-74874060D01*
X118372257Y-74874060D02*
X118443685Y-74802631D01*
X118443685Y-74802631D02*
X118586542Y-74731203D01*
X118586542Y-74731203D02*
X118800828Y-74731203D01*
X118800828Y-74731203D02*
X118943685Y-74802631D01*
X118943685Y-74802631D02*
X119015114Y-74874060D01*
X119015114Y-74874060D02*
X119086542Y-75016917D01*
X119086542Y-75016917D02*
X119086542Y-75588346D01*
X118300828Y-74302631D02*
X118300828Y-73445489D01*
X119800828Y-73874060D02*
X118300828Y-73874060D01*
X166911653Y-74157971D02*
X166840225Y-74229400D01*
X166840225Y-74229400D02*
X166625939Y-74300828D01*
X166625939Y-74300828D02*
X166483082Y-74300828D01*
X166483082Y-74300828D02*
X166268796Y-74229400D01*
X166268796Y-74229400D02*
X166125939Y-74086542D01*
X166125939Y-74086542D02*
X166054510Y-73943685D01*
X166054510Y-73943685D02*
X165983082Y-73657971D01*
X165983082Y-73657971D02*
X165983082Y-73443685D01*
X165983082Y-73443685D02*
X166054510Y-73157971D01*
X166054510Y-73157971D02*
X166125939Y-73015114D01*
X166125939Y-73015114D02*
X166268796Y-72872257D01*
X166268796Y-72872257D02*
X166483082Y-72800828D01*
X166483082Y-72800828D02*
X166625939Y-72800828D01*
X166625939Y-72800828D02*
X166840225Y-72872257D01*
X166840225Y-72872257D02*
X166911653Y-72943685D01*
X168340225Y-74300828D02*
X167483082Y-74300828D01*
X167911653Y-74300828D02*
X167911653Y-72800828D01*
X167911653Y-72800828D02*
X167768796Y-73015114D01*
X167768796Y-73015114D02*
X167625939Y-73157971D01*
X167625939Y-73157971D02*
X167483082Y-73229400D01*
X159054510Y-102281054D02*
X159054510Y-103495340D01*
X159054510Y-103495340D02*
X159125939Y-103638197D01*
X159125939Y-103638197D02*
X159197368Y-103709626D01*
X159197368Y-103709626D02*
X159340225Y-103781054D01*
X159340225Y-103781054D02*
X159625939Y-103781054D01*
X159625939Y-103781054D02*
X159768796Y-103709626D01*
X159768796Y-103709626D02*
X159840225Y-103638197D01*
X159840225Y-103638197D02*
X159911653Y-103495340D01*
X159911653Y-103495340D02*
X159911653Y-102281054D01*
X160554511Y-102423911D02*
X160625939Y-102352483D01*
X160625939Y-102352483D02*
X160768797Y-102281054D01*
X160768797Y-102281054D02*
X161125939Y-102281054D01*
X161125939Y-102281054D02*
X161268797Y-102352483D01*
X161268797Y-102352483D02*
X161340225Y-102423911D01*
X161340225Y-102423911D02*
X161411654Y-102566768D01*
X161411654Y-102566768D02*
X161411654Y-102709626D01*
X161411654Y-102709626D02*
X161340225Y-102923911D01*
X161340225Y-102923911D02*
X160483082Y-103781054D01*
X160483082Y-103781054D02*
X161411654Y-103781054D01*
X145737890Y-75239056D02*
X145666462Y-75310485D01*
X145666462Y-75310485D02*
X145452176Y-75381913D01*
X145452176Y-75381913D02*
X145309319Y-75381913D01*
X145309319Y-75381913D02*
X145095033Y-75310485D01*
X145095033Y-75310485D02*
X144952176Y-75167627D01*
X144952176Y-75167627D02*
X144880747Y-75024770D01*
X144880747Y-75024770D02*
X144809319Y-74739056D01*
X144809319Y-74739056D02*
X144809319Y-74524770D01*
X144809319Y-74524770D02*
X144880747Y-74239056D01*
X144880747Y-74239056D02*
X144952176Y-74096199D01*
X144952176Y-74096199D02*
X145095033Y-73953342D01*
X145095033Y-73953342D02*
X145309319Y-73881913D01*
X145309319Y-73881913D02*
X145452176Y-73881913D01*
X145452176Y-73881913D02*
X145666462Y-73953342D01*
X145666462Y-73953342D02*
X145737890Y-74024770D01*
X146237890Y-73881913D02*
X147237890Y-73881913D01*
X147237890Y-73881913D02*
X146595033Y-75381913D01*
X150840225Y-133300828D02*
X151697368Y-133300828D01*
X151268796Y-134800828D02*
X151268796Y-133300828D01*
X152768796Y-134729400D02*
X152625939Y-134800828D01*
X152625939Y-134800828D02*
X152340225Y-134800828D01*
X152340225Y-134800828D02*
X152197367Y-134729400D01*
X152197367Y-134729400D02*
X152125939Y-134586542D01*
X152125939Y-134586542D02*
X152125939Y-134015114D01*
X152125939Y-134015114D02*
X152197367Y-133872257D01*
X152197367Y-133872257D02*
X152340225Y-133800828D01*
X152340225Y-133800828D02*
X152625939Y-133800828D01*
X152625939Y-133800828D02*
X152768796Y-133872257D01*
X152768796Y-133872257D02*
X152840225Y-134015114D01*
X152840225Y-134015114D02*
X152840225Y-134157971D01*
X152840225Y-134157971D02*
X152125939Y-134300828D01*
X153483081Y-134800828D02*
X153483081Y-133800828D01*
X153483081Y-133943685D02*
X153554510Y-133872257D01*
X153554510Y-133872257D02*
X153697367Y-133800828D01*
X153697367Y-133800828D02*
X153911653Y-133800828D01*
X153911653Y-133800828D02*
X154054510Y-133872257D01*
X154054510Y-133872257D02*
X154125939Y-134015114D01*
X154125939Y-134015114D02*
X154125939Y-134800828D01*
X154125939Y-134015114D02*
X154197367Y-133872257D01*
X154197367Y-133872257D02*
X154340224Y-133800828D01*
X154340224Y-133800828D02*
X154554510Y-133800828D01*
X154554510Y-133800828D02*
X154697367Y-133872257D01*
X154697367Y-133872257D02*
X154768796Y-134015114D01*
X154768796Y-134015114D02*
X154768796Y-134800828D01*
X155483081Y-133800828D02*
X155483081Y-135300828D01*
X155483081Y-133872257D02*
X155625939Y-133800828D01*
X155625939Y-133800828D02*
X155911653Y-133800828D01*
X155911653Y-133800828D02*
X156054510Y-133872257D01*
X156054510Y-133872257D02*
X156125939Y-133943685D01*
X156125939Y-133943685D02*
X156197367Y-134086542D01*
X156197367Y-134086542D02*
X156197367Y-134515114D01*
X156197367Y-134515114D02*
X156125939Y-134657971D01*
X156125939Y-134657971D02*
X156054510Y-134729400D01*
X156054510Y-134729400D02*
X155911653Y-134800828D01*
X155911653Y-134800828D02*
X155625939Y-134800828D01*
X155625939Y-134800828D02*
X155483081Y-134729400D01*
X156768796Y-134729400D02*
X156911653Y-134800828D01*
X156911653Y-134800828D02*
X157197367Y-134800828D01*
X157197367Y-134800828D02*
X157340224Y-134729400D01*
X157340224Y-134729400D02*
X157411653Y-134586542D01*
X157411653Y-134586542D02*
X157411653Y-134515114D01*
X157411653Y-134515114D02*
X157340224Y-134372257D01*
X157340224Y-134372257D02*
X157197367Y-134300828D01*
X157197367Y-134300828D02*
X156983082Y-134300828D01*
X156983082Y-134300828D02*
X156840224Y-134229400D01*
X156840224Y-134229400D02*
X156768796Y-134086542D01*
X156768796Y-134086542D02*
X156768796Y-134015114D01*
X156768796Y-134015114D02*
X156840224Y-133872257D01*
X156840224Y-133872257D02*
X156983082Y-133800828D01*
X156983082Y-133800828D02*
X157197367Y-133800828D01*
X157197367Y-133800828D02*
X157340224Y-133872257D01*
X159983082Y-134800828D02*
X159125939Y-134800828D01*
X159554510Y-134800828D02*
X159554510Y-133300828D01*
X159554510Y-133300828D02*
X159411653Y-133515114D01*
X159411653Y-133515114D02*
X159268796Y-133657971D01*
X159268796Y-133657971D02*
X159125939Y-133729400D01*
X160625938Y-134229400D02*
X161768796Y-134229400D01*
X163125939Y-133800828D02*
X163125939Y-134800828D01*
X162768796Y-133229400D02*
X162411653Y-134300828D01*
X162411653Y-134300828D02*
X163340224Y-134300828D01*
D11*
X181860588Y-71417438D02*
X181765350Y-71369819D01*
X181765350Y-71369819D02*
X181622493Y-71369819D01*
X181622493Y-71369819D02*
X181479636Y-71417438D01*
X181479636Y-71417438D02*
X181384398Y-71512676D01*
X181384398Y-71512676D02*
X181336779Y-71607914D01*
X181336779Y-71607914D02*
X181289160Y-71798390D01*
X181289160Y-71798390D02*
X181289160Y-71941247D01*
X181289160Y-71941247D02*
X181336779Y-72131723D01*
X181336779Y-72131723D02*
X181384398Y-72226961D01*
X181384398Y-72226961D02*
X181479636Y-72322200D01*
X181479636Y-72322200D02*
X181622493Y-72369819D01*
X181622493Y-72369819D02*
X181717731Y-72369819D01*
X181717731Y-72369819D02*
X181860588Y-72322200D01*
X181860588Y-72322200D02*
X181908207Y-72274580D01*
X181908207Y-72274580D02*
X181908207Y-71941247D01*
X181908207Y-71941247D02*
X181717731Y-71941247D01*
X182336779Y-72369819D02*
X182336779Y-71369819D01*
X182336779Y-71369819D02*
X182908207Y-72369819D01*
X182908207Y-72369819D02*
X182908207Y-71369819D01*
X183384398Y-72369819D02*
X183384398Y-71369819D01*
X183384398Y-71369819D02*
X183622493Y-71369819D01*
X183622493Y-71369819D02*
X183765350Y-71417438D01*
X183765350Y-71417438D02*
X183860588Y-71512676D01*
X183860588Y-71512676D02*
X183908207Y-71607914D01*
X183908207Y-71607914D02*
X183955826Y-71798390D01*
X183955826Y-71798390D02*
X183955826Y-71941247D01*
X183955826Y-71941247D02*
X183908207Y-72131723D01*
X183908207Y-72131723D02*
X183860588Y-72226961D01*
X183860588Y-72226961D02*
X183765350Y-72322200D01*
X183765350Y-72322200D02*
X183622493Y-72369819D01*
X183622493Y-72369819D02*
X183384398Y-72369819D01*
D10*
X179041653Y-74920828D02*
X178541653Y-74206542D01*
X178184510Y-74920828D02*
X178184510Y-73420828D01*
X178184510Y-73420828D02*
X178755939Y-73420828D01*
X178755939Y-73420828D02*
X178898796Y-73492257D01*
X178898796Y-73492257D02*
X178970225Y-73563685D01*
X178970225Y-73563685D02*
X179041653Y-73706542D01*
X179041653Y-73706542D02*
X179041653Y-73920828D01*
X179041653Y-73920828D02*
X178970225Y-74063685D01*
X178970225Y-74063685D02*
X178898796Y-74135114D01*
X178898796Y-74135114D02*
X178755939Y-74206542D01*
X178755939Y-74206542D02*
X178184510Y-74206542D01*
X179613082Y-73563685D02*
X179684510Y-73492257D01*
X179684510Y-73492257D02*
X179827368Y-73420828D01*
X179827368Y-73420828D02*
X180184510Y-73420828D01*
X180184510Y-73420828D02*
X180327368Y-73492257D01*
X180327368Y-73492257D02*
X180398796Y-73563685D01*
X180398796Y-73563685D02*
X180470225Y-73706542D01*
X180470225Y-73706542D02*
X180470225Y-73849400D01*
X180470225Y-73849400D02*
X180398796Y-74063685D01*
X180398796Y-74063685D02*
X179541653Y-74920828D01*
X179541653Y-74920828D02*
X180470225Y-74920828D01*
X173978778Y-84400780D02*
X173907350Y-84472209D01*
X173907350Y-84472209D02*
X173693064Y-84543637D01*
X173693064Y-84543637D02*
X173550207Y-84543637D01*
X173550207Y-84543637D02*
X173335921Y-84472209D01*
X173335921Y-84472209D02*
X173193064Y-84329351D01*
X173193064Y-84329351D02*
X173121635Y-84186494D01*
X173121635Y-84186494D02*
X173050207Y-83900780D01*
X173050207Y-83900780D02*
X173050207Y-83686494D01*
X173050207Y-83686494D02*
X173121635Y-83400780D01*
X173121635Y-83400780D02*
X173193064Y-83257923D01*
X173193064Y-83257923D02*
X173335921Y-83115066D01*
X173335921Y-83115066D02*
X173550207Y-83043637D01*
X173550207Y-83043637D02*
X173693064Y-83043637D01*
X173693064Y-83043637D02*
X173907350Y-83115066D01*
X173907350Y-83115066D02*
X173978778Y-83186494D01*
X174550207Y-83186494D02*
X174621635Y-83115066D01*
X174621635Y-83115066D02*
X174764493Y-83043637D01*
X174764493Y-83043637D02*
X175121635Y-83043637D01*
X175121635Y-83043637D02*
X175264493Y-83115066D01*
X175264493Y-83115066D02*
X175335921Y-83186494D01*
X175335921Y-83186494D02*
X175407350Y-83329351D01*
X175407350Y-83329351D02*
X175407350Y-83472209D01*
X175407350Y-83472209D02*
X175335921Y-83686494D01*
X175335921Y-83686494D02*
X174478778Y-84543637D01*
X174478778Y-84543637D02*
X175407350Y-84543637D01*
X176646526Y-83069926D02*
X176646526Y-81569926D01*
X176646526Y-81569926D02*
X177003669Y-81569926D01*
X177003669Y-81569926D02*
X177217955Y-81641355D01*
X177217955Y-81641355D02*
X177360812Y-81784212D01*
X177360812Y-81784212D02*
X177432241Y-81927069D01*
X177432241Y-81927069D02*
X177503669Y-82212783D01*
X177503669Y-82212783D02*
X177503669Y-82427069D01*
X177503669Y-82427069D02*
X177432241Y-82712783D01*
X177432241Y-82712783D02*
X177360812Y-82855640D01*
X177360812Y-82855640D02*
X177217955Y-82998498D01*
X177217955Y-82998498D02*
X177003669Y-83069926D01*
X177003669Y-83069926D02*
X176646526Y-83069926D01*
X178075098Y-81712783D02*
X178146526Y-81641355D01*
X178146526Y-81641355D02*
X178289384Y-81569926D01*
X178289384Y-81569926D02*
X178646526Y-81569926D01*
X178646526Y-81569926D02*
X178789384Y-81641355D01*
X178789384Y-81641355D02*
X178860812Y-81712783D01*
X178860812Y-81712783D02*
X178932241Y-81855640D01*
X178932241Y-81855640D02*
X178932241Y-81998498D01*
X178932241Y-81998498D02*
X178860812Y-82212783D01*
X178860812Y-82212783D02*
X178003669Y-83069926D01*
X178003669Y-83069926D02*
X178932241Y-83069926D01*
X143411653Y-81657971D02*
X143340225Y-81729400D01*
X143340225Y-81729400D02*
X143125939Y-81800828D01*
X143125939Y-81800828D02*
X142983082Y-81800828D01*
X142983082Y-81800828D02*
X142768796Y-81729400D01*
X142768796Y-81729400D02*
X142625939Y-81586542D01*
X142625939Y-81586542D02*
X142554510Y-81443685D01*
X142554510Y-81443685D02*
X142483082Y-81157971D01*
X142483082Y-81157971D02*
X142483082Y-80943685D01*
X142483082Y-80943685D02*
X142554510Y-80657971D01*
X142554510Y-80657971D02*
X142625939Y-80515114D01*
X142625939Y-80515114D02*
X142768796Y-80372257D01*
X142768796Y-80372257D02*
X142983082Y-80300828D01*
X142983082Y-80300828D02*
X143125939Y-80300828D01*
X143125939Y-80300828D02*
X143340225Y-80372257D01*
X143340225Y-80372257D02*
X143411653Y-80443685D01*
X144268796Y-80943685D02*
X144125939Y-80872257D01*
X144125939Y-80872257D02*
X144054510Y-80800828D01*
X144054510Y-80800828D02*
X143983082Y-80657971D01*
X143983082Y-80657971D02*
X143983082Y-80586542D01*
X143983082Y-80586542D02*
X144054510Y-80443685D01*
X144054510Y-80443685D02*
X144125939Y-80372257D01*
X144125939Y-80372257D02*
X144268796Y-80300828D01*
X144268796Y-80300828D02*
X144554510Y-80300828D01*
X144554510Y-80300828D02*
X144697368Y-80372257D01*
X144697368Y-80372257D02*
X144768796Y-80443685D01*
X144768796Y-80443685D02*
X144840225Y-80586542D01*
X144840225Y-80586542D02*
X144840225Y-80657971D01*
X144840225Y-80657971D02*
X144768796Y-80800828D01*
X144768796Y-80800828D02*
X144697368Y-80872257D01*
X144697368Y-80872257D02*
X144554510Y-80943685D01*
X144554510Y-80943685D02*
X144268796Y-80943685D01*
X144268796Y-80943685D02*
X144125939Y-81015114D01*
X144125939Y-81015114D02*
X144054510Y-81086542D01*
X144054510Y-81086542D02*
X143983082Y-81229400D01*
X143983082Y-81229400D02*
X143983082Y-81515114D01*
X143983082Y-81515114D02*
X144054510Y-81657971D01*
X144054510Y-81657971D02*
X144125939Y-81729400D01*
X144125939Y-81729400D02*
X144268796Y-81800828D01*
X144268796Y-81800828D02*
X144554510Y-81800828D01*
X144554510Y-81800828D02*
X144697368Y-81729400D01*
X144697368Y-81729400D02*
X144768796Y-81657971D01*
X144768796Y-81657971D02*
X144840225Y-81515114D01*
X144840225Y-81515114D02*
X144840225Y-81229400D01*
X144840225Y-81229400D02*
X144768796Y-81086542D01*
X144768796Y-81086542D02*
X144697368Y-81015114D01*
X144697368Y-81015114D02*
X144554510Y-80943685D01*
D12*
X117426831Y-77110990D02*
X117426831Y-76825276D01*
X117926831Y-76968133D02*
X117426831Y-76968133D01*
X117426831Y-76706229D02*
X117926831Y-76372896D01*
X117426831Y-76372896D02*
X117926831Y-76706229D01*
D10*
X178710533Y-77623928D02*
X177996247Y-78123928D01*
X178710533Y-78481071D02*
X177210533Y-78481071D01*
X177210533Y-78481071D02*
X177210533Y-77909642D01*
X177210533Y-77909642D02*
X177281962Y-77766785D01*
X177281962Y-77766785D02*
X177353390Y-77695356D01*
X177353390Y-77695356D02*
X177496247Y-77623928D01*
X177496247Y-77623928D02*
X177710533Y-77623928D01*
X177710533Y-77623928D02*
X177853390Y-77695356D01*
X177853390Y-77695356D02*
X177924819Y-77766785D01*
X177924819Y-77766785D02*
X177996247Y-77909642D01*
X177996247Y-77909642D02*
X177996247Y-78481071D01*
X178710533Y-76195356D02*
X178710533Y-77052499D01*
X178710533Y-76623928D02*
X177210533Y-76623928D01*
X177210533Y-76623928D02*
X177424819Y-76766785D01*
X177424819Y-76766785D02*
X177567676Y-76909642D01*
X177567676Y-76909642D02*
X177639105Y-77052499D01*
X151911653Y-96157971D02*
X151840225Y-96229400D01*
X151840225Y-96229400D02*
X151625939Y-96300828D01*
X151625939Y-96300828D02*
X151483082Y-96300828D01*
X151483082Y-96300828D02*
X151268796Y-96229400D01*
X151268796Y-96229400D02*
X151125939Y-96086542D01*
X151125939Y-96086542D02*
X151054510Y-95943685D01*
X151054510Y-95943685D02*
X150983082Y-95657971D01*
X150983082Y-95657971D02*
X150983082Y-95443685D01*
X150983082Y-95443685D02*
X151054510Y-95157971D01*
X151054510Y-95157971D02*
X151125939Y-95015114D01*
X151125939Y-95015114D02*
X151268796Y-94872257D01*
X151268796Y-94872257D02*
X151483082Y-94800828D01*
X151483082Y-94800828D02*
X151625939Y-94800828D01*
X151625939Y-94800828D02*
X151840225Y-94872257D01*
X151840225Y-94872257D02*
X151911653Y-94943685D01*
X153197368Y-94800828D02*
X152911653Y-94800828D01*
X152911653Y-94800828D02*
X152768796Y-94872257D01*
X152768796Y-94872257D02*
X152697368Y-94943685D01*
X152697368Y-94943685D02*
X152554510Y-95157971D01*
X152554510Y-95157971D02*
X152483082Y-95443685D01*
X152483082Y-95443685D02*
X152483082Y-96015114D01*
X152483082Y-96015114D02*
X152554510Y-96157971D01*
X152554510Y-96157971D02*
X152625939Y-96229400D01*
X152625939Y-96229400D02*
X152768796Y-96300828D01*
X152768796Y-96300828D02*
X153054510Y-96300828D01*
X153054510Y-96300828D02*
X153197368Y-96229400D01*
X153197368Y-96229400D02*
X153268796Y-96157971D01*
X153268796Y-96157971D02*
X153340225Y-96015114D01*
X153340225Y-96015114D02*
X153340225Y-95657971D01*
X153340225Y-95657971D02*
X153268796Y-95515114D01*
X153268796Y-95515114D02*
X153197368Y-95443685D01*
X153197368Y-95443685D02*
X153054510Y-95372257D01*
X153054510Y-95372257D02*
X152768796Y-95372257D01*
X152768796Y-95372257D02*
X152625939Y-95443685D01*
X152625939Y-95443685D02*
X152554510Y-95515114D01*
X152554510Y-95515114D02*
X152483082Y-95657971D01*
X118372257Y-89659774D02*
X118300828Y-89802632D01*
X118300828Y-89802632D02*
X118300828Y-90016917D01*
X118300828Y-90016917D02*
X118372257Y-90231203D01*
X118372257Y-90231203D02*
X118515114Y-90374060D01*
X118515114Y-90374060D02*
X118657971Y-90445489D01*
X118657971Y-90445489D02*
X118943685Y-90516917D01*
X118943685Y-90516917D02*
X119157971Y-90516917D01*
X119157971Y-90516917D02*
X119443685Y-90445489D01*
X119443685Y-90445489D02*
X119586542Y-90374060D01*
X119586542Y-90374060D02*
X119729400Y-90231203D01*
X119729400Y-90231203D02*
X119800828Y-90016917D01*
X119800828Y-90016917D02*
X119800828Y-89874060D01*
X119800828Y-89874060D02*
X119729400Y-89659774D01*
X119729400Y-89659774D02*
X119657971Y-89588346D01*
X119657971Y-89588346D02*
X119157971Y-89588346D01*
X119157971Y-89588346D02*
X119157971Y-89874060D01*
X119800828Y-88945489D02*
X118300828Y-88945489D01*
X118300828Y-88945489D02*
X118300828Y-88374060D01*
X118300828Y-88374060D02*
X118372257Y-88231203D01*
X118372257Y-88231203D02*
X118443685Y-88159774D01*
X118443685Y-88159774D02*
X118586542Y-88088346D01*
X118586542Y-88088346D02*
X118800828Y-88088346D01*
X118800828Y-88088346D02*
X118943685Y-88159774D01*
X118943685Y-88159774D02*
X119015114Y-88231203D01*
X119015114Y-88231203D02*
X119086542Y-88374060D01*
X119086542Y-88374060D02*
X119086542Y-88945489D01*
X119800828Y-87445489D02*
X118300828Y-87445489D01*
X118300828Y-86445488D02*
X118300828Y-86159774D01*
X118300828Y-86159774D02*
X118372257Y-86016917D01*
X118372257Y-86016917D02*
X118515114Y-85874060D01*
X118515114Y-85874060D02*
X118800828Y-85802631D01*
X118800828Y-85802631D02*
X119300828Y-85802631D01*
X119300828Y-85802631D02*
X119586542Y-85874060D01*
X119586542Y-85874060D02*
X119729400Y-86016917D01*
X119729400Y-86016917D02*
X119800828Y-86159774D01*
X119800828Y-86159774D02*
X119800828Y-86445488D01*
X119800828Y-86445488D02*
X119729400Y-86588346D01*
X119729400Y-86588346D02*
X119586542Y-86731203D01*
X119586542Y-86731203D02*
X119300828Y-86802631D01*
X119300828Y-86802631D02*
X118800828Y-86802631D01*
X118800828Y-86802631D02*
X118515114Y-86731203D01*
X118515114Y-86731203D02*
X118372257Y-86588346D01*
X118372257Y-86588346D02*
X118300828Y-86445488D01*
D11*
X175741541Y-71369819D02*
X176360588Y-71369819D01*
X176360588Y-71369819D02*
X176027255Y-71750771D01*
X176027255Y-71750771D02*
X176170112Y-71750771D01*
X176170112Y-71750771D02*
X176265350Y-71798390D01*
X176265350Y-71798390D02*
X176312969Y-71846009D01*
X176312969Y-71846009D02*
X176360588Y-71941247D01*
X176360588Y-71941247D02*
X176360588Y-72179342D01*
X176360588Y-72179342D02*
X176312969Y-72274580D01*
X176312969Y-72274580D02*
X176265350Y-72322200D01*
X176265350Y-72322200D02*
X176170112Y-72369819D01*
X176170112Y-72369819D02*
X175884398Y-72369819D01*
X175884398Y-72369819D02*
X175789160Y-72322200D01*
X175789160Y-72322200D02*
X175741541Y-72274580D01*
X176979636Y-71369819D02*
X177074874Y-71369819D01*
X177074874Y-71369819D02*
X177170112Y-71417438D01*
X177170112Y-71417438D02*
X177217731Y-71465057D01*
X177217731Y-71465057D02*
X177265350Y-71560295D01*
X177265350Y-71560295D02*
X177312969Y-71750771D01*
X177312969Y-71750771D02*
X177312969Y-71988866D01*
X177312969Y-71988866D02*
X177265350Y-72179342D01*
X177265350Y-72179342D02*
X177217731Y-72274580D01*
X177217731Y-72274580D02*
X177170112Y-72322200D01*
X177170112Y-72322200D02*
X177074874Y-72369819D01*
X177074874Y-72369819D02*
X176979636Y-72369819D01*
X176979636Y-72369819D02*
X176884398Y-72322200D01*
X176884398Y-72322200D02*
X176836779Y-72274580D01*
X176836779Y-72274580D02*
X176789160Y-72179342D01*
X176789160Y-72179342D02*
X176741541Y-71988866D01*
X176741541Y-71988866D02*
X176741541Y-71750771D01*
X176741541Y-71750771D02*
X176789160Y-71560295D01*
X176789160Y-71560295D02*
X176836779Y-71465057D01*
X176836779Y-71465057D02*
X176884398Y-71417438D01*
X176884398Y-71417438D02*
X176979636Y-71369819D01*
X177598684Y-71369819D02*
X177932017Y-72369819D01*
X177932017Y-72369819D02*
X178265350Y-71369819D01*
D12*
X117890952Y-75474136D02*
X117652857Y-75640802D01*
X117890952Y-75759850D02*
X117390952Y-75759850D01*
X117390952Y-75759850D02*
X117390952Y-75569374D01*
X117390952Y-75569374D02*
X117414762Y-75521755D01*
X117414762Y-75521755D02*
X117438571Y-75497945D01*
X117438571Y-75497945D02*
X117486190Y-75474136D01*
X117486190Y-75474136D02*
X117557619Y-75474136D01*
X117557619Y-75474136D02*
X117605238Y-75497945D01*
X117605238Y-75497945D02*
X117629047Y-75521755D01*
X117629047Y-75521755D02*
X117652857Y-75569374D01*
X117652857Y-75569374D02*
X117652857Y-75759850D01*
X117390952Y-75307469D02*
X117890952Y-74974136D01*
X117390952Y-74974136D02*
X117890952Y-75307469D01*
X117570484Y-84379999D02*
X117546674Y-84427618D01*
X117546674Y-84427618D02*
X117522865Y-84451428D01*
X117522865Y-84451428D02*
X117475246Y-84475237D01*
X117475246Y-84475237D02*
X117451436Y-84475237D01*
X117451436Y-84475237D02*
X117403817Y-84451428D01*
X117403817Y-84451428D02*
X117380008Y-84427618D01*
X117380008Y-84427618D02*
X117356198Y-84379999D01*
X117356198Y-84379999D02*
X117356198Y-84284761D01*
X117356198Y-84284761D02*
X117380008Y-84237142D01*
X117380008Y-84237142D02*
X117403817Y-84213333D01*
X117403817Y-84213333D02*
X117451436Y-84189523D01*
X117451436Y-84189523D02*
X117475246Y-84189523D01*
X117475246Y-84189523D02*
X117522865Y-84213333D01*
X117522865Y-84213333D02*
X117546674Y-84237142D01*
X117546674Y-84237142D02*
X117570484Y-84284761D01*
X117570484Y-84284761D02*
X117570484Y-84379999D01*
X117570484Y-84379999D02*
X117594293Y-84427618D01*
X117594293Y-84427618D02*
X117618103Y-84451428D01*
X117618103Y-84451428D02*
X117665722Y-84475237D01*
X117665722Y-84475237D02*
X117760960Y-84475237D01*
X117760960Y-84475237D02*
X117808579Y-84451428D01*
X117808579Y-84451428D02*
X117832389Y-84427618D01*
X117832389Y-84427618D02*
X117856198Y-84379999D01*
X117856198Y-84379999D02*
X117856198Y-84284761D01*
X117856198Y-84284761D02*
X117832389Y-84237142D01*
X117832389Y-84237142D02*
X117808579Y-84213333D01*
X117808579Y-84213333D02*
X117760960Y-84189523D01*
X117760960Y-84189523D02*
X117665722Y-84189523D01*
X117665722Y-84189523D02*
X117618103Y-84213333D01*
X117618103Y-84213333D02*
X117594293Y-84237142D01*
X117594293Y-84237142D02*
X117570484Y-84284761D01*
D10*
X158277103Y-83157971D02*
X158205675Y-83229400D01*
X158205675Y-83229400D02*
X157991389Y-83300828D01*
X157991389Y-83300828D02*
X157848532Y-83300828D01*
X157848532Y-83300828D02*
X157634246Y-83229400D01*
X157634246Y-83229400D02*
X157491389Y-83086542D01*
X157491389Y-83086542D02*
X157419960Y-82943685D01*
X157419960Y-82943685D02*
X157348532Y-82657971D01*
X157348532Y-82657971D02*
X157348532Y-82443685D01*
X157348532Y-82443685D02*
X157419960Y-82157971D01*
X157419960Y-82157971D02*
X157491389Y-82015114D01*
X157491389Y-82015114D02*
X157634246Y-81872257D01*
X157634246Y-81872257D02*
X157848532Y-81800828D01*
X157848532Y-81800828D02*
X157991389Y-81800828D01*
X157991389Y-81800828D02*
X158205675Y-81872257D01*
X158205675Y-81872257D02*
X158277103Y-81943685D01*
X159562818Y-82300828D02*
X159562818Y-83300828D01*
X159205675Y-81729400D02*
X158848532Y-82800828D01*
X158848532Y-82800828D02*
X159777103Y-82800828D01*
X170268796Y-89300828D02*
X169554510Y-89300828D01*
X169554510Y-89300828D02*
X169554510Y-87800828D01*
X171554511Y-89300828D02*
X170697368Y-89300828D01*
X171125939Y-89300828D02*
X171125939Y-87800828D01*
X171125939Y-87800828D02*
X170983082Y-88015114D01*
X170983082Y-88015114D02*
X170840225Y-88157971D01*
X170840225Y-88157971D02*
X170697368Y-88229400D01*
X118300828Y-117159774D02*
X118300828Y-116302632D01*
X119800828Y-116731203D02*
X118300828Y-116731203D01*
X119729400Y-115231203D02*
X119800828Y-115374060D01*
X119800828Y-115374060D02*
X119800828Y-115659775D01*
X119800828Y-115659775D02*
X119729400Y-115802632D01*
X119729400Y-115802632D02*
X119586542Y-115874060D01*
X119586542Y-115874060D02*
X119015114Y-115874060D01*
X119015114Y-115874060D02*
X118872257Y-115802632D01*
X118872257Y-115802632D02*
X118800828Y-115659775D01*
X118800828Y-115659775D02*
X118800828Y-115374060D01*
X118800828Y-115374060D02*
X118872257Y-115231203D01*
X118872257Y-115231203D02*
X119015114Y-115159775D01*
X119015114Y-115159775D02*
X119157971Y-115159775D01*
X119157971Y-115159775D02*
X119300828Y-115874060D01*
X119800828Y-114516918D02*
X118800828Y-114516918D01*
X118943685Y-114516918D02*
X118872257Y-114445489D01*
X118872257Y-114445489D02*
X118800828Y-114302632D01*
X118800828Y-114302632D02*
X118800828Y-114088346D01*
X118800828Y-114088346D02*
X118872257Y-113945489D01*
X118872257Y-113945489D02*
X119015114Y-113874061D01*
X119015114Y-113874061D02*
X119800828Y-113874061D01*
X119015114Y-113874061D02*
X118872257Y-113802632D01*
X118872257Y-113802632D02*
X118800828Y-113659775D01*
X118800828Y-113659775D02*
X118800828Y-113445489D01*
X118800828Y-113445489D02*
X118872257Y-113302632D01*
X118872257Y-113302632D02*
X119015114Y-113231203D01*
X119015114Y-113231203D02*
X119800828Y-113231203D01*
X118800828Y-112516918D02*
X120300828Y-112516918D01*
X118872257Y-112516918D02*
X118800828Y-112374061D01*
X118800828Y-112374061D02*
X118800828Y-112088346D01*
X118800828Y-112088346D02*
X118872257Y-111945489D01*
X118872257Y-111945489D02*
X118943685Y-111874061D01*
X118943685Y-111874061D02*
X119086542Y-111802632D01*
X119086542Y-111802632D02*
X119515114Y-111802632D01*
X119515114Y-111802632D02*
X119657971Y-111874061D01*
X119657971Y-111874061D02*
X119729400Y-111945489D01*
X119729400Y-111945489D02*
X119800828Y-112088346D01*
X119800828Y-112088346D02*
X119800828Y-112374061D01*
X119800828Y-112374061D02*
X119729400Y-112516918D01*
X119729400Y-111231203D02*
X119800828Y-111088346D01*
X119800828Y-111088346D02*
X119800828Y-110802632D01*
X119800828Y-110802632D02*
X119729400Y-110659775D01*
X119729400Y-110659775D02*
X119586542Y-110588346D01*
X119586542Y-110588346D02*
X119515114Y-110588346D01*
X119515114Y-110588346D02*
X119372257Y-110659775D01*
X119372257Y-110659775D02*
X119300828Y-110802632D01*
X119300828Y-110802632D02*
X119300828Y-111016918D01*
X119300828Y-111016918D02*
X119229400Y-111159775D01*
X119229400Y-111159775D02*
X119086542Y-111231203D01*
X119086542Y-111231203D02*
X119015114Y-111231203D01*
X119015114Y-111231203D02*
X118872257Y-111159775D01*
X118872257Y-111159775D02*
X118800828Y-111016918D01*
X118800828Y-111016918D02*
X118800828Y-110802632D01*
X118800828Y-110802632D02*
X118872257Y-110659775D01*
X118300828Y-108088346D02*
X118300828Y-108802632D01*
X118300828Y-108802632D02*
X119015114Y-108874060D01*
X119015114Y-108874060D02*
X118943685Y-108802632D01*
X118943685Y-108802632D02*
X118872257Y-108659775D01*
X118872257Y-108659775D02*
X118872257Y-108302632D01*
X118872257Y-108302632D02*
X118943685Y-108159775D01*
X118943685Y-108159775D02*
X119015114Y-108088346D01*
X119015114Y-108088346D02*
X119157971Y-108016917D01*
X119157971Y-108016917D02*
X119515114Y-108016917D01*
X119515114Y-108016917D02*
X119657971Y-108088346D01*
X119657971Y-108088346D02*
X119729400Y-108159775D01*
X119729400Y-108159775D02*
X119800828Y-108302632D01*
X119800828Y-108302632D02*
X119800828Y-108659775D01*
X119800828Y-108659775D02*
X119729400Y-108802632D01*
X119729400Y-108802632D02*
X119657971Y-108874060D01*
X119229400Y-107374061D02*
X119229400Y-106231204D01*
X118943685Y-105302632D02*
X118872257Y-105445489D01*
X118872257Y-105445489D02*
X118800828Y-105516918D01*
X118800828Y-105516918D02*
X118657971Y-105588346D01*
X118657971Y-105588346D02*
X118586542Y-105588346D01*
X118586542Y-105588346D02*
X118443685Y-105516918D01*
X118443685Y-105516918D02*
X118372257Y-105445489D01*
X118372257Y-105445489D02*
X118300828Y-105302632D01*
X118300828Y-105302632D02*
X118300828Y-105016918D01*
X118300828Y-105016918D02*
X118372257Y-104874061D01*
X118372257Y-104874061D02*
X118443685Y-104802632D01*
X118443685Y-104802632D02*
X118586542Y-104731203D01*
X118586542Y-104731203D02*
X118657971Y-104731203D01*
X118657971Y-104731203D02*
X118800828Y-104802632D01*
X118800828Y-104802632D02*
X118872257Y-104874061D01*
X118872257Y-104874061D02*
X118943685Y-105016918D01*
X118943685Y-105016918D02*
X118943685Y-105302632D01*
X118943685Y-105302632D02*
X119015114Y-105445489D01*
X119015114Y-105445489D02*
X119086542Y-105516918D01*
X119086542Y-105516918D02*
X119229400Y-105588346D01*
X119229400Y-105588346D02*
X119515114Y-105588346D01*
X119515114Y-105588346D02*
X119657971Y-105516918D01*
X119657971Y-105516918D02*
X119729400Y-105445489D01*
X119729400Y-105445489D02*
X119800828Y-105302632D01*
X119800828Y-105302632D02*
X119800828Y-105016918D01*
X119800828Y-105016918D02*
X119729400Y-104874061D01*
X119729400Y-104874061D02*
X119657971Y-104802632D01*
X119657971Y-104802632D02*
X119515114Y-104731203D01*
X119515114Y-104731203D02*
X119229400Y-104731203D01*
X119229400Y-104731203D02*
X119086542Y-104802632D01*
X119086542Y-104802632D02*
X119015114Y-104874061D01*
X119015114Y-104874061D02*
X118943685Y-105016918D01*
D11*
X172336779Y-74369819D02*
X172336779Y-75179342D01*
X172336779Y-75179342D02*
X172384398Y-75274580D01*
X172384398Y-75274580D02*
X172432017Y-75322200D01*
X172432017Y-75322200D02*
X172527255Y-75369819D01*
X172527255Y-75369819D02*
X172717731Y-75369819D01*
X172717731Y-75369819D02*
X172812969Y-75322200D01*
X172812969Y-75322200D02*
X172860588Y-75274580D01*
X172860588Y-75274580D02*
X172908207Y-75179342D01*
X172908207Y-75179342D02*
X172908207Y-74369819D01*
X173908207Y-75369819D02*
X173336779Y-75369819D01*
X173622493Y-75369819D02*
X173622493Y-74369819D01*
X173622493Y-74369819D02*
X173527255Y-74512676D01*
X173527255Y-74512676D02*
X173432017Y-74607914D01*
X173432017Y-74607914D02*
X173336779Y-74655533D01*
D10*
X156411653Y-91657971D02*
X156340225Y-91729400D01*
X156340225Y-91729400D02*
X156125939Y-91800828D01*
X156125939Y-91800828D02*
X155983082Y-91800828D01*
X155983082Y-91800828D02*
X155768796Y-91729400D01*
X155768796Y-91729400D02*
X155625939Y-91586542D01*
X155625939Y-91586542D02*
X155554510Y-91443685D01*
X155554510Y-91443685D02*
X155483082Y-91157971D01*
X155483082Y-91157971D02*
X155483082Y-90943685D01*
X155483082Y-90943685D02*
X155554510Y-90657971D01*
X155554510Y-90657971D02*
X155625939Y-90515114D01*
X155625939Y-90515114D02*
X155768796Y-90372257D01*
X155768796Y-90372257D02*
X155983082Y-90300828D01*
X155983082Y-90300828D02*
X156125939Y-90300828D01*
X156125939Y-90300828D02*
X156340225Y-90372257D01*
X156340225Y-90372257D02*
X156411653Y-90443685D01*
X157768796Y-90300828D02*
X157054510Y-90300828D01*
X157054510Y-90300828D02*
X156983082Y-91015114D01*
X156983082Y-91015114D02*
X157054510Y-90943685D01*
X157054510Y-90943685D02*
X157197368Y-90872257D01*
X157197368Y-90872257D02*
X157554510Y-90872257D01*
X157554510Y-90872257D02*
X157697368Y-90943685D01*
X157697368Y-90943685D02*
X157768796Y-91015114D01*
X157768796Y-91015114D02*
X157840225Y-91157971D01*
X157840225Y-91157971D02*
X157840225Y-91515114D01*
X157840225Y-91515114D02*
X157768796Y-91657971D01*
X157768796Y-91657971D02*
X157697368Y-91729400D01*
X157697368Y-91729400D02*
X157554510Y-91800828D01*
X157554510Y-91800828D02*
X157197368Y-91800828D01*
X157197368Y-91800828D02*
X157054510Y-91729400D01*
X157054510Y-91729400D02*
X156983082Y-91657971D01*
X166411653Y-91657971D02*
X166340225Y-91729400D01*
X166340225Y-91729400D02*
X166125939Y-91800828D01*
X166125939Y-91800828D02*
X165983082Y-91800828D01*
X165983082Y-91800828D02*
X165768796Y-91729400D01*
X165768796Y-91729400D02*
X165625939Y-91586542D01*
X165625939Y-91586542D02*
X165554510Y-91443685D01*
X165554510Y-91443685D02*
X165483082Y-91157971D01*
X165483082Y-91157971D02*
X165483082Y-90943685D01*
X165483082Y-90943685D02*
X165554510Y-90657971D01*
X165554510Y-90657971D02*
X165625939Y-90515114D01*
X165625939Y-90515114D02*
X165768796Y-90372257D01*
X165768796Y-90372257D02*
X165983082Y-90300828D01*
X165983082Y-90300828D02*
X166125939Y-90300828D01*
X166125939Y-90300828D02*
X166340225Y-90372257D01*
X166340225Y-90372257D02*
X166411653Y-90443685D01*
X166911653Y-90300828D02*
X167840225Y-90300828D01*
X167840225Y-90300828D02*
X167340225Y-90872257D01*
X167340225Y-90872257D02*
X167554510Y-90872257D01*
X167554510Y-90872257D02*
X167697368Y-90943685D01*
X167697368Y-90943685D02*
X167768796Y-91015114D01*
X167768796Y-91015114D02*
X167840225Y-91157971D01*
X167840225Y-91157971D02*
X167840225Y-91515114D01*
X167840225Y-91515114D02*
X167768796Y-91657971D01*
X167768796Y-91657971D02*
X167697368Y-91729400D01*
X167697368Y-91729400D02*
X167554510Y-91800828D01*
X167554510Y-91800828D02*
X167125939Y-91800828D01*
X167125939Y-91800828D02*
X166983082Y-91729400D01*
X166983082Y-91729400D02*
X166911653Y-91657971D01*
X131054510Y-134300828D02*
X131054510Y-135515114D01*
X131054510Y-135515114D02*
X131125939Y-135657971D01*
X131125939Y-135657971D02*
X131197368Y-135729400D01*
X131197368Y-135729400D02*
X131340225Y-135800828D01*
X131340225Y-135800828D02*
X131625939Y-135800828D01*
X131625939Y-135800828D02*
X131768796Y-135729400D01*
X131768796Y-135729400D02*
X131840225Y-135657971D01*
X131840225Y-135657971D02*
X131911653Y-135515114D01*
X131911653Y-135515114D02*
X131911653Y-134300828D01*
X132483082Y-134300828D02*
X133411654Y-134300828D01*
X133411654Y-134300828D02*
X132911654Y-134872257D01*
X132911654Y-134872257D02*
X133125939Y-134872257D01*
X133125939Y-134872257D02*
X133268797Y-134943685D01*
X133268797Y-134943685D02*
X133340225Y-135015114D01*
X133340225Y-135015114D02*
X133411654Y-135157971D01*
X133411654Y-135157971D02*
X133411654Y-135515114D01*
X133411654Y-135515114D02*
X133340225Y-135657971D01*
X133340225Y-135657971D02*
X133268797Y-135729400D01*
X133268797Y-135729400D02*
X133125939Y-135800828D01*
X133125939Y-135800828D02*
X132697368Y-135800828D01*
X132697368Y-135800828D02*
X132554511Y-135729400D01*
X132554511Y-135729400D02*
X132483082Y-135657971D01*
X126340225Y-131800828D02*
X127197368Y-131800828D01*
X126768796Y-133300828D02*
X126768796Y-131800828D01*
X128268796Y-133229400D02*
X128125939Y-133300828D01*
X128125939Y-133300828D02*
X127840225Y-133300828D01*
X127840225Y-133300828D02*
X127697367Y-133229400D01*
X127697367Y-133229400D02*
X127625939Y-133086542D01*
X127625939Y-133086542D02*
X127625939Y-132515114D01*
X127625939Y-132515114D02*
X127697367Y-132372257D01*
X127697367Y-132372257D02*
X127840225Y-132300828D01*
X127840225Y-132300828D02*
X128125939Y-132300828D01*
X128125939Y-132300828D02*
X128268796Y-132372257D01*
X128268796Y-132372257D02*
X128340225Y-132515114D01*
X128340225Y-132515114D02*
X128340225Y-132657971D01*
X128340225Y-132657971D02*
X127625939Y-132800828D01*
X129554510Y-133229400D02*
X129411653Y-133300828D01*
X129411653Y-133300828D02*
X129125939Y-133300828D01*
X129125939Y-133300828D02*
X128983081Y-133229400D01*
X128983081Y-133229400D02*
X128911653Y-133086542D01*
X128911653Y-133086542D02*
X128911653Y-132515114D01*
X128911653Y-132515114D02*
X128983081Y-132372257D01*
X128983081Y-132372257D02*
X129125939Y-132300828D01*
X129125939Y-132300828D02*
X129411653Y-132300828D01*
X129411653Y-132300828D02*
X129554510Y-132372257D01*
X129554510Y-132372257D02*
X129625939Y-132515114D01*
X129625939Y-132515114D02*
X129625939Y-132657971D01*
X129625939Y-132657971D02*
X128911653Y-132800828D01*
X130268795Y-132300828D02*
X130268795Y-133300828D01*
X130268795Y-132443685D02*
X130340224Y-132372257D01*
X130340224Y-132372257D02*
X130483081Y-132300828D01*
X130483081Y-132300828D02*
X130697367Y-132300828D01*
X130697367Y-132300828D02*
X130840224Y-132372257D01*
X130840224Y-132372257D02*
X130911653Y-132515114D01*
X130911653Y-132515114D02*
X130911653Y-133300828D01*
X131554510Y-133229400D02*
X131697367Y-133300828D01*
X131697367Y-133300828D02*
X131983081Y-133300828D01*
X131983081Y-133300828D02*
X132125938Y-133229400D01*
X132125938Y-133229400D02*
X132197367Y-133086542D01*
X132197367Y-133086542D02*
X132197367Y-133015114D01*
X132197367Y-133015114D02*
X132125938Y-132872257D01*
X132125938Y-132872257D02*
X131983081Y-132800828D01*
X131983081Y-132800828D02*
X131768796Y-132800828D01*
X131768796Y-132800828D02*
X131625938Y-132729400D01*
X131625938Y-132729400D02*
X131554510Y-132586542D01*
X131554510Y-132586542D02*
X131554510Y-132515114D01*
X131554510Y-132515114D02*
X131625938Y-132372257D01*
X131625938Y-132372257D02*
X131768796Y-132300828D01*
X131768796Y-132300828D02*
X131983081Y-132300828D01*
X131983081Y-132300828D02*
X132125938Y-132372257D01*
X132697367Y-132300828D02*
X133054510Y-133300828D01*
X133411653Y-132300828D02*
X133054510Y-133300828D01*
X133054510Y-133300828D02*
X132911653Y-133657971D01*
X132911653Y-133657971D02*
X132840224Y-133729400D01*
X132840224Y-133729400D02*
X132697367Y-133800828D01*
X135768796Y-132300828D02*
X135768796Y-133300828D01*
X135411653Y-131729400D02*
X135054510Y-132800828D01*
X135054510Y-132800828D02*
X135983081Y-132800828D01*
X136554509Y-133157971D02*
X136625938Y-133229400D01*
X136625938Y-133229400D02*
X136554509Y-133300828D01*
X136554509Y-133300828D02*
X136483081Y-133229400D01*
X136483081Y-133229400D02*
X136554509Y-133157971D01*
X136554509Y-133157971D02*
X136554509Y-133300828D01*
X138054510Y-133300828D02*
X137197367Y-133300828D01*
X137625938Y-133300828D02*
X137625938Y-131800828D01*
X137625938Y-131800828D02*
X137483081Y-132015114D01*
X137483081Y-132015114D02*
X137340224Y-132157971D01*
X137340224Y-132157971D02*
X137197367Y-132229400D01*
X161554510Y-80800828D02*
X161554510Y-79300828D01*
X161554510Y-79300828D02*
X161911653Y-79300828D01*
X161911653Y-79300828D02*
X162125939Y-79372257D01*
X162125939Y-79372257D02*
X162268796Y-79515114D01*
X162268796Y-79515114D02*
X162340225Y-79657971D01*
X162340225Y-79657971D02*
X162411653Y-79943685D01*
X162411653Y-79943685D02*
X162411653Y-80157971D01*
X162411653Y-80157971D02*
X162340225Y-80443685D01*
X162340225Y-80443685D02*
X162268796Y-80586542D01*
X162268796Y-80586542D02*
X162125939Y-80729400D01*
X162125939Y-80729400D02*
X161911653Y-80800828D01*
X161911653Y-80800828D02*
X161554510Y-80800828D01*
X163840225Y-80800828D02*
X162983082Y-80800828D01*
X163411653Y-80800828D02*
X163411653Y-79300828D01*
X163411653Y-79300828D02*
X163268796Y-79515114D01*
X163268796Y-79515114D02*
X163125939Y-79657971D01*
X163125939Y-79657971D02*
X162983082Y-79729400D01*
D11*
X155833333Y-75454819D02*
X155500000Y-74978628D01*
X155261905Y-75454819D02*
X155261905Y-74454819D01*
X155261905Y-74454819D02*
X155642857Y-74454819D01*
X155642857Y-74454819D02*
X155738095Y-74502438D01*
X155738095Y-74502438D02*
X155785714Y-74550057D01*
X155785714Y-74550057D02*
X155833333Y-74645295D01*
X155833333Y-74645295D02*
X155833333Y-74788152D01*
X155833333Y-74788152D02*
X155785714Y-74883390D01*
X155785714Y-74883390D02*
X155738095Y-74931009D01*
X155738095Y-74931009D02*
X155642857Y-74978628D01*
X155642857Y-74978628D02*
X155261905Y-74978628D01*
X156166667Y-74454819D02*
X156785714Y-74454819D01*
X156785714Y-74454819D02*
X156452381Y-74835771D01*
X156452381Y-74835771D02*
X156595238Y-74835771D01*
X156595238Y-74835771D02*
X156690476Y-74883390D01*
X156690476Y-74883390D02*
X156738095Y-74931009D01*
X156738095Y-74931009D02*
X156785714Y-75026247D01*
X156785714Y-75026247D02*
X156785714Y-75264342D01*
X156785714Y-75264342D02*
X156738095Y-75359580D01*
X156738095Y-75359580D02*
X156690476Y-75407200D01*
X156690476Y-75407200D02*
X156595238Y-75454819D01*
X156595238Y-75454819D02*
X156309524Y-75454819D01*
X156309524Y-75454819D02*
X156214286Y-75407200D01*
X156214286Y-75407200D02*
X156166667Y-75359580D01*
X139409819Y-67323333D02*
X140124104Y-67323333D01*
X140124104Y-67323333D02*
X140266961Y-67370952D01*
X140266961Y-67370952D02*
X140362200Y-67466190D01*
X140362200Y-67466190D02*
X140409819Y-67609047D01*
X140409819Y-67609047D02*
X140409819Y-67704285D01*
X139409819Y-66370952D02*
X139409819Y-66847142D01*
X139409819Y-66847142D02*
X139886009Y-66894761D01*
X139886009Y-66894761D02*
X139838390Y-66847142D01*
X139838390Y-66847142D02*
X139790771Y-66751904D01*
X139790771Y-66751904D02*
X139790771Y-66513809D01*
X139790771Y-66513809D02*
X139838390Y-66418571D01*
X139838390Y-66418571D02*
X139886009Y-66370952D01*
X139886009Y-66370952D02*
X139981247Y-66323333D01*
X139981247Y-66323333D02*
X140219342Y-66323333D01*
X140219342Y-66323333D02*
X140314580Y-66370952D01*
X140314580Y-66370952D02*
X140362200Y-66418571D01*
X140362200Y-66418571D02*
X140409819Y-66513809D01*
X140409819Y-66513809D02*
X140409819Y-66751904D01*
X140409819Y-66751904D02*
X140362200Y-66847142D01*
X140362200Y-66847142D02*
X140314580Y-66894761D01*
X159359580Y-90116666D02*
X159407200Y-90164285D01*
X159407200Y-90164285D02*
X159454819Y-90307142D01*
X159454819Y-90307142D02*
X159454819Y-90402380D01*
X159454819Y-90402380D02*
X159407200Y-90545237D01*
X159407200Y-90545237D02*
X159311961Y-90640475D01*
X159311961Y-90640475D02*
X159216723Y-90688094D01*
X159216723Y-90688094D02*
X159026247Y-90735713D01*
X159026247Y-90735713D02*
X158883390Y-90735713D01*
X158883390Y-90735713D02*
X158692914Y-90688094D01*
X158692914Y-90688094D02*
X158597676Y-90640475D01*
X158597676Y-90640475D02*
X158502438Y-90545237D01*
X158502438Y-90545237D02*
X158454819Y-90402380D01*
X158454819Y-90402380D02*
X158454819Y-90307142D01*
X158454819Y-90307142D02*
X158502438Y-90164285D01*
X158502438Y-90164285D02*
X158550057Y-90116666D01*
X158788152Y-89259523D02*
X159454819Y-89259523D01*
X158407200Y-89497618D02*
X159121485Y-89735713D01*
X159121485Y-89735713D02*
X159121485Y-89116666D01*
X173833333Y-73454819D02*
X173500000Y-72978628D01*
X173261905Y-73454819D02*
X173261905Y-72454819D01*
X173261905Y-72454819D02*
X173642857Y-72454819D01*
X173642857Y-72454819D02*
X173738095Y-72502438D01*
X173738095Y-72502438D02*
X173785714Y-72550057D01*
X173785714Y-72550057D02*
X173833333Y-72645295D01*
X173833333Y-72645295D02*
X173833333Y-72788152D01*
X173833333Y-72788152D02*
X173785714Y-72883390D01*
X173785714Y-72883390D02*
X173738095Y-72931009D01*
X173738095Y-72931009D02*
X173642857Y-72978628D01*
X173642857Y-72978628D02*
X173261905Y-72978628D01*
X174690476Y-72788152D02*
X174690476Y-73454819D01*
X174452381Y-72407200D02*
X174214286Y-73121485D01*
X174214286Y-73121485D02*
X174833333Y-73121485D01*
X160961904Y-97725806D02*
X160961904Y-96916283D01*
X160961904Y-96916283D02*
X160914285Y-96821045D01*
X160914285Y-96821045D02*
X160866666Y-96773426D01*
X160866666Y-96773426D02*
X160771428Y-96725806D01*
X160771428Y-96725806D02*
X160580952Y-96725806D01*
X160580952Y-96725806D02*
X160485714Y-96773426D01*
X160485714Y-96773426D02*
X160438095Y-96821045D01*
X160438095Y-96821045D02*
X160390476Y-96916283D01*
X160390476Y-96916283D02*
X160390476Y-97725806D01*
X159961904Y-97630568D02*
X159914285Y-97678187D01*
X159914285Y-97678187D02*
X159819047Y-97725806D01*
X159819047Y-97725806D02*
X159580952Y-97725806D01*
X159580952Y-97725806D02*
X159485714Y-97678187D01*
X159485714Y-97678187D02*
X159438095Y-97630568D01*
X159438095Y-97630568D02*
X159390476Y-97535330D01*
X159390476Y-97535330D02*
X159390476Y-97440092D01*
X159390476Y-97440092D02*
X159438095Y-97297235D01*
X159438095Y-97297235D02*
X160009523Y-96725806D01*
X160009523Y-96725806D02*
X159390476Y-96725806D01*
X141114819Y-101261904D02*
X141924342Y-101261904D01*
X141924342Y-101261904D02*
X142019580Y-101214285D01*
X142019580Y-101214285D02*
X142067200Y-101166666D01*
X142067200Y-101166666D02*
X142114819Y-101071428D01*
X142114819Y-101071428D02*
X142114819Y-100880952D01*
X142114819Y-100880952D02*
X142067200Y-100785714D01*
X142067200Y-100785714D02*
X142019580Y-100738095D01*
X142019580Y-100738095D02*
X141924342Y-100690476D01*
X141924342Y-100690476D02*
X141114819Y-100690476D01*
X141114819Y-100309523D02*
X141114819Y-99690476D01*
X141114819Y-99690476D02*
X141495771Y-100023809D01*
X141495771Y-100023809D02*
X141495771Y-99880952D01*
X141495771Y-99880952D02*
X141543390Y-99785714D01*
X141543390Y-99785714D02*
X141591009Y-99738095D01*
X141591009Y-99738095D02*
X141686247Y-99690476D01*
X141686247Y-99690476D02*
X141924342Y-99690476D01*
X141924342Y-99690476D02*
X142019580Y-99738095D01*
X142019580Y-99738095D02*
X142067200Y-99785714D01*
X142067200Y-99785714D02*
X142114819Y-99880952D01*
X142114819Y-99880952D02*
X142114819Y-100166666D01*
X142114819Y-100166666D02*
X142067200Y-100261904D01*
X142067200Y-100261904D02*
X142019580Y-100309523D01*
X128465619Y-85343723D02*
X129275142Y-85343723D01*
X129275142Y-85343723D02*
X129370380Y-85296104D01*
X129370380Y-85296104D02*
X129418000Y-85248485D01*
X129418000Y-85248485D02*
X129465619Y-85153247D01*
X129465619Y-85153247D02*
X129465619Y-84962771D01*
X129465619Y-84962771D02*
X129418000Y-84867533D01*
X129418000Y-84867533D02*
X129370380Y-84819914D01*
X129370380Y-84819914D02*
X129275142Y-84772295D01*
X129275142Y-84772295D02*
X128465619Y-84772295D01*
X129418000Y-84343723D02*
X129465619Y-84200866D01*
X129465619Y-84200866D02*
X129465619Y-83962771D01*
X129465619Y-83962771D02*
X129418000Y-83867533D01*
X129418000Y-83867533D02*
X129370380Y-83819914D01*
X129370380Y-83819914D02*
X129275142Y-83772295D01*
X129275142Y-83772295D02*
X129179904Y-83772295D01*
X129179904Y-83772295D02*
X129084666Y-83819914D01*
X129084666Y-83819914D02*
X129037047Y-83867533D01*
X129037047Y-83867533D02*
X128989428Y-83962771D01*
X128989428Y-83962771D02*
X128941809Y-84153247D01*
X128941809Y-84153247D02*
X128894190Y-84248485D01*
X128894190Y-84248485D02*
X128846571Y-84296104D01*
X128846571Y-84296104D02*
X128751333Y-84343723D01*
X128751333Y-84343723D02*
X128656095Y-84343723D01*
X128656095Y-84343723D02*
X128560857Y-84296104D01*
X128560857Y-84296104D02*
X128513238Y-84248485D01*
X128513238Y-84248485D02*
X128465619Y-84153247D01*
X128465619Y-84153247D02*
X128465619Y-83915152D01*
X128465619Y-83915152D02*
X128513238Y-83772295D01*
X128941809Y-83010390D02*
X128989428Y-82867533D01*
X128989428Y-82867533D02*
X129037047Y-82819914D01*
X129037047Y-82819914D02*
X129132285Y-82772295D01*
X129132285Y-82772295D02*
X129275142Y-82772295D01*
X129275142Y-82772295D02*
X129370380Y-82819914D01*
X129370380Y-82819914D02*
X129418000Y-82867533D01*
X129418000Y-82867533D02*
X129465619Y-82962771D01*
X129465619Y-82962771D02*
X129465619Y-83343723D01*
X129465619Y-83343723D02*
X128465619Y-83343723D01*
X128465619Y-83343723D02*
X128465619Y-83010390D01*
X128465619Y-83010390D02*
X128513238Y-82915152D01*
X128513238Y-82915152D02*
X128560857Y-82867533D01*
X128560857Y-82867533D02*
X128656095Y-82819914D01*
X128656095Y-82819914D02*
X128751333Y-82819914D01*
X128751333Y-82819914D02*
X128846571Y-82867533D01*
X128846571Y-82867533D02*
X128894190Y-82915152D01*
X128894190Y-82915152D02*
X128941809Y-83010390D01*
X128941809Y-83010390D02*
X128941809Y-83343723D01*
X129465619Y-81581818D02*
X128465619Y-81581818D01*
X128941809Y-81581818D02*
X128941809Y-81010390D01*
X129465619Y-81010390D02*
X128465619Y-81010390D01*
X129465619Y-80391342D02*
X129418000Y-80486580D01*
X129418000Y-80486580D02*
X129370380Y-80534199D01*
X129370380Y-80534199D02*
X129275142Y-80581818D01*
X129275142Y-80581818D02*
X128989428Y-80581818D01*
X128989428Y-80581818D02*
X128894190Y-80534199D01*
X128894190Y-80534199D02*
X128846571Y-80486580D01*
X128846571Y-80486580D02*
X128798952Y-80391342D01*
X128798952Y-80391342D02*
X128798952Y-80248485D01*
X128798952Y-80248485D02*
X128846571Y-80153247D01*
X128846571Y-80153247D02*
X128894190Y-80105628D01*
X128894190Y-80105628D02*
X128989428Y-80058009D01*
X128989428Y-80058009D02*
X129275142Y-80058009D01*
X129275142Y-80058009D02*
X129370380Y-80105628D01*
X129370380Y-80105628D02*
X129418000Y-80153247D01*
X129418000Y-80153247D02*
X129465619Y-80248485D01*
X129465619Y-80248485D02*
X129465619Y-80391342D01*
X129418000Y-79677056D02*
X129465619Y-79581818D01*
X129465619Y-79581818D02*
X129465619Y-79391342D01*
X129465619Y-79391342D02*
X129418000Y-79296104D01*
X129418000Y-79296104D02*
X129322761Y-79248485D01*
X129322761Y-79248485D02*
X129275142Y-79248485D01*
X129275142Y-79248485D02*
X129179904Y-79296104D01*
X129179904Y-79296104D02*
X129132285Y-79391342D01*
X129132285Y-79391342D02*
X129132285Y-79534199D01*
X129132285Y-79534199D02*
X129084666Y-79629437D01*
X129084666Y-79629437D02*
X128989428Y-79677056D01*
X128989428Y-79677056D02*
X128941809Y-79677056D01*
X128941809Y-79677056D02*
X128846571Y-79629437D01*
X128846571Y-79629437D02*
X128798952Y-79534199D01*
X128798952Y-79534199D02*
X128798952Y-79391342D01*
X128798952Y-79391342D02*
X128846571Y-79296104D01*
X128798952Y-78962770D02*
X128798952Y-78581818D01*
X128465619Y-78819913D02*
X129322761Y-78819913D01*
X129322761Y-78819913D02*
X129418000Y-78772294D01*
X129418000Y-78772294D02*
X129465619Y-78677056D01*
X129465619Y-78677056D02*
X129465619Y-78581818D01*
X130238095Y-73284819D02*
X130238095Y-74094342D01*
X130238095Y-74094342D02*
X130285714Y-74189580D01*
X130285714Y-74189580D02*
X130333333Y-74237200D01*
X130333333Y-74237200D02*
X130428571Y-74284819D01*
X130428571Y-74284819D02*
X130619047Y-74284819D01*
X130619047Y-74284819D02*
X130714285Y-74237200D01*
X130714285Y-74237200D02*
X130761904Y-74189580D01*
X130761904Y-74189580D02*
X130809523Y-74094342D01*
X130809523Y-74094342D02*
X130809523Y-73284819D01*
X131238095Y-74237200D02*
X131380952Y-74284819D01*
X131380952Y-74284819D02*
X131619047Y-74284819D01*
X131619047Y-74284819D02*
X131714285Y-74237200D01*
X131714285Y-74237200D02*
X131761904Y-74189580D01*
X131761904Y-74189580D02*
X131809523Y-74094342D01*
X131809523Y-74094342D02*
X131809523Y-73999104D01*
X131809523Y-73999104D02*
X131761904Y-73903866D01*
X131761904Y-73903866D02*
X131714285Y-73856247D01*
X131714285Y-73856247D02*
X131619047Y-73808628D01*
X131619047Y-73808628D02*
X131428571Y-73761009D01*
X131428571Y-73761009D02*
X131333333Y-73713390D01*
X131333333Y-73713390D02*
X131285714Y-73665771D01*
X131285714Y-73665771D02*
X131238095Y-73570533D01*
X131238095Y-73570533D02*
X131238095Y-73475295D01*
X131238095Y-73475295D02*
X131285714Y-73380057D01*
X131285714Y-73380057D02*
X131333333Y-73332438D01*
X131333333Y-73332438D02*
X131428571Y-73284819D01*
X131428571Y-73284819D02*
X131666666Y-73284819D01*
X131666666Y-73284819D02*
X131809523Y-73332438D01*
X132571428Y-73761009D02*
X132714285Y-73808628D01*
X132714285Y-73808628D02*
X132761904Y-73856247D01*
X132761904Y-73856247D02*
X132809523Y-73951485D01*
X132809523Y-73951485D02*
X132809523Y-74094342D01*
X132809523Y-74094342D02*
X132761904Y-74189580D01*
X132761904Y-74189580D02*
X132714285Y-74237200D01*
X132714285Y-74237200D02*
X132619047Y-74284819D01*
X132619047Y-74284819D02*
X132238095Y-74284819D01*
X132238095Y-74284819D02*
X132238095Y-73284819D01*
X132238095Y-73284819D02*
X132571428Y-73284819D01*
X132571428Y-73284819D02*
X132666666Y-73332438D01*
X132666666Y-73332438D02*
X132714285Y-73380057D01*
X132714285Y-73380057D02*
X132761904Y-73475295D01*
X132761904Y-73475295D02*
X132761904Y-73570533D01*
X132761904Y-73570533D02*
X132714285Y-73665771D01*
X132714285Y-73665771D02*
X132666666Y-73713390D01*
X132666666Y-73713390D02*
X132571428Y-73761009D01*
X132571428Y-73761009D02*
X132238095Y-73761009D01*
X130296666Y-98276033D02*
X130296666Y-97576033D01*
X130296666Y-97576033D02*
X130463333Y-97576033D01*
X130463333Y-97576033D02*
X130563333Y-97609366D01*
X130563333Y-97609366D02*
X130630000Y-97676033D01*
X130630000Y-97676033D02*
X130663333Y-97742700D01*
X130663333Y-97742700D02*
X130696666Y-97876033D01*
X130696666Y-97876033D02*
X130696666Y-97976033D01*
X130696666Y-97976033D02*
X130663333Y-98109366D01*
X130663333Y-98109366D02*
X130630000Y-98176033D01*
X130630000Y-98176033D02*
X130563333Y-98242700D01*
X130563333Y-98242700D02*
X130463333Y-98276033D01*
X130463333Y-98276033D02*
X130296666Y-98276033D01*
X130896666Y-97576033D02*
X131130000Y-98276033D01*
X131130000Y-98276033D02*
X131363333Y-97576033D01*
X131796666Y-97576033D02*
X131796666Y-98076033D01*
X131796666Y-98076033D02*
X131763333Y-98176033D01*
X131763333Y-98176033D02*
X131696666Y-98242700D01*
X131696666Y-98242700D02*
X131596666Y-98276033D01*
X131596666Y-98276033D02*
X131530000Y-98276033D01*
X132429999Y-97576033D02*
X132296666Y-97576033D01*
X132296666Y-97576033D02*
X132229999Y-97609366D01*
X132229999Y-97609366D02*
X132196666Y-97642700D01*
X132196666Y-97642700D02*
X132129999Y-97742700D01*
X132129999Y-97742700D02*
X132096666Y-97876033D01*
X132096666Y-97876033D02*
X132096666Y-98142700D01*
X132096666Y-98142700D02*
X132129999Y-98209366D01*
X132129999Y-98209366D02*
X132163333Y-98242700D01*
X132163333Y-98242700D02*
X132229999Y-98276033D01*
X132229999Y-98276033D02*
X132363333Y-98276033D01*
X132363333Y-98276033D02*
X132429999Y-98242700D01*
X132429999Y-98242700D02*
X132463333Y-98209366D01*
X132463333Y-98209366D02*
X132496666Y-98142700D01*
X132496666Y-98142700D02*
X132496666Y-97976033D01*
X132496666Y-97976033D02*
X132463333Y-97909366D01*
X132463333Y-97909366D02*
X132429999Y-97876033D01*
X132429999Y-97876033D02*
X132363333Y-97842700D01*
X132363333Y-97842700D02*
X132229999Y-97842700D01*
X132229999Y-97842700D02*
X132163333Y-97876033D01*
X132163333Y-97876033D02*
X132129999Y-97909366D01*
X132129999Y-97909366D02*
X132096666Y-97976033D01*
X132763333Y-98076033D02*
X133096666Y-98076033D01*
X132696666Y-98276033D02*
X132930000Y-97576033D01*
X132930000Y-97576033D02*
X133163333Y-98276033D01*
X131954819Y-127749047D02*
X130954819Y-127749047D01*
X130954819Y-127749047D02*
X131669104Y-127415714D01*
X131669104Y-127415714D02*
X130954819Y-127082381D01*
X130954819Y-127082381D02*
X131954819Y-127082381D01*
X131954819Y-126606190D02*
X131288152Y-126606190D01*
X130954819Y-126606190D02*
X131002438Y-126653809D01*
X131002438Y-126653809D02*
X131050057Y-126606190D01*
X131050057Y-126606190D02*
X131002438Y-126558571D01*
X131002438Y-126558571D02*
X130954819Y-126606190D01*
X130954819Y-126606190D02*
X131050057Y-126606190D01*
X131907200Y-125701429D02*
X131954819Y-125796667D01*
X131954819Y-125796667D02*
X131954819Y-125987143D01*
X131954819Y-125987143D02*
X131907200Y-126082381D01*
X131907200Y-126082381D02*
X131859580Y-126130000D01*
X131859580Y-126130000D02*
X131764342Y-126177619D01*
X131764342Y-126177619D02*
X131478628Y-126177619D01*
X131478628Y-126177619D02*
X131383390Y-126130000D01*
X131383390Y-126130000D02*
X131335771Y-126082381D01*
X131335771Y-126082381D02*
X131288152Y-125987143D01*
X131288152Y-125987143D02*
X131288152Y-125796667D01*
X131288152Y-125796667D02*
X131335771Y-125701429D01*
X131954819Y-125272857D02*
X131288152Y-125272857D01*
X131478628Y-125272857D02*
X131383390Y-125225238D01*
X131383390Y-125225238D02*
X131335771Y-125177619D01*
X131335771Y-125177619D02*
X131288152Y-125082381D01*
X131288152Y-125082381D02*
X131288152Y-124987143D01*
X131954819Y-124510952D02*
X131907200Y-124606190D01*
X131907200Y-124606190D02*
X131859580Y-124653809D01*
X131859580Y-124653809D02*
X131764342Y-124701428D01*
X131764342Y-124701428D02*
X131478628Y-124701428D01*
X131478628Y-124701428D02*
X131383390Y-124653809D01*
X131383390Y-124653809D02*
X131335771Y-124606190D01*
X131335771Y-124606190D02*
X131288152Y-124510952D01*
X131288152Y-124510952D02*
X131288152Y-124368095D01*
X131288152Y-124368095D02*
X131335771Y-124272857D01*
X131335771Y-124272857D02*
X131383390Y-124225238D01*
X131383390Y-124225238D02*
X131478628Y-124177619D01*
X131478628Y-124177619D02*
X131764342Y-124177619D01*
X131764342Y-124177619D02*
X131859580Y-124225238D01*
X131859580Y-124225238D02*
X131907200Y-124272857D01*
X131907200Y-124272857D02*
X131954819Y-124368095D01*
X131954819Y-124368095D02*
X131954819Y-124510952D01*
X131907200Y-123034761D02*
X131954819Y-122891904D01*
X131954819Y-122891904D02*
X131954819Y-122653809D01*
X131954819Y-122653809D02*
X131907200Y-122558571D01*
X131907200Y-122558571D02*
X131859580Y-122510952D01*
X131859580Y-122510952D02*
X131764342Y-122463333D01*
X131764342Y-122463333D02*
X131669104Y-122463333D01*
X131669104Y-122463333D02*
X131573866Y-122510952D01*
X131573866Y-122510952D02*
X131526247Y-122558571D01*
X131526247Y-122558571D02*
X131478628Y-122653809D01*
X131478628Y-122653809D02*
X131431009Y-122844285D01*
X131431009Y-122844285D02*
X131383390Y-122939523D01*
X131383390Y-122939523D02*
X131335771Y-122987142D01*
X131335771Y-122987142D02*
X131240533Y-123034761D01*
X131240533Y-123034761D02*
X131145295Y-123034761D01*
X131145295Y-123034761D02*
X131050057Y-122987142D01*
X131050057Y-122987142D02*
X131002438Y-122939523D01*
X131002438Y-122939523D02*
X130954819Y-122844285D01*
X130954819Y-122844285D02*
X130954819Y-122606190D01*
X130954819Y-122606190D02*
X131002438Y-122463333D01*
X131954819Y-122034761D02*
X130954819Y-122034761D01*
X130954819Y-122034761D02*
X130954819Y-121796666D01*
X130954819Y-121796666D02*
X131002438Y-121653809D01*
X131002438Y-121653809D02*
X131097676Y-121558571D01*
X131097676Y-121558571D02*
X131192914Y-121510952D01*
X131192914Y-121510952D02*
X131383390Y-121463333D01*
X131383390Y-121463333D02*
X131526247Y-121463333D01*
X131526247Y-121463333D02*
X131716723Y-121510952D01*
X131716723Y-121510952D02*
X131811961Y-121558571D01*
X131811961Y-121558571D02*
X131907200Y-121653809D01*
X131907200Y-121653809D02*
X131954819Y-121796666D01*
X131954819Y-121796666D02*
X131954819Y-122034761D01*
X131919456Y-88366009D02*
X132252789Y-88366009D01*
X132395646Y-88889819D02*
X131919456Y-88889819D01*
X131919456Y-88889819D02*
X131919456Y-87889819D01*
X131919456Y-87889819D02*
X132395646Y-87889819D01*
X132681361Y-88223152D02*
X133062313Y-88223152D01*
X132824218Y-87889819D02*
X132824218Y-88746961D01*
X132824218Y-88746961D02*
X132871837Y-88842200D01*
X132871837Y-88842200D02*
X132967075Y-88889819D01*
X132967075Y-88889819D02*
X133062313Y-88889819D01*
X133395647Y-88889819D02*
X133395647Y-87889819D01*
X133824218Y-88889819D02*
X133824218Y-88366009D01*
X133824218Y-88366009D02*
X133776599Y-88270771D01*
X133776599Y-88270771D02*
X133681361Y-88223152D01*
X133681361Y-88223152D02*
X133538504Y-88223152D01*
X133538504Y-88223152D02*
X133443266Y-88270771D01*
X133443266Y-88270771D02*
X133395647Y-88318390D01*
X134681361Y-88842200D02*
X134586123Y-88889819D01*
X134586123Y-88889819D02*
X134395647Y-88889819D01*
X134395647Y-88889819D02*
X134300409Y-88842200D01*
X134300409Y-88842200D02*
X134252790Y-88746961D01*
X134252790Y-88746961D02*
X134252790Y-88366009D01*
X134252790Y-88366009D02*
X134300409Y-88270771D01*
X134300409Y-88270771D02*
X134395647Y-88223152D01*
X134395647Y-88223152D02*
X134586123Y-88223152D01*
X134586123Y-88223152D02*
X134681361Y-88270771D01*
X134681361Y-88270771D02*
X134728980Y-88366009D01*
X134728980Y-88366009D02*
X134728980Y-88461247D01*
X134728980Y-88461247D02*
X134252790Y-88556485D01*
X135157552Y-88889819D02*
X135157552Y-88223152D01*
X135157552Y-88413628D02*
X135205171Y-88318390D01*
X135205171Y-88318390D02*
X135252790Y-88270771D01*
X135252790Y-88270771D02*
X135348028Y-88223152D01*
X135348028Y-88223152D02*
X135443266Y-88223152D01*
X135776600Y-88223152D02*
X135776600Y-88889819D01*
X135776600Y-88318390D02*
X135824219Y-88270771D01*
X135824219Y-88270771D02*
X135919457Y-88223152D01*
X135919457Y-88223152D02*
X136062314Y-88223152D01*
X136062314Y-88223152D02*
X136157552Y-88270771D01*
X136157552Y-88270771D02*
X136205171Y-88366009D01*
X136205171Y-88366009D02*
X136205171Y-88889819D01*
X137062314Y-88842200D02*
X136967076Y-88889819D01*
X136967076Y-88889819D02*
X136776600Y-88889819D01*
X136776600Y-88889819D02*
X136681362Y-88842200D01*
X136681362Y-88842200D02*
X136633743Y-88746961D01*
X136633743Y-88746961D02*
X136633743Y-88366009D01*
X136633743Y-88366009D02*
X136681362Y-88270771D01*
X136681362Y-88270771D02*
X136776600Y-88223152D01*
X136776600Y-88223152D02*
X136967076Y-88223152D01*
X136967076Y-88223152D02*
X137062314Y-88270771D01*
X137062314Y-88270771D02*
X137109933Y-88366009D01*
X137109933Y-88366009D02*
X137109933Y-88461247D01*
X137109933Y-88461247D02*
X136633743Y-88556485D01*
X137395648Y-88223152D02*
X137776600Y-88223152D01*
X137538505Y-87889819D02*
X137538505Y-88746961D01*
X137538505Y-88746961D02*
X137586124Y-88842200D01*
X137586124Y-88842200D02*
X137681362Y-88889819D01*
X137681362Y-88889819D02*
X137776600Y-88889819D01*
X128416666Y-99546033D02*
X128416666Y-98846033D01*
X128416666Y-98846033D02*
X128650000Y-99346033D01*
X128650000Y-99346033D02*
X128883333Y-98846033D01*
X128883333Y-98846033D02*
X128883333Y-99546033D01*
X129216666Y-99546033D02*
X129216666Y-98846033D01*
X129549999Y-99546033D02*
X129549999Y-98846033D01*
X129549999Y-98846033D02*
X129783333Y-99346033D01*
X129783333Y-99346033D02*
X130016666Y-98846033D01*
X130016666Y-98846033D02*
X130016666Y-99546033D01*
X130283333Y-98846033D02*
X130749999Y-99546033D01*
X130749999Y-98846033D02*
X130283333Y-99546033D01*
X131416666Y-99546033D02*
X131183333Y-99212700D01*
X131016666Y-99546033D02*
X131016666Y-98846033D01*
X131016666Y-98846033D02*
X131283333Y-98846033D01*
X131283333Y-98846033D02*
X131350000Y-98879366D01*
X131350000Y-98879366D02*
X131383333Y-98912700D01*
X131383333Y-98912700D02*
X131416666Y-98979366D01*
X131416666Y-98979366D02*
X131416666Y-99079366D01*
X131416666Y-99079366D02*
X131383333Y-99146033D01*
X131383333Y-99146033D02*
X131350000Y-99179366D01*
X131350000Y-99179366D02*
X131283333Y-99212700D01*
X131283333Y-99212700D02*
X131016666Y-99212700D01*
X131616666Y-98846033D02*
X132016666Y-98846033D01*
X131816666Y-99546033D02*
X131816666Y-98846033D01*
X132616666Y-99546033D02*
X132216666Y-99546033D01*
X132416666Y-99546033D02*
X132416666Y-98846033D01*
X132416666Y-98846033D02*
X132349999Y-98946033D01*
X132349999Y-98946033D02*
X132283333Y-99012700D01*
X132283333Y-99012700D02*
X132216666Y-99046033D01*
X133050000Y-98846033D02*
X133116666Y-98846033D01*
X133116666Y-98846033D02*
X133183333Y-98879366D01*
X133183333Y-98879366D02*
X133216666Y-98912700D01*
X133216666Y-98912700D02*
X133250000Y-98979366D01*
X133250000Y-98979366D02*
X133283333Y-99112700D01*
X133283333Y-99112700D02*
X133283333Y-99279366D01*
X133283333Y-99279366D02*
X133250000Y-99412700D01*
X133250000Y-99412700D02*
X133216666Y-99479366D01*
X133216666Y-99479366D02*
X133183333Y-99512700D01*
X133183333Y-99512700D02*
X133116666Y-99546033D01*
X133116666Y-99546033D02*
X133050000Y-99546033D01*
X133050000Y-99546033D02*
X132983333Y-99512700D01*
X132983333Y-99512700D02*
X132950000Y-99479366D01*
X132950000Y-99479366D02*
X132916666Y-99412700D01*
X132916666Y-99412700D02*
X132883333Y-99279366D01*
X132883333Y-99279366D02*
X132883333Y-99112700D01*
X132883333Y-99112700D02*
X132916666Y-98979366D01*
X132916666Y-98979366D02*
X132950000Y-98912700D01*
X132950000Y-98912700D02*
X132983333Y-98879366D01*
X132983333Y-98879366D02*
X133050000Y-98846033D01*
X133883333Y-98846033D02*
X133750000Y-98846033D01*
X133750000Y-98846033D02*
X133683333Y-98879366D01*
X133683333Y-98879366D02*
X133650000Y-98912700D01*
X133650000Y-98912700D02*
X133583333Y-99012700D01*
X133583333Y-99012700D02*
X133550000Y-99146033D01*
X133550000Y-99146033D02*
X133550000Y-99412700D01*
X133550000Y-99412700D02*
X133583333Y-99479366D01*
X133583333Y-99479366D02*
X133616667Y-99512700D01*
X133616667Y-99512700D02*
X133683333Y-99546033D01*
X133683333Y-99546033D02*
X133816667Y-99546033D01*
X133816667Y-99546033D02*
X133883333Y-99512700D01*
X133883333Y-99512700D02*
X133916667Y-99479366D01*
X133916667Y-99479366D02*
X133950000Y-99412700D01*
X133950000Y-99412700D02*
X133950000Y-99246033D01*
X133950000Y-99246033D02*
X133916667Y-99179366D01*
X133916667Y-99179366D02*
X133883333Y-99146033D01*
X133883333Y-99146033D02*
X133816667Y-99112700D01*
X133816667Y-99112700D02*
X133683333Y-99112700D01*
X133683333Y-99112700D02*
X133616667Y-99146033D01*
X133616667Y-99146033D02*
X133583333Y-99179366D01*
X133583333Y-99179366D02*
X133550000Y-99246033D01*
X134216667Y-98912700D02*
X134250000Y-98879366D01*
X134250000Y-98879366D02*
X134316667Y-98846033D01*
X134316667Y-98846033D02*
X134483334Y-98846033D01*
X134483334Y-98846033D02*
X134550000Y-98879366D01*
X134550000Y-98879366D02*
X134583334Y-98912700D01*
X134583334Y-98912700D02*
X134616667Y-98979366D01*
X134616667Y-98979366D02*
X134616667Y-99046033D01*
X134616667Y-99046033D02*
X134583334Y-99146033D01*
X134583334Y-99146033D02*
X134183334Y-99546033D01*
X134183334Y-99546033D02*
X134616667Y-99546033D01*
D13*
%TO.C,R3*%
X153860436Y-72765000D02*
X154314564Y-72765000D01*
X153860436Y-74235000D02*
X154314564Y-74235000D01*
%TO.C,J5*%
X140955000Y-72645000D02*
X140955000Y-71375000D01*
X142225000Y-72645000D02*
X140955000Y-72645000D01*
D14*
%TO.C,C3*%
X161750000Y-87383000D02*
X161750000Y-84823000D01*
X167250000Y-87383000D02*
X167250000Y-84823000D01*
D13*
%TO.C,C2*%
X171984400Y-80738548D02*
X171984400Y-81261052D01*
X173454400Y-80738548D02*
X173454400Y-81261052D01*
%TO.C,C7*%
X142711252Y-73740662D02*
X142188748Y-73740662D01*
X142711252Y-75210662D02*
X142188748Y-75210662D01*
%TO.C,C5*%
X161711252Y-90765000D02*
X161188748Y-90765000D01*
X161711252Y-92235000D02*
X161188748Y-92235000D01*
%TO.C,J10*%
X114180000Y-114660000D02*
X115510000Y-114660000D01*
X114180000Y-115990000D02*
X114180000Y-114660000D01*
X114180000Y-117260000D02*
X114180000Y-122400000D01*
X114180000Y-117260000D02*
X116840000Y-117260000D01*
X114180000Y-122400000D02*
X116840000Y-122400000D01*
X116840000Y-117260000D02*
X116840000Y-122400000D01*
%TO.C,C4*%
X158590000Y-87211252D02*
X158590000Y-85788748D01*
X160410000Y-87211252D02*
X160410000Y-85788748D01*
%TO.C,J11*%
X114190000Y-124570000D02*
X115520000Y-124570000D01*
X114190000Y-125900000D02*
X114190000Y-124570000D01*
X114190000Y-127170000D02*
X114190000Y-132310000D01*
X114190000Y-127170000D02*
X116850000Y-127170000D01*
X114190000Y-132310000D02*
X116850000Y-132310000D01*
X116850000Y-127170000D02*
X116850000Y-132310000D01*
%TO.C,J7*%
X158075000Y-68200000D02*
X158075000Y-68640000D01*
X158075000Y-71360000D02*
X158075000Y-71800000D01*
X158075000Y-71800000D02*
X163925000Y-71800000D01*
X159765000Y-68200000D02*
X158075000Y-68200000D01*
X159765000Y-68200000D02*
X159765000Y-66400000D01*
X162235000Y-68200000D02*
X163925000Y-68200000D01*
X163925000Y-68200000D02*
X163925000Y-68640000D01*
X163925000Y-71800000D02*
X163925000Y-71360000D01*
%TO.C,R4*%
X170272936Y-72765000D02*
X170727064Y-72765000D01*
X170272936Y-74235000D02*
X170727064Y-74235000D01*
%TO.C,J9*%
X114210000Y-104920000D02*
X115540000Y-104920000D01*
X114210000Y-106250000D02*
X114210000Y-104920000D01*
X114210000Y-107520000D02*
X114210000Y-112660000D01*
X114210000Y-107520000D02*
X116870000Y-107520000D01*
X114210000Y-112660000D02*
X116870000Y-112660000D01*
X116870000Y-107520000D02*
X116870000Y-112660000D01*
%TO.C,R2*%
X175842336Y-73864800D02*
X176296464Y-73864800D01*
X175842336Y-75334800D02*
X176296464Y-75334800D01*
D15*
%TO.C,U1*%
X173736400Y-78914800D02*
G75*
G02*
X173536400Y-78914800I-100000J0D01*
G01*
X173536400Y-78914800D02*
G75*
G02*
X173736400Y-78914800I100000J0D01*
G01*
D13*
%TO.C,C1*%
X168180452Y-74893400D02*
X166757948Y-74893400D01*
X168180452Y-77613400D02*
X166757948Y-77613400D01*
%TO.C,J12*%
X168160000Y-136710000D02*
X168160000Y-139370000D01*
X173300000Y-136710000D02*
X168160000Y-136710000D01*
X173300000Y-136710000D02*
X173300000Y-139370000D01*
X173300000Y-139370000D02*
X168160000Y-139370000D01*
X174570000Y-136710000D02*
X175900000Y-136710000D01*
X175900000Y-136710000D02*
X175900000Y-138040000D01*
%TO.C,J8*%
X114240000Y-95605000D02*
X115570000Y-95605000D01*
X114240000Y-96935000D02*
X114240000Y-95605000D01*
X114240000Y-98205000D02*
X114240000Y-103345000D01*
X114240000Y-98205000D02*
X116900000Y-98205000D01*
X114240000Y-103345000D02*
X116900000Y-103345000D01*
X116900000Y-98205000D02*
X116900000Y-103345000D01*
D16*
%TO.C,U2*%
X156847200Y-95326426D02*
X156847200Y-99034826D01*
X156847200Y-99034826D02*
X163552800Y-99034826D01*
X163552800Y-95326426D02*
X156847200Y-95326426D01*
X163552800Y-99034826D02*
X163552800Y-95326426D01*
D13*
%TO.C,J13*%
X157750000Y-136740000D02*
X157750000Y-139400000D01*
X162890000Y-136740000D02*
X157750000Y-136740000D01*
X162890000Y-136740000D02*
X162890000Y-139400000D01*
X162890000Y-139400000D02*
X157750000Y-139400000D01*
X164160000Y-136740000D02*
X165490000Y-136740000D01*
X165490000Y-136740000D02*
X165490000Y-138070000D01*
%TO.C,C6*%
X154090000Y-94288748D02*
X154090000Y-95711252D01*
X155910000Y-94288748D02*
X155910000Y-95711252D01*
%TO.C,J6*%
X114170000Y-90730000D02*
X114170000Y-83050000D01*
X116830000Y-83050000D02*
X114170000Y-83050000D01*
X116830000Y-90730000D02*
X114170000Y-90730000D01*
X116830000Y-90730000D02*
X116830000Y-83050000D01*
X116830000Y-92000000D02*
X116830000Y-93330000D01*
X116830000Y-93330000D02*
X115500000Y-93330000D01*
%TO.C,D2*%
X173863600Y-79461800D02*
X173863600Y-81161800D01*
X173863600Y-79461800D02*
X176413600Y-79461800D01*
X173863600Y-81161800D02*
X176413600Y-81161800D01*
D11*
%TO.C,U3*%
X122610000Y-70020000D02*
X140390000Y-70020000D01*
X122610000Y-130980000D02*
X122610000Y-70020000D01*
X125150000Y-92880000D02*
X125150000Y-105580000D01*
X125150000Y-105580000D02*
X137850000Y-105580000D01*
X125150000Y-118280000D02*
X125150000Y-130980000D01*
X125660800Y-76319200D02*
X128200800Y-76319200D01*
X125660800Y-89019200D02*
X125660800Y-76319200D01*
X126420000Y-129710000D02*
X126420000Y-130980000D01*
X127690000Y-68750000D02*
X135310000Y-68750000D01*
X127690000Y-70020000D02*
X127690000Y-68750000D01*
X127690000Y-75100000D02*
X127690000Y-70020000D01*
X127690000Y-75100000D02*
X135310000Y-75100000D01*
X128200800Y-76319200D02*
X128200800Y-78859200D01*
X128200800Y-76319200D02*
X128200800Y-89019200D01*
X128200800Y-78859200D02*
X125660800Y-78859200D01*
X128200800Y-89019200D02*
X125660800Y-89019200D01*
X130230000Y-110660000D02*
X132770000Y-110660000D01*
X130230000Y-114470000D02*
X130230000Y-110660000D01*
X131601600Y-83250000D02*
X131601600Y-87250000D01*
X131601600Y-87250000D02*
X137851600Y-87250000D01*
X132770000Y-110660000D02*
X132770000Y-114470000D01*
X132770000Y-114470000D02*
X130230000Y-114470000D01*
X135310000Y-68750000D02*
X135310000Y-70020000D01*
X135310000Y-75100000D02*
X135310000Y-70020000D01*
X136580000Y-129710000D02*
X126420000Y-129710000D01*
X136580000Y-130980000D02*
X136580000Y-129710000D01*
X137601600Y-83250000D02*
X131601600Y-83250000D01*
X137850000Y-92880000D02*
X125150000Y-92880000D01*
X137850000Y-105580000D02*
X137850000Y-92880000D01*
X137850000Y-118280000D02*
X125150000Y-118280000D01*
X137850000Y-130980000D02*
X137850000Y-118280000D01*
X137851600Y-83250000D02*
X137601600Y-83250000D01*
X137851600Y-87250000D02*
X137851600Y-83250000D01*
X140390000Y-70020000D02*
X140390000Y-130980000D01*
X140390000Y-130980000D02*
X122610000Y-130980000D01*
X132398026Y-112565000D02*
G75*
G02*
X130601974Y-112565000I-898026J0D01*
G01*
X130601974Y-112565000D02*
G75*
G02*
X132398026Y-112565000I898026J0D01*
G01*
D17*
X131426000Y-102681000D02*
X131045000Y-102935000D01*
X130791000Y-102681000D01*
X131172000Y-102427000D01*
X131426000Y-102681000D01*
G36*
X131426000Y-102681000D02*
G01*
X131045000Y-102935000D01*
X130791000Y-102681000D01*
X131172000Y-102427000D01*
X131426000Y-102681000D01*
G37*
X131553000Y-101919000D02*
X131172000Y-102173000D01*
X130918000Y-101919000D01*
X131299000Y-101665000D01*
X131553000Y-101919000D01*
G36*
X131553000Y-101919000D02*
G01*
X131172000Y-102173000D01*
X130918000Y-101919000D01*
X131299000Y-101665000D01*
X131553000Y-101919000D01*
G37*
X131807000Y-103062000D02*
X131426000Y-103316000D01*
X131172000Y-103062000D01*
X131553000Y-102808000D01*
X131807000Y-103062000D01*
G36*
X131807000Y-103062000D02*
G01*
X131426000Y-103316000D01*
X131172000Y-103062000D01*
X131553000Y-102808000D01*
X131807000Y-103062000D01*
G37*
X131934000Y-102300000D02*
X131553000Y-102554000D01*
X131299000Y-102300000D01*
X131680000Y-102046000D01*
X131934000Y-102300000D01*
G36*
X131934000Y-102300000D02*
G01*
X131553000Y-102554000D01*
X131299000Y-102300000D01*
X131680000Y-102046000D01*
X131934000Y-102300000D01*
G37*
X132061000Y-101538000D02*
X131680000Y-101792000D01*
X131426000Y-101538000D01*
X131807000Y-101284000D01*
X132061000Y-101538000D01*
G36*
X132061000Y-101538000D02*
G01*
X131680000Y-101792000D01*
X131426000Y-101538000D01*
X131807000Y-101284000D01*
X132061000Y-101538000D01*
G37*
X132188000Y-103443000D02*
X131807000Y-103697000D01*
X131553000Y-103443000D01*
X131934000Y-103189000D01*
X132188000Y-103443000D01*
G36*
X132188000Y-103443000D02*
G01*
X131807000Y-103697000D01*
X131553000Y-103443000D01*
X131934000Y-103189000D01*
X132188000Y-103443000D01*
G37*
X132442000Y-101919000D02*
X132061000Y-102173000D01*
X131807000Y-101919000D01*
X132188000Y-101665000D01*
X132442000Y-101919000D01*
G36*
X132442000Y-101919000D02*
G01*
X132061000Y-102173000D01*
X131807000Y-101919000D01*
X132188000Y-101665000D01*
X132442000Y-101919000D01*
G37*
X132569000Y-101157000D02*
X132188000Y-101411000D01*
X131934000Y-101157000D01*
X132315000Y-100903000D01*
X132569000Y-101157000D01*
G36*
X132569000Y-101157000D02*
G01*
X132188000Y-101411000D01*
X131934000Y-101157000D01*
X132315000Y-100903000D01*
X132569000Y-101157000D01*
G37*
D13*
%TO.C,J3*%
X166695000Y-68200000D02*
X166695000Y-68640000D01*
X166695000Y-71360000D02*
X166695000Y-71800000D01*
X166695000Y-71800000D02*
X172545000Y-71800000D01*
X168385000Y-68200000D02*
X166695000Y-68200000D01*
X168385000Y-68200000D02*
X168385000Y-66400000D01*
X170855000Y-68200000D02*
X172545000Y-68200000D01*
X172545000Y-68200000D02*
X172545000Y-68640000D01*
X172545000Y-71800000D02*
X172545000Y-71360000D01*
D14*
%TO.C,L1*%
X168477879Y-83435396D02*
X169207879Y-83435396D01*
X168477879Y-87135396D02*
X168477879Y-83435396D01*
X169207879Y-87135396D02*
X168477879Y-87135396D01*
X171247879Y-83435396D02*
X171327879Y-83435396D01*
X171327879Y-83435396D02*
X171977879Y-84085396D01*
X171327879Y-87135396D02*
X171247879Y-87135396D01*
X171977879Y-84085396D02*
X171977879Y-86485396D01*
X171977879Y-86485396D02*
X171327879Y-87135396D01*
D15*
X170327879Y-82535396D02*
G75*
G02*
X170127879Y-82535396I-100000J0D01*
G01*
X170127879Y-82535396D02*
G75*
G02*
X170327879Y-82535396I100000J0D01*
G01*
D13*
%TO.C,R1*%
X175136600Y-77744864D02*
X175136600Y-77290736D01*
X176606600Y-77744864D02*
X176606600Y-77290736D01*
%TO.C,J14*%
X147760000Y-136750000D02*
X147760000Y-139410000D01*
X152900000Y-136750000D02*
X147760000Y-136750000D01*
X152900000Y-136750000D02*
X152900000Y-139410000D01*
X152900000Y-139410000D02*
X147760000Y-139410000D01*
X154170000Y-136750000D02*
X155500000Y-136750000D01*
X155500000Y-136750000D02*
X155500000Y-138080000D01*
%TO.C,C8*%
X141265000Y-77238748D02*
X141265000Y-77761252D01*
X142735000Y-77238748D02*
X142735000Y-77761252D01*
%TO.C,J15*%
X136950000Y-136700000D02*
X136950000Y-139360000D01*
X142090000Y-136700000D02*
X136950000Y-136700000D01*
X142090000Y-136700000D02*
X142090000Y-139360000D01*
X142090000Y-139360000D02*
X136950000Y-139360000D01*
X143360000Y-136700000D02*
X144690000Y-136700000D01*
X144690000Y-136700000D02*
X144690000Y-138030000D01*
%TO.C,J2*%
X148950000Y-68200000D02*
X148950000Y-68640000D01*
X148950000Y-71360000D02*
X148950000Y-71800000D01*
X148950000Y-71800000D02*
X154800000Y-71800000D01*
X150640000Y-68200000D02*
X148950000Y-68200000D01*
X150640000Y-68200000D02*
X150640000Y-66400000D01*
X153110000Y-68200000D02*
X154800000Y-68200000D01*
X154800000Y-68200000D02*
X154800000Y-68640000D01*
X154800000Y-71800000D02*
X154800000Y-71360000D01*
%TO.C,J4*%
X113340000Y-73765000D02*
X113340000Y-78235000D01*
X113340000Y-78235000D02*
X116760000Y-78235000D01*
X113850000Y-74275000D02*
X113850000Y-76000000D01*
X113850000Y-77725000D02*
X113850000Y-76000000D01*
X114700000Y-74075000D02*
X114700000Y-74275000D01*
X114700000Y-74275000D02*
X113850000Y-74275000D01*
X114700000Y-77725000D02*
X113850000Y-77725000D01*
X114700000Y-77925000D02*
X114700000Y-77725000D01*
X115500000Y-74075000D02*
X114700000Y-74075000D01*
X115500000Y-74275000D02*
X115500000Y-74075000D01*
X115500000Y-77725000D02*
X115500000Y-77925000D01*
X115500000Y-77925000D02*
X114700000Y-77925000D01*
X116250000Y-74275000D02*
X115500000Y-74275000D01*
X116250000Y-76000000D02*
X116250000Y-74275000D01*
X116250000Y-76000000D02*
X116250000Y-77725000D01*
X116250000Y-77725000D02*
X115500000Y-77725000D01*
X116760000Y-73765000D02*
X113340000Y-73765000D01*
X116760000Y-78235000D02*
X116760000Y-73765000D01*
X117050000Y-78525000D02*
X116050000Y-78525000D01*
X117050000Y-78525000D02*
X117050000Y-77525000D01*
%TD*%
M02*
