%TF.GenerationSoftware,KiCad,Pcbnew,9.0.0*%
%TF.CreationDate,2025-03-31T19:53:22-05:00*%
%TF.ProjectId,HASP_Power_System,48415350-5f50-46f7-9765-725f53797374,rev?*%
%TF.SameCoordinates,Original*%
%TF.FileFunction,Paste,Top*%
%TF.FilePolarity,Positive*%
%FSLAX46Y46*%
G04 Gerber Fmt 4.6, Leading zero omitted, Abs format (unit mm)*
G04 Created by KiCad (PCBNEW 9.0.0) date 2025-03-31 19:53:22*
%MOMM*%
%LPD*%
G01*
G04 APERTURE LIST*
G04 Aperture macros list*
%AMRoundRect*
0 Rectangle with rounded corners*
0 $1 Rounding radius*
0 $2 $3 $4 $5 $6 $7 $8 $9 X,Y pos of 4 corners*
0 Add a 4 corners polygon primitive as box body*
4,1,4,$2,$3,$4,$5,$6,$7,$8,$9,$2,$3,0*
0 Add four circle primitives for the rounded corners*
1,1,$1+$1,$2,$3*
1,1,$1+$1,$4,$5*
1,1,$1+$1,$6,$7*
1,1,$1+$1,$8,$9*
0 Add four rect primitives between the rounded corners*
20,1,$1+$1,$2,$3,$4,$5,0*
20,1,$1+$1,$4,$5,$6,$7,0*
20,1,$1+$1,$6,$7,$8,$9,0*
20,1,$1+$1,$8,$9,$2,$3,0*%
G04 Aperture macros list end*
%ADD10C,0.000000*%
%ADD11RoundRect,0.250000X-0.262500X-0.450000X0.262500X-0.450000X0.262500X0.450000X-0.262500X0.450000X0*%
%ADD12R,5.520000X2.000000*%
%ADD13RoundRect,0.250000X-0.475000X0.250000X-0.475000X-0.250000X0.475000X-0.250000X0.475000X0.250000X0*%
%ADD14RoundRect,0.250000X0.250000X0.475000X-0.250000X0.475000X-0.250000X-0.475000X0.250000X-0.475000X0*%
%ADD15RoundRect,0.250000X0.650000X-0.325000X0.650000X0.325000X-0.650000X0.325000X-0.650000X-0.325000X0*%
%ADD16R,0.700000X1.800000*%
%ADD17R,1.600000X2.200000*%
%ADD18R,2.500000X1.700000*%
%ADD19RoundRect,0.150000X0.512500X0.150000X-0.512500X0.150000X-0.512500X-0.150000X0.512500X-0.150000X0*%
%ADD20RoundRect,0.250000X0.325000X1.100000X-0.325000X1.100000X-0.325000X-1.100000X0.325000X-1.100000X0*%
%ADD21R,0.838200X1.600200*%
%ADD22RoundRect,0.250000X-0.650000X0.325000X-0.650000X-0.325000X0.650000X-0.325000X0.650000X0.325000X0*%
%ADD23RoundRect,0.450000X-1.050000X-1.050000X1.050000X-1.050000X1.050000X1.050000X-1.050000X1.050000X0*%
%ADD24R,0.600000X0.450000*%
%ADD25R,1.400000X1.000000*%
%ADD26RoundRect,0.250000X0.450000X-0.262500X0.450000X0.262500X-0.450000X0.262500X-0.450000X-0.262500X0*%
G04 APERTURE END LIST*
D10*
%TO.C,U2*%
G36*
X161774800Y-101181126D02*
G01*
X158625200Y-101181126D01*
X158625200Y-99580926D01*
X161774800Y-99580926D01*
X161774800Y-101181126D01*
G37*
%TD*%
D11*
%TO.C,R3*%
X153175000Y-73500000D03*
X155000000Y-73500000D03*
%TD*%
D12*
%TO.C,C3*%
X164500000Y-88706000D03*
X164500000Y-83500000D03*
%TD*%
D13*
%TO.C,C2*%
X172719400Y-80049800D03*
X172719400Y-81949800D03*
%TD*%
D14*
%TO.C,C7*%
X143400000Y-74475662D03*
X141500000Y-74475662D03*
%TD*%
%TO.C,C5*%
X162400000Y-91500000D03*
X160500000Y-91500000D03*
%TD*%
D15*
%TO.C,C4*%
X159500000Y-87975000D03*
X159500000Y-85025000D03*
%TD*%
D16*
%TO.C,J7*%
X160375000Y-67300000D03*
X161625000Y-67300000D03*
D17*
X158125000Y-70000000D03*
X163875000Y-70000000D03*
%TD*%
D18*
%TO.C,D1*%
X169894400Y-80264800D03*
X165894400Y-80264800D03*
%TD*%
D11*
%TO.C,R4*%
X169587500Y-73500000D03*
X171412500Y-73500000D03*
%TD*%
%TO.C,R2*%
X175156900Y-74599800D03*
X176981900Y-74599800D03*
%TD*%
D19*
%TO.C,U1*%
X172963100Y-78415200D03*
X172963100Y-77465200D03*
X172963100Y-76515200D03*
X170688100Y-76515200D03*
X170688100Y-77465200D03*
X170688100Y-78415200D03*
%TD*%
D20*
%TO.C,C1*%
X168944200Y-76253400D03*
X165994200Y-76253400D03*
%TD*%
D21*
%TO.C,U2*%
X162500000Y-93980226D03*
X160200000Y-93980226D03*
X157900000Y-93980226D03*
%TD*%
D22*
%TO.C,C6*%
X155000000Y-93525000D03*
X155000000Y-96475000D03*
%TD*%
D23*
%TO.C,J16*%
X176750000Y-69000000D03*
X182250000Y-69000000D03*
%TD*%
D24*
%TO.C,D2*%
X174313600Y-80311800D03*
X176413600Y-80311800D03*
%TD*%
D16*
%TO.C,J3*%
X168995000Y-67300000D03*
X170245000Y-67300000D03*
D17*
X166745000Y-70000000D03*
X172495000Y-70000000D03*
%TD*%
D25*
%TO.C,L1*%
X170227879Y-83635396D03*
X170227879Y-86935396D03*
%TD*%
D26*
%TO.C,R1*%
X175871600Y-78430300D03*
X175871600Y-76605300D03*
%TD*%
D13*
%TO.C,C8*%
X142000000Y-76550000D03*
X142000000Y-78450000D03*
%TD*%
D16*
%TO.C,J2*%
X151250000Y-67300000D03*
X152500000Y-67300000D03*
D17*
X149000000Y-70000000D03*
X154750000Y-70000000D03*
%TD*%
M02*
